<svg id="Capa_1" enable-background="new 0 0 510 510" height="512" viewBox="0 0 510 510" width="512" xmlns="http://www.w3.org/2000/svg" xmlns:xlink="http://www.w3.org/1999/xlink"><linearGradient id="SVGID_1_" gradientTransform="matrix(.996 -.089 .089 .996 -25.774 -70.673)" gradientUnits="userSpaceOnUse" x1="-28.805" x2="543.277" y1="349.268" y2="349.268"><stop offset="0" stop-color="#ffdcbd"/><stop offset=".0028" stop-color="#ffdcbd"/><stop offset="1" stop-color="#ffa9b1"/></linearGradient><linearGradient id="SVGID_3_" gradientTransform="matrix(.996 -.089 .089 .996 -25.774 -70.673)" gradientUnits="userSpaceOnUse" x1="10.687" x2="460.529" y1="349.268" y2="349.268"><stop offset="0" stop-color="#ffc2b5"/><stop offset="1" stop-color="#ff89a8"/></linearGradient><linearGradient id="lg1"><stop offset="0" stop-color="#fe646f"/><stop offset=".593" stop-color="#fb2b3a"/><stop offset="1" stop-color="#c41926"/></linearGradient><linearGradient id="SVGID_4_" gradientTransform="matrix(.996 -.089 .089 .996 -25.774 -70.673)" gradientUnits="userSpaceOnUse" x1="-2.387" x2="526.875" xlink:href="#lg1" y1="385.971" y2="385.971"/><linearGradient id="SVGID_5_" gradientTransform="matrix(.996 -.089 .089 .996 -25.774 -70.673)" gradientUnits="userSpaceOnUse" x1="-2.387" x2="526.875" xlink:href="#lg1" y1="308.343" y2="308.343"/><linearGradient id="SVGID_6_" gradientTransform="matrix(.996 -.089 .089 .996 -25.774 -70.673)" gradientUnits="userSpaceOnUse" x1="47.34" x2="362.795" xlink:href="#lg1" y1="140.694" y2="140.694"/><linearGradient id="SVGID_7_" gradientTransform="matrix(.996 -.089 .089 .996 -25.774 -70.673)" gradientUnits="userSpaceOnUse" x1="-196.633" x2="462.718" xlink:href="#lg1" y1="385.971" y2="385.971"/><g><path d="m500.456 159.61-24.731 17.752c-26.609 19.1-47.637 44.957-60.912 74.901l-1.262 2.846c-13.981 31.533-36.543 58.502-65.114 77.829l-.296.2c-28.569 19.326-51.132 46.294-65.112 77.825-14.073 31.741-36.84 58.852-65.669 78.201l-24.961 16.753c-8.091 5.431-18.734 5.144-26.521-.714l-156.747-117.92c-12.345-9.287-12.137-27.885.413-36.893l24.731-17.752c26.609-19.1 47.637-44.957 60.912-74.901l1.262-2.846c13.981-31.533 36.543-58.502 65.114-77.829l.296-.2c28.569-19.326 51.132-46.294 65.112-77.825 14.073-31.741 36.84-58.852 65.669-78.201l24.961-16.753c8.092-5.431 18.734-5.144 26.521.714l156.747 117.919c12.345 9.288 12.137 27.885-.413 36.894z" fill="url(#SVGID_1_)"/><path d="m500.456 159.61-24.731 17.752c-26.609 19.1-47.637 44.957-60.912 74.901l-1.262 2.846c-13.981 31.533-36.543 58.502-65.114 77.829l-.296.2c-28.569 19.326-51.132 46.294-65.112 77.825-14.073 31.741-36.84 58.852-65.669 78.201l-24.961 16.753c-8.091 5.431-18.734 5.144-26.521-.714l-156.747-117.92c-12.345-9.287-12.137-27.885.413-36.893l24.731-17.752c26.609-19.1 47.637-44.957 60.912-74.901l1.262-2.846c13.981-31.533 36.543-58.502 65.114-77.829l.296-.2c28.569-19.326 51.132-46.294 65.112-77.825 14.073-31.741 36.84-58.852 65.669-78.201l24.961-16.753c8.092-5.431 18.734-5.144 26.521.714l156.747 117.919c12.345 9.288 12.137 27.885-.413 36.894z" fill="url(#SVGID_1_)"/><path d="m500.869 122.717-156.747-117.919c-7.787-5.858-18.43-6.145-26.521-.714l-10.892 7.311 67.993 51.151c10.343 7.781 11.048 23.419.972 31.544-.341.275-.693.543-1.054.802l-24.731 17.752c-26.609 19.1-47.637 44.957-60.912 74.901l-1.262 2.846c-13.975 31.522-36.527 58.482-65.083 77.808l-1.247.844c-28.385 19.21-50.39 46.251-64.348 77.554-14.085 31.589-36.79 58.571-65.513 77.849l-17.437 11.703 28.543 21.472 4.803-3.449c32.062-23.007 57.391-54.151 73.375-90.224l1.528-3.429c16.833-37.982 44.012-70.467 78.436-93.752l.353-.235c17.207-11.636 32.602-25.59 45.808-41.363 13.194-15.783 24.212-33.399 32.628-52.39 15.016-33.874 38.279-63.366 67.543-85.859l52.467 39.471c12.345 9.287 12.137 27.884-.413 36.893l-24.731 17.753c-26.606 19.099-47.633 44.953-60.909 74.892l-1.255 2.829c-13.986 31.54-36.551 58.516-65.125 77.853l-.296.2c-28.569 19.326-51.132 46.294-65.112 77.825-14.073 31.741-36.84 58.852-65.669 78.201l-14.068 9.442 3.885 2.923c7.788 5.858 18.43 6.145 26.522.714l24.961-16.753c28.829-19.349 51.596-46.46 65.669-78.201 13.981-31.532 36.543-58.499 65.112-77.825l.296-.2c28.578-19.348 51.148-46.333 65.138-77.882l1.242-2.8c13.276-29.94 34.303-55.794 60.909-74.892l24.731-17.752c12.548-9.01 12.756-27.607.411-36.894z" fill="url(#SVGID_3_)"/><g><path d="m500.872 122.721-43.752-32.907-32.427-24.398c-.376.221-.749.462-1.113.702l-27.629 18.548c-31.92 21.416-57.135 51.44-72.711 86.578-7.736 17.455-17.862 33.645-29.989 48.152-12.139 14.497-26.288 27.322-42.103 38.017l-.324.216c-31.64 21.401-56.621 51.259-72.092 86.169l-1.405 3.152c-14.691 33.155-37.972 61.78-67.44 82.926l-22.584 16.217 32.192 24.211 46.384 34.9c7.792 5.86 18.426 6.141 26.524.709l24.96-16.751c14.419-9.676 27.313-21.287 38.364-34.449 11.061-13.164 20.268-27.879 27.302-43.752 13.983-31.532 36.548-58.492 65.117-77.82l.294-.203c28.569-19.329 51.133-46.298 65.116-77.831l1.256-2.837c13.281-29.951 34.311-55.807 60.914-74.909l24.736-17.75c12.542-9.012 12.75-27.607.41-36.89z" fill="url(#SVGID_4_)"/><path d="m148.732 318.048 1.397-3.151c15.479-34.913 40.46-64.771 72.092-86.17l.328-.222c31.631-21.397 56.611-51.255 72.09-86.166 15.582-35.142 40.788-65.159 72.707-86.581l23.528-15.791-32.245-24.258-21.724 14.58c-31.919 21.423-57.126 51.439-72.707 86.581-15.479 34.911-40.459 64.768-72.09 86.166l-.328.222c-31.632 21.398-56.613 51.257-72.092 86.17l-1.397 3.151c-14.699 33.152-37.98 61.78-67.44 82.928l-27.381 19.655c-.659.473-1.278.977-1.875 1.496l32.097 24.146c.076-.056.143-.119.219-.174l27.381-19.655c29.46-21.146 52.741-49.774 67.44-82.927z" fill="url(#SVGID_5_)"/><path d="m366.482 56.361c.29-.197.572-.406.863-.602l23.528-15.791-32.245-24.258-21.724 14.58c-.89.597-1.755 1.226-2.635 1.837z" fill="url(#SVGID_6_)"/></g><path d="m500.872 122.721-43.752-32.907-32.427-24.398c-.376.221-.749.462-1.113.702l-23.319 15.655 59.309 44.618c12.345 9.287 12.137 27.885-.413 36.893l-24.731 17.752c-26.609 19.1-47.637 44.957-60.912 74.901l-1.262 2.846c-13.981 31.533-36.543 58.502-65.114 77.829l-.296.2c-28.569 19.326-51.132 46.294-65.112 77.825-14.073 31.741-36.84 58.852-65.669 78.201l-14.068 9.442 3.885 2.923c7.792 5.86 18.426 6.141 26.524.709l24.96-16.751c14.419-9.676 27.313-21.287 38.364-34.449 11.061-13.164 20.268-27.879 27.302-43.752 13.983-31.532 36.548-58.492 65.117-77.82l.294-.203c28.569-19.329 51.133-46.298 65.116-77.831l1.256-2.837c13.281-29.951 34.311-55.807 60.914-74.909l24.736-17.75c12.543-9.011 12.751-27.606.411-36.889z" fill="url(#SVGID_7_)"/></g></svg>