<svg id="Capa_1" enable-background="new 0 0 510.002 510.002" height="512" viewBox="0 0 510.002 510.002" width="512" xmlns="http://www.w3.org/2000/svg" xmlns:xlink="http://www.w3.org/1999/xlink"><linearGradient id="SVGID_1_" gradientUnits="userSpaceOnUse" x1="-3.748" x2="133.375" y1="405.835" y2="405.835"><stop offset="0" stop-color="#f8f6f7"/><stop offset=".1788" stop-color="#f8f6f7"/><stop offset="1" stop-color="#e7e6f5"/></linearGradient><linearGradient id="SVGID_2_" gradientUnits="userSpaceOnUse" x1="-57.999" x2="171.683" y1="405.836" y2="405.836"><stop offset="0" stop-color="#f8f6f7"/><stop offset="1" stop-color="#d1ceeb"/></linearGradient><linearGradient id="lg1"><stop offset="0" stop-color="#fbc56d"/><stop offset=".593" stop-color="#c86d36"/><stop offset="1" stop-color="#904d24"/></linearGradient><linearGradient id="SVGID_3_" gradientUnits="userSpaceOnUse" x1="102.001" x2="560.005" xlink:href="#lg1" y1="193.387" y2="193.387"/><linearGradient id="SVGID_4_" gradientUnits="userSpaceOnUse" x1="70.001" x2="473.22" xlink:href="#lg1" y1="262.438" y2="262.438"/><linearGradient id="SVGID_5_" gradientUnits="userSpaceOnUse" x1="70.001" x2="473.22" xlink:href="#lg1" y1="106.625" y2="106.625"/><linearGradient id="SVGID_6_" gradientUnits="userSpaceOnUse" x1="70.001" x2="473.22" xlink:href="#lg1" y1="277.292" y2="277.292"/><linearGradient id="SVGID_7_" gradientUnits="userSpaceOnUse" x1="70.001" x2="473.22" xlink:href="#lg1" y1="80.292" y2="80.292"/><linearGradient id="SVGID_8_" gradientUnits="userSpaceOnUse" x1="70.001" x2="473.22" xlink:href="#lg1" y1="149.262" y2="149.262"/><linearGradient id="SVGID_9_" gradientUnits="userSpaceOnUse" x1="70.001" x2="473.22" xlink:href="#lg1" y1="198.649" y2="198.649"/><g><path d="m146.223 402.559 61.969-61.969-38.92-38.92-62.001 62.001c-8.092 8.092-20.683 9.424-30.37 3.332-8.575-5.393-18.895-8.265-29.925-7.571-24.817 1.562-44.99 21.485-46.833 46.283-1.957 26.346 16.426 48.792 41.07 53.256 5.027.911 8.907 4.79 9.817 9.817 4.464 24.642 26.907 43.025 53.251 41.07 24.829-1.842 44.768-22.063 46.293-46.914.678-11.046-2.22-21.378-7.644-29.954-6.131-9.695-4.819-22.32 3.293-30.431z" fill="url(#SVGID_1_)"/><path d="m146.221 402.56c-8.11 8.11-9.42 20.74-3.29 30.43 5.42 8.58 8.32 18.91 7.64 29.95-1.52 24.85-21.46 45.08-46.29 46.92-8.52.63-16.62-.86-23.85-4.01 16.85-7.37 28.95-23.77 30.12-42.91.68-11.04-2.22-21.37-7.64-29.95-6.13-9.69-4.82-22.32 3.29-30.43l13.224-13.224c7.012-7.012 8.147-18.009 2.647-26.261-1.936-2.904-3.683-5.898-5.241-8.965l52.44-52.44 38.92 38.92z" fill="url(#SVGID_2_)"/><path d="m503.699 164.577-.06-.119c-5.544-10.909-7.498-23.292-5.582-35.378 3.928-24.834-8.578-49.375-30.981-60.79-10.921-5.565-19.8-14.444-25.366-25.365-9.566-22.321-33.047-35.315-57.04-31.566l-3.853.602c-12.063 1.885-24.413-.078-35.297-5.609l-.096-.049c-22.375-11.373-49.524-7.077-67.295 10.646l-.111.111c-8.637 8.614-19.77 14.284-31.815 16.206l-.163.026c-24.769 3.951-44.195 23.37-48.155 48.138l-.029.182c-1.927 12.051-7.602 23.189-16.221 31.831l-.119.119c-17.723 17.771-22.007 44.923-10.617 67.287l.041.081c.041.081.082.162.123.244 6.432 12.794 3.689 28.308-6.436 38.434l-15.353 15.353c-34.729 34.729-34.729 91.036 0 125.765s91.036 34.729 125.765 0l15.353-15.353c10.126-10.126 25.64-12.868 38.434-6.436.081.041.163.082.244.123l.081.041c22.382 11.388 49.55 7.089 67.323-10.653l.083-.083c8.629-8.614 19.755-14.288 31.795-16.215l.198-.032c24.78-3.966 44.208-23.403 48.163-48.185l.019-.118c1.924-12.058 7.601-23.202 16.223-31.848l.096-.096c17.724-17.77 22.02-44.919 10.648-67.294z" fill="url(#SVGID_3_)"/><g><circle cx="316.568" cy="262.438" fill="url(#SVGID_4_)" r="13.167"/><path d="m356.067 119.792c7.272 0 13.167-5.895 13.167-13.167s-5.895-13.167-13.167-13.167-13.167 5.895-13.167 13.167c.001 7.272 5.896 13.167 13.167 13.167z" fill="url(#SVGID_5_)"/><path d="m195.025 290.459c7.272 0 13.167-5.895 13.167-13.167s-5.895-13.167-13.167-13.167-13.167 5.895-13.167 13.167c.001 7.272 5.896 13.167 13.167 13.167z" fill="url(#SVGID_6_)"/><path d="m284.599 93.459c7.272 0 13.167-5.895 13.167-13.167s-5.895-13.167-13.167-13.167-13.167 5.895-13.167 13.167 5.895 13.167 13.167 13.167z" fill="url(#SVGID_7_)"/><circle cx="266.514" cy="149.262" fill="url(#SVGID_8_)" r="25.062"/><path d="m503.699 164.577-.06-.119c-5.544-10.909-7.498-23.292-5.582-35.378 3.928-24.834-8.578-49.375-30.981-60.79-10.921-5.565-19.8-14.444-25.366-25.365-8.918-22.294-32.056-35.47-55.78-31.763l-5.114.799c-1.464.229-2.933.398-4.403.514 5.963 5.147 10.842 11.669 14.103 19.276 5.565 10.921 14.444 19.8 25.366 25.365 22.402 11.416 34.909 35.956 30.981 60.79-1.916 12.086.038 24.469 5.582 35.378l.06.119c11.369 22.37 7.078 49.513-10.637 67.285l-.107.107c-8.62 8.647-14.296 19.79-16.223 31.847l-.019.118c-3.696 23.163-20.911 41.652-43.377 47.209-1.9-13.669-14.284-23.984-28.773-22.543-12.252 1.219-22.162 11.04-23.478 23.282-.052.481-.09.96-.117 1.436-1.122 20.496-20.144 35.389-40.017 30.252-4.026-1.04-7.982-2.526-11.8-4.469l-.081-.041c-.087-.044-.174-.088-.262-.132-12.788-6.428-28.296-3.675-38.416 6.445l-15.353 15.353c-15.467 15.467-35.214 24.026-55.429 25.716 33.912 19.181 77.73 14.35 106.622-14.543l15.353-15.353c10.121-10.121 25.628-12.873 38.416-6.445.087.044.174.088.262.132l.081.041c22.381 11.392 49.55 7.094 67.321-10.651l.085-.085c8.624-8.611 19.744-14.284 31.777-16.212l.211-.034c24.78-3.969 44.208-23.405 48.167-48.186l.019-.118c1.927-12.057 7.603-23.2 16.223-31.847l.107-.107c17.717-17.77 22.008-44.913 10.639-67.283z" fill="url(#SVGID_9_)"/></g></g></svg>