<svg id="Capa_1" enable-background="new 0 0 510 510" height="512" viewBox="0 0 510 510" width="512" xmlns="http://www.w3.org/2000/svg" xmlns:xlink="http://www.w3.org/1999/xlink"><linearGradient id="lg1"><stop offset="0" stop-color="#fef056"/><stop offset=".5213" stop-color="#f4d902"/><stop offset="1" stop-color="#fe9738"/></linearGradient><linearGradient id="SVGID_1_" gradientUnits="userSpaceOnUse" x1="208" x2="402.579" xlink:href="#lg1" y1="95.775" y2="95.775"/><linearGradient id="SVGID_2_" gradientUnits="userSpaceOnUse" x1="98" x2="396.098" xlink:href="#lg1" y1="95.775" y2="95.775"/><linearGradient id="lg2"><stop offset="0" stop-color="#fe646f"/><stop offset=".593" stop-color="#fb2b3a"/><stop offset="1" stop-color="#c41926"/></linearGradient><linearGradient id="SVGID_3_" gradientUnits="userSpaceOnUse" x1="84.104" x2="468.788" xlink:href="#lg2" y1="339.104" y2="339.104"/><linearGradient id="SVGID_4_" gradientUnits="userSpaceOnUse" x1="-115" x2="420.034" xlink:href="#lg2" y1="339.105" y2="339.105"/><linearGradient id="lg3"><stop offset="0" stop-color="#f8f6f7"/><stop offset=".1788" stop-color="#f8f6f7"/><stop offset="1" stop-color="#e7e6f5"/></linearGradient><linearGradient id="SVGID_5_" gradientUnits="userSpaceOnUse" x1="53.027" x2="507.665" xlink:href="#lg3" y1="168.209" y2="168.209"/><linearGradient id="lg4"><stop offset="0" stop-color="#f8f6f7"/><stop offset="1" stop-color="#d1ceeb"/></linearGradient><linearGradient id="SVGID_6_" gradientUnits="userSpaceOnUse" x1="4.667" x2="364.179" xlink:href="#lg4" y1="179.79" y2="179.79"/><linearGradient id="SVGID_13_" gradientUnits="userSpaceOnUse" x1="4.667" x2="364.179" xlink:href="#lg4" y1="168.209" y2="168.209"/><linearGradient id="SVGID_14_" gradientUnits="userSpaceOnUse" x1="-29.637" x2="385.389" xlink:href="#lg3" y1="357.809" y2="357.809"/><linearGradient id="SVGID_15_" gradientUnits="userSpaceOnUse" x1="263" x2="395.302" xlink:href="#lg4" y1="307.326" y2="307.326"/><linearGradient id="lg5"><stop offset="0" stop-color="#60b7ff"/><stop offset=".5857" stop-color="#0182fc"/><stop offset="1" stop-color="#2740b0"/></linearGradient><linearGradient id="SVGID_16_" gradientUnits="userSpaceOnUse" x1="176.593" x2="381.227" xlink:href="#lg5" y1="366.651" y2="366.651"/><linearGradient id="SVGID_17_" gradientUnits="userSpaceOnUse" x1="55.073" x2="373.558" xlink:href="#lg5" y1="366.651" y2="366.651"/><g><path d="m255.002 191.549c-1.848 0-3.726-.295-5.574-.916-9.162-3.078-14.094-13-11.017-22.162l35.172-104.713c5.814-17.31 18.546-31.863 34.93-39.926l44.76-22.029c8.671-4.27 19.161-.699 23.429 7.974 4.268 8.671.698 19.161-7.974 23.429l-44.76 22.029c-8.071 3.973-14.342 11.141-17.207 19.668l-35.172 104.713c-2.456 7.314-9.276 11.933-16.587 11.933z" fill="url(#SVGID_1_)"/><path d="m376.701 9.777c-4.268-8.672-14.757-12.243-23.429-7.974l-5.549 2.731c1.596 1.443 2.959 3.195 3.967 5.242 4.268 8.671.698 19.161-7.974 23.429l-44.76 22.029c-8.071 3.973-14.342 11.141-17.207 19.668l-35.172 104.713c-.869 2.587-2.292 4.828-4.081 6.655 1.875 1.921 4.211 3.448 6.93 4.362 1.848.621 3.727.916 5.574.916 7.312 0 14.131-4.619 16.587-11.933l35.172-104.713c2.864-8.527 9.136-15.696 17.207-19.668l44.76-22.029c8.673-4.267 12.243-14.757 7.975-23.428z" fill="url(#SVGID_2_)"/><path d="m349.909 510h-189.818c-12.542 0-23.222-9.119-25.186-21.506l-50.801-320.285h341.791l-50.801 320.285c-1.964 12.386-12.644 21.506-25.185 21.506z" fill="url(#SVGID_3_)"/><path d="m425.9 168.21-50.81 320.28c-1.96 12.39-12.64 21.51-25.18 21.51h-40.02c12.54 0 23.22-9.12 25.18-21.51l28.409-179.083c6.678-42.093-25.85-80.187-68.469-80.187h-201.23l-3.97-25.01-5.71-36z" fill="url(#SVGID_4_)"/><path d="m431.497 204.209h-352.994c-14.07 0-25.477-11.406-25.477-25.477v-21.047c0-14.07 11.406-25.477 25.477-25.477h352.993c14.07 0 25.477 11.406 25.477 25.477v21.047c0 14.071-11.406 25.477-25.476 25.477z" fill="url(#SVGID_5_)"/><g><g fill="url(#SVGID_6_)"><path d="m106.5 155.37c-4.14 0-7.5 3.36-7.5 7.5v41.34h15v-41.34c0-4.14-3.36-7.5-7.5-7.5z"/><path d="m149 155.37c-4.14 0-7.5 3.36-7.5 7.5v41.34h15v-41.34c0-4.14-3.36-7.5-7.5-7.5z"/><path d="m191.5 155.37c-4.14 0-7.5 3.36-7.5 7.5v41.34h15v-41.34c0-4.14-3.36-7.5-7.5-7.5z"/><path d="m234 155.37c-4.14 0-7.5 3.36-7.5 7.5v41.34h15v-41.34c0-4.14-3.36-7.5-7.5-7.5z"/><path d="m276.5 155.37c-4.14 0-7.5 3.36-7.5 7.5v41.34h15v-41.34c0-4.14-3.36-7.5-7.5-7.5z"/><path d="m318.5 155.37c-4.14 0-7.5 3.36-7.5 7.5v41.34h15v-41.34c0-4.14-3.36-7.5-7.5-7.5z"/><path d="m361 155.37c-4.14 0-7.5 3.36-7.5 7.5v41.34h15v-41.34c0-4.14-3.36-7.5-7.5-7.5z"/></g><path d="m431.497 132.209h-40.02c14.07 0 25.477 11.406 25.477 25.477v21.047c0 .445-.011.887-.034 1.327-.195 3.798-5.919 3.575-5.919-.228v-16.708c0-3.813-2.739-7.212-6.522-7.691-4.576-.58-8.478 2.976-8.478 7.438v36.755c0 2.49-1.987 4.579-4.477 4.584-.015 0-.031 0-.046 0h40.02c14.07 0 25.477-11.406 25.477-25.477v-21.047c-.002-14.071-11.408-25.477-25.478-25.477z" fill="url(#SVGID_13_)"/></g><g><path d="m388.575 263.462-12.839 80.999c-.451 2.843-2.22 5.306-4.771 6.64l-206.37 107.966c-5.515 2.885-12.235-.492-13.209-6.64l-10.175-64.185c-.611-3.851 1.3-7.664 4.75-9.48l232.635-122.451c5.002-2.632 10.864 1.568 9.979 7.151z" fill="url(#SVGID_14_)"/><path d="m388.575 263.462c.885-5.582-4.977-9.783-9.979-7.15l-21.519 11.327c6.201 12.405 8.772 26.834 6.402 41.769l-7.89 49.739 15.377-8.045c2.551-1.335 4.32-3.797 4.771-6.64z" fill="url(#SVGID_15_)"/><g><circle cx="255" cy="366.651" fill="url(#SVGID_16_)" r="82.29"/><path d="m255 284.361c-5.331 0-10.538.525-15.587 1.494 37.991 7.287 66.703 40.68 66.703 80.796s-28.712 73.509-66.703 80.796c5.049.968 10.256 1.494 15.587 1.494 45.448 0 82.29-36.843 82.29-82.29s-36.842-82.29-82.29-82.29z" fill="url(#SVGID_17_)"/></g></g></g></svg>