<svg id="Capa_1" enable-background="new 0 0 510 510" height="512" viewBox="0 0 510 510" width="512" xmlns="http://www.w3.org/2000/svg" xmlns:xlink="http://www.w3.org/1999/xlink"><linearGradient id="lg1"><stop offset="0" stop-color="#fef056"/><stop offset=".5213" stop-color="#fbc56d"/><stop offset="1" stop-color="#c86d36"/></linearGradient><linearGradient id="SVGID_1_" gradientUnits="userSpaceOnUse" x1="255.559" x2="556.646" xlink:href="#lg1" y1="189.057" y2="189.057"/><linearGradient id="SVGID_2_" gradientUnits="userSpaceOnUse" x1="184" x2="523.713" xlink:href="#lg1" y1="189.057" y2="189.057"/><linearGradient id="SVGID_4_" gradientUnits="userSpaceOnUse" x1="128.75" x2="429.836" xlink:href="#lg1" y1="124.049" y2="124.049"/><linearGradient id="SVGID_5_" gradientUnits="userSpaceOnUse" x1="57.19" x2="396.903" xlink:href="#lg1" y1="124.049" y2="124.049"/><linearGradient id="SVGID_7_" gradientUnits="userSpaceOnUse" x1="1.94" x2="303.026" xlink:href="#lg1" y1="189.057" y2="189.057"/><linearGradient id="SVGID_8_" gradientUnits="userSpaceOnUse" x1="-69.619" x2="270.094" xlink:href="#lg1" y1="189.057" y2="189.057"/><linearGradient id="lg2"><stop offset="0" stop-color="#a2e62e"/><stop offset=".5857" stop-color="#81b823"/><stop offset="1" stop-color="#037e73"/></linearGradient><linearGradient id="SVGID_10_" gradientUnits="userSpaceOnUse" x1="54.891" x2="473.159" xlink:href="#lg2" y1="375.942" y2="375.942"/><linearGradient id="SVGID_11_" gradientUnits="userSpaceOnUse" x1="-71.69" x2="391.281" xlink:href="#lg2" y1="386.119" y2="386.119"/><linearGradient id="SVGID_12_" gradientUnits="userSpaceOnUse" x1="-71.69" x2="391.281" xlink:href="#lg2" y1="501.465" y2="501.465"/><g><g><path d="m501.979 163.779-.073-.103c-5.102-7.229-7.897-15.833-8.017-24.68l-.001-.103c-.253-18.561-12.169-34.952-29.747-40.918l-.065-.022c-8.405-2.853-15.746-8.189-21.052-15.304l-.007-.009c-11.116-14.903-30.423-21.174-48.175-15.648-8.487 2.642-17.576 2.642-26.063 0h-.001c-17.752-5.526-37.059.745-48.174 15.649l-.006.008c-5.307 7.115-12.648 12.451-21.053 15.304l-.065.022c-17.578 5.966-29.494 22.356-29.747 40.917l-.001.103c-.121 8.847-2.916 17.451-8.017 24.68l-.072.102c-10.695 15.156-10.695 35.402 0 50.557l.073.103c5.102 7.229 7.897 15.833 8.017 24.68l.001.103c.253 18.561 12.169 34.952 29.747 40.918l.065.022c8.405 2.853 15.746 8.189 21.052 15.304l.007.009c11.116 14.903 30.423 21.174 48.175 15.648 8.487-2.642 17.576-2.642 26.063 0h.001c17.752 5.526 37.059-.745 48.174-15.649l.006-.008c5.307-7.115 12.648-12.451 21.053-15.304l.065-.022c17.578-5.966 29.494-22.356 29.747-40.917l.001-.103c.121-8.847 2.916-17.451 8.017-24.68l.072-.102c10.695-15.156 10.695-35.402 0-50.557zm-59.279 38.087-.037.052c-2.585 3.663-4.001 8.023-4.062 12.506l-.001.052c-.128 9.405-6.166 17.71-15.073 20.733l-.033.011c-4.259 1.445-7.979 4.149-10.667 7.755l-.003.004c-5.632 7.552-15.415 10.729-24.41 7.929-4.3-1.339-8.906-1.339-13.206 0-8.995 2.8-18.778-.378-24.41-7.929l-.003-.005c-2.689-3.605-6.409-6.309-10.667-7.754l-.033-.011c-8.907-3.023-14.945-11.328-15.073-20.733l-.001-.052c-.061-4.483-1.477-8.842-4.062-12.506l-.037-.052c-5.419-7.679-5.419-17.938 0-25.618l.037-.052c2.585-3.663 4.001-8.023 4.062-12.506l.001-.052c.128-9.405 6.166-17.71 15.073-20.733l.033-.011c4.259-1.445 7.979-4.149 10.667-7.755l.003-.004c5.632-7.552 15.415-10.729 24.41-7.929 4.3 1.339 8.906 1.339 13.206 0 8.995-2.8 18.778.378 24.41 7.929l.003.005c2.689 3.605 6.409 6.309 10.667 7.754l.033.011c8.907 3.023 14.945 11.328 15.073 20.733l.001.052c.061 4.483 1.477 8.842 4.062 12.506l.037.052c5.419 7.68 5.419 17.939 0 25.618z" fill="url(#SVGID_1_)"/><g fill="url(#SVGID_2_)"><path d="m348.393 250.908c4.477 1.394 9.149 1.304 13.407-.066-4.297-1.383-8.174-4.07-11.003-7.863l-.003-.005c-2.689-3.605-6.409-6.309-10.667-7.754l-.033-.011c-8.907-3.023-14.945-11.328-15.073-20.733l-.001-.052c-.061-4.483-1.478-8.842-4.062-12.506l-.037-.052c-5.419-7.679-5.419-17.938 0-25.618l.036-.052c2.585-3.663 4.001-8.023 4.062-12.506l.001-.052c.128-9.405 6.166-17.71 15.073-20.733l.033-.011c4.259-1.445 7.979-4.149 10.667-7.755l.003-.004c2.829-3.793 6.706-6.48 11.004-7.863-4.259-1.37-8.93-1.46-13.407-.066-4.3 1.339-8.906 1.339-13.206 0-8.995-2.8-18.778.378-24.41 7.929l-.003.004c-2.689 3.605-6.409 6.309-10.667 7.755l-.033.011c-8.907 3.023-14.945 11.328-15.073 20.733l-.001.052c-.061 4.483-1.477 8.842-4.062 12.506l-.037.052c-5.419 7.679-5.419 17.938 0 25.618l.037.052c2.585 3.663 4.001 8.023 4.062 12.506l.001.052c.128 9.405 6.166 17.71 15.073 20.733l.033.011c4.259 1.445 7.978 4.149 10.667 7.754l.003.005c5.632 7.551 15.415 10.729 24.41 7.929 4.3-1.339 8.905-1.339 13.206 0z"/><path d="m501.979 163.779-.073-.103c-5.102-7.229-7.896-15.833-8.017-24.68l-.001-.103c-.253-18.561-12.169-34.952-29.747-40.918l-.065-.022c-8.405-2.853-15.746-8.189-21.052-15.304l-.007-.009c-11.116-14.903-30.423-21.174-48.175-15.648-3.002.934-6.079 1.531-9.179 1.805 6.72 2.986 12.73 7.672 17.333 13.843l.007.009c5.307 7.115 12.648 12.451 21.052 15.304l.065.022c17.578 5.966 29.494 22.356 29.747 40.918l.001.103c.121 8.847 2.916 17.451 8.017 24.68l.073.103c10.695 15.156 10.695 35.402 0 50.557l-.072.102c-5.102 7.229-7.897 15.833-8.018 24.68l-.001.103c-.253 18.561-12.169 34.951-29.747 40.917l-.065.022c-8.405 2.853-15.746 8.189-21.053 15.304l-.006.008c-4.603 6.172-10.613 10.857-17.333 13.844 3.099.273 6.177.87 9.179 1.805h.001c17.752 5.526 37.059-.745 48.174-15.649l.006-.008c5.307-7.115 12.648-12.451 21.053-15.304l.065-.022c17.578-5.966 29.494-22.356 29.747-40.917l.001-.103c.121-8.847 2.916-17.451 8.018-24.68l.072-.102c10.695-15.156 10.695-35.402 0-50.557z"/></g></g><g><path d="m375.169 98.77-.073-.103c-5.102-7.229-7.897-15.833-8.017-24.68l-.001-.103c-.253-18.561-12.169-34.952-29.747-40.918l-.065-.022c-8.405-2.853-15.746-8.189-21.052-15.304l-.007-.009c-11.117-14.902-30.424-21.173-48.176-15.647-8.487 2.642-17.576 2.642-26.063 0h-.001c-17.752-5.526-37.059.745-48.174 15.649l-.006.008c-5.307 7.115-12.648 12.451-21.053 15.304l-.065.022c-17.578 5.966-29.494 22.356-29.747 40.917l-.001.103c-.121 8.847-2.916 17.451-8.017 24.68l-.072.102c-10.695 15.156-10.695 35.402 0 50.557l.073.103c5.102 7.229 7.897 15.833 8.017 24.68l.001.103c.253 18.561 12.169 34.952 29.747 40.918l.065.022c8.405 2.853 15.746 8.189 21.052 15.304l.007.009c11.116 14.903 30.423 21.174 48.175 15.648 8.487-2.642 17.576-2.642 26.063 0h.001c17.752 5.526 37.059-.745 48.174-15.649l.006-.008c5.307-7.115 12.648-12.451 21.053-15.304l.065-.022c17.578-5.966 29.494-22.356 29.747-40.917l.001-.103c.121-8.847 2.916-17.451 8.017-24.68l.072-.102c10.696-15.156 10.696-35.402.001-50.558zm-59.279 38.088-.037.052c-2.585 3.663-4.001 8.023-4.062 12.506l-.001.052c-.128 9.405-6.166 17.71-15.073 20.733l-.033.011c-4.259 1.445-7.979 4.149-10.667 7.755l-.003.004c-5.632 7.552-15.415 10.729-24.41 7.929-4.3-1.339-8.906-1.339-13.206 0-8.995 2.8-18.778-.378-24.41-7.929l-.003-.005c-2.689-3.605-6.409-6.309-10.667-7.754l-.033-.011c-8.907-3.023-14.945-11.328-15.073-20.733l-.001-.052c-.061-4.483-1.477-8.842-4.062-12.506l-.037-.052c-5.419-7.679-5.419-17.938 0-25.618l.037-.052c2.585-3.663 4.001-8.023 4.062-12.506l.001-.052c.128-9.405 6.166-17.71 15.073-20.733l.033-.011c4.259-1.445 7.979-4.149 10.667-7.755l.003-.004c5.632-7.552 15.415-10.729 24.41-7.929 4.3 1.339 8.906 1.339 13.206 0 8.995-2.8 18.778.378 24.41 7.929l.003.005c2.689 3.605 6.409 6.309 10.667 7.754l.033.011c8.907 3.023 14.945 11.328 15.073 20.733l.001.052c.061 4.483 1.477 8.842 4.062 12.506l.037.052c5.42 7.679 5.419 17.938 0 25.618z" fill="url(#SVGID_4_)"/><g fill="url(#SVGID_5_)"><path d="m221.583 185.9c4.477 1.394 9.149 1.304 13.407-.066-4.297-1.383-8.174-4.07-11.003-7.863l-.003-.005c-2.689-3.605-6.409-6.309-10.667-7.754l-.033-.011c-8.907-3.023-14.945-11.328-15.073-20.733l-.001-.052c-.061-4.483-1.478-8.842-4.062-12.506l-.037-.052c-5.419-7.679-5.419-17.938 0-25.618l.036-.052c2.585-3.663 4.001-8.023 4.062-12.506l.001-.052c.128-9.405 6.166-17.71 15.073-20.733l.033-.011c4.259-1.445 7.979-4.149 10.667-7.755l.003-.004c2.829-3.793 6.706-6.48 11.004-7.863-4.259-1.37-8.93-1.46-13.407-.066-4.3 1.339-8.906 1.339-13.206 0-8.995-2.8-18.778.378-24.41 7.929l-.003.004c-2.689 3.605-6.409 6.309-10.667 7.755l-.033.011c-8.907 3.023-14.945 11.328-15.073 20.733l-.001.052c-.061 4.483-1.477 8.842-4.062 12.506l-.037.052c-5.419 7.679-5.419 17.938 0 25.618l.037.052c2.585 3.663 4.001 8.023 4.062 12.506l.001.052c.128 9.405 6.166 17.71 15.073 20.733l.033.011c4.259 1.445 7.978 4.149 10.667 7.754l.003.005c5.632 7.551 15.415 10.729 24.41 7.929 4.3-1.339 8.906-1.339 13.206 0z"/><path d="m375.169 98.77-.073-.103c-5.102-7.229-7.896-15.833-8.017-24.68l-.001-.103c-.253-18.561-12.169-34.952-29.747-40.918l-.065-.022c-8.405-2.853-15.746-8.189-21.052-15.304l-.007-.009c-11.117-14.902-30.424-21.173-48.176-15.647-3.002.934-6.079 1.531-9.179 1.805 6.72 2.986 12.73 7.672 17.333 13.843l.007.009c5.307 7.115 12.648 12.451 21.052 15.304l.065.022c17.578 5.966 29.494 22.356 29.747 40.918l.001.103c.121 8.847 2.916 17.451 8.017 24.68l.073.103c10.695 15.156 10.695 35.402 0 50.558l-.072.102c-5.102 7.229-7.897 15.833-8.018 24.68l-.001.103c-.253 18.561-12.169 34.951-29.747 40.917l-.065.022c-8.405 2.853-15.746 8.189-21.053 15.304l-.006.008c-4.603 6.172-10.613 10.857-17.333 13.844 3.099.273 6.177.87 9.179 1.805h.001c17.752 5.526 37.059-.745 48.174-15.649l.006-.008c5.307-7.115 12.648-12.451 21.053-15.304l.065-.022c17.578-5.966 29.494-22.356 29.747-40.917l.001-.103c.121-8.847 2.916-17.451 8.018-24.68l.072-.102c10.696-15.157 10.696-35.403.001-50.559z"/></g></g><g><path d="m248.359 163.779-.073-.103c-5.102-7.229-7.897-15.833-8.017-24.68l-.001-.103c-.253-18.561-12.169-34.952-29.747-40.918l-.065-.022c-8.405-2.853-15.746-8.189-21.052-15.304l-.007-.009c-11.116-14.903-30.423-21.174-48.175-15.648-8.487 2.642-17.576 2.642-26.063 0h-.001c-17.751-5.526-37.058.746-48.174 15.649l-.006.008c-5.307 7.115-12.648 12.451-21.053 15.304l-.065.022c-17.578 5.966-29.494 22.356-29.747 40.917l-.001.103c-.121 8.847-2.916 17.451-8.017 24.68l-.072.102c-10.695 15.156-10.695 35.402 0 50.557l.073.103c5.102 7.229 7.897 15.833 8.017 24.68l.001.103c.253 18.561 12.169 34.952 29.747 40.918l.065.022c8.405 2.853 15.746 8.189 21.052 15.304l.007.009c11.116 14.903 30.423 21.174 48.175 15.648 8.487-2.642 17.576-2.642 26.063 0h.001c17.752 5.526 37.059-.745 48.174-15.649l.006-.008c5.307-7.115 12.648-12.451 21.053-15.304l.065-.022c17.578-5.966 29.494-22.356 29.747-40.917l.001-.103c.121-8.847 2.916-17.451 8.017-24.68l.072-.102c10.695-15.156 10.696-35.402 0-50.557zm-59.279 38.087-.037.052c-2.585 3.663-4.001 8.023-4.062 12.506l-.001.052c-.128 9.405-6.166 17.71-15.073 20.733l-.033.011c-4.259 1.445-7.979 4.149-10.667 7.755l-.003.004c-5.632 7.552-15.415 10.729-24.41 7.929-4.3-1.339-8.906-1.339-13.206 0-8.995 2.8-18.778-.378-24.41-7.929l-.003-.005c-2.689-3.605-6.409-6.309-10.667-7.754l-.033-.011c-8.907-3.023-14.945-11.328-15.073-20.733l-.001-.052c-.061-4.483-1.477-8.842-4.062-12.506l-.037-.052c-5.419-7.679-5.419-17.938 0-25.618l.037-.052c2.585-3.663 4.001-8.023 4.062-12.506l.001-.052c.128-9.405 6.166-17.71 15.073-20.733l.033-.011c4.259-1.445 7.979-4.149 10.667-7.755l.003-.004c5.632-7.552 15.415-10.729 24.41-7.929 4.3 1.339 8.906 1.339 13.206 0 8.995-2.8 18.778.378 24.41 7.929l.003.005c2.689 3.605 6.409 6.309 10.667 7.754l.033.011c8.907 3.023 14.945 11.328 15.073 20.733l.001.052c.061 4.483 1.477 8.842 4.062 12.506l.037.052c5.42 7.68 5.42 17.939 0 25.618z" fill="url(#SVGID_7_)"/><g fill="url(#SVGID_8_)"><path d="m94.773 250.908c4.477 1.394 9.149 1.304 13.407-.066-4.297-1.383-8.174-4.07-11.003-7.863l-.003-.005c-2.689-3.605-6.409-6.309-10.667-7.754l-.033-.011c-8.907-3.023-14.945-11.328-15.073-20.733l-.001-.052c-.061-4.483-1.478-8.842-4.062-12.506l-.037-.052c-5.419-7.679-5.419-17.938 0-25.618l.036-.052c2.585-3.663 4.001-8.023 4.062-12.506l.001-.052c.128-9.405 6.166-17.71 15.073-20.733l.033-.011c4.259-1.445 7.979-4.149 10.667-7.755l.003-.004c2.829-3.793 6.706-6.48 11.004-7.863-4.259-1.37-8.93-1.46-13.407-.066-4.3 1.339-8.906 1.339-13.206 0-8.995-2.8-18.778.378-24.41 7.929l-.003.004c-2.689 3.605-6.409 6.309-10.667 7.755l-.033.011c-8.907 3.023-14.945 11.328-15.073 20.733l-.001.052c-.061 4.483-1.477 8.842-4.062 12.506l-.037.052c-5.419 7.679-5.419 17.938 0 25.618l.037.052c2.585 3.663 4.001 8.023 4.062 12.506l.001.052c.128 9.405 6.166 17.71 15.073 20.733l.033.011c4.259 1.445 7.978 4.149 10.667 7.754l.003.005c5.632 7.551 15.415 10.729 24.41 7.929 4.3-1.339 8.906-1.339 13.206 0z"/><path d="m248.359 163.779-.073-.103c-5.102-7.229-7.896-15.833-8.017-24.68l-.001-.103c-.253-18.561-12.169-34.952-29.747-40.918l-.065-.022c-8.405-2.853-15.746-8.189-21.052-15.304l-.007-.009c-11.116-14.903-30.423-21.174-48.175-15.648-3.002.934-6.079 1.531-9.179 1.805 6.72 2.986 12.73 7.672 17.333 13.843l.007.009c5.307 7.115 12.648 12.451 21.052 15.304l.065.022c17.578 5.966 29.494 22.356 29.747 40.918l.001.103c.121 8.847 2.916 17.451 8.017 24.68l.073.103c10.695 15.156 10.695 35.402 0 50.557l-.072.102c-5.102 7.229-7.897 15.833-8.018 24.68l-.001.103c-.253 18.561-12.169 34.951-29.747 40.917l-.065.022c-8.405 2.853-15.746 8.189-21.053 15.304l-.006.008c-4.603 6.172-10.613 10.857-17.333 13.844 3.099.273 6.177.87 9.179 1.805h.001c17.752 5.526 37.059-.745 48.174-15.649l.006-.008c5.307-7.115 12.648-12.451 21.053-15.304l.065-.022c17.578-5.966 29.494-22.356 29.747-40.917l.001-.103c.121-8.847 2.916-17.451 8.018-24.68l.072-.102c10.695-15.156 10.695-35.402 0-50.557z"/></g></g><path d="m472.34 299.756-58.73 198.606c-2.05 6.907-8.28 11.638-15.34 11.638h-14.73c-28.15 0-56.26-3.416-83.41-11.027-11.33-3.173-23.48-4.898-36.11-4.898-12.62 0-24.77 1.725-36.1 4.898-27.15 7.611-55.26 11.027-83.41 11.027h-14.73c-3.53 0-6.85-1.181-9.55-3.232-2.69-2.043-4.77-4.957-5.79-8.406l-58.73-198.606c-2.78-9.394 1.72-19.399 10.48-23.418 31.123-14.304 68.783-25.274 110.571-31.723 13.033-2.012 26.508 2.109 34.533 10.94 10.025 11.032 25.875 18.155 43.706 18.155 18.33 0 34.563-7.525 44.529-19.086 7.83-9.083 20.818-14.04 34.061-12.443 48.867 5.894 92.816 17.857 128.27 34.157 8.76 4.019 13.26 14.024 10.48 23.418z" fill="url(#SVGID_10_)"/><g><path d="m461.861 276.336c-11.206-5.151-23.262-9.867-36.051-14.098 6.032 5.213 8.779 14.036 6.467 22.415l-58.735 212.87c-1.616 5.86-5.857 10.244-11.054 11.825 7.006.438 14.028.651 21.054.651h14.727c7.064 0 13.295-4.728 15.338-11.64l58.735-198.604c2.777-9.39-1.727-19.395-10.481-23.419z" fill="url(#SVGID_11_)"/><path d="m187.851 498.183c-20.455 6.144-41.456 9.736-62.608 11.135 1.449.438 2.971.683 4.538.683h14.727c28.151 0 56.26-3.417 83.408-11.025 6.261-1.754 12.774-3.047 19.472-3.87-7.559-1.421-15.394-2.175-23.428-2.175-12.629-.001-24.772 1.846-36.109 5.252z" fill="url(#SVGID_12_)"/></g></g></svg>