<svg id="Capa_1" enable-background="new 0 0 510 510" height="512" viewBox="0 0 510 510" width="512" xmlns="http://www.w3.org/2000/svg" xmlns:xlink="http://www.w3.org/1999/xlink"><linearGradient id="lg1"><stop offset="0" stop-color="#fef056"/><stop offset=".5213" stop-color="#f4d902"/><stop offset="1" stop-color="#fe9738"/></linearGradient><linearGradient id="SVGID_1_" gradientUnits="userSpaceOnUse" x1="168.596" x2="335.032" xlink:href="#lg1" y1="99.105" y2="99.105"/><linearGradient id="SVGID_2_" gradientUnits="userSpaceOnUse" x1="298" x2="421.527" xlink:href="#lg1" y1="104.895" y2="104.895"/><linearGradient id="SVGID_3_" gradientUnits="userSpaceOnUse" x1="244.097" x2="402.147" xlink:href="#lg1" y1="104.895" y2="104.895"/><linearGradient id="SVGID_4_" gradientUnits="userSpaceOnUse" x1="238.295" x2="481.232" xlink:href="#lg1" y1="334.972" y2="334.972"/><linearGradient id="SVGID_5_" gradientUnits="userSpaceOnUse" x1="103.43" x2="470.824" xlink:href="#lg1" y1="334.97" y2="334.97"/><linearGradient id="SVGID_6_" gradientUnits="userSpaceOnUse" x1="209.527" x2="547.707" xlink:href="#lg1" y1="172.209" y2="172.209"/><linearGradient id="SVGID_7_" gradientUnits="userSpaceOnUse" x1="57.693" x2="417.205" xlink:href="#lg1" y1="183.79" y2="183.79"/><linearGradient id="SVGID_12_" gradientUnits="userSpaceOnUse" x1="57.693" x2="417.205" xlink:href="#lg1" y1="172.209" y2="172.209"/><linearGradient id="SVGID_13_" gradientUnits="userSpaceOnUse" x1="303.712" x2="426.095" xlink:href="#lg1" y1="24.749" y2="24.749"/><linearGradient id="SVGID_14_" gradientUnits="userSpaceOnUse" x1="258.763" x2="419.496" xlink:href="#lg1" y1="24.749" y2="24.749"/><linearGradient id="lg2"><stop offset="0" stop-color="#fe646f"/><stop offset=".593" stop-color="#fb2b3a"/><stop offset="1" stop-color="#c41926"/></linearGradient><linearGradient id="SVGID_15_" gradientUnits="userSpaceOnUse" x1="0" x2="166.436" xlink:href="#lg2" y1="99.105" y2="99.105"/><linearGradient id="SVGID_16_" gradientUnits="userSpaceOnUse" x1="129.404" x2="252.93" xlink:href="#lg2" y1="104.895" y2="104.895"/><linearGradient id="SVGID_17_" gradientUnits="userSpaceOnUse" x1="75.5" x2="233.551" xlink:href="#lg2" y1="104.895" y2="104.895"/><linearGradient id="SVGID_18_" gradientUnits="userSpaceOnUse" x1="69.698" x2="312.636" xlink:href="#lg2" y1="334.972" y2="334.972"/><linearGradient id="SVGID_19_" gradientUnits="userSpaceOnUse" x1="-65.166" x2="302.228" xlink:href="#lg2" y1="334.97" y2="334.97"/><linearGradient id="SVGID_20_" gradientUnits="userSpaceOnUse" x1="40.93" x2="379.111" xlink:href="#lg2" y1="172.209" y2="172.209"/><linearGradient id="SVGID_21_" gradientUnits="userSpaceOnUse" x1="-110.903" x2="248.609" xlink:href="#lg2" y1="183.79" y2="183.79"/><linearGradient id="SVGID_26_" gradientUnits="userSpaceOnUse" x1="-110.903" x2="248.609" xlink:href="#lg2" y1="172.209" y2="172.209"/><linearGradient id="SVGID_27_" gradientUnits="userSpaceOnUse" x1="135.116" x2="257.499" xlink:href="#lg2" y1="24.749" y2="24.749"/><linearGradient id="SVGID_28_" gradientUnits="userSpaceOnUse" x1="90.167" x2="250.9" xlink:href="#lg2" y1="24.749" y2="24.749"/><g><g><path d="m252.027 179.709h-2.826c-44.445 0-80.604-36.159-80.604-80.604s36.159-80.605 80.604-80.605h85.831v15h-85.831c-36.175 0-65.604 29.43-65.604 65.604s29.43 65.604 65.604 65.604h2.826z" fill="url(#SVGID_1_)"/><path d="m421.527 183.79h-123.527l37.032-157.79h49.463z" fill="url(#SVGID_2_)"/><path d="m421.523 183.79h-25.01l-18.901-80.528c-3.954-16.844-18.98-28.752-36.282-28.752h-17.676l11.379-48.51h49.46z" fill="url(#SVGID_3_)"/><path d="m448.996 510h-178.466c-17.803 0-32.236-14.432-32.236-32.236v-285.584c0-17.803 14.432-32.236 32.236-32.236h178.466c17.803 0 32.236 14.432 32.236 32.236v285.584c0 17.804-14.432 32.236-32.236 32.236z" fill="url(#SVGID_4_)"/><path d="m481.233 192.18v285.58c0 17.806-14.434 32.24-32.24 32.24h-40.02c17.81 0 32.24-14.43 32.24-32.24v-153.52c0-50.269-40.751-91.02-91.02-91.02h-111.9v-41.04c0-17.8 14.43-32.24 32.24-32.24h178.46c17.81 0 32.24 14.44 32.24 32.24z" fill="url(#SVGID_5_)"/><g><path d="m484.523 208.209h-249.52c-14.07 0-25.477-11.406-25.477-25.477v-21.047c0-14.07 11.406-25.477 25.477-25.477h249.52c14.07 0 25.477 11.406 25.477 25.477v21.047c0 14.071-11.406 25.477-25.477 25.477z" fill="url(#SVGID_6_)"/><g><g fill="url(#SVGID_7_)"><path d="m244.527 159.37c-4.14 0-7.5 3.36-7.5 7.5v41.34h15v-41.34c0-4.14-3.36-7.5-7.5-7.5z"/><path d="m287.027 159.37c-4.14 0-7.5 3.36-7.5 7.5v41.34h15v-41.34c0-4.14-3.36-7.5-7.5-7.5z"/><path d="m329.527 159.37c-4.14 0-7.5 3.36-7.5 7.5v41.34h15v-41.34c0-4.14-3.36-7.5-7.5-7.5z"/><path d="m371.527 159.37c-4.14 0-7.5 3.36-7.5 7.5v41.34h15v-41.34c0-4.14-3.36-7.5-7.5-7.5z"/><path d="m414.027 159.37c-4.14 0-7.5 3.36-7.5 7.5v41.34h15v-41.34c0-4.14-3.36-7.5-7.5-7.5z"/></g><path d="m484.523 136.209h-40.02c14.07 0 25.477 11.406 25.477 25.477v21.047c0 .445-.011.887-.034 1.327-.195 3.798-5.919 3.575-5.919-.228v-16.708c0-3.813-2.739-7.212-6.522-7.691-4.576-.58-8.478 2.976-8.478 7.438v36.755c0 2.49-1.987 4.579-4.477 4.584-.015 0-.031 0-.046 0h40.02c14.07 0 25.477-11.406 25.477-25.477v-21.047c-.001-14.071-11.407-25.477-25.478-25.477z" fill="url(#SVGID_12_)"/></g></g><path d="m390.015 49.498h-60.503c-13.668 0-24.749-11.08-24.749-24.749s11.081-24.749 24.749-24.749h60.503c13.668 0 24.749 11.08 24.749 24.749 0 13.668-11.081 24.749-24.749 24.749z" fill="url(#SVGID_13_)"/><path d="m390.015 0h-25.011c13.668 0 24.749 11.08 24.749 24.749 0 13.668-11.08 24.749-24.749 24.749h25.011c13.668 0 24.749-11.08 24.749-24.749s-11.081-24.749-24.749-24.749z" fill="url(#SVGID_14_)"/></g><g><path d="m83.431 179.709h-2.826c-44.446 0-80.605-36.159-80.605-80.605s36.159-80.604 80.604-80.604h85.831v15h-85.831c-36.174 0-65.604 29.43-65.604 65.604s29.43 65.604 65.604 65.604h2.826v15.001z" fill="url(#SVGID_15_)"/><path d="m252.93 183.79h-123.526l37.032-157.79h49.462z" fill="url(#SVGID_16_)"/><path d="m252.927 183.79h-25.01l-18.901-80.528c-3.954-16.844-18.98-28.752-36.282-28.752h-17.676l11.379-48.51h49.46z" fill="url(#SVGID_17_)"/><path d="m280.4 510h-178.466c-17.803 0-32.236-14.432-32.236-32.236v-285.584c0-17.803 14.432-32.236 32.236-32.236h178.466c17.803 0 32.236 14.432 32.236 32.236v285.584c0 17.804-14.433 32.236-32.236 32.236z" fill="url(#SVGID_18_)"/><path d="m312.637 192.18v285.58c0 17.806-14.434 32.24-32.24 32.24h-40.02c17.81 0 32.24-14.43 32.24-32.24v-153.52c0-50.269-40.751-91.02-91.02-91.02h-111.9v-41.04c0-17.8 14.43-32.24 32.24-32.24h178.46c17.81 0 32.24 14.44 32.24 32.24z" fill="url(#SVGID_19_)"/><g><path d="m315.927 208.209h-249.52c-14.07 0-25.477-11.406-25.477-25.477v-21.047c0-14.07 11.406-25.477 25.477-25.477h249.52c14.07 0 25.477 11.406 25.477 25.477v21.047c0 14.071-11.407 25.477-25.477 25.477z" fill="url(#SVGID_20_)"/><g><g fill="url(#SVGID_21_)"><path d="m75.93 159.37c-4.14 0-7.5 3.36-7.5 7.5v41.34h15v-41.34c0-4.14-3.36-7.5-7.5-7.5z"/><path d="m118.43 159.37c-4.14 0-7.5 3.36-7.5 7.5v41.34h15v-41.34c0-4.14-3.36-7.5-7.5-7.5z"/><path d="m160.93 159.37c-4.14 0-7.5 3.36-7.5 7.5v41.34h15v-41.34c0-4.14-3.36-7.5-7.5-7.5z"/><path d="m202.93 159.37c-4.14 0-7.5 3.36-7.5 7.5v41.34h15v-41.34c0-4.14-3.36-7.5-7.5-7.5z"/><path d="m245.43 159.37c-4.14 0-7.5 3.36-7.5 7.5v41.34h15v-41.34c0-4.14-3.36-7.5-7.5-7.5z"/></g><path d="m315.927 136.209h-40.02c14.07 0 25.477 11.406 25.477 25.477v21.047c0 .445-.011.887-.034 1.327-.195 3.798-5.919 3.575-5.919-.228v-16.708c0-3.813-2.739-7.212-6.522-7.691-4.576-.58-8.478 2.976-8.478 7.438v36.755c0 2.49-1.987 4.579-4.477 4.584-.015 0-.031 0-.046 0h40.02c14.07 0 25.477-11.406 25.477-25.477v-21.047c-.001-14.071-11.408-25.477-25.478-25.477z" fill="url(#SVGID_26_)"/></g></g><path d="m221.418 49.498h-60.503c-13.668 0-24.749-11.08-24.749-24.749.001-13.669 11.081-24.749 24.75-24.749h60.503c13.668 0 24.749 11.08 24.749 24.749-.001 13.668-11.081 24.749-24.75 24.749z" fill="url(#SVGID_27_)"/><path d="m221.418 0h-25.011c13.668 0 24.749 11.08 24.749 24.749 0 13.668-11.08 24.749-24.749 24.749h25.011c13.668 0 24.749-11.08 24.749-24.749s-11.08-24.749-24.749-24.749z" fill="url(#SVGID_28_)"/></g></g></svg>