<svg id="Capa_1" enable-background="new 0 0 510 510" height="512" viewBox="0 0 510 510" width="512" xmlns="http://www.w3.org/2000/svg" xmlns:xlink="http://www.w3.org/1999/xlink"><linearGradient id="SVGID_1_" gradientTransform="matrix(.707 .707 -.707 .707 273.228 -95.999)" gradientUnits="userSpaceOnUse" x1="170.809" x2="334.039" y1="487.415" y2="487.415"><stop offset="0" stop-color="#ffdcbd"/><stop offset=".0028" stop-color="#ffdcbd"/><stop offset="1" stop-color="#ffa9b1"/></linearGradient><linearGradient id="SVGID_2_" gradientUnits="userSpaceOnUse" x1="9.499" x2="266.063" y1="405.479" y2="405.479"><stop offset="0" stop-color="#ffc2b5"/><stop offset="1" stop-color="#ff89a8"/></linearGradient><linearGradient id="lg1"><stop offset="0" stop-color="#fe646f"/><stop offset=".593" stop-color="#fb2b3a"/><stop offset="1" stop-color="#c41926"/></linearGradient><linearGradient id="SVGID_3_" gradientUnits="userSpaceOnUse" x1="365.532" x2="536.194" xlink:href="#lg1" y1="193.862" y2="193.862"/><linearGradient id="SVGID_4_" gradientUnits="userSpaceOnUse" x1="107" x2="551.288" xlink:href="#lg1" y1="193.862" y2="193.862"/><linearGradient id="lg2"><stop offset="0" stop-color="#fef056"/><stop offset=".5213" stop-color="#fbc56d"/><stop offset="1" stop-color="#c86d36"/></linearGradient><linearGradient id="SVGID_5_" gradientUnits="userSpaceOnUse" x1="79.046" x2="500.269" xlink:href="#lg2" y1="231.35" y2="231.35"/><linearGradient id="SVGID_6_" gradientUnits="userSpaceOnUse" x1="-51" x2="472.042" xlink:href="#lg2" y1="277.468" y2="277.468"/><linearGradient id="SVGID_7_" gradientUnits="userSpaceOnUse" x1="-51" x2="472.042" xlink:href="#lg2" y1="146.625" y2="146.625"/><linearGradient id="SVGID_8_" gradientUnits="userSpaceOnUse" x1="-51" x2="472.042" xlink:href="#lg2" y1="299.482" y2="299.482"/><linearGradient id="SVGID_9_" gradientUnits="userSpaceOnUse" x1="-51" x2="472.042" xlink:href="#lg2" y1="120.292" y2="120.292"/><linearGradient id="SVGID_10_" gradientUnits="userSpaceOnUse" x1="-51" x2="472.042" xlink:href="#lg2" y1="189.262" y2="189.262"/><linearGradient id="SVGID_11_" gradientUnits="userSpaceOnUse" x1="-51" x2="472.042" xlink:href="#lg2" y1="231.361" y2="231.361"/><g><path d="m13.519 496.481c-18.025-18.025-18.025-47.249 0-65.274l130.245-130.245 65.274 65.274-130.246 130.245c-18.025 18.025-47.249 18.025-65.273 0z" fill="url(#SVGID_1_)"/><path d="m209.04 366.24-73.58 73.57-56.67 56.67c-14.24 14.24-35.47 17.23-52.64 8.97 4.56-2.19 8.84-5.18 12.62-8.97l62.161-62.153c13.68-13.678 8.956-37.053-9.082-44.045-.123-.048-.246-.095-.369-.142l-.02-.01c-8.48-3.25-15.77-8.71-21.21-15.65l53.5-53.51 20.01-20.01z" fill="url(#SVGID_2_)"/><path d="m489.913 117.077-250.559 250.559c-26.783 26.783-70.207 26.783-96.99 0s-26.783-70.207 0-96.99l250.559-250.559c26.783-26.783 70.207-26.783 96.99 0s26.783 70.207 0 96.99z" fill="url(#SVGID_3_)"/><path d="m489.913 20.087c-18.542-18.541-45.056-24.236-68.505-17.106 10.423 3.169 20.243 8.865 28.485 17.106 26.783 26.783 26.783 70.207 0 96.99l-250.56 250.559c-8.242 8.242-18.062 13.937-28.485 17.106 23.449 7.13 49.964 1.435 68.505-17.106l250.559-250.559c26.784-26.783 26.784-70.207.001-96.99z" fill="url(#SVGID_4_)"/><path d="m288.584 368.042c6.474-15.107 18.252-27.323 33.112-34.344l3.207-1.516c16.346-7.246 29.413-20.313 36.658-36.659l.001-.001c7.246-16.347 20.313-29.414 36.66-36.66 16.346-7.246 29.414-20.312 36.66-36.659l.001-.003c7.246-16.346 20.313-29.413 36.659-36.659l.001-.001c.048-.021.107-.048.178-.08 7.771-3.567 12.189-11.901 10.855-20.347-4.384-27.758-23.475-50.955-49.871-60.599l-41.311-15.094c-18.19-6.646-30.29-23.948-30.29-43.314 0-20.385-27.882-26.55-36.28-7.975-.073.162-.146.325-.218.488l-1.588 3.757c-6.015 14.23-17.374 25.532-31.635 31.474-17.598 7.332-31.874 20.895-40.1 38.093v.001c-7.246 16.347-20.313 29.414-36.66 36.66-16.347 7.245-29.414 20.312-36.66 36.659l-4.736 10.308c-5.301 11.537-15.058 20.428-27.036 24.637-18.548 6.517-33.583 20.403-41.549 38.377l-.57 1.287c-4.026 9.083-9.855 17.163-17.055 23.794-10.383 9.562-14.628 24.094-11.545 37.869l3.399 15.188c3.621 16.183 15.106 29.478 30.591 35.413l.015.006c13.172 4.983 23.571 15.382 28.553 28.555 5.848 15.462 19.083 26.943 35.216 30.549l15.382 3.438c13.776 3.079 28.306-1.167 37.868-11.55 6.63-7.2 14.709-13.027 23.791-17.054l1.296-.575c16.621-7.369 29.839-20.752 37.001-37.463z" fill="url(#SVGID_5_)"/><g><circle cx="238.515" cy="277.468" fill="url(#SVGID_6_)" r="13.167"/><path d="m392.506 146.626c0-7.272-5.895-13.167-13.167-13.167s-13.167 5.895-13.167 13.167 5.895 13.167 13.167 13.167c7.272-.001 13.167-5.896 13.167-13.167z" fill="url(#SVGID_7_)"/><path d="m137.339 286.315c-7.272 0-13.167 5.895-13.167 13.167s5.895 13.167 13.167 13.167 13.167-5.895 13.167-13.167-5.895-13.167-13.167-13.167z" fill="url(#SVGID_8_)"/><path d="m307.871 133.459c7.272 0 13.167-5.895 13.167-13.167s-5.895-13.167-13.167-13.167-13.167 5.895-13.167 13.167 5.895 13.167 13.167 13.167z" fill="url(#SVGID_9_)"/><circle cx="289.785" cy="189.262" fill="url(#SVGID_10_)" r="25.062"/><path d="m482.577 165.113c-4.385-27.758-23.475-50.956-49.871-60.599l-41.312-15.094c-18.19-6.646-30.29-23.948-30.29-43.314 0-20.465-27.941-26.506-36.339-7.844-.053.119-.106.237-.159.356l-1.588 3.757c-.587 1.389-1.24 2.741-1.927 4.072.142 19.227 12.2 36.366 30.283 42.972l41.312 15.094c26.396 9.643 45.486 32.841 49.871 60.599 1.334 8.446-3.084 16.78-10.855 20.347-.071.032-.13.059-.178.08l-3.959 1.98c-14.66 7.33-26.247 19.618-32.703 34.683-7.246 16.346-20.313 29.413-36.659 36.659-16.347 7.245-29.414 20.313-36.66 36.66l-.001.001c-7.245 16.347-20.312 29.413-36.658 36.659l-3.207 1.516c-.936.442-1.859.905-2.769 1.388-4.294-9.283-13.828-15.646-24.811-15.278-13.168.441-24.184 10.832-25.327 23.959-.597 6.857 1.437 13.227 5.204 18.215 6.987 9.249 6.222 22.152-2.214 30.102-5.875 5.537-12.688 10.093-20.197 13.422l-1.296.575c-9.082 4.026-17.161 9.854-23.791 17.054-3.307 3.592-7.218 6.43-11.478 8.503l13.629 3.047c13.776 3.079 28.306-1.167 37.868-11.55 6.63-7.2 14.709-13.028 23.791-17.054l1.296-.575c16.621-7.368 29.839-20.751 37.001-37.462 6.474-15.107 18.252-27.323 33.112-34.344l3.207-1.516c16.346-7.246 29.413-20.313 36.658-36.659l.001-.001c7.246-16.347 20.313-29.414 36.66-36.66 16.346-7.246 29.414-20.312 36.659-36.659 6.456-15.065 18.043-27.353 32.703-34.683l3.959-1.98c.048-.021.107-.048.178-.08 7.773-3.568 12.191-11.902 10.857-20.348z" fill="url(#SVGID_11_)"/></g></g></svg>