<svg id="Capa_1" enable-background="new 0 0 510 510" height="512" viewBox="0 0 510 510" width="512" xmlns="http://www.w3.org/2000/svg" xmlns:xlink="http://www.w3.org/1999/xlink"><linearGradient id="lg1"><stop offset="0" stop-color="#537983"/><stop offset=".593" stop-color="#554e56"/><stop offset="1" stop-color="#433f43"/></linearGradient><linearGradient id="SVGID_1_" gradientUnits="userSpaceOnUse" x1="113.151" x2="504" xlink:href="#lg1" y1="144.631" y2="144.631"/><linearGradient id="SVGID_2_" gradientUnits="userSpaceOnUse" x1="3" x2="369.231" xlink:href="#lg1" y1="144.631" y2="144.631"/><linearGradient id="lg2"><stop offset="0" stop-color="#f8f6f7"/><stop offset=".1788" stop-color="#f8f6f7"/><stop offset="1" stop-color="#e7e6f5"/></linearGradient><linearGradient id="SVGID_3_" gradientUnits="userSpaceOnUse" x1="138.65" x2="359.159" xlink:href="#lg2" y1="144.631" y2="144.631"/><linearGradient id="lg3"><stop offset="0" stop-color="#f8f6f7"/><stop offset="1" stop-color="#d1ceeb"/></linearGradient><linearGradient id="SVGID_4_" gradientUnits="userSpaceOnUse" x1="78.667" x2="372.969" xlink:href="#lg3" y1="171.744" y2="171.744"/><linearGradient id="SVGID_5_" gradientUnits="userSpaceOnUse" x1="78.667" x2="372.969" xlink:href="#lg3" y1="76.268" y2="76.268"/><linearGradient id="SVGID_6_" gradientUnits="userSpaceOnUse" x1="78.667" x2="372.969" xlink:href="#lg3" y1="66.467" y2="66.467"/><linearGradient id="SVGID_7_" gradientUnits="userSpaceOnUse" x1="78.667" x2="372.969" xlink:href="#lg3" y1="144.631" y2="144.631"/><linearGradient id="lg4"><stop offset="0" stop-color="#fef056"/><stop offset=".5213" stop-color="#f4d902"/><stop offset="1" stop-color="#fe9738"/></linearGradient><linearGradient id="SVGID_8_" gradientUnits="userSpaceOnUse" x1="189" x2="282.086" xlink:href="#lg4" y1="118.034" y2="118.034"/><linearGradient id="lg5"><stop offset="0" stop-color="#fbc56d"/><stop offset=".593" stop-color="#c86d36"/><stop offset="1" stop-color="#904d24"/></linearGradient><linearGradient id="SVGID_9_" gradientUnits="userSpaceOnUse" x1="214" x2="316.706" xlink:href="#lg5" y1="160.316" y2="160.316"/><linearGradient id="lg6"><stop offset="0" stop-color="#a2e62e"/><stop offset=".5857" stop-color="#81b823"/><stop offset="1" stop-color="#037e73"/></linearGradient><linearGradient id="SVGID_10_" gradientUnits="userSpaceOnUse" x1="188.5" x2="300.493" xlink:href="#lg6" y1="172.227" y2="172.227"/><linearGradient id="lg7"><stop offset="0" stop-color="#fe646f"/><stop offset=".593" stop-color="#fb2b3a"/><stop offset="1" stop-color="#c41926"/></linearGradient><linearGradient id="SVGID_11_" gradientUnits="userSpaceOnUse" x1="254.5" x2="379.097" xlink:href="#lg7" y1="129.347" y2="129.347"/><linearGradient id="SVGID_12_" gradientUnits="userSpaceOnUse" x1="2.782" x2="393.631" xlink:href="#lg1" y1="316.471" y2="316.471"/><linearGradient id="SVGID_13_" gradientUnits="userSpaceOnUse" x1="-107.369" x2="258.862" xlink:href="#lg1" y1="316.471" y2="316.471"/><linearGradient id="SVGID_14_" gradientUnits="userSpaceOnUse" x1="28.281" x2="248.79" xlink:href="#lg2" y1="316.471" y2="316.471"/><linearGradient id="SVGID_15_" gradientUnits="userSpaceOnUse" x1="-31.702" x2="262.6" xlink:href="#lg3" y1="343.584" y2="343.584"/><linearGradient id="SVGID_16_" gradientUnits="userSpaceOnUse" x1="-31.702" x2="262.6" xlink:href="#lg3" y1="248.108" y2="248.108"/><linearGradient id="SVGID_17_" gradientUnits="userSpaceOnUse" x1="-31.702" x2="262.6" xlink:href="#lg3" y1="238.307" y2="238.307"/><linearGradient id="SVGID_18_" gradientUnits="userSpaceOnUse" x1="-31.702" x2="262.6" xlink:href="#lg3" y1="316.471" y2="316.471"/><linearGradient id="SVGID_19_" gradientUnits="userSpaceOnUse" x1="66.155" x2="172.125" xlink:href="#lg4" y1="339.868" y2="339.868"/><linearGradient id="SVGID_20_" gradientUnits="userSpaceOnUse" x1="99.981" x2="219.171" xlink:href="#lg5" y1="295.233" y2="295.233"/><linearGradient id="SVGID_21_" gradientUnits="userSpaceOnUse" x1="132.295" x2="223.033" xlink:href="#lg6" y1="333.252" y2="333.252"/><linearGradient id="SVGID_22_" gradientUnits="userSpaceOnUse" x1="72.953" x2="188.349" xlink:href="#lg7" y1="289.866" y2="289.866"/><linearGradient id="SVGID_23_" gradientUnits="userSpaceOnUse" x1="223.52" x2="614.369" xlink:href="#lg1" y1="316.471" y2="316.471"/><linearGradient id="SVGID_24_" gradientUnits="userSpaceOnUse" x1="113.369" x2="479.6" xlink:href="#lg1" y1="316.471" y2="316.471"/><linearGradient id="SVGID_25_" gradientUnits="userSpaceOnUse" x1="249.019" x2="469.528" xlink:href="#lg2" y1="316.471" y2="316.471"/><linearGradient id="SVGID_26_" gradientUnits="userSpaceOnUse" x1="189.036" x2="483.338" xlink:href="#lg3" y1="343.584" y2="343.584"/><linearGradient id="SVGID_27_" gradientUnits="userSpaceOnUse" x1="189.036" x2="483.338" xlink:href="#lg3" y1="248.108" y2="248.108"/><linearGradient id="SVGID_28_" gradientUnits="userSpaceOnUse" x1="189.036" x2="483.338" xlink:href="#lg3" y1="238.307" y2="238.307"/><linearGradient id="SVGID_29_" gradientUnits="userSpaceOnUse" x1="189.036" x2="483.338" xlink:href="#lg3" y1="316.471" y2="316.471"/><linearGradient id="SVGID_30_" gradientUnits="userSpaceOnUse" x1="336" x2="437.242" xlink:href="#lg4" y1="293.074" y2="293.074"/><linearGradient id="SVGID_31_" gradientUnits="userSpaceOnUse" x1="296.5" x2="402.001" xlink:href="#lg5" y1="337.709" y2="337.709"/><linearGradient id="SVGID_32_" gradientUnits="userSpaceOnUse" x1="302" x2="395.586" xlink:href="#lg6" y1="299.69" y2="299.69"/><linearGradient id="SVGID_33_" gradientUnits="userSpaceOnUse" x1="346.5" x2="462.93" xlink:href="#lg7" y1="343.076" y2="343.076"/><linearGradient id="SVGID_34_" gradientUnits="userSpaceOnUse" x1="2.276" x2="143.686" xlink:href="#lg5" y1="492" y2="492"/><linearGradient id="SVGID_35_" gradientUnits="userSpaceOnUse" x1="337.788" x2="479.199" xlink:href="#lg5" y1="492" y2="492"/><linearGradient id="SVGID_36_" gradientUnits="userSpaceOnUse" x1="0" x2="574.001" xlink:href="#lg5" y1="457.913" y2="457.913"/><linearGradient id="SVGID_37_" gradientUnits="userSpaceOnUse" x1="100.667" x2="368.734" xlink:href="#lg5" y1="457.913" y2="457.913"/><g><g><circle cx="255" cy="144.631" fill="url(#SVGID_1_)" r="144.631"/><path d="m255 0c-6.791 0-13.469.479-20.01 1.384 70.406 9.746 124.621 70.16 124.621 143.247s-54.215 133.501-124.621 143.247c6.542.905 13.219 1.384 20.01 1.384 79.878 0 144.631-64.754 144.631-144.631s-64.753-144.631-144.631-144.631z" fill="url(#SVGID_2_)"/><circle cx="255" cy="144.631" fill="url(#SVGID_3_)" r="114.233"/><g><path d="m256.122 219.946c0-1.924-.422-3.746-1.164-5.393 5.524-2.007 10.708-5.225 15.141-9.658 14.299-14.299 15.968-36.439 5.025-52.586-.288-10.001-4.238-19.916-11.871-27.549-10.245-10.245-24.6-13.864-37.758-10.878-7.606-1.858-15.699-1.164-22.946 2.048-4.301-3.473-9.771-5.556-15.729-5.556-13.841 0-25.062 11.221-25.062 25.062 0 12.67 9.404 23.138 21.612 24.82.073.211.132.425.21.635-9.314 14.908-7.502 34.784 5.459 47.745 11.084 11.084 27.226 14.017 40.993 8.81-.156.81-.244 1.644-.244 2.499 0 7.272 5.895 13.167 13.167 13.167s13.167-5.894 13.167-13.166z" fill="url(#SVGID_4_)"/><path d="m276.375 89.435c7.272 0 13.167-5.895 13.167-13.167s-5.895-13.167-13.167-13.167-13.167 5.895-13.167 13.167 5.895 13.167 13.167 13.167z" fill="url(#SVGID_5_)"/><path d="m204.906 79.634c7.272 0 13.167-5.895 13.167-13.167s-5.895-13.167-13.167-13.167-13.167 5.895-13.167 13.167 5.895 13.167 13.167 13.167z" fill="url(#SVGID_6_)"/><path d="m254.223 30.401c-6.557.044-12.982.642-19.233 1.747 53.548 9.461 94.223 56.221 94.223 112.484 0 25.021-8.05 48.159-21.694 66.977-4.267-6.366-11.821-10.343-20.236-9.49-10.338 1.048-18.582 9.581-19.317 19.945-.218 3.081.212 6.033 1.166 8.737 2.539 7.195-.667 15.081-7.634 18.191-8.354 3.729-17.238 6.485-26.509 8.123 6.497 1.148 13.183 1.749 20.01 1.749 63.476 0 114.859-51.772 114.227-115.394-.621-62.633-52.368-113.488-115.003-113.069z" fill="url(#SVGID_7_)"/></g><g><path d="m277.76 97.952c-15.16-20.991-44.467-25.718-65.457-10.557-20.991 15.16-25.718 44.467-10.557 65.457 15.16 20.991 91.174-33.909 76.014-54.9z" fill="url(#SVGID_8_)"/><path d="m309.583 123.691c-15.947-22.08-95.906 35.669-79.959 57.749s46.774 27.052 68.854 11.105 27.052-46.774 11.105-68.854z" fill="url(#SVGID_9_)"/><path d="m201.12 185.261c-10.192-14.112-12.014-31.706-6.428-46.9 1.457 5.067 3.79 9.969 7.057 14.492 8.081 11.189 33.489.79 53.126-14.535 16.985 21.245 28.829 49.431 16.568 58.286-22.558 16.28-54.04 11.202-70.323-11.343z" fill="url(#SVGID_10_)"/><path d="m314.038 107.194c-13.991-19.372-41.037-23.734-60.409-9.743s31.294 84.144 50.666 70.152 23.734-41.037 9.743-60.409z" fill="url(#SVGID_11_)"/></g></g><g><circle cx="144.631" cy="316.471" fill="url(#SVGID_12_)" r="144.631"/><path d="m144.631 171.84c-6.791 0-13.469.479-20.01 1.384 70.406 9.746 124.621 70.16 124.621 143.247s-54.215 133.501-124.621 143.247c6.542.905 13.219 1.384 20.01 1.384 79.878 0 144.631-64.754 144.631-144.631s-64.753-144.631-144.631-144.631z" fill="url(#SVGID_13_)"/><circle cx="144.631" cy="316.471" fill="url(#SVGID_14_)" r="114.233"/><g><path d="m145.753 391.786c0-1.924-.422-3.746-1.164-5.393 5.524-2.007 10.708-5.225 15.141-9.658 14.299-14.299 15.968-36.439 5.025-52.586-.288-10.001-4.238-19.916-11.871-27.549-10.245-10.245-24.6-13.864-37.758-10.878-7.606-1.858-15.699-1.164-22.946 2.048-4.301-3.473-9.771-5.556-15.729-5.556-13.841 0-25.062 11.221-25.062 25.062 0 12.67 9.404 23.138 21.612 24.82.073.211.132.425.21.635-9.314 14.908-7.502 34.784 5.459 47.745 11.084 11.084 27.226 14.017 40.993 8.81-.156.81-.244 1.644-.244 2.499 0 7.272 5.895 13.167 13.167 13.167s13.167-5.895 13.167-13.166z" fill="url(#SVGID_15_)"/><path d="m166.006 261.275c7.272 0 13.167-5.895 13.167-13.166 0-7.272-5.895-13.167-13.167-13.167s-13.167 5.895-13.167 13.167c0 7.271 5.895 13.166 13.167 13.166z" fill="url(#SVGID_16_)"/><path d="m94.537 251.474c7.272 0 13.167-5.895 13.167-13.167s-5.895-13.167-13.167-13.167-13.167 5.895-13.167 13.167 5.895 13.167 13.167 13.167z" fill="url(#SVGID_17_)"/><path d="m143.854 202.24c-6.557.044-12.982.642-19.233 1.747 53.548 9.461 94.223 56.221 94.223 112.484 0 25.021-8.05 48.159-21.694 66.977-4.267-6.366-11.821-10.343-20.236-9.49-10.338 1.048-18.582 9.581-19.317 19.945-.218 3.081.212 6.033 1.166 8.737 2.539 7.195-.667 15.081-7.634 18.191-8.354 3.729-17.238 6.485-26.509 8.123 6.497 1.148 13.183 1.749 20.01 1.749 63.476 0 114.859-51.772 114.227-115.394-.621-62.632-52.368-113.488-115.003-113.069z" fill="url(#SVGID_18_)"/></g><g><path d="m94.923 301.433c-18.309 18.309-18.309 47.994 0 66.303s47.994 18.309 66.303 0-47.994-84.612-66.303-66.303z" fill="url(#SVGID_19_)"/><path d="m115.266 265.918c-19.259 19.259 50.485 89.003 69.744 69.744s19.259-50.485 0-69.744-50.485-19.259-69.744 0z" fill="url(#SVGID_20_)"/><path d="m193.321 363.194c-12.309 12.309-29.388 16.91-45.278 13.814 4.771-2.246 9.238-5.329 13.183-9.274 9.76-9.76-4.552-33.188-22.809-50.134 18.269-20.151 44.21-36.332 54.905-25.638 19.664 19.678 19.664 51.567-.001 71.232z" fill="url(#SVGID_21_)"/><path d="m98.27 264.146c-16.897 16.897-16.897 44.293 0 61.19s78.087-44.293 61.19-61.19-44.293-16.897-61.19 0z" fill="url(#SVGID_22_)"/></g></g><g><circle cx="365.369" cy="316.471" fill="url(#SVGID_23_)" r="144.631"/><path d="m365.369 171.84c-6.791 0-13.469.479-20.01 1.384 70.406 9.746 124.621 70.16 124.621 143.247s-54.215 133.501-124.621 143.247c6.542.905 13.219 1.384 20.01 1.384 79.878 0 144.631-64.754 144.631-144.631s-64.753-144.631-144.631-144.631z" fill="url(#SVGID_24_)"/><circle cx="365.369" cy="316.471" fill="url(#SVGID_25_)" r="114.233"/><g><path d="m366.491 391.786c0-1.924-.422-3.746-1.164-5.393 5.524-2.007 10.708-5.225 15.141-9.658 14.299-14.299 15.968-36.439 5.025-52.586-.288-10.001-4.238-19.916-11.871-27.549-10.245-10.245-24.6-13.864-37.758-10.878-7.606-1.858-15.699-1.164-22.946 2.048-4.301-3.473-9.771-5.556-15.729-5.556-13.841 0-25.062 11.221-25.062 25.062 0 12.67 9.404 23.138 21.612 24.82.073.211.132.425.21.635-9.314 14.908-7.502 34.784 5.459 47.745 11.084 11.084 27.226 14.017 40.993 8.81-.156.81-.244 1.644-.244 2.499 0 7.272 5.895 13.167 13.167 13.167s13.167-5.895 13.167-13.166z" fill="url(#SVGID_26_)"/><path d="m386.744 261.275c7.272 0 13.167-5.895 13.167-13.166 0-7.272-5.895-13.167-13.167-13.167s-13.167 5.895-13.167 13.167c0 7.271 5.895 13.166 13.167 13.166z" fill="url(#SVGID_27_)"/><path d="m315.275 251.474c7.272 0 13.167-5.895 13.167-13.167s-5.895-13.167-13.167-13.167-13.167 5.895-13.167 13.167 5.895 13.167 13.167 13.167z" fill="url(#SVGID_28_)"/><path d="m364.592 202.24c-6.557.044-12.982.642-19.233 1.747 53.548 9.461 94.223 56.221 94.223 112.484 0 25.021-8.05 48.159-21.694 66.977-4.267-6.366-11.821-10.343-20.236-9.49-10.338 1.048-18.582 9.581-19.317 19.945-.218 3.081.212 6.033 1.166 8.737 2.539 7.195-.667 15.081-7.634 18.191-8.354 3.729-17.238 6.485-26.509 8.123 6.497 1.148 13.183 1.749 20.01 1.749 63.476 0 114.859-51.772 114.227-115.394-.621-62.632-52.368-113.488-115.003-113.069z" fill="url(#SVGID_29_)"/></g><g><path d="m415.076 331.509c18.309-18.309 18.309-47.994 0-66.303s-47.994-18.309-66.303 0c-18.31 18.309 47.994 84.612 66.303 66.303z" fill="url(#SVGID_30_)"/><path d="m394.733 367.024c19.259-19.259-50.485-89.003-69.744-69.744s-19.259 50.485 0 69.744 50.484 19.259 69.744 0z" fill="url(#SVGID_31_)"/><path d="m316.678 269.748c12.309-12.309 29.388-16.91 45.278-13.814-4.771 2.246-9.238 5.329-13.183 9.274-9.76 9.76 4.552 33.188 22.809 50.134-18.269 20.151-44.21 36.332-54.905 25.638-19.664-19.678-19.664-51.567.001-71.232z" fill="url(#SVGID_32_)"/><path d="m411.728 368.795c16.897-16.897 16.897-44.293 0-61.19s-78.087 44.293-61.19 61.19c16.898 16.897 44.293 16.897 61.19 0z" fill="url(#SVGID_33_)"/></g></g><g><path d="m108.527 510h-42.566c-7.558 0-13.686-6.127-13.686-13.686v-22.314h69.937v22.314c0 7.559-6.127 13.686-13.685 13.686z" fill="url(#SVGID_34_)"/><path d="m444.039 510h-42.565c-7.558 0-13.686-6.127-13.686-13.686v-22.314h69.937v22.314c-.001 7.559-6.128 13.686-13.686 13.686z" fill="url(#SVGID_35_)"/></g><g><path d="m484.523 483.389h-459.046c-14.071 0-25.477-11.406-25.477-25.476s11.406-25.477 25.477-25.477h459.047c14.07 0 25.477 11.406 25.477 25.477-.001 14.07-11.407 25.476-25.478 25.476z" fill="url(#SVGID_36_)"/><path d="m484.523 432.436h-40.02c14.07 0 25.477 11.406 25.477 25.477 0 14.07-11.406 25.477-25.477 25.477h40.02c14.07 0 25.477-11.406 25.477-25.477s-11.406-25.477-25.477-25.477z" fill="url(#SVGID_37_)"/></g></g></svg>