<svg id="Capa_1" enable-background="new 0 0 510 510" height="512" viewBox="0 0 510 510" width="512" xmlns="http://www.w3.org/2000/svg" xmlns:xlink="http://www.w3.org/1999/xlink"><linearGradient id="lg1"><stop offset="0" stop-color="#fbc56d"/><stop offset=".5841" stop-color="#fe9738"/><stop offset=".9984" stop-color="#fb2b3a"/></linearGradient><linearGradient id="SVGID_1_" gradientUnits="userSpaceOnUse" x1="217" x2="330.864" xlink:href="#lg1" y1="34.245" y2="34.245"/><linearGradient id="SVGID_2_" gradientUnits="userSpaceOnUse" x1="103" x2="374.118" xlink:href="#lg1" y1="34.245" y2="34.245"/><linearGradient id="lg2"><stop offset="0" stop-color="#fef056"/><stop offset=".5213" stop-color="#fbc56d"/><stop offset="1" stop-color="#c86d36"/></linearGradient><linearGradient id="SVGID_3_" gradientUnits="userSpaceOnUse" x1="26.145" x2="655.589" xlink:href="#lg2" y1="389.374" y2="389.374"/><linearGradient id="SVGID_4_" gradientUnits="userSpaceOnUse" x1="26.145" x2="655.589" xlink:href="#lg2" y1="326.184" y2="326.184"/><linearGradient id="SVGID_5_" gradientUnits="userSpaceOnUse" x1="26.145" x2="655.589" xlink:href="#lg2" y1="262.994" y2="262.994"/><linearGradient id="SVGID_6_" gradientUnits="userSpaceOnUse" x1="26.145" x2="655.589" xlink:href="#lg2" y1="199.804" y2="199.804"/><linearGradient id="SVGID_7_" gradientUnits="userSpaceOnUse" x1="26.145" x2="655.589" xlink:href="#lg2" y1="136.614" y2="136.614"/><linearGradient id="SVGID_8_" gradientUnits="userSpaceOnUse" x1="-156" x2="438.771" xlink:href="#lg2" y1="136.614" y2="136.614"/><linearGradient id="SVGID_10_" gradientUnits="userSpaceOnUse" x1="-46.395" x2="544.679" xlink:href="#lg2" y1="199.804" y2="199.804"/><linearGradient id="SVGID_11_" gradientUnits="userSpaceOnUse" x1="-54" x2="479.815" xlink:href="#lg2" y1="262.994" y2="262.994"/><linearGradient id="SVGID_12_" gradientUnits="userSpaceOnUse" x1="-46.395" x2="544.679" xlink:href="#lg2" y1="326.184" y2="326.184"/><linearGradient id="SVGID_13_" gradientUnits="userSpaceOnUse" x1="-54" x2="479.815" xlink:href="#lg2" y1="389.374" y2="389.374"/><linearGradient id="SVGID_14_" gradientUnits="userSpaceOnUse" x1="0" x2="574.001" y1="465.484" y2="465.484"><stop offset="0" stop-color="#f8f6f7"/><stop offset=".1788" stop-color="#f8f6f7"/><stop offset="1" stop-color="#e7e6f5"/></linearGradient><linearGradient id="SVGID_15_" gradientUnits="userSpaceOnUse" x1="53.154" x2="506.193" y1="465.484" y2="465.484"><stop offset="0" stop-color="#f8f6f7"/><stop offset="1" stop-color="#d1ceeb"/></linearGradient><linearGradient id="lg3"><stop offset="0" stop-color="#fef056"/><stop offset=".5213" stop-color="#f4d902"/><stop offset="1" stop-color="#fe9738"/></linearGradient><linearGradient id="SVGID_16_" gradientUnits="userSpaceOnUse" x1="76.689" x2="567.115" xlink:href="#lg3" y1="181.539" y2="181.539"/><linearGradient id="SVGID_17_" gradientUnits="userSpaceOnUse" x1="-58" x2="475.085" xlink:href="#lg3" y1="149.944" y2="149.944"/><linearGradient id="SVGID_18_" gradientUnits="userSpaceOnUse" x1="-58" x2="475.085" xlink:href="#lg3" y1="205.859" y2="205.859"/><linearGradient id="SVGID_19_" gradientUnits="userSpaceOnUse" x1="-58" x2="475.085" xlink:href="#lg3" y1="216.446" y2="216.446"/><linearGradient id="SVGID_20_" gradientUnits="userSpaceOnUse" x1="-58" x2="475.085" xlink:href="#lg3" y1="151.935" y2="151.935"/><g><g><path d="m258.505 2.303-65.451 24.2c-13.048 4.824-19.132 19.817-13.135 32.369l4.595 9.617h147.885l-29.006-50.025c-9.039-15.588-27.986-22.41-44.888-16.161z" fill="url(#SVGID_1_)"/><path d="m303.393 18.465c-9.039-15.589-27.986-22.411-44.888-16.161l-8.103 2.996c5.226 3.136 9.735 7.585 12.971 13.165l29.006 50.025h40.02z" fill="url(#SVGID_2_)"/></g><g><path d="m449.784 420.969h-389.568c-17.449 0-31.595-14.146-31.595-31.595s14.146-31.595 31.595-31.595h389.568c17.449 0 31.595 14.146 31.595 31.595s-14.146 31.595-31.595 31.595z" fill="url(#SVGID_3_)"/><path d="m449.784 357.779h-389.568c-17.449 0-31.595-14.146-31.595-31.595s14.146-31.595 31.595-31.595h389.568c17.449 0 31.595 14.146 31.595 31.595s-14.146 31.595-31.595 31.595z" fill="url(#SVGID_4_)"/><path d="m449.784 294.589h-389.568c-17.449 0-31.595-14.146-31.595-31.595s14.146-31.595 31.595-31.595h389.568c17.449 0 31.595 14.146 31.595 31.595s-14.146 31.595-31.595 31.595z" fill="url(#SVGID_5_)"/><path d="m449.784 231.399h-389.568c-17.449 0-31.595-14.146-31.595-31.595s14.146-31.595 31.595-31.595h389.568c17.449 0 31.595 14.146 31.595 31.595s-14.146 31.595-31.595 31.595z" fill="url(#SVGID_6_)"/><path d="m449.784 168.209h-389.568c-17.449 0-31.595-14.146-31.595-31.595s14.146-31.595 31.595-31.595h389.568c17.449 0 31.595 14.146 31.595 31.595s-14.146 31.595-31.595 31.595z" fill="url(#SVGID_7_)"/><g fill="url(#SVGID_8_)"><path d="m61.566 105.019c-5.073 9.573-7.958 20.483-7.958 32.072v30.421c2.132.454 4.341.697 6.608.697h138.283v-1.471c0-15.705 12.731-28.436 28.436-28.436s28.436 12.731 28.436 28.436c0 .494.016.984.043 1.471h52.876c.027-.487.043-.977.043-1.471v-33.548c0-12.448 10.091-22.539 22.539-22.539s22.539 10.091 22.539 22.539v35.018h52.961v-31.118c0-11.589-2.885-22.499-7.958-32.072h-336.848z"/><path d="m449.784 105.019h-40.02c17.449 0 31.595 14.146 31.595 31.595s-14.146 31.595-31.595 31.595h40.02c17.449 0 31.595-14.146 31.595-31.595 0-17.45-14.146-31.595-31.595-31.595z"/></g><path d="m461.37 170.399c-3.59-1.41-7.5-2.19-11.59-2.19 0 0-389.576 0-389.583 0-3.731 0-6.59.698-6.59.698-12.151 2.588-21.72 12.156-24.298 24.312h12.598c6.461 0 11.699 5.238 11.699 11.699 0 14.625 11.856 26.481 26.481 26.481s26.48-11.856 26.48-26.48v-5.115c0-2.315.425-4.525 1.165-6.585h31.085c3.632 0 6.706 2.884 6.719 6.516v.069 31.595h52.961v-38.18h143.761c6.157 0 11.149 4.991 11.149 11.149 0 14.429 11.313 26.626 25.736 27.021 14.965.41 27.225-11.598 27.225-26.47v-11.699h28.398c3.619 0 6.585 2.961 6.592 6.58v.01c0 17.44-14.15 31.59-31.6 31.59h40.03c17.447 0 31.59-14.143 31.59-31.59v-.01c.002-13.351-8.288-24.771-20.008-29.401z" fill="url(#SVGID_10_)"/><path d="m461.37 233.589c-3.59-1.41-7.5-2.19-11.59-2.19h-389.56c-15.19 0-27.88 10.72-30.91 25.01h104.529c6.461 0 11.699 5.238 11.699 11.699 0 14.625 11.856 26.48 26.48 26.48h.003c14.623 0 26.478-11.855 26.478-26.478v-11.702h236.269c3.619 0 6.585 2.961 6.592 6.58v.01c0 17.44-14.15 31.59-31.6 31.59h40.03c17.447 0 31.59-14.143 31.59-31.59v-.01c0-13.349-8.29-24.769-20.01-29.399z" fill="url(#SVGID_11_)"/><path d="m481.38 326.179v.01c0 17.447-14.143 31.59-31.59 31.59h-40.03c17.45 0 31.6-14.15 31.6-31.59v-.01c0-.023 0-.045 0-.068-.008-3.62-3.034-6.512-6.653-6.512h-405.397c3.03-14.29 15.72-25.01 30.91-25.01h389.56c4.09 0 8 .78 11.59 2.19 11.72 4.63 20.01 16.05 20.01 29.4z" fill="url(#SVGID_12_)"/><path d="m481.38 389.369v.01c0 17.447-14.143 31.59-31.59 31.59h-40.03c17.45 0 31.6-14.15 31.6-31.59v-.01c0-.023 0-.045 0-.068-.008-3.62-3.034-6.512-6.653-6.512h-405.397c3.03-14.29 15.72-25.01 30.91-25.01h389.56c4.09 0 8 .78 11.59 2.19 11.72 4.63 20.01 16.05 20.01 29.4z" fill="url(#SVGID_13_)"/></g><path d="m446.445 510h-382.89c-35.101 0-63.555-28.454-63.555-63.555 0-14.07 11.406-25.477 25.477-25.477h459.047c14.07 0 25.477 11.406 25.477 25.477-.001 35.101-28.455 63.555-63.556 63.555z" fill="url(#SVGID_14_)"/><path d="m484.523 420.969h-40.02c14.07 0 25.477 11.406 25.477 25.477 0 35.1-28.454 63.555-63.555 63.555h40.02c35.1 0 63.555-28.454 63.555-63.555 0-14.071-11.406-25.477-25.477-25.477z" fill="url(#SVGID_15_)"/><path d="m78.619 137.091v67.828c0 14.625 11.856 26.48 26.48 26.48 14.625 0 26.481-11.856 26.481-26.48v-5.114c0-10.761 8.724-19.485 19.485-19.485s19.485 8.724 19.485 19.485v68.304c0 14.625 11.856 26.48 26.48 26.48 14.625 0 26.48-11.856 26.48-26.48v-101.37c0-15.705 12.731-28.436 28.436-28.436s28.436 12.731 28.436 28.436c0 14.625 11.856 26.48 26.48 26.48 14.625 0 26.48-11.856 26.48-26.48v-33.549c0-12.448 10.091-22.538 22.538-22.538 12.448 0 22.538 10.091 22.538 22.538v71.728c0 14.625 11.856 26.48 26.48 26.48 14.625 0 26.48-11.856 26.48-26.48v-67.828c0-37.887-30.714-68.601-68.601-68.601h-215.558c-37.887.001-68.6 30.714-68.6 68.602z" fill="url(#SVGID_16_)"/><g><path d="m362.781 68.49h-40.02c37.887 0 68.601 30.714 68.601 68.601v67.828c0 6.631-2.443 12.688-6.471 17.333 4.855 5.6 12.016 9.147 20.01 9.147 14.625 0 26.481-11.856 26.481-26.481v-67.828c-.001-37.887-30.714-68.6-68.601-68.6z" fill="url(#SVGID_17_)"/><path d="m126.054 180.319c-10.761 0-19.485 8.724-19.485 19.485v5.114c0 10.101-5.657 18.879-13.975 23.344 3.725 2 7.982 3.136 12.505 3.136 14.625 0 26.481-11.856 26.481-26.481v-5.114c0-5.999 2.716-11.36 6.979-14.934-3.385-2.837-7.743-4.55-12.505-4.55z" fill="url(#SVGID_18_)"/><path d="m226.935 138.302c-15.705 0-28.436 12.731-28.436 28.436v101.37c0 10.101-5.657 18.879-13.975 23.344 3.725 2 7.982 3.136 12.505 3.136 14.625 0 26.481-11.856 26.481-26.481v-101.37c0-11.217 6.497-20.913 15.93-25.541-3.774-1.85-8.017-2.894-12.505-2.894z" fill="url(#SVGID_19_)"/><path d="m308.332 133.19v33.548c0 10.101-5.657 18.879-13.975 23.344 3.725 2 7.982 3.136 12.505 3.136 14.625 0 26.481-11.856 26.481-26.481v-33.547c0-7.821 3.985-14.709 10.033-18.751-3.579-2.391-7.879-3.788-12.506-3.788-12.447.001-22.538 10.092-22.538 22.539z" fill="url(#SVGID_20_)"/></g></g></svg>