<svg id="Capa_1" enable-background="new 0 0 510 510" height="512" viewBox="0 0 510 510" width="512" xmlns="http://www.w3.org/2000/svg" xmlns:xlink="http://www.w3.org/1999/xlink"><linearGradient id="lg1"><stop offset="0" stop-color="#ffdcbd"/><stop offset=".0028" stop-color="#ffdcbd"/><stop offset="1" stop-color="#ffa9b1"/></linearGradient><linearGradient id="SVGID_1_" gradientUnits="userSpaceOnUse" x1="96.364" x2="297.494" xlink:href="#lg1" y1="125.711" y2="125.711"/><linearGradient id="SVGID_2_" gradientUnits="userSpaceOnUse" x1="16.868" x2="255.389" xlink:href="#lg1" y1="156.091" y2="156.091"/><linearGradient id="lg2"><stop offset="0" stop-color="#f8f6f7"/><stop offset=".1788" stop-color="#f8f6f7"/><stop offset="1" stop-color="#e7e6f5"/></linearGradient><linearGradient id="SVGID_3_" gradientUnits="userSpaceOnUse" x1="212.314" x2="457.548" xlink:href="#lg2" y1="105.549" y2="105.549"/><linearGradient id="lg3"><stop offset="0" stop-color="#f8f6f7"/><stop offset="1" stop-color="#d1ceeb"/></linearGradient><linearGradient id="SVGID_4_" gradientUnits="userSpaceOnUse" x1="246.357" x2="467.579" xlink:href="#lg3" y1="105.549" y2="105.549"/><linearGradient id="lg4"><stop offset="0" stop-color="#fef056"/><stop offset=".5213" stop-color="#f4d902"/><stop offset="1" stop-color="#fe9738"/></linearGradient><linearGradient id="SVGID_5_" gradientUnits="userSpaceOnUse" x1="227.033" x2="441.779" xlink:href="#lg4" y1="184.494" y2="184.494"/><linearGradient id="SVGID_6_" gradientUnits="userSpaceOnUse" x1="186.098" x2="439.061" xlink:href="#lg4" y1="184.494" y2="184.494"/><linearGradient id="SVGID_7_" gradientUnits="userSpaceOnUse" x1="146.037" x2="403.383" xlink:href="#lg4" y1="184.494" y2="184.494"/><linearGradient id="SVGID_8_" gradientUnits="userSpaceOnUse" x1="200.765" x2="374.144" xlink:href="#lg4" y1="184.494" y2="184.494"/><linearGradient id="SVGID_9_" gradientUnits="userSpaceOnUse" x1="237.806" x2="446.084" xlink:href="#lg4" y1="184.494" y2="184.494"/><linearGradient id="SVGID_10_" gradientUnits="userSpaceOnUse" x1="133.158" x2="320.886" xlink:href="#lg4" y1="198.081" y2="198.081"/><linearGradient id="SVGID_11_" gradientUnits="userSpaceOnUse" x1="62.352" x2="287.32" xlink:href="#lg4" y1="198.081" y2="198.081"/><linearGradient id="SVGID_12_" gradientUnits="userSpaceOnUse" x1="142.576" x2="324.649" xlink:href="#lg4" y1="198.081" y2="198.081"/><linearGradient id="lg5"><stop offset="0" stop-color="#fe646f"/><stop offset=".593" stop-color="#fb2b3a"/><stop offset="1" stop-color="#c41926"/></linearGradient><linearGradient id="SVGID_13_" gradientUnits="userSpaceOnUse" x1="98.765" x2="466.944" xlink:href="#lg5" y1="337.272" y2="337.272"/><linearGradient id="SVGID_14_" gradientUnits="userSpaceOnUse" x1="-64.236" x2="428.025" xlink:href="#lg5" y1="337.27" y2="337.27"/><linearGradient id="SVGID_15_" gradientUnits="userSpaceOnUse" x1="136.862" x2="453.435" xlink:href="#lg2" y1="362.316" y2="362.316"/><linearGradient id="SVGID_16_" gradientUnits="userSpaceOnUse" x1="110.765" x2="418.927" xlink:href="#lg2" y1="164.544" y2="164.544"/><linearGradient id="SVGID_17_" gradientUnits="userSpaceOnUse" x1="214.858" x2="379.037" xlink:href="#lg4" y1="362.316" y2="362.316"/><linearGradient id="SVGID_18_" gradientUnits="userSpaceOnUse" x1="117.363" x2="372.883" xlink:href="#lg4" y1="362.316" y2="362.316"/><linearGradient id="SVGID_19_" gradientUnits="userSpaceOnUse" x1="246.098" x2="433.069" xlink:href="#lg3" y1="362.315" y2="362.315"/><g><path d="m277.721 239.681-147.135-235.88c-2.192-3.514-6.818-4.586-10.333-2.394-3.514 2.192-4.586 6.818-2.394 10.333l147.135 235.88c2.192 3.514 6.818 4.586 10.333 2.394 3.514-2.192 4.586-6.818 2.394-10.333z" fill="url(#SVGID_1_)"/><path d="m274.379 239.45-213.36-178.229c-3.179-2.655-7.908-2.231-10.564.948s-2.231 7.908.948 10.564l213.36 178.229c3.179 2.655 7.908 2.231 10.564-.948 2.655-3.179 2.231-7.908-.948-10.564z" fill="url(#SVGID_2_)"/><path d="m438.807 149.268c0 82.439-214.532 82.439-214.532 0s48.024-149.268 107.266-149.268 107.266 66.83 107.266 149.268z" fill="url(#SVGID_3_)"/><path d="m331.541 0c-6.839 0-13.526.901-20.01 2.604 49.677 13.045 87.256 73.743 87.256 146.664 0 36.066-41.061 56.354-87.256 60.863 59.395 5.797 127.276-14.49 127.276-60.863 0-82.438-48.025-149.268-107.266-149.268z" fill="url(#SVGID_4_)"/><g><circle cx="326.939" cy="184.494" fill="url(#SVGID_5_)" r="108"/><path d="m326.939 76.494c-6.838 0-13.525.643-20.01 1.858 50.085 9.384 87.99 53.333 87.99 106.142s-37.905 96.758-87.99 106.142c6.485 1.215 13.172 1.858 20.01 1.858 59.647 0 108-48.353 108-108s-48.353-108-108-108z" fill="url(#SVGID_6_)"/><circle cx="326.939" cy="184.494" fill="url(#SVGID_7_)" r="80.825"/><path d="m371 116.749c14.95 18.528 23.919 42.083 23.919 67.745s-8.969 49.217-23.919 67.745c22.125-14.42 36.764-39.366 36.764-67.745s-14.639-53.325-36.764-67.745z" fill="url(#SVGID_8_)"/><circle cx="326.939" cy="184.494" fill="url(#SVGID_9_)" r="51.216"/></g><g><circle cx="220.494" cy="198.081" fill="url(#SVGID_10_)" r="94.412"/><circle cx="220.494" cy="198.081" fill="url(#SVGID_11_)" r="70.656"/><circle cx="220.494" cy="198.081" fill="url(#SVGID_12_)" r="44.772"/></g><path d="m116.722 164.544 18.943 147.524 14.173 50.248-1.269 50.247 9.822 76.491c1.538 11.977 11.733 20.946 23.807 20.946h191.133c12.074 0 22.269-8.969 23.807-20.946l9.822-76.49-.44-50.248 13.344-50.247 18.943-147.525z" fill="url(#SVGID_13_)"/><path d="m438.805 164.54-18.945 147.529-13.341 50.248.436 50.247-9.822 76.487c-1.53 11.98-11.73 20.95-23.8 20.95h-40.02c12.07 0 22.27-8.97 23.8-20.95l24.461-190.513c6.571-51.175-33.295-96.487-84.89-96.487h-175.139l-4.82-37.51h322.08z" fill="url(#SVGID_14_)"/><path d="m406.96 412.564 12.904-100.495h-284.199l12.904 100.495z" fill="url(#SVGID_15_)"/><path d="m448.789 152.044h-342.045c-6.903 0-12.5 5.597-12.5 12.5s5.597 12.5 12.5 12.5h342.045c6.903 0 12.5-5.597 12.5-12.5s-5.597-12.5-12.5-12.5z" fill="url(#SVGID_16_)"/><circle cx="277.764" cy="362.316" fill="url(#SVGID_17_)" r="66.021"/><path d="m277.764 296.295c-4.277 0-8.455.421-12.505 1.198 30.48 5.846 53.516 32.638 53.516 64.823s-23.036 58.977-53.516 64.823c4.051.777 8.228 1.198 12.505 1.198 36.463 0 66.021-29.559 66.021-66.021s-29.558-66.021-66.021-66.021z" fill="url(#SVGID_18_)"/><path d="m419.864 312.07-12.9 100.49h-40.03l12.901-100.49z" fill="url(#SVGID_19_)"/></g></svg>