<svg id="Capa_1" enable-background="new 0 0 510 510" height="512" viewBox="0 0 510 510" width="512" xmlns="http://www.w3.org/2000/svg" xmlns:xlink="http://www.w3.org/1999/xlink"><linearGradient id="lg1"><stop offset="0" stop-color="#fef056"/><stop offset=".5213" stop-color="#fbc56d"/><stop offset="1" stop-color="#c86d36"/></linearGradient><linearGradient id="SVGID_1_" gradientUnits="userSpaceOnUse" x1="11.57" x2="592.026" xlink:href="#lg1" y1="180.312" y2="180.312"/><linearGradient id="SVGID_2_" gradientUnits="userSpaceOnUse" x1="23" x2="477.509" xlink:href="#lg1" y1="180.309" y2="180.309"/><linearGradient id="lg2"><stop offset="0" stop-color="#a2e62e"/><stop offset=".5857" stop-color="#81b823"/><stop offset="1" stop-color="#037e73"/></linearGradient><linearGradient id="SVGID_3_" gradientUnits="userSpaceOnUse" x1="-135" x2="525.212" xlink:href="#lg2" y1="200.438" y2="200.438"/><linearGradient id="SVGID_4_" gradientUnits="userSpaceOnUse" x1="-174" x2="447.18" xlink:href="#lg2" y1="200.44" y2="200.44"/><linearGradient id="lg3"><stop offset="0" stop-color="#fbc56d"/><stop offset=".593" stop-color="#c86d36"/><stop offset="1" stop-color="#904d24"/></linearGradient><linearGradient id="SVGID_5_" gradientUnits="userSpaceOnUse" x1="17.994" x2="583.132" xlink:href="#lg3" y1="262.952" y2="262.952"/><linearGradient id="SVGID_6_" gradientUnits="userSpaceOnUse" x1="-69" x2="421.54" xlink:href="#lg3" y1="140.347" y2="140.347"/><linearGradient id="SVGID_7_" gradientUnits="userSpaceOnUse" x1="-69" x2="421.54" xlink:href="#lg3" y1="208.422" y2="208.422"/><linearGradient id="lg4"><stop offset="0" stop-color="#fe646f"/><stop offset=".593" stop-color="#fb2b3a"/><stop offset="1" stop-color="#c41926"/></linearGradient><linearGradient id="SVGID_8_" gradientUnits="userSpaceOnUse" x1="7.462" x2="213.069" xlink:href="#lg4" y1="187.744" y2="187.744"/><linearGradient id="SVGID_9_" gradientUnits="userSpaceOnUse" x1="-127.705" x2="188.262" xlink:href="#lg4" y1="187.744" y2="187.744"/><linearGradient id="SVGID_10_" gradientUnits="userSpaceOnUse" x1="-127.705" x2="188.262" xlink:href="#lg4" y1="185.723" y2="185.723"/><linearGradient id="SVGID_11_" gradientUnits="userSpaceOnUse" x1="203.638" x2="369.737" xlink:href="#lg4" y1="142.822" y2="142.822"/><linearGradient id="SVGID_12_" gradientUnits="userSpaceOnUse" x1="120.905" x2="335.675" xlink:href="#lg4" y1="142.822" y2="142.822"/><linearGradient id="SVGID_13_" gradientUnits="userSpaceOnUse" x1="120.905" x2="335.675" xlink:href="#lg4" y1="125.417" y2="125.417"/><linearGradient id="SVGID_14_" gradientUnits="userSpaceOnUse" x1="353.421" x2="519.521" xlink:href="#lg4" y1="227.225" y2="227.225"/><linearGradient id="SVGID_15_" gradientUnits="userSpaceOnUse" x1="270.688" x2="485.458" xlink:href="#lg4" y1="227.224" y2="227.224"/><linearGradient id="SVGID_16_" gradientUnits="userSpaceOnUse" x1="270.688" x2="485.458" xlink:href="#lg4" y1="209.819" y2="209.819"/><linearGradient id="SVGID_17_" gradientUnits="userSpaceOnUse" x1="12.46" x2="590.793" xlink:href="#lg2" y1="243.667" y2="243.667"/><linearGradient id="SVGID_18_" gradientUnits="userSpaceOnUse" x1="-3.644" x2="613.09" xlink:href="#lg1" y1="329.688" y2="329.688"/><linearGradient id="SVGID_19_" gradientUnits="userSpaceOnUse" x1="-73" x2="553.343" xlink:href="#lg1" y1="345.718" y2="345.718"/><linearGradient id="SVGID_20_" gradientUnits="userSpaceOnUse" x1="-73" x2="553.343" xlink:href="#lg1" y1="304.53" y2="304.53"/><linearGradient id="SVGID_21_" gradientUnits="userSpaceOnUse" x1="-73" x2="553.343" xlink:href="#lg1" y1="474.095" y2="474.095"/><linearGradient id="SVGID_22_" gradientUnits="userSpaceOnUse" x1="-73" x2="553.343" xlink:href="#lg1" y1="281.384" y2="281.384"/><linearGradient id="SVGID_23_" gradientUnits="userSpaceOnUse" x1="-73" x2="553.343" xlink:href="#lg1" y1="255.051" y2="255.051"/><linearGradient id="SVGID_24_" gradientUnits="userSpaceOnUse" x1="-73" x2="553.343" xlink:href="#lg1" y1="324.021" y2="324.021"/><linearGradient id="SVGID_25_" gradientUnits="userSpaceOnUse" x1="-73" x2="553.343" xlink:href="#lg1" y1="329.685" y2="329.685"/><g><path d="m495 255c0 140.833-480 140.833-480 0s107.452-255 240-255 240 114.167 240 255z" fill="url(#SVGID_1_)"/><path d="m255 0c-6.74 0-13.411.31-20.01.889 123.184 10.806 219.99 120.44 219.99 254.111 0 66.498-107.018 101.591-219.99 105.291 126.285 4.136 260.01-30.956 260.01-105.291 0-140.833-107.452-255-240-255z" fill="url(#SVGID_2_)"/><path d="m469.403 161.572-.01-.125c-1.992-25.332-18.72-46.891-42.292-54.506l-.066-.021c-14.414-4.656-26.62-14.677-34.231-28.103-12.464-21.987-36.659-33.985-61.144-30.319l-.047.007c-14.917 2.233-30.108-1.326-42.613-9.984l-.126-.087c-20.48-14.18-47.27-14.18-67.75 0l-.126.087c-12.505 8.658-27.696 12.218-42.613 9.984l-.047-.007c-24.485-3.666-48.681 8.332-61.144 30.319-7.61 13.425-19.817 23.447-34.231 28.103l-.066.021c-23.572 7.615-40.3 29.174-42.292 54.506l-.01.125c-1.215 15.454-7.979 29.889-18.975 40.493l-.923.891c-17.602 16.978-23.75 43.075-15.655 66.459l35.888 103.663h428.14l35.887-103.662c8.096-23.385 1.948-49.481-15.656-66.459l-.923-.891c-10.996-10.605-17.76-25.04-18.975-40.494z" fill="url(#SVGID_3_)"/><path d="m489.301 202.956-.923-.891c-10.995-10.604-17.759-25.039-18.975-40.493l-.01-.125c-1.992-25.332-18.72-46.891-42.292-54.506l-.066-.021c-14.414-4.656-26.62-14.677-34.231-28.103-12.464-21.987-36.659-33.985-61.144-30.319l-.047.007c-14.917 2.233-30.108-1.326-42.613-9.984l-.126-.087c-16.105-11.151-36.112-13.527-53.885-7.14 4.827 1.735 9.491 4.111 13.865 7.14l.126.087c12.505 8.658 27.696 12.218 42.613 9.984l.047-.007c24.485-3.666 48.681 8.332 61.144 30.319 7.61 13.425 19.817 23.447 34.231 28.103l.066.021c23.572 7.615 40.3 29.174 42.292 54.506l.01.125c1.215 15.454 7.979 29.889 18.975 40.493l.923.891c17.604 16.978 23.752 43.075 15.656 66.459l-35.887 103.663h40.02l35.887-103.662c8.096-23.385 1.948-49.482-15.656-66.46z" fill="url(#SVGID_4_)"/><path d="m488.667 337.64c0 140.833-467.333 140.833-467.333 0s104.616-255 233.667-255 233.666 114.167 233.666 255z" fill="url(#SVGID_5_)"/><g><path d="m255 82.637c-22.14 0-43.55 3.36-63.85 9.63-4.39 9.5-6.84 20.08-6.84 31.23 0 41.18 33.38 74.56 74.56 74.56s74.56-33.38 74.56-74.56c0-9.98-1.96-19.5-5.52-28.2-22.94-8.22-47.45-12.66-72.91-12.66z" fill="url(#SVGID_6_)"/><path d="m396.14 134.387c-35.21 5.94-62.05 36.59-62.05 73.51 0 41.18 33.39 74.56 74.56 74.56 27.43 0 51.39-14.81 64.33-36.86-15.76-44.44-42.61-82.85-76.84-111.21z" fill="url(#SVGID_7_)"/></g><g><g><circle cx="99.754" cy="187.744" fill="url(#SVGID_8_)" r="92.293"/><g><path d="m99.755 95.451c-5.654 0-11.18.536-16.554 1.51 43.068 7.804 75.739 45.466 75.739 90.783 0 14.759-3.483 28.695-9.644 41.063-3.122-14.058-16.063-24.421-31.261-23.502-14.769.893-26.923 12.757-28.138 27.503-.638 7.746 1.658 14.942 5.897 20.597 6.731 8.978 2.008 21.938-8.943 24.385-1.208.27-2.425.516-3.65.738 5.373.974 10.9 1.51 16.554 1.51 50.972 0 92.293-41.321 92.293-92.293-.001-50.973-41.322-92.294-92.293-92.294z" fill="url(#SVGID_9_)"/><circle cx="53.087" cy="185.723" fill="url(#SVGID_10_)" r="19.525"/></g></g><g><circle cx="278.197" cy="142.822" fill="url(#SVGID_11_)" r="74.559"/><g><path d="m278.197 68.264c-4.568 0-9.032.433-13.373 1.219 34.792 6.304 61.186 36.729 61.186 73.339 0 11.923-2.814 23.181-7.791 33.172-2.523-11.357-12.977-19.729-25.254-18.986-11.931.721-21.75 10.306-22.732 22.218-.516 6.258 1.339 12.071 4.764 16.639 5.438 7.253 1.622 17.723-7.225 19.7-.976.218-1.959.417-2.948.596 4.341.787 8.805 1.219 13.373 1.219 41.177 0 74.559-33.381 74.559-74.559-.001-41.176-33.382-74.557-74.559-74.557z" fill="url(#SVGID_12_)"/><circle cx="262.424" cy="125.417" fill="url(#SVGID_13_)" r="15.773"/></g></g><g><circle cx="427.98" cy="227.225" fill="url(#SVGID_14_)" r="74.559"/><g><path d="m427.98 152.666c-4.568 0-9.032.433-13.373 1.219 34.792 6.304 61.186 36.729 61.186 73.339 0 11.923-2.814 23.181-7.791 33.172-2.523-11.357-12.977-19.729-25.254-18.986-11.931.721-21.75 10.306-22.732 22.218-.516 6.258 1.339 12.071 4.764 16.639 5.438 7.253 1.622 17.723-7.225 19.7-.976.218-1.959.417-2.948.596 4.341.787 8.805 1.219 13.373 1.219 41.177 0 74.559-33.381 74.559-74.559-.001-41.176-33.382-74.557-74.559-74.557z" fill="url(#SVGID_15_)"/><circle cx="412.207" cy="209.819" fill="url(#SVGID_16_)" r="15.773"/></g></g></g><path d="m457.263 215.827-.009-.09c-1.879-18.146-17.66-33.59-39.897-39.044l-.062-.015c-13.598-3.335-25.113-10.514-32.292-20.131-11.758-15.75-34.583-24.344-57.682-21.718l-.044.005c-14.072 1.6-28.403-.95-40.2-7.152l-.119-.063c-19.32-10.158-44.594-10.158-63.914 0l-.119.063c-11.797 6.202-26.128 8.752-40.2 7.152l-.044-.005c-23.098-2.626-45.924 5.968-57.682 21.718-7.179 9.617-18.694 16.796-32.292 20.131l-.062.015c-22.237 5.455-38.018 20.898-39.897 39.044l-.009.09c-1.146 11.07-7.527 21.41-17.9 29.007l-.871.638c-16.607 12.162-22.407 30.856-14.77 47.607l33.855 74.257h403.897l33.855-74.257c7.637-16.751 1.837-35.445-14.77-47.607l-.871-.638c-10.374-7.597-16.755-17.937-17.901-29.007z" fill="url(#SVGID_17_)"/><g><path d="m510 404.376c0 140.833-510 140.833-510 0s114.167-255 255-255 255 114.167 255 255z" fill="url(#SVGID_18_)"/><g><circle cx="385.292" cy="345.718" fill="url(#SVGID_19_)" r="26.333"/><circle cx="345.792" cy="304.53" fill="url(#SVGID_20_)" r="13.167"/><circle cx="264.824" cy="474.095" fill="url(#SVGID_21_)" r="13.167"/><path d="m196.292 268.218c-7.272 0-13.167 5.895-13.167 13.167s5.895 13.167 13.167 13.167 13.167-5.895 13.167-13.167-5.895-13.167-13.167-13.167z" fill="url(#SVGID_22_)"/><path d="m124.823 241.885c-7.272 0-13.167 5.895-13.167 13.167s5.895 13.167 13.167 13.167 13.167-5.895 13.167-13.167c0-7.273-5.895-13.167-13.167-13.167z" fill="url(#SVGID_23_)"/><circle cx="106.738" cy="324.021" fill="url(#SVGID_24_)" r="25.062"/><path d="m255 149.376c-6.735 0-13.407.266-20.01.778 41.188 3.197 79.63 16.182 113.006 36.628-8.978 4.494-15.034 13.962-14.537 24.794.608 13.271 11.289 24.176 24.545 25.038 5.497.357 10.661-.974 15.024-3.525 12.069-7.056 27.62-4.05 36.654 6.62 37.614 44.426 60.298 101.895 60.298 164.666 0 66.729-114.498 101.835-234.99 105.329 133.809 3.881 275.01-31.225 275.01-105.328 0-140.833-114.167-255-255-255z" fill="url(#SVGID_25_)"/></g></g></g></svg>