<svg id="Capa_1" enable-background="new 0 0 510 510" height="512" viewBox="0 0 510 510" width="512" xmlns="http://www.w3.org/2000/svg" xmlns:xlink="http://www.w3.org/1999/xlink"><linearGradient id="lg1"><stop offset="0" stop-color="#fbc56d"/><stop offset=".593" stop-color="#c86d36"/><stop offset="1" stop-color="#904d24"/></linearGradient><linearGradient id="SVGID_1_" gradientUnits="userSpaceOnUse" x1="11" x2="511.676" xlink:href="#lg1" y1="396.046" y2="396.046"/><linearGradient id="SVGID_2_" gradientUnits="userSpaceOnUse" x1="-170.667" x2="443.617" xlink:href="#lg1" y1="396.045" y2="396.045"/><linearGradient id="SVGID_3_" gradientUnits="userSpaceOnUse" x1="12.576" x2="510.016" xlink:href="#lg1" y1="249.053" y2="249.053"/><linearGradient id="SVGID_4_" gradientUnits="userSpaceOnUse" x1="-56" x2="419.52" xlink:href="#lg1" y1="249.055" y2="249.055"/><linearGradient id="lg2"><stop offset="0" stop-color="#fe646f"/><stop offset=".593" stop-color="#fb2b3a"/><stop offset="1" stop-color="#c41926"/></linearGradient><linearGradient id="SVGID_5_" gradientUnits="userSpaceOnUse" x1="15.012" x2="539.006" xlink:href="#lg2" y1="322.55" y2="322.55"/><linearGradient id="SVGID_6_" gradientUnits="userSpaceOnUse" x1="15.5" x2="137.832" xlink:href="#lg2" y1="322.55" y2="322.55"/><linearGradient id="SVGID_7_" gradientUnits="userSpaceOnUse" x1="142" x2="398.125" xlink:href="#lg2" y1="322.55" y2="322.55"/><linearGradient id="lg3"><stop offset="0" stop-color="#a2e62e"/><stop offset=".5857" stop-color="#81b823"/><stop offset="1" stop-color="#037e73"/></linearGradient><linearGradient id="SVGID_8_" gradientUnits="userSpaceOnUse" x1="19.753" x2="549.29" xlink:href="#lg3" y1="210.183" y2="210.183"/><linearGradient id="SVGID_9_" gradientUnits="userSpaceOnUse" x1="-195.834" x2="501.947" xlink:href="#lg3" y1="210.185" y2="210.185"/><linearGradient id="lg4"><stop offset="0" stop-color="#fef056"/><stop offset=".5213" stop-color="#fbc56d"/><stop offset="1" stop-color="#c86d36"/></linearGradient><linearGradient id="SVGID_10_" gradientUnits="userSpaceOnUse" x1="-17.813" x2="643" xlink:href="#lg4" y1="92.645" y2="92.645"/><linearGradient id="SVGID_11_" gradientUnits="userSpaceOnUse" x1="0" x2="574.001" xlink:href="#lg4" y1="465.484" y2="465.484"/><linearGradient id="SVGID_12_" gradientUnits="userSpaceOnUse" x1="53.154" x2="506.193" xlink:href="#lg4" y1="465.484" y2="465.484"/><linearGradient id="SVGID_13_" gradientUnits="userSpaceOnUse" x1="109.876" x2="228.353" y1="329.017" y2="329.017"><stop offset="0" stop-color="#ffdcbd"/><stop offset=".0028" stop-color="#ffdcbd"/><stop offset="1" stop-color="#ffa9b1"/></linearGradient><linearGradient id="SVGID_14_" gradientUnits="userSpaceOnUse" x1="97.274" x2="227.872" y1="329.017" y2="329.017"><stop offset="0" stop-color="#ffc2b5"/><stop offset="1" stop-color="#ff89a8"/></linearGradient><linearGradient id="lg5"><stop offset="0" stop-color="#fef056"/><stop offset=".5213" stop-color="#f4d902"/><stop offset="1" stop-color="#fe9738"/></linearGradient><linearGradient id="SVGID_15_" gradientUnits="userSpaceOnUse" x1="209.192" x2="461.183" xlink:href="#lg5" y1="340.55" y2="340.55"/><linearGradient id="SVGID_16_" gradientUnits="userSpaceOnUse" x1="121" x2="421.082" xlink:href="#lg5" y1="340.547" y2="340.547"/><linearGradient id="SVGID_17_" gradientUnits="userSpaceOnUse" x1="-56.667" x2="525.341" xlink:href="#lg4" y1="92.645" y2="92.645"/><linearGradient id="SVGID_18_" gradientUnits="userSpaceOnUse" x1="-56.667" x2="525.341" xlink:href="#lg4" y1="147" y2="147"/><linearGradient id="SVGID_19_" gradientUnits="userSpaceOnUse" x1="-56.667" x2="525.341" xlink:href="#lg4" y1="105.812" y2="105.812"/><linearGradient id="SVGID_20_" gradientUnits="userSpaceOnUse" x1="-56.667" x2="525.341" xlink:href="#lg4" y1="82.667" y2="82.667"/><linearGradient id="SVGID_21_" gradientUnits="userSpaceOnUse" x1="-56.667" x2="525.341" xlink:href="#lg4" y1="56.333" y2="56.333"/><linearGradient id="SVGID_22_" gradientUnits="userSpaceOnUse" x1="-56.667" x2="525.341" xlink:href="#lg4" y1="125.303" y2="125.303"/><g><path d="m434.673 444.793h-359.346c-21.402 0-38.752-17.35-38.752-38.752v-19.991c0-21.402 17.35-38.752 38.752-38.752h359.346c21.402 0 38.752 17.35 38.752 38.752v19.991c0 21.403-17.35 38.752-38.752 38.752z" fill="url(#SVGID_1_)"/><path d="m473.43 386.05v19.99c0 21.4-17.35 38.75-38.76 38.75h-40.02c21.41 0 38.75-17.35 38.75-38.75v-19.99c0-.048 0-.097 0-.145-.028-7.555-6.324-13.595-13.878-13.595h-60.942l-17.3 17.3c-24.94 24.93-65.37 24.93-90.3 0l-17.3-17.3h-62.97c-18.01 17.23-46.42 17.23-64.42 0h-67.21c5.54-14.62 19.68-25.01 36.25-25.01h359.34c10.97 0 20.87 4.55 27.92 11.87 6.71 6.97 10.84 16.44 10.84 26.88z" fill="url(#SVGID_2_)"/><path d="m434.673 297.801h-359.346c-21.402 0-38.752-17.35-38.752-38.752v-19.991c0-21.402 17.35-38.752 38.752-38.752h359.346c21.402 0 38.752 17.35 38.752 38.752v19.991c0 21.402-17.35 38.752-38.752 38.752z" fill="url(#SVGID_3_)"/><path d="m473.43 239.06v19.99c0 21.4-17.35 38.75-38.76 38.75h-25.762c-12.845 0-25.37-4.572-34.847-13.243-1.395-1.277-2.684-2.611-3.791-3.987-7.75-9.63-17.91-14.44-28.06-14.44s-20.31 4.81-28.05 14.44c-7.75 9.63-17.9 14.44-28.06 14.44s-20.31-4.81-28.06-14.44c-7.74-9.63-17.9-14.44-28.05-14.44s-20.31 4.81-28.06 14.44-17.9 14.44-28.05 14.44c-10.16 0-20.31-4.81-28.06-14.44-7.74-9.63-17.9-14.44-28.06-14.44-10.15 0-20.3 4.81-28.05 14.44-7.95 9.88-18.43 14.68-28.85 14.43-14.24-5.72-24.29-19.66-24.29-35.95v-19.99c0-21.401 17.349-38.75 38.75-38.75h359.35c12.42 0 23.47 5.84 30.56 14.92 5.14 6.57 8.2 14.84 8.2 23.83z" fill="url(#SVGID_4_)"/><path d="m465.74 347.298h-421.479c-13.668 0-24.749-11.08-24.749-24.749 0-13.668 11.08-24.749 24.749-24.749h37.502l173.237 4.2 178.086-4.199h32.654c13.668 0 24.749 11.08 24.749 24.749-.001 13.668-11.081 24.748-24.749 24.748z" fill="url(#SVGID_5_)"/><path d="m81.762 297.801h-32.705l49.498 49.497h35.371z" fill="url(#SVGID_6_)"/><path d="m465.74 297.801h-32.653s-3.823.218-2.03.631c10.982 2.53 19.171 12.367 19.171 24.118 0 13.668-11.08 24.749-24.749 24.749h40.261c13.668 0 24.749-11.08 24.749-24.749-.001-13.669-11.081-24.749-24.749-24.749z" fill="url(#SVGID_7_)"/><path d="m457.406 150.365h-404.813c-28.09 0-43.443 41.681-24.401 67.342.363.489.736.972 1.118 1.446l29.299 36.406c15.495 19.254 40.617 19.254 56.112 0s40.617-19.254 56.112 0 40.617 19.254 56.112 0 40.617-19.254 56.112 0 40.617 19.254 56.112 0 40.617-19.254 56.112 0 40.617 19.254 56.112 0l29.299-36.406c.382-.475.755-.957 1.118-1.446 19.039-25.661 3.687-67.342-24.404-67.342z" fill="url(#SVGID_8_)"/><path d="m481.81 217.71c-.37.49-.74.97-1.12 1.44l-29.3 36.41c-7.75 9.62-17.9 14.44-28.05 14.44-6.93 0-13.86-2.24-20.02-6.72 2.87-2.08 5.58-4.66 8.05-7.72 0 0 1.876-2.381 4.756-6.053 12.481-15.907 1.15-39.207-19.069-39.207h-373.237c-3.65-7.91-4.72-16.68-3.7-25.01 2.26-18.54 14.86-34.92 32.47-34.92h404.82c28.09 0 43.44 41.68 24.4 67.34z" fill="url(#SVGID_9_)"/><path d="m477.491 185.291h-444.982c-22.034 0-37.763-21.526-30.872-42.455 26.955-81.872 130.16-142.836 253.363-142.836s226.408 60.964 253.363 142.836c6.89 20.929-8.838 42.455-30.872 42.455z" fill="url(#SVGID_10_)"/><path d="m446.445 510h-382.89c-35.101 0-63.555-28.454-63.555-63.555 0-14.07 11.406-25.477 25.477-25.477h459.047c14.07 0 25.477 11.406 25.477 25.477-.001 35.101-28.455 63.555-63.556 63.555z" fill="url(#SVGID_11_)"/><path d="m484.523 420.969h-40.02c14.07 0 25.477 11.406 25.477 25.477 0 35.1-28.454 63.555-63.555 63.555h40.02c35.1 0 63.555-28.454 63.555-63.555 0-14.071-11.406-25.477-25.477-25.477z" fill="url(#SVGID_12_)"/><path d="m81.762 297.801 48.776 48.776c18.209 18.209 47.732 18.209 65.941 0l32.424-32.424-19.711-16.352z" fill="url(#SVGID_13_)"/><path d="m228.902 314.153-32.422 32.427c-12.32 12.32-29.81 16.3-45.48 11.95 7.5-2.07 14.57-6.06 20.47-11.95l12.713-12.717c9.957-9.96 9.955-26.105-.003-36.063h25.011z" fill="url(#SVGID_14_)"/><path d="m209.191 297.801 66.796 66.796c24.936 24.936 65.366 24.936 90.303 0l66.796-66.796z" fill="url(#SVGID_15_)"/><path d="m408.075 297.801-66.796 66.796c-9.271 9.271-20.684 15.088-32.646 17.466 20.212 4.017 41.991-1.8 57.657-17.466l66.796-66.796z" fill="url(#SVGID_16_)"/><g><path d="m508.363 142.836c-26.955-81.872-130.16-142.836-253.363-142.836-6.734 0-13.404.193-20.01.551 36.911 1.999 71.663 9.486 102.667 21.308-7.519 4.665-12.39 13.194-11.826 22.816.733 12.517 10.903 22.726 23.417 23.504 6.659.414 12.801-1.775 17.508-5.645 11.091-9.12 26.815-10.034 38.365-1.503 21.402 15.807 49.085 42.524 63.221 81.806 7.46 20.733-8.838 42.455-30.872 42.455h40.02c22.035-.001 37.763-21.527 30.873-42.456z" fill="url(#SVGID_17_)"/><circle cx="417" cy="147" fill="url(#SVGID_18_)" r="26.333"/><circle cx="377.5" cy="105.812" fill="url(#SVGID_19_)" r="13.167"/><path d="m228 69.5c-7.272 0-13.167 5.895-13.167 13.167s5.895 13.167 13.167 13.167 13.167-5.895 13.167-13.167-5.895-13.167-13.167-13.167z" fill="url(#SVGID_20_)"/><path d="m156.531 43.167c-7.272 0-13.167 5.895-13.167 13.167s5.895 13.167 13.167 13.167 13.167-5.895 13.167-13.167-5.895-13.167-13.167-13.167z" fill="url(#SVGID_21_)"/><circle cx="138.446" cy="125.303" fill="url(#SVGID_22_)" r="25.062"/></g></g></svg>