<svg id="Capa_1" enable-background="new 0 0 510 510" height="512" viewBox="0 0 510 510" width="512" xmlns="http://www.w3.org/2000/svg" xmlns:xlink="http://www.w3.org/1999/xlink"><linearGradient id="lg1"><stop offset="0" stop-color="#f8f6f7"/><stop offset=".1788" stop-color="#f8f6f7"/><stop offset="1" stop-color="#e7e6f5"/></linearGradient><linearGradient id="SVGID_1_" gradientUnits="userSpaceOnUse" x1="85.414" x2="499.417" xlink:href="#lg1" y1="168.258" y2="168.258"/><linearGradient id="lg2"><stop offset="0" stop-color="#f8f6f7"/><stop offset="1" stop-color="#d1ceeb"/></linearGradient><linearGradient id="SVGID_2_" gradientUnits="userSpaceOnUse" x1="25.506" x2="506.676" xlink:href="#lg2" y1="205.32" y2="205.32"/><linearGradient id="SVGID_3_" gradientUnits="userSpaceOnUse" x1="25.506" x2="506.676" xlink:href="#lg2" y1="182.174" y2="182.174"/><linearGradient id="SVGID_4_" gradientUnits="userSpaceOnUse" x1="25.506" x2="506.676" xlink:href="#lg2" y1="155.841" y2="155.841"/><linearGradient id="SVGID_5_" gradientUnits="userSpaceOnUse" x1="25.506" x2="506.676" xlink:href="#lg2" y1="224.811" y2="224.811"/><linearGradient id="SVGID_6_" gradientUnits="userSpaceOnUse" x1="25.506" x2="506.676" xlink:href="#lg2" y1="168.259" y2="168.259"/><linearGradient id="lg3"><stop offset="0" stop-color="#fe646f"/><stop offset=".593" stop-color="#fb2b3a"/><stop offset="1" stop-color="#c41926"/></linearGradient><linearGradient id="SVGID_7_" gradientUnits="userSpaceOnUse" x1="96.504" x2="586.017" xlink:href="#lg3" y1="63.84" y2="63.84"/><linearGradient id="SVGID_8_" gradientUnits="userSpaceOnUse" x1="-14" x2="463.468" xlink:href="#lg3" y1="63.842" y2="63.842"/><linearGradient id="SVGID_9_" gradientUnits="userSpaceOnUse" x1="-14" x2="463.468" xlink:href="#lg3" y1="30.219" y2="30.219"/><linearGradient id="SVGID_10_" gradientUnits="userSpaceOnUse" x1="11.735" x2="425.739" xlink:href="#lg1" y1="395.603" y2="395.603"/><linearGradient id="SVGID_11_" gradientUnits="userSpaceOnUse" x1="-48.173" x2="432.997" xlink:href="#lg2" y1="432.665" y2="432.665"/><linearGradient id="SVGID_12_" gradientUnits="userSpaceOnUse" x1="-48.173" x2="432.997" xlink:href="#lg2" y1="409.52" y2="409.52"/><linearGradient id="SVGID_13_" gradientUnits="userSpaceOnUse" x1="-48.173" x2="432.997" xlink:href="#lg2" y1="383.187" y2="383.187"/><linearGradient id="SVGID_14_" gradientUnits="userSpaceOnUse" x1="-48.173" x2="432.997" xlink:href="#lg2" y1="452.157" y2="452.157"/><linearGradient id="SVGID_15_" gradientUnits="userSpaceOnUse" x1="-48.173" x2="432.997" xlink:href="#lg2" y1="395.605" y2="395.605"/><linearGradient id="lg4"><stop offset="0" stop-color="#fbc56d"/><stop offset=".5841" stop-color="#fe9738"/><stop offset=".9984" stop-color="#fb2b3a"/></linearGradient><linearGradient id="SVGID_16_" gradientUnits="userSpaceOnUse" x1="22.825" x2="512.338" xlink:href="#lg4" y1="291.186" y2="291.186"/><linearGradient id="SVGID_17_" gradientUnits="userSpaceOnUse" x1="3.827" x2="438.464" xlink:href="#lg4" y1="291.188" y2="291.188"/><linearGradient id="SVGID_18_" gradientUnits="userSpaceOnUse" x1="3.827" x2="438.464" xlink:href="#lg4" y1="257.565" y2="257.565"/><g><g><path d="m411.428 282.651h-239.177c-54.44 0-98.572-44.132-98.572-98.572 0-71.915 58.299-130.213 130.213-130.213h175.895c71.914-.001 130.213 58.297 130.213 130.212 0 54.44-44.132 98.573-98.572 98.573z" fill="url(#SVGID_1_)"/><g><circle cx="404.814" cy="205.32" fill="url(#SVGID_2_)" r="13.167"/><path d="m255.314 169.008c-7.272 0-13.167 5.895-13.167 13.167s5.895 13.167 13.167 13.167 13.167-5.895 13.167-13.167c0-7.273-5.895-13.167-13.167-13.167z" fill="url(#SVGID_3_)"/><path d="m183.845 142.674c-7.272 0-13.167 5.895-13.167 13.167s5.895 13.167 13.167 13.167 13.167-5.895 13.167-13.167-5.895-13.167-13.167-13.167z" fill="url(#SVGID_4_)"/><circle cx="165.76" cy="224.811" fill="url(#SVGID_5_)" r="25.062"/><path d="m493.969 121.444c-22.13-40.28-64.97-67.58-114.18-67.58h-175.9c-35.95 0-68.51 14.57-92.07 38.14-8.69 8.69-16.15 18.59-22.11 29.44 6.26 22.83 32.05 40.09 58.63 26.37 29.29-15.11 61.05-26.54 90.15-26.54h106.7c29.1 0 60.86 11.43 90.15 26.54 3.199 1.65 6.387 2.852 9.531 3.65 14.583 3.701 24.998 16.604 25.106 31.649.002.32.004.641.004.961 0 14.952-3.334 29.122-9.291 41.818-4.813-3.828-10.993-6.013-17.693-5.685-13.269.649-24.154 11.39-24.964 24.65-.16 2.623.064 5.17.622 7.589 2.307 10-2.778 20.227-12.376 23.86-10.84 4.103-22.592 6.349-34.868 6.349h40.02c27.22 0 51.86-11.04 69.7-28.88s28.87-42.48 28.87-69.7c-.001-22.701-5.811-44.051-16.031-62.631z" fill="url(#SVGID_6_)"/></g><path d="m238.487 96.267h106.704c29.1 0 60.862 11.424 90.146 26.537 41.288 21.307 80.686-32.147 47.913-65.08-35.48-35.655-84.6-57.724-138.874-57.724h-105.073c-54.274 0-103.394 22.069-138.875 57.723-32.773 32.933 6.625 86.387 47.913 65.08 29.285-15.112 61.046-26.536 90.146-26.536z" fill="url(#SVGID_7_)"/><g><path d="m483.25 57.723c-30.125-30.272-70.083-50.752-114.68-56.244 0 0-.018 0-.044.001-7.916-.976-15.971-1.475-24.146-1.475h-47.96c-18.65 5.25-33.47 12.5-44.43 19.2-23.66 14.47-35.04 29.5-35.51 30.13-2.48 3.32-1.8 8.02 1.52 10.5 1.35 1 2.92 1.49 4.48 1.49 2.29 0 4.54-1.04 6.02-3.01.377-.509 36.919-48.12 117.147-50.696 8.623-.277 17.241 1.08 25.353 4.015l.124.045c-58.31 6.734-86.814 40.306-88.222 42.007-2.635 3.184-2.189 7.89.986 10.535 1.399 1.165 3.099 1.733 4.79 1.733 2.146 0 4.28-.916 5.766-2.688.092-.11 9.436-11.115 28.028-21.116 17.642-9.489 37.247-14.938 58.522-16.301 13.219-.847 26.381 2.872 37.157 10.575l.162.116c-61.14 2.269-92.779 35.585-94.312 37.242-2.807 3.033-2.623 7.756.401 10.573 1.442 1.343 3.275 2.007 5.105 2.007 2.006 0 4.009-.798 5.486-2.375.099-.104 10.038-10.576 29.156-19.531 19.588-9.175 41.199-13.511 64.466-12.988 5.462.123 10.698 2.325 14.554 6.196.02.02.04.04.06.06 21.56 21.665 11.884 52.208-9.013 64.508.373.191.748.38 1.12.572 41.289 21.306 80.687-32.148 47.914-65.081z" fill="url(#SVGID_8_)"/><path d="m239.299.004c-.126 0-.251 0-.377 0-20.403.038-40.047 7.95-54.947 21.888-15.109 14.134-21.636 26.549-22.196 27.641-1.87 3.68-.41 8.18 3.26 10.07 1.09.56 2.26.83 3.42.83 2.71 0 5.34-1.49 6.67-4.06.07-.13 6.8-12.9 22.77-26.71 16.04-13.87 35.2-23.8 57.17-29.66h-15.77z" fill="url(#SVGID_9_)"/></g></g><g><path d="m337.749 509.996h-239.177c-54.44 0-98.572-44.132-98.572-98.572 0-71.915 58.299-130.214 130.213-130.214h175.895c71.915 0 130.213 58.299 130.213 130.213 0 54.441-44.132 98.573-98.572 98.573z" fill="url(#SVGID_10_)"/><g><circle cx="331.135" cy="432.665" fill="url(#SVGID_11_)" r="13.167"/><path d="m181.635 396.353c-7.272 0-13.167 5.895-13.167 13.167s5.895 13.167 13.167 13.167 13.167-5.895 13.167-13.167-5.895-13.167-13.167-13.167z" fill="url(#SVGID_12_)"/><path d="m110.167 370.02c-7.272 0-13.167 5.895-13.167 13.167s5.895 13.167 13.167 13.167 13.167-5.895 13.167-13.167c-.001-7.272-5.896-13.167-13.167-13.167z" fill="url(#SVGID_13_)"/><circle cx="92.081" cy="452.156" fill="url(#SVGID_14_)" r="25.062"/><path d="m420.291 348.79c-22.13-40.28-64.97-67.58-114.18-67.58h-175.9c-35.95 0-68.51 14.57-92.07 38.14-8.69 8.69-16.15 18.59-22.11 29.44 6.26 22.83 32.05 40.09 58.63 26.37 29.29-15.11 61.05-26.54 90.15-26.54h106.7c29.1 0 60.86 11.43 90.15 26.54 3.199 1.65 6.387 2.852 9.531 3.65 14.583 3.701 24.998 16.604 25.106 31.649.002.32.004.641.004.961 0 14.952-3.334 29.122-9.291 41.818-4.813-3.828-10.993-6.013-17.693-5.685-13.269.649-24.154 11.39-24.964 24.65-.16 2.623.064 5.17.622 7.589 2.307 10-2.778 20.227-12.376 23.86-10.84 4.103-22.592 6.349-34.868 6.349h40.02c27.22 0 51.86-11.04 69.7-28.88s28.87-42.48 28.87-69.7c-.001-22.701-5.811-44.051-16.031-62.631z" fill="url(#SVGID_15_)"/></g><path d="m164.809 323.612h106.704c29.1 0 60.862 11.424 90.146 26.537 41.288 21.307 80.686-32.147 47.913-65.08-35.481-35.654-84.6-57.723-138.875-57.723h-105.073c-54.274 0-103.394 22.069-138.875 57.723-32.773 32.933 6.625 86.387 47.913 65.08 29.285-15.112 61.046-26.537 90.147-26.537z" fill="url(#SVGID_16_)"/><g><path d="m409.572 285.069c-30.125-30.273-70.083-50.752-114.68-56.244 0 0-.018 0-.044.001-7.916-.976-15.971-1.475-24.146-1.475h-47.96c-18.65 5.25-33.47 12.5-44.43 19.2-23.66 14.47-35.04 29.5-35.51 30.13-2.48 3.32-1.8 8.02 1.52 10.5 1.35 1 2.92 1.49 4.48 1.49 2.29 0 4.54-1.04 6.02-3.01.377-.509 36.919-48.12 117.147-50.696 8.623-.277 17.241 1.08 25.353 4.015l.124.045c-58.31 6.734-86.814 40.306-88.222 42.007-2.635 3.184-2.189 7.89.986 10.535 1.399 1.165 3.099 1.733 4.79 1.733 2.146 0 4.28-.916 5.766-2.688.092-.11 9.436-11.115 28.028-21.116 17.642-9.489 37.247-14.938 58.522-16.301 13.219-.847 26.381 2.872 37.157 10.575l.162.116c-61.14 2.269-92.779 35.585-94.312 37.242-2.807 3.033-2.623 7.756.401 10.573 1.442 1.343 3.275 2.007 5.105 2.007 2.006 0 4.009-.798 5.486-2.375.099-.104 10.038-10.576 29.156-19.531 19.588-9.175 41.199-13.511 64.466-12.988 5.462.123 10.698 2.325 14.554 6.196l.06.06c21.56 21.665 11.884 52.208-9.013 64.508.373.191.748.38 1.12.572 41.288 21.306 80.686-32.148 47.914-65.081z" fill="url(#SVGID_17_)"/><path d="m165.621 227.35c-.126 0-.251 0-.377 0-20.403.038-40.047 7.95-54.947 21.888-15.109 14.134-21.636 26.549-22.196 27.641-1.87 3.68-.41 8.18 3.26 10.07 1.09.56 2.26.83 3.42.83 2.71 0 5.34-1.49 6.67-4.06.07-.13 6.8-12.9 22.77-26.71 16.04-13.87 35.2-23.8 57.17-29.66h-15.77z" fill="url(#SVGID_18_)"/></g></g></g></svg>