<svg id="Capa_1" enable-background="new 0 0 510 510" height="512" viewBox="0 0 510 510" width="512" xmlns="http://www.w3.org/2000/svg" xmlns:xlink="http://www.w3.org/1999/xlink"><linearGradient id="lg1"><stop offset="0" stop-color="#ffc2b5"/><stop offset="1" stop-color="#ff89a8"/></linearGradient><linearGradient id="SVGID_1_" gradientUnits="userSpaceOnUse" x1="72.89" x2="522.597" xlink:href="#lg1" y1="226.084" y2="226.084"/><linearGradient id="lg2"><stop offset="0" stop-color="#a2e62e"/><stop offset=".5857" stop-color="#81b823"/><stop offset="1" stop-color="#037e73"/></linearGradient><linearGradient id="SVGID_2_" gradientUnits="userSpaceOnUse" x1="-169" x2="487.83" xlink:href="#lg2" y1="250.182" y2="250.182"/><linearGradient id="lg3"><stop offset="0" stop-color="#fe646f"/><stop offset=".593" stop-color="#fb2b3a"/><stop offset="1" stop-color="#c41926"/></linearGradient><linearGradient id="SVGID_3_" gradientTransform="matrix(.781 .624 -.624 .781 161.162 -575.352)" gradientUnits="userSpaceOnUse" x1="332.587" x2="538.194" xlink:href="#lg3" y1="561.582" y2="561.582"/><linearGradient id="SVGID_4_" gradientTransform="matrix(.781 .624 -.624 .781 161.162 -575.352)" gradientUnits="userSpaceOnUse" x1="197.42" x2="513.387" xlink:href="#lg3" y1="561.582" y2="561.582"/><linearGradient id="SVGID_5_" gradientTransform="matrix(.781 .624 -.624 .781 161.162 -575.352)" gradientUnits="userSpaceOnUse" x1="197.42" x2="513.387" xlink:href="#lg3" y1="559.561" y2="559.561"/><linearGradient id="SVGID_6_" gradientTransform="matrix(.781 .624 -.624 .781 161.162 -575.352)" gradientUnits="userSpaceOnUse" x1="529.858" x2="695.958" xlink:href="#lg3" y1="533.244" y2="533.244"/><linearGradient id="SVGID_7_" gradientTransform="matrix(.781 .624 -.624 .781 161.162 -575.352)" gradientUnits="userSpaceOnUse" x1="447.125" x2="661.895" xlink:href="#lg3" y1="533.244" y2="533.244"/><linearGradient id="SVGID_8_" gradientTransform="matrix(.781 .624 -.624 .781 161.162 -575.352)" gradientUnits="userSpaceOnUse" x1="447.125" x2="661.895" xlink:href="#lg3" y1="515.838" y2="515.838"/><linearGradient id="SVGID_9_" gradientTransform="matrix(.781 .624 -.624 .781 161.162 -575.352)" gradientUnits="userSpaceOnUse" x1="684.517" x2="850.616" xlink:href="#lg3" y1="592.623" y2="592.623"/><linearGradient id="SVGID_10_" gradientTransform="matrix(.781 .624 -.624 .781 161.162 -575.352)" gradientUnits="userSpaceOnUse" x1="601.783" x2="816.554" xlink:href="#lg3" y1="592.623" y2="592.623"/><linearGradient id="SVGID_11_" gradientTransform="matrix(.781 .624 -.624 .781 161.162 -575.352)" gradientUnits="userSpaceOnUse" x1="601.783" x2="816.554" xlink:href="#lg3" y1="575.218" y2="575.218"/><linearGradient id="SVGID_12_" gradientUnits="userSpaceOnUse" x1="-112.23" x2="740.669" xlink:href="#lg2" y1="278.888" y2="278.888"/><linearGradient id="SVGID_13_" gradientUnits="userSpaceOnUse" x1="-132" x2="585.117" xlink:href="#lg2" y1="278.885" y2="278.885"/><linearGradient id="SVGID_14_" gradientUnits="userSpaceOnUse" x1="-11" x2="383.154" y1="280.016" y2="280.016"><stop offset="0" stop-color="#ffdcbd"/><stop offset=".0028" stop-color="#ffdcbd"/><stop offset="1" stop-color="#ffa9b1"/></linearGradient><linearGradient id="SVGID_15_" gradientUnits="userSpaceOnUse" x1="13" x2="512.144" xlink:href="#lg1" y1="460.364" y2="460.364"/><linearGradient id="SVGID_16_" gradientUnits="userSpaceOnUse" x1="13" x2="512.144" xlink:href="#lg1" y1="419.176" y2="419.176"/><linearGradient id="SVGID_17_" gradientUnits="userSpaceOnUse" x1="13" x2="512.144" xlink:href="#lg1" y1="336.721" y2="336.721"/><linearGradient id="SVGID_18_" gradientUnits="userSpaceOnUse" x1="13" x2="512.144" xlink:href="#lg1" y1="239.622" y2="239.622"/><linearGradient id="SVGID_19_" gradientUnits="userSpaceOnUse" x1="13" x2="512.144" xlink:href="#lg1" y1="213.288" y2="213.288"/><linearGradient id="SVGID_20_" gradientUnits="userSpaceOnUse" x1="13" x2="512.144" xlink:href="#lg1" y1="282.258" y2="282.258"/><linearGradient id="SVGID_21_" gradientUnits="userSpaceOnUse" x1="13" x2="512.144" xlink:href="#lg1" y1="280.017" y2="280.017"/><g><path d="m483.24 452.168h-369.243c-31.019 0-56.165-25.146-56.165-56.165v-369.243c0-23.793 28.767-35.709 45.592-18.885l398.7 398.7c16.825 16.826 4.909 45.593-18.884 45.593z" fill="url(#SVGID_1_)"/><path d="m41.38 109.726 358.894 358.894c24.904 24.904 75.468 1.563 81.336-38.069.112-.756.209-1.514.291-2.273l6.302-58.252c3.333-30.807-18.94-53.079-49.747-49.747-30.807 3.333-53.079-18.94-49.747-49.747 3.333-30.807-18.94-53.079-49.747-49.747-30.807 3.333-53.079-18.94-49.747-49.747 3.333-30.807-18.94-53.079-49.747-49.747-30.807 3.333-53.079-18.94-49.747-49.747 3.333-30.807-18.94-53.079-49.747-49.747l-58.252 6.302c-.76.082-1.518.179-2.273.291-39.632 5.869-62.973 56.433-38.069 81.336z" fill="url(#SVGID_2_)"/><g><g><circle cx="142.356" cy="128.596" fill="url(#SVGID_3_)" r="92.293"/><g><path d="m199.987 56.509c-4.416-3.531-9.067-6.563-13.872-9.158 28.766 32.989 30.768 82.806 2.47 118.203-9.216 11.528-20.639 20.238-33.174 26.051 6.34-12.93 2.703-29.105-9.741-37.878-12.093-8.525-28.995-6.847-39.152 3.911-5.336 5.652-8.036 12.706-8.255 19.77-.349 11.216-12.131 18.389-22.212 13.462-1.112-.544-2.216-1.111-3.311-1.703 3.589 4.116 7.571 7.985 11.987 11.516 39.813 31.828 97.89 25.356 129.719-14.457 31.827-39.812 25.354-97.889-14.459-129.717z" fill="url(#SVGID_4_)"/><circle cx="107.167" cy="97.877" fill="url(#SVGID_5_)" r="19.525"/></g></g><g><circle cx="300.284" cy="218.57" fill="url(#SVGID_6_)" r="74.559"/><g><path d="m346.841 160.334c-3.568-2.852-7.325-5.302-11.207-7.398 23.239 26.65 24.856 66.895 1.995 95.49-7.445 9.313-16.673 16.349-26.799 21.045 5.121-10.446 2.184-23.512-7.87-30.599-9.77-6.887-23.423-5.532-31.629 3.16-4.311 4.566-6.492 10.264-6.669 15.971-.282 9.061-9.8 14.856-17.944 10.875-.898-.439-1.79-.897-2.675-1.375 2.899 3.325 6.116 6.451 9.684 9.303 32.163 25.713 79.08 20.484 104.793-11.679s20.484-79.08-11.679-104.793z" fill="url(#SVGID_7_)"/><circle cx="298.833" cy="195.126" fill="url(#SVGID_8_)" r="15.773"/></g></g><g><circle cx="384.006" cy="361.525" fill="url(#SVGID_9_)" r="74.559"/><g><path d="m430.563 303.288c-3.568-2.852-7.325-5.302-11.207-7.398 23.239 26.65 24.856 66.895 1.995 95.49-7.445 9.313-16.673 16.349-26.799 21.045 5.121-10.446 2.183-23.512-7.87-30.599-9.77-6.887-23.423-5.532-31.629 3.16-4.311 4.566-6.492 10.264-6.669 15.971-.282 9.061-9.8 14.856-17.944 10.875-.898-.439-1.79-.897-2.675-1.375 2.899 3.325 6.116 6.451 9.684 9.303 32.163 25.712 79.08 20.484 104.793-11.679 25.713-32.162 20.484-79.08-11.679-104.793z" fill="url(#SVGID_10_)"/><circle cx="382.555" cy="338.08" fill="url(#SVGID_11_)" r="15.773"/></g></g></g><path d="m12.674 138.433 358.894 358.894c24.904 24.904 75.468 1.563 81.336-38.069.112-.756.209-1.514.291-2.273l6.302-58.252c3.333-30.807-18.94-53.079-49.747-49.747-30.807 3.333-53.079-18.94-49.747-49.747 3.333-30.807-18.94-53.079-49.747-49.747-30.807 3.333-53.079-18.94-49.747-49.747 3.333-30.807-18.94-53.079-49.747-49.747-30.807 3.333-53.079-18.94-49.747-49.747 3.333-30.807-18.94-53.079-49.747-49.747l-58.252 6.302c-.76.082-1.518.179-2.273.291-39.632 5.868-62.973 56.432-38.069 81.336z" fill="url(#SVGID_12_)"/><path d="m409.75 348.985c-30.807 3.333-53.08-18.94-49.747-49.747s-18.94-53.079-49.747-49.747c-30.807 3.333-53.079-18.94-49.747-49.747 3.333-30.807-18.94-53.079-49.747-49.747-30.807 3.333-53.079-18.94-49.747-49.747 3.333-30.807-18.94-53.08-49.747-49.747l-18.789 2.033c19.109 6.3 31.016 24.606 28.516 47.714-3.333 30.807 18.94 53.079 49.747 49.747 30.807-3.333 53.079 18.94 49.747 49.747-3.333 30.807 18.94 53.079 49.747 49.747 30.807-3.333 53.079 18.94 49.747 49.747-3.333 30.807 18.94 53.08 49.747 49.747s53.079 18.94 49.747 49.747l-6.302 58.252c-.082.76-.179 1.518-.291 2.273-2.974 20.082-17.424 35.975-34.196 43.534 26.334 15.2 68.863-7.387 74.216-43.534.112-.756.209-1.514.291-2.273l6.302-58.252c3.332-30.807-18.94-53.08-49.747-49.747z" fill="url(#SVGID_13_)"/><path d="m438.743 510h-382.578c-31.019 0-56.165-25.146-56.165-56.165v-382.578c0-18.872 22.817-28.324 36.162-14.979l417.559 417.559c13.345 13.346 3.894 36.163-14.978 36.163z" fill="url(#SVGID_14_)"/><g><circle cx="217.71" cy="460.364" fill="url(#SVGID_15_)" r="26.333"/><circle cx="178.21" cy="419.176" fill="url(#SVGID_16_)" r="13.167"/><circle cx="238.889" cy="336.721" fill="url(#SVGID_17_)" r="13.167"/><path d="m127.141 226.455c-7.272 0-13.167 5.895-13.167 13.167s5.895 13.167 13.167 13.167 13.167-5.895 13.167-13.167-5.895-13.167-13.167-13.167z" fill="url(#SVGID_18_)"/><path d="m55.672 200.122c-7.272 0-13.167 5.895-13.167 13.167s5.895 13.167 13.167 13.167 13.167-5.895 13.167-13.167-5.895-13.167-13.167-13.167z" fill="url(#SVGID_19_)"/><circle cx="37.587" cy="282.258" fill="url(#SVGID_20_)" r="25.062"/><path d="m453.721 473.838-417.559-417.559c-10.964-10.965-28.314-6.533-34.157 5.862l328.871 328.871c-12.781 2.407-22.304 14.041-21.368 27.722.888 12.991 11.428 23.53 24.418 24.418 6.603.452 12.728-1.533 17.57-5.144 8.648-6.449 20.68-5.697 28.308 1.931l33.897 33.897c13.345 13.347 3.894 36.164-14.978 36.164h40.02c18.872 0 28.323-22.817 14.978-36.162z" fill="url(#SVGID_21_)"/></g></g></svg>