<svg id="Capa_1" enable-background="new 0 0 510.001 510.001" height="512" viewBox="0 0 510.001 510.001" width="512" xmlns="http://www.w3.org/2000/svg" xmlns:xlink="http://www.w3.org/1999/xlink"><linearGradient id="lg1"><stop offset="0" stop-color="#fe646f"/><stop offset=".593" stop-color="#fb2b3a"/><stop offset="1" stop-color="#c41926"/></linearGradient><linearGradient id="SVGID_1_" gradientUnits="userSpaceOnUse" x1="47.551" x2="489.636" xlink:href="#lg1" y1="237.864" y2="237.864"/><linearGradient id="SVGID_2_" gradientUnits="userSpaceOnUse" x1="-11.333" x2="328.945" xlink:href="#lg1" y1="227.073" y2="227.073"/><linearGradient id="SVGID_3_" gradientUnits="userSpaceOnUse" x1="16.356" x2="462.308" xlink:href="#lg1" y1="237.864" y2="237.864"/><linearGradient id="lg2"><stop offset="0" stop-color="#537983"/><stop offset=".593" stop-color="#554e56"/><stop offset="1" stop-color="#433f43"/></linearGradient><linearGradient id="SVGID_4_" gradientUnits="userSpaceOnUse" x1="166.475" x2="230.608" xlink:href="#lg2" y1="230.98" y2="230.98"/><linearGradient id="SVGID_5_" gradientUnits="userSpaceOnUse" x1="276.87" x2="341.002" xlink:href="#lg2" y1="230.98" y2="230.98"/><linearGradient id="lg3"><stop offset="0" stop-color="#f8f6f7"/><stop offset=".1788" stop-color="#f8f6f7"/><stop offset="1" stop-color="#e7e6f5"/></linearGradient><linearGradient id="SVGID_6_" gradientUnits="userSpaceOnUse" x1="47.155" x2="456.637" xlink:href="#lg3" y1="378.059" y2="378.059"/><linearGradient id="lg4"><stop offset="0" stop-color="#f8f6f7"/><stop offset="1" stop-color="#d1ceeb"/></linearGradient><linearGradient id="SVGID_7_" gradientUnits="userSpaceOnUse" x1="-168.999" x2="447.534" xlink:href="#lg4" y1="396.47" y2="396.47"/><linearGradient id="lg5"><stop offset="0" stop-color="#60b7ff"/><stop offset=".5857" stop-color="#0182fc"/><stop offset="1" stop-color="#2740b0"/></linearGradient><linearGradient id="SVGID_8_" gradientUnits="userSpaceOnUse" x1="64.017" x2="318.814" xlink:href="#lg5" y1="414.995" y2="414.995"/><linearGradient id="SVGID_9_" gradientUnits="userSpaceOnUse" x1="297.921" x2="428.881" xlink:href="#lg5" y1="441.001" y2="441.001"/><linearGradient id="SVGID_10_" gradientUnits="userSpaceOnUse" x1=".001" x2="574.001" xlink:href="#lg1" y1="282.94" y2="282.94"/><linearGradient id="SVGID_11_" gradientUnits="userSpaceOnUse" x1="100.667" x2="368.734" xlink:href="#lg1" y1="282.94" y2="282.94"/><linearGradient id="lg6"><stop offset="0" stop-color="#fef056"/><stop offset=".5213" stop-color="#f4d902"/><stop offset="1" stop-color="#fe9738"/></linearGradient><linearGradient id="SVGID_12_" gradientUnits="userSpaceOnUse" x1="127.123" x2="394.068" xlink:href="#lg6" y1="113.953" y2="113.953"/><linearGradient id="SVGID_13_" gradientUnits="userSpaceOnUse" x1="81.501" x2="243.841" xlink:href="#lg6" y1="122.876" y2="122.876"/><linearGradient id="SVGID_14_" gradientUnits="userSpaceOnUse" x1="-3.999" x2="369.194" xlink:href="#lg6" y1="113.953" y2="113.953"/><linearGradient id="SVGID_15_" gradientUnits="userSpaceOnUse" x1="158.736" x2="359.689" xlink:href="#lg3" y1="113.953" y2="113.953"/><linearGradient id="SVGID_16_" gradientUnits="userSpaceOnUse" x1="59.501" x2="311.295" xlink:href="#lg4" y1="122.876" y2="122.876"/><linearGradient id="SVGID_17_" gradientUnits="userSpaceOnUse" x1="113.001" x2="313.041" xlink:href="#lg4" y1="113.953" y2="113.953"/><linearGradient id="SVGID_18_" gradientUnits="userSpaceOnUse" x1="184.691" x2="328.962" y1="125.985" y2="125.985"><stop offset="0" stop-color="#fbc56d"/><stop offset=".593" stop-color="#c86d36"/><stop offset="1" stop-color="#904d24"/></linearGradient><linearGradient id="SVGID_19_" gradientUnits="userSpaceOnUse" x1="185.847" x2="336.838" xlink:href="#lg1" y1="104.807" y2="104.807"/><linearGradient id="lg7"><stop offset="0" stop-color="#fef056"/><stop offset=".5213" stop-color="#fbc56d"/><stop offset="1" stop-color="#c86d36"/></linearGradient><linearGradient id="SVGID_20_" gradientUnits="userSpaceOnUse" x1="176.389" x2="366.804" xlink:href="#lg7" y1="71.241" y2="71.241"/><linearGradient id="SVGID_21_" gradientUnits="userSpaceOnUse" x1="181.522" x2="346.922" xlink:href="#lg7" y1="145.994" y2="145.994"/><linearGradient id="SVGID_22_" gradientUnits="userSpaceOnUse" x1="214.083" x2="252.016" y1="106.67" y2="106.67"><stop offset="0" stop-color="#ffdcbd"/><stop offset=".0028" stop-color="#ffdcbd"/><stop offset="1" stop-color="#ffa9b1"/></linearGradient><linearGradient id="SVGID_23_" gradientUnits="userSpaceOnUse" x1="241.801" x2="314.413" xlink:href="#lg6" y1="109.993" y2="109.993"/><g><g><path d="m477.252 286.755c-1.226-3.502-3.01-6.901-5.339-10.123l-56.63-78.379c-4.121-5.704-12.259-9.278-21.13-9.278h-278.306c-8.87 0-17.008 3.573-21.13 9.278l-56.63 78.379c-2.328 3.223-4.113 6.622-5.339 10.123z" fill="url(#SVGID_1_)"/><path d="m314.312 188.974h-171.509c5.34 6.099 11.312 11.631 17.827 16.476l.529 59.722 25.01-.222-.402-45.361c13.213 5.358 27.656 8.316 42.792 8.316 15.059 0 29.432-2.928 42.591-8.234l.403 45.5 25.01-.222-.524-59.173c6.688-4.922 12.811-10.565 18.273-16.802z" fill="url(#SVGID_2_)"/><path d="m471.913 276.631-56.63-78.379c-4.121-5.704-12.259-9.278-21.13-9.278h-35.191c8.87 0 17.008 3.573 21.13 9.278l56.63 78.379c2.329 3.223 4.113 6.622 5.339 10.123h35.191c-1.226-3.501-3.01-6.9-5.339-10.123z" fill="url(#SVGID_3_)"/></g><g><path d="m212.61 264.951-.604-68.162-25.01.221.604 68.162z" fill="url(#SVGID_4_)"/><path d="m323.005 264.951-.604-68.162-25.01.221.604 68.162z" fill="url(#SVGID_5_)"/></g><g><path d="m441.418 510.001h-372.835c-12.472 0-22.582-10.11-22.582-22.582v-203.568c0-20.84 16.894-37.734 37.734-37.734h342.53c20.84 0 37.734 16.894 37.734 37.734v203.568c.001 12.472-10.11 22.582-22.581 22.582z" fill="url(#SVGID_6_)"/><path d="m464 282.94v204.48c0 12.471-10.109 22.58-22.58 22.58h-40.02c12.47 0 22.58-10.11 22.58-22.58v-85.621c0-30.408-24.651-55.059-55.059-55.059h-322.921v-63.8z" fill="url(#SVGID_7_)"/><g><path d="m248.977 457.991h-136.32c-10.957 0-19.84-8.883-19.84-19.84v-46.311c0-10.957 8.883-19.84 19.84-19.84h136.32c10.957 0 19.84 8.883 19.84 19.84v46.311c0 10.957-8.882 19.84-19.84 19.84z" fill="url(#SVGID_8_)"/><path d="m312.723 510.001h90.46v-119.142c0-10.415-8.443-18.859-18.859-18.859h-52.743c-10.415 0-18.859 8.443-18.859 18.859v119.142z" fill="url(#SVGID_9_)"/></g></g><g><path d="m484.524 322.763h-459.047c-14.07 0-25.477-10.611-25.477-23.7v-32.247c0-13.089 11.406-23.7 25.477-23.7h459.047c14.07 0 25.477 10.611 25.477 23.7v32.248c0 13.089-11.407 23.699-25.477 23.699z" fill="url(#SVGID_10_)"/><path d="m484.524 243.116h-40.02c14.07 0 25.477 10.611 25.477 23.7v32.248c0 13.089-11.406 23.7-25.477 23.7h40.02c14.07 0 25.477-10.611 25.477-23.7v-32.248c0-13.089-11.407-23.7-25.477-23.7z" fill="url(#SVGID_11_)"/></g><circle cx="255.001" cy="113.953" fill="url(#SVGID_12_)" r="113.953"/><path d="m298.976 154.36h-4.059c.553-1.324.861-2.777.861-4.301v-5.76c0-6.167-4.999-11.167-11.167-11.167h8.952c3.939 0 7.131-3.193 7.131-7.131 0-3.283-2.221-6.04-5.24-6.87h1.494c6.349 0 10.881-6.203 8.896-12.233-7.767-23.592-37.506-41.159-73.007-41.159s-65.24 17.567-73.007 41.159c-1.985 6.031 2.547 12.233 8.896 12.233h1.494c-3.019.83-5.24 3.587-5.24 6.87 0 3.938 3.193 7.131 7.131 7.131h8.952c-6.167 0-11.167 5-11.167 11.167v5.76c0 1.525.308 2.977.861 4.301h-4.057c-4.054 0-7.341 3.287-7.341 7.341 0 10.114 8.199 18.313 18.313 18.313h110.331c10.114 0 18.313-8.199 18.313-18.313.001-4.055-3.286-7.341-7.34-7.341z" fill="url(#SVGID_13_)"/><path d="m255.001 0c-6.97 0-13.793.628-20.417 1.827 53.191 9.622 93.536 56.161 93.536 112.126s-40.345 102.504-93.536 112.126c6.624 1.198 13.447 1.827 20.417 1.827 62.934 0 113.953-51.019 113.953-113.953s-51.019-113.953-113.953-113.953z" fill="url(#SVGID_14_)"/><circle cx="255.001" cy="113.953" fill="url(#SVGID_15_)" r="85.783"/><path d="m298.976 154.359h-4.059c.553-1.324.861-2.776.861-4.301v-5.76c0-6.167-4.999-11.167-11.167-11.167h8.952c3.939 0 7.131-3.193 7.131-7.131 0-3.283-2.221-6.04-5.24-6.87h1.494c6.349 0 10.881-6.203 8.896-12.233-7.767-23.592-37.506-41.159-73.007-41.159-23.955 0-45.275 8.005-59.002 20.456-2.978 8.71-4.618 18.04-4.618 27.759 0 1.74.068 3.463.17 5.177h.833c-.28.077-.546.187-.811.296.294 4.668.967 9.232 1.978 13.668.238.024.48.037.724.037h8.952c-3.477 0-6.581 1.589-8.629 4.08 4.776 16.985 14.629 31.842 27.846 42.802h87.722c10.114 0 18.313-8.199 18.313-18.313.002-4.054-3.285-7.341-7.339-7.341z" fill="url(#SVGID_16_)"/><path d="m303.481 43.189c15.422 19.438 24.638 44.023 24.638 70.764s-9.216 51.325-24.638 70.763c22.522-15.46 37.302-41.381 37.302-70.763s-14.779-55.304-37.302-70.764z" fill="url(#SVGID_17_)"/><g><path d="m306.774 140.031h-103.547c-6.167 0-11.166-4.999-11.166-11.166v-5.761c0-6.167 4.999-11.166 11.166-11.166h103.547c6.167 0 11.167 4.999 11.167 11.166v5.761c-.001 6.167-5 11.166-11.167 11.166z" fill="url(#SVGID_18_)"/><path d="m315.726 111.938h-121.45c-3.939 0-7.131-3.193-7.131-7.131 0-3.939 3.193-7.131 7.131-7.131h121.45c3.939 0 7.131 3.193 7.131 7.131s-3.193 7.131-7.131 7.131z" fill="url(#SVGID_19_)"/><path d="m319.112 97.937h-128.223c-6.349 0-10.881-6.203-8.896-12.233 7.767-23.592 37.506-41.159 73.007-41.159s65.24 17.567 73.007 41.159c1.986 6.03-2.546 12.233-8.895 12.233z" fill="url(#SVGID_20_)"/><path d="m310.166 158.821h-110.331c-10.114 0-18.313-8.199-18.313-18.313 0-4.054 3.287-7.341 7.341-7.341h132.276c4.054 0 7.341 3.287 7.341 7.341 0 10.114-8.2 18.313-18.314 18.313z" fill="url(#SVGID_21_)"/><path d="m205.082 97.675 14.055 14.055c5.247 5.247 13.754 5.247 19.001 0l14.055-14.055z" fill="url(#SVGID_22_)"/><path d="m241.801 97.675 19.247 19.247c7.185 7.185 18.835 7.185 26.021 0l19.247-19.247z" fill="url(#SVGID_23_)"/></g></g></svg>