<svg id="Capa_1" enable-background="new 0 0 510 510" height="512" viewBox="0 0 510 510" width="512" xmlns="http://www.w3.org/2000/svg" xmlns:xlink="http://www.w3.org/1999/xlink"><linearGradient id="lg1"><stop offset="0" stop-color="#a2e62e"/><stop offset=".5857" stop-color="#81b823"/><stop offset="1" stop-color="#037e73"/></linearGradient><linearGradient id="SVGID_1_" gradientUnits="userSpaceOnUse" x1="356" x2="542.682" xlink:href="#lg1" y1="268.24" y2="268.24"/><linearGradient id="SVGID_2_" gradientUnits="userSpaceOnUse" x1="197" x2="573.698" xlink:href="#lg1" y1="268.241" y2="268.241"/><linearGradient id="lg2"><stop offset="0" stop-color="#ffdcbd"/><stop offset=".0028" stop-color="#ffdcbd"/><stop offset="1" stop-color="#ffa9b1"/></linearGradient><linearGradient id="SVGID_3_" gradientTransform="matrix(.707 .707 -.707 .707 -167.495 -1159.999)" gradientUnits="userSpaceOnUse" x1="1189.731" x2="1303.83" xlink:href="#lg2" y1="904.069" y2="904.069"/><linearGradient id="SVGID_4_" gradientTransform="matrix(.707 .707 -.707 .707 -167.495 -1159.999)" gradientUnits="userSpaceOnUse" x1="1318.713" x2="1432.812" xlink:href="#lg2" y1="904.069" y2="904.069"/><linearGradient id="lg3"><stop offset="0" stop-color="#ffc2b5"/><stop offset="1" stop-color="#ff89a8"/></linearGradient><linearGradient id="SVGID_5_" gradientTransform="matrix(.707 .707 -.707 .707 478.489 433.926)" gradientUnits="userSpaceOnUse" x1="-265.139" x2="-151.05" xlink:href="#lg3" y1="233.773" y2="233.773"/><linearGradient id="SVGID_6_" gradientTransform="matrix(.707 .707 -.707 .707 478.489 433.926)" gradientUnits="userSpaceOnUse" x1="-394.117" x2="-280.029" xlink:href="#lg3" y1="233.773" y2="233.773"/><linearGradient id="SVGID_7_" gradientTransform="matrix(.707 .707 -.707 .707 451.504 426.851)" gradientUnits="userSpaceOnUse" x1="-388.32" x2="-221.553" xlink:href="#lg1" y1="-45.245" y2="-45.245"/><linearGradient id="SVGID_8_" gradientTransform="matrix(.707 .707 -.707 .707 451.504 426.851)" gradientUnits="userSpaceOnUse" x1="-271.54" x2="-88.858" xlink:href="#lg1" y1="-45.245" y2="-45.245"/><linearGradient id="SVGID_9_" gradientTransform="matrix(.707 .707 -.707 .707 478.489 433.926)" gradientUnits="userSpaceOnUse" x1="-374.878" x2="-101.571" xlink:href="#lg1" y1="-31.166" y2="-31.166"/><linearGradient id="SVGID_10_" gradientTransform="matrix(.707 .707 -.707 .707 478.489 433.926)" gradientUnits="userSpaceOnUse" x1="-503.86" x2="-230.552" xlink:href="#lg1" y1="-31.166" y2="-31.166"/><g><path d="m510 162.75h-102.136v147.322c0 10.122 7.871 18.742 17.986 19.102 10.619.378 19.347-8.119 19.347-18.654v-3.217c0-7.396 5.684-13.759 13.071-14.107 7.888-.371 14.399 5.914 14.399 13.719v47.701c0 10.122 7.871 18.742 17.986 19.102 10.619.378 19.347-8.119 19.347-18.654z" fill="url(#SVGID_1_)"/><path d="m510 162.75v192.31c0 10.54-8.73 19.03-19.35 18.66-4.54-.16-8.63-1.98-11.75-4.87 3.74-3.41 6.09-8.32 6.09-13.79v-70.915c0-15.243-18.429-22.876-29.207-12.098l-46.143 46.143c-1.14-2.48-1.78-5.24-1.78-8.12v-147.32z" fill="url(#SVGID_2_)"/><g><path d="m9.45 409.346c-12.599-12.599-12.599-33.027 0-45.627l91.042-91.042 45.627 45.627-91.042 91.042c-12.6 12.6-33.028 12.6-45.627 0z" fill="url(#SVGID_3_)"/><path d="m100.654 500.55c-12.599-12.599-12.599-33.027 0-45.627l91.042-91.042 45.627 45.627-91.043 91.042c-12.599 12.6-33.027 12.6-45.626 0z" fill="url(#SVGID_4_)"/><path d="m237.317 409.508-90.566 90.566c-12.81 12.81-34.028 13.06-46.571-.011-2.897-3.019-5.099-6.466-6.582-10.136 11.653 4.752 25.534 2.397 34.995-7.064l48.451-48.451c8.17-8.17 8.17-21.416 0-29.585-4.639-4.639-8.195-9.949-10.663-15.627l25.314-25.314z" fill="url(#SVGID_5_)"/><path d="m146.116 318.307-90.566 90.566c-12.81 12.81-34.028 13.06-46.571-.011-2.897-3.019-5.099-6.466-6.582-10.136 11.653 4.752 25.534 2.397 34.995-7.064l48.451-48.451c8.17-8.17 8.17-21.416 0-29.585-4.639-4.639-8.195-9.949-10.663-15.627l25.314-25.314z" fill="url(#SVGID_6_)"/><path d="m122.853 315.272-19.328-19.328c-19.848-19.848-19.848-52.028 0-71.876l209.181-209.182c19.848-19.848 52.028-19.848 71.876 0l19.328 19.328c19.848 19.848 19.848 52.028 0 71.876l-209.182 209.182c-19.847 19.847-52.027 19.847-71.875 0z" fill="url(#SVGID_7_)"/><path d="m214.057 406.475-19.328-19.328c-19.848-19.848-19.848-52.028 0-71.876l85.051-102.46 124.13-106.721c19.848-19.848 52.028-19.848 71.876 0l19.328 19.328c19.848 19.848 19.848 52.028 0 71.876l-209.182 209.181c-19.847 19.848-52.027 19.848-71.875 0z" fill="url(#SVGID_8_)"/><path d="m495.114 125.418-19.328-19.328c-1.52-1.52-3.12-2.909-4.774-4.197 15.521 19.939 14.131 48.774-4.197 67.102l-209.181 209.182c-18.328 18.328-47.164 19.717-67.102 4.197 1.287 1.654 2.677 3.254 4.197 4.774l19.328 19.328c19.848 19.848 52.028 19.848 71.876 0l209.182-209.182c19.847-19.848 19.847-52.028-.001-71.876z" fill="url(#SVGID_9_)"/><path d="m403.91 34.214-19.328-19.328c-1.52-1.52-3.12-2.909-4.774-4.197 15.521 19.939 14.131 48.774-4.197 67.102l-209.181 209.182c-18.328 18.328-47.164 19.717-67.102 4.197 1.287 1.654 2.677 3.254 4.197 4.774l19.328 19.328c19.848 19.848 52.028 19.848 71.876 0l209.181-209.182c19.848-19.848 19.848-52.028 0-71.876z" fill="url(#SVGID_10_)"/></g></g></svg>