<svg id="Capa_1" enable-background="new 0 0 510.001 510.001" height="512" viewBox="0 0 510.001 510.001" width="512" xmlns="http://www.w3.org/2000/svg" xmlns:xlink="http://www.w3.org/1999/xlink"><linearGradient id="lg1"><stop offset="0" stop-color="#fe646f"/><stop offset=".593" stop-color="#fb2b3a"/><stop offset="1" stop-color="#c41926"/></linearGradient><linearGradient id="SVGID_1_" gradientUnits="userSpaceOnUse" x1="47.551" x2="489.636" xlink:href="#lg1" y1="237.864" y2="237.864"/><linearGradient id="SVGID_2_" gradientUnits="userSpaceOnUse" x1="-11.333" x2="328.945" xlink:href="#lg1" y1="227.073" y2="227.073"/><linearGradient id="SVGID_3_" gradientUnits="userSpaceOnUse" x1="16.356" x2="462.308" xlink:href="#lg1" y1="237.864" y2="237.864"/><linearGradient id="lg2"><stop offset="0" stop-color="#537983"/><stop offset=".593" stop-color="#554e56"/><stop offset="1" stop-color="#433f43"/></linearGradient><linearGradient id="SVGID_4_" gradientUnits="userSpaceOnUse" x1="166.475" x2="230.608" xlink:href="#lg2" y1="230.98" y2="230.98"/><linearGradient id="SVGID_5_" gradientUnits="userSpaceOnUse" x1="276.87" x2="341.002" xlink:href="#lg2" y1="230.98" y2="230.98"/><linearGradient id="lg3"><stop offset="0" stop-color="#fef056"/><stop offset=".5213" stop-color="#f4d902"/><stop offset="1" stop-color="#fe9738"/></linearGradient><linearGradient id="SVGID_6_" gradientUnits="userSpaceOnUse" x1="47.155" x2="456.637" xlink:href="#lg3" y1="378.059" y2="378.059"/><linearGradient id="SVGID_7_" gradientUnits="userSpaceOnUse" x1="-168.999" x2="447.534" xlink:href="#lg3" y1="396.47" y2="396.47"/><linearGradient id="SVGID_8_" gradientUnits="userSpaceOnUse" x1="182.001" x2="386.04" y1="441.001" y2="441.001"><stop offset="0" stop-color="#fbc56d"/><stop offset=".593" stop-color="#c86d36"/><stop offset="1" stop-color="#904d24"/></linearGradient><linearGradient id="SVGID_9_" gradientUnits="userSpaceOnUse" x1=".001" x2="574.001" xlink:href="#lg1" y1="282.94" y2="282.94"/><linearGradient id="SVGID_10_" gradientUnits="userSpaceOnUse" x1="100.667" x2="368.734" xlink:href="#lg1" y1="282.94" y2="282.94"/><linearGradient id="lg4"><stop offset="0" stop-color="#a2e62e"/><stop offset=".5857" stop-color="#81b823"/><stop offset="1" stop-color="#037e73"/></linearGradient><linearGradient id="SVGID_11_" gradientUnits="userSpaceOnUse" x1="127.123" x2="394.068" xlink:href="#lg4" y1="113.953" y2="113.953"/><linearGradient id="SVGID_12_" gradientUnits="userSpaceOnUse" x1="60.667" x2="239.801" xlink:href="#lg4" y1="111.933" y2="111.933"/><linearGradient id="SVGID_13_" gradientUnits="userSpaceOnUse" x1="-3.999" x2="369.194" xlink:href="#lg4" y1="113.953" y2="113.953"/><linearGradient id="SVGID_14_" gradientUnits="userSpaceOnUse" x1="158.736" x2="359.689" y1="113.953" y2="113.953"><stop offset="0" stop-color="#f8f6f7"/><stop offset=".1788" stop-color="#f8f6f7"/><stop offset="1" stop-color="#e7e6f5"/></linearGradient><linearGradient id="lg5"><stop offset="0" stop-color="#f8f6f7"/><stop offset="1" stop-color="#d1ceeb"/></linearGradient><linearGradient id="SVGID_15_" gradientUnits="userSpaceOnUse" x1="88.001" x2="290.028" xlink:href="#lg5" y1="111.811" y2="111.811"/><linearGradient id="SVGID_16_" gradientUnits="userSpaceOnUse" x1="113.001" x2="313.041" xlink:href="#lg5" y1="113.953" y2="113.953"/><linearGradient id="lg6"><stop offset="0" stop-color="#60b7ff"/><stop offset=".5857" stop-color="#0182fc"/><stop offset="1" stop-color="#2740b0"/></linearGradient><linearGradient id="SVGID_17_" gradientUnits="userSpaceOnUse" x1="72.36" x2="214.12" xlink:href="#lg6" y1="414.995" y2="414.995"/><linearGradient id="SVGID_18_" gradientUnits="userSpaceOnUse" x1="307.675" x2="449.435" xlink:href="#lg6" y1="414.995" y2="414.995"/><linearGradient id="SVGID_19_" gradientUnits="userSpaceOnUse" x1="171.334" x2="333.065" xlink:href="#lg3" y1="102.584" y2="102.584"/><linearGradient id="SVGID_20_" gradientUnits="userSpaceOnUse" x1="125.334" x2="302.321" y1="82.358" y2="82.358"><stop offset="0" stop-color="#fef056"/><stop offset=".5213" stop-color="#fbc56d"/><stop offset="1" stop-color="#c86d36"/></linearGradient><linearGradient id="SVGID_21_" gradientUnits="userSpaceOnUse" x1="218.001" x2="327.279" xlink:href="#lg1" y1="84.144" y2="84.144"/><linearGradient id="SVGID_22_" gradientUnits="userSpaceOnUse" x1="178.001" x2="252.3" xlink:href="#lg1" y1="133.078" y2="133.078"/><linearGradient id="SVGID_23_" gradientUnits="userSpaceOnUse" x1="269.267" x2="315.267" xlink:href="#lg1" y1="144.965" y2="152.298"/><g><g><g><path d="m477.252 286.755c-1.226-3.502-3.01-6.901-5.339-10.123l-56.63-78.379c-4.121-5.704-12.259-9.278-21.13-9.278h-278.306c-8.87 0-17.008 3.573-21.13 9.278l-56.63 78.379c-2.328 3.223-4.113 6.622-5.339 10.123z" fill="url(#SVGID_1_)"/><path d="m314.312 188.974h-171.509c5.34 6.099 11.312 11.631 17.827 16.476l.529 59.722 25.01-.222-.402-45.361c13.213 5.358 27.656 8.316 42.792 8.316 15.059 0 29.432-2.928 42.591-8.234l.403 45.5 25.01-.222-.524-59.173c6.688-4.922 12.811-10.565 18.273-16.802z" fill="url(#SVGID_2_)"/><path d="m471.913 276.631-56.63-78.379c-4.121-5.704-12.259-9.278-21.13-9.278h-35.191c8.87 0 17.008 3.573 21.13 9.278l56.63 78.379c2.328 3.223 4.113 6.622 5.339 10.123h35.191c-1.226-3.501-3.01-6.9-5.339-10.123z" fill="url(#SVGID_3_)"/></g><g><path d="m212.61 264.951-.604-68.162-25.01.221.604 68.162z" fill="url(#SVGID_4_)"/><path d="m323.005 264.951-.604-68.162-25.01.221.604 68.162z" fill="url(#SVGID_5_)"/></g><g><path d="m441.418 510.001h-372.835c-12.472 0-22.582-10.11-22.582-22.582v-203.568c0-20.84 16.894-37.734 37.734-37.734h342.53c20.84 0 37.734 16.894 37.734 37.734v203.568c.001 12.472-10.11 22.582-22.581 22.582z" fill="url(#SVGID_6_)"/><path d="m464 282.94v204.48c0 12.471-10.109 22.58-22.58 22.58h-40.02c12.47 0 22.58-10.11 22.58-22.58v-85.621c0-30.408-24.651-55.059-55.059-55.059h-322.921v-63.8z" fill="url(#SVGID_7_)"/><path d="m281.372 372h-52.743c-10.416 0-18.859 8.443-18.859 18.859v119.142h90.46v-119.142c.001-10.416-8.443-18.859-18.858-18.859z" fill="url(#SVGID_8_)"/></g><g><path d="m484.524 322.763h-459.047c-14.07 0-25.477-10.611-25.477-23.7v-32.247c0-13.089 11.406-23.7 25.477-23.7h459.047c14.07 0 25.477 10.611 25.477 23.7v32.248c0 13.089-11.407 23.699-25.477 23.699z" fill="url(#SVGID_9_)"/><path d="m484.524 243.116h-40.02c14.07 0 25.477 10.611 25.477 23.7v32.248c0 13.089-11.406 23.7-25.477 23.7h40.02c14.07 0 25.477-10.611 25.477-23.7v-32.248c0-13.089-11.407-23.7-25.477-23.7z" fill="url(#SVGID_10_)"/></g><circle cx="255.001" cy="113.953" fill="url(#SVGID_11_)" r="113.953"/><path d="m271.755 70.65-3.732-13.933c1.596-.443 3.082-1.288 4.289-2.496 5.48-5.48 4.038-14.745-2.88-18.236-27.065-13.658-67.894-3.153-98.534 27.488-14.792 14.792-24.876 31.958-29.829 48.805-.008.558-.021 1.115-.021 1.675 0 19.624 4.962 38.088 13.697 54.209 2.493-.254 4.941-1.314 6.902-3.275 1.208-1.208 2.053-2.693 2.496-4.289l13.933 3.732 108.302 29.023c8.742 2.34 16.74-5.658 14.4-14.4z" fill="url(#SVGID_12_)"/><path d="m255.001 0c-6.97 0-13.793.628-20.417 1.827 53.191 9.622 93.536 56.161 93.536 112.126s-40.345 102.504-93.536 112.126c6.624 1.198 13.447 1.827 20.417 1.827 62.934 0 113.953-51.019 113.953-113.953s-51.019-113.953-113.953-113.953z" fill="url(#SVGID_13_)"/><circle cx="255.001" cy="113.953" fill="url(#SVGID_14_)" r="85.783"/><path d="m271.755 70.65-3.732-13.933c1.596-.443 3.082-1.288 4.289-2.496 5.48-5.48 4.038-14.745-2.88-18.236-10.02-5.056-21.928-6.792-34.505-5.43-37.688 9.04-65.709 42.936-65.709 83.397 0 19.967 6.841 38.325 18.281 52.902l98.879 26.498c.233.062.464.114.696.161 4.549-1.836 8.906-4.041 13.029-6.595 1.098-2.357 1.436-5.12.675-7.966z" fill="url(#SVGID_15_)"/><path d="m303.481 43.189c15.422 19.438 24.638 44.023 24.638 70.764s-9.216 51.325-24.638 70.763c22.522-15.46 37.302-41.381 37.302-70.763s-14.779-55.304-37.302-70.764z" fill="url(#SVGID_16_)"/></g><g><path d="m166.463 457.991h-58.24c-10.957 0-19.84-8.883-19.84-19.84v-46.311c0-10.957 8.883-19.84 19.84-19.84h58.24c10.957 0 19.84 8.883 19.84 19.84v46.311c0 10.957-8.883 19.84-19.84 19.84z" fill="url(#SVGID_17_)"/><path d="m401.778 457.991h-58.24c-10.957 0-19.84-8.883-19.84-19.84v-46.311c0-10.957 8.883-19.84 19.84-19.84h58.24c10.957 0 19.84 8.883 19.84 19.84v46.311c0 10.957-8.882 19.84-19.84 19.84z" fill="url(#SVGID_18_)"/></g><g><path d="m194.887 147.518 108.303 29.023c8.742 2.34 16.74-5.658 14.4-14.4l-29.024-108.302-6.767-25.265c-24.977-2.614-55.191 9.033-79.168 33.01s-35.623 54.191-33.01 79.168z" fill="url(#SVGID_19_)"/><path d="m178.458 148.076c2.345-2.345 3.351-5.727 2.62-8.962-5.437-24.057 3.184-52.817 24.725-74.358s50.301-30.162 74.358-24.725c3.235.731 6.617-.275 8.962-2.62 5.48-5.48 4.038-14.745-2.881-18.236-27.065-13.658-67.893-3.153-98.534 27.488s-41.146 71.469-27.488 98.534c3.493 6.917 12.758 8.359 18.238 2.879z" fill="url(#SVGID_20_)"/><circle cx="269.728" cy="84.143" fill="url(#SVGID_21_)" r="32.46"/><circle cx="208.988" cy="133.078" fill="url(#SVGID_22_)" r="26.223"/><circle cx="291.936" cy="148.578" fill="url(#SVGID_23_)" r="16.405"/></g></g></svg>