<svg id="Capa_1" enable-background="new 0 0 510 510" height="512" viewBox="0 0 510 510" width="512" xmlns="http://www.w3.org/2000/svg" xmlns:xlink="http://www.w3.org/1999/xlink"><linearGradient id="lg1"><stop offset="0" stop-color="#f8f6f7"/><stop offset=".1788" stop-color="#f8f6f7"/><stop offset="1" stop-color="#e7e6f5"/></linearGradient><linearGradient id="SVGID_1_" gradientUnits="userSpaceOnUse" x1="332.533" x2="488.591" xlink:href="#lg1" y1="309.296" y2="309.296"/><linearGradient id="lg2"><stop offset="0" stop-color="#f8f6f7"/><stop offset="1" stop-color="#d1ceeb"/></linearGradient><linearGradient id="SVGID_2_" gradientUnits="userSpaceOnUse" x1="334.033" x2="515.53" xlink:href="#lg2" y1="309.296" y2="309.296"/><linearGradient id="SVGID_3_" gradientUnits="userSpaceOnUse" x1="57.767" x2="395.221" xlink:href="#lg1" y1="324.452" y2="324.452"/><linearGradient id="SVGID_4_" gradientUnits="userSpaceOnUse" x1="-141.443" x2="401.582" xlink:href="#lg2" y1="324.45" y2="324.45"/><linearGradient id="lg3"><stop offset="0" stop-color="#fef056"/><stop offset=".5213" stop-color="#f4d902"/><stop offset="1" stop-color="#fe9738"/></linearGradient><linearGradient id="SVGID_5_" gradientUnits="userSpaceOnUse" x1="63.494" x2="409.5" xlink:href="#lg3" y1="307.822" y2="307.822"/><linearGradient id="SVGID_6_" gradientUnits="userSpaceOnUse" x1="-72.446" x2="400.09" xlink:href="#lg3" y1="339.492" y2="339.492"/><linearGradient id="SVGID_7_" gradientUnits="userSpaceOnUse" x1="-72.446" x2="400.09" xlink:href="#lg3" y1="307.82" y2="307.82"/><linearGradient id="SVGID_8_" gradientUnits="userSpaceOnUse" x1="-24.274" x2="645.478" xlink:href="#lg1" y1="105.538" y2="105.538"/><linearGradient id="SVGID_9_" gradientUnits="userSpaceOnUse" x1="38.621" x2="476.128" xlink:href="#lg2" y1="46.881" y2="46.881"/><linearGradient id="SVGID_10_" gradientUnits="userSpaceOnUse" x1="223.494" x2="453.045" xlink:href="#lg2" y1="113.142" y2="113.142"/><g><path d="m428.968 427.389h-60.352v-35h60.352c25.382 0 46.032-20.65 46.032-46.033v-74.121c0-25.382-20.65-46.033-46.032-46.033h-60.352v-35h60.352c44.682 0 81.032 36.351 81.032 81.033v74.121c0 44.682-36.351 81.033-81.032 81.033z" fill="url(#SVGID_1_)"/><path d="m428.968 191.203h-25.011c44.682 0 81.032 36.351 81.032 81.033v74.121c0 44.682-36.351 81.033-81.032 81.033h25.011c44.682 0 81.032-36.351 81.032-81.033v-74.121c0-44.682-36.351-81.033-81.032-81.033z" fill="url(#SVGID_2_)"/><path d="m356.676 510h-260.364c-21.288 0-38.545-17.257-38.545-38.545v-332.551h337.454v332.551c0 21.288-17.257 38.545-38.545 38.545z" fill="url(#SVGID_3_)"/><path d="m395.22 138.9v332.55c0 21.29-17.26 38.55-38.54 38.55h-40.02c21.28 0 38.54-17.26 38.54-38.55v-278.85c-2.03-1.29-3.99-2.69-5.86-4.19-12.58 28.09-40.76 47.68-73.54 47.68-30.1 0-56.33-16.52-70.16-40.98-10.84 4.72-22.8 7.34-35.38 7.34-22.37 0-42.8-8.28-58.41-21.94-11.69 13.43-28.9 21.94-48.1 21.94-2.02 0-4.01-.09-5.98-.28v-63.27z" fill="url(#SVGID_4_)"/><path d="m330.044 476.74h-207.1c-18.279 0-33.097-14.818-33.097-33.097v-304.74h273.295v304.74c-.001 18.279-14.819 33.097-33.098 33.097z" fill="url(#SVGID_5_)"/><g><path d="m133.932 219.94c-14.745 0-26.699 11.954-26.699 26.699v185.706c0 14.745 11.953 26.699 26.699 26.699s26.699-11.954 26.699-26.699v-185.706c0-14.745-11.953-26.699-26.699-26.699z" fill="url(#SVGID_6_)"/><path d="m89.85 138.9v57.97c8.48-3.82 15.97-9.44 22-16.36 15.61 13.66 36.04 21.94 58.41 21.94 12.58 0 24.54-2.62 35.38-7.34 5.496 9.721 12.956 18.181 21.834 24.855-.326-.012-.651-.025-.98-.025-14.745 0-26.699 11.954-26.699 26.699v185.151c0 14.548 11.406 26.845 25.949 27.244 15.088.414 27.449-11.694 27.449-26.689v-185.706c0-.057 0-.114-.001-.172-.042-6.683 5.688-11.881 12.316-11.032 3.369.431 6.804.654 10.291.654.177 0 .354-.001.53-.002 2.682-.017 5.313.193 7.873.612 4.797.784 8.168 5.001 8.154 9.862v.078 185.706c0 7.373 2.988 14.047 7.82 18.879 8.415 8.415 4.562 22.947-7.122 25.209-1.027.199-2.042.307-3.035.307h40.02c10.07 0 19.09-4.5 25.16-11.6 4.96-5.78 7.94-13.29 7.94-21.5v-304.74z" fill="url(#SVGID_7_)"/></g><g><path d="m389.242 49.947c-21.855 0-41.134 11.003-52.619 27.766-14.771-17.001-36.533-27.766-60.823-27.766-8.376 0-16.452 1.28-24.047 3.652-13.607-31.529-44.97-53.599-81.492-53.599-36.997 0-68.699 22.648-82.013 54.834-7.544-3.144-15.818-4.887-24.502-4.887-35.206 0-63.746 28.541-63.746 63.747s28.54 63.747 63.747 63.747c19.207 0 36.417-8.507 48.104-21.944 15.606 13.662 36.04 21.944 58.41 21.944 12.577 0 24.539-2.623 35.379-7.342 13.83 24.457 40.058 40.978 70.159 40.978 32.777 0 60.962-19.585 73.544-47.681 10.923 8.78 24.792 14.045 39.898 14.045 35.206 0 63.747-28.54 63.747-63.747s-28.54-63.747-63.746-63.747z" fill="url(#SVGID_8_)"/><g><path d="m275.8 49.947c-8.376 0-16.452 1.28-24.047 3.652-13.607-31.529-44.97-53.599-81.492-53.599-26.162 0-49.667 11.335-65.904 29.349 8.19-2.495 16.878-3.847 25.884-3.847 30.846 0 58.011 15.743 73.908 39.631 5.119 7.693 14.169 11.674 23.361 10.736 2.719-.278 5.477-.42 8.269-.42 16.732 0 32.264 5.108 45.138 13.843 8.945 6.07 20.825 6.034 29.381-.573 7.401-5.715 16.092-9.839 25.563-11.86-14.752-16.504-36.183-26.912-60.061-26.912z" fill="url(#SVGID_9_)"/><path d="m389.242 49.947c-21.338 0-40.217 10.492-51.787 26.59 3.814-.712 7.746-1.088 11.767-1.088 35.206 0 63.747 28.54 63.747 63.747 0 13.862-4.439 26.681-11.953 37.141 29.579-5.526 51.973-31.461 51.973-62.643-.001-35.206-28.541-63.747-63.747-63.747z" fill="url(#SVGID_10_)"/></g></g></g></svg>