<svg id="Capa_1" enable-background="new 0 0 510 510" height="512" viewBox="0 0 510 510" width="512" xmlns="http://www.w3.org/2000/svg" xmlns:xlink="http://www.w3.org/1999/xlink"><linearGradient id="lg1"><stop offset="0" stop-color="#fbc56d"/><stop offset=".593" stop-color="#c86d36"/><stop offset="1" stop-color="#904d24"/></linearGradient><linearGradient id="SVGID_1_" gradientUnits="userSpaceOnUse" x1="2.794" x2="585.231" xlink:href="#lg1" y1="255" y2="255"/><linearGradient id="SVGID_2_" gradientUnits="userSpaceOnUse" x1="-59.894" x2="482.982" xlink:href="#lg1" y1="255" y2="255"/><linearGradient id="SVGID_3_" gradientUnits="userSpaceOnUse" x1="-59.894" x2="482.982" xlink:href="#lg1" y1="295.14" y2="295.14"/><linearGradient id="SVGID_4_" gradientUnits="userSpaceOnUse" x1="-59.894" x2="482.982" xlink:href="#lg1" y1="140.313" y2="140.313"/><linearGradient id="SVGID_5_" gradientUnits="userSpaceOnUse" x1="-59.894" x2="482.982" xlink:href="#lg1" y1="428.376" y2="428.376"/><linearGradient id="SVGID_7_" gradientUnits="userSpaceOnUse" x1="-59.894" x2="482.982" xlink:href="#lg1" y1="225.643" y2="225.643"/><linearGradient id="SVGID_8_" gradientUnits="userSpaceOnUse" x1="-59.894" x2="482.982" xlink:href="#lg1" y1="389.875" y2="389.875"/><linearGradient id="SVGID_9_" gradientUnits="userSpaceOnUse" x1="-59.894" x2="482.982" xlink:href="#lg1" y1="85.958" y2="85.958"/><linearGradient id="SVGID_10_" gradientUnits="userSpaceOnUse" x1="-59.894" x2="482.982" xlink:href="#lg1" y1="59.625" y2="59.625"/><linearGradient id="SVGID_11_" gradientUnits="userSpaceOnUse" x1="-59.894" x2="482.982" xlink:href="#lg1" y1="400.288" y2="400.288"/><linearGradient id="SVGID_12_" gradientUnits="userSpaceOnUse" x1="-59.894" x2="482.982" xlink:href="#lg1" y1="352.197" y2="352.197"/><linearGradient id="lg2"><stop offset="0" stop-color="#ffdcbd"/><stop offset=".0028" stop-color="#ffdcbd"/><stop offset="1" stop-color="#ffa9b1"/></linearGradient><linearGradient id="SVGID_13_" gradientUnits="userSpaceOnUse" x1="40.156" x2="330.2" xlink:href="#lg2" y1="81.037" y2="81.037"/><linearGradient id="SVGID_14_" gradientUnits="userSpaceOnUse" x1="40.156" x2="330.2" xlink:href="#lg2" y1="140.095" y2="140.095"/><linearGradient id="SVGID_15_" gradientUnits="userSpaceOnUse" x1="40.156" x2="330.2" xlink:href="#lg2" y1="164.037" y2="164.037"/><linearGradient id="SVGID_16_" gradientUnits="userSpaceOnUse" x1="40.156" x2="330.2" xlink:href="#lg2" y1="204.037" y2="204.037"/><linearGradient id="SVGID_17_" gradientUnits="userSpaceOnUse" x1="40.156" x2="330.2" xlink:href="#lg2" y1="211.37" y2="211.37"/><linearGradient id="SVGID_18_" gradientUnits="userSpaceOnUse" x1="40.156" x2="330.2" xlink:href="#lg2" y1="290.218" y2="290.218"/><linearGradient id="SVGID_19_" gradientUnits="userSpaceOnUse" x1="40.156" x2="330.2" xlink:href="#lg2" y1="347.276" y2="347.276"/><linearGradient id="SVGID_20_" gradientUnits="userSpaceOnUse" x1="40.156" x2="330.2" xlink:href="#lg2" y1="408.079" y2="408.079"/><linearGradient id="SVGID_21_" gradientUnits="userSpaceOnUse" x1="40.156" x2="330.2" xlink:href="#lg2" y1="398.235" y2="398.235"/><linearGradient id="SVGID_22_" gradientUnits="userSpaceOnUse" x1="40.156" x2="330.2" xlink:href="#lg2" y1="423.902" y2="423.902"/><linearGradient id="SVGID_23_" gradientUnits="userSpaceOnUse" x1="40.156" x2="330.2" xlink:href="#lg2" y1="373.568" y2="373.568"/><linearGradient id="SVGID_24_" gradientUnits="userSpaceOnUse" x1="40.156" x2="330.2" xlink:href="#lg2" y1="62.078" y2="62.078"/><linearGradient id="SVGID_25_" gradientUnits="userSpaceOnUse" x1="40.156" x2="330.2" xlink:href="#lg2" y1="104.047" y2="104.047"/><linearGradient id="SVGID_26_" gradientUnits="userSpaceOnUse" x1="40.156" x2="330.2" xlink:href="#lg2" y1="188.047" y2="188.047"/><linearGradient id="SVGID_27_" gradientUnits="userSpaceOnUse" x1="40.156" x2="330.2" xlink:href="#lg2" y1="149.713" y2="149.713"/><linearGradient id="SVGID_28_" gradientUnits="userSpaceOnUse" x1="40.156" x2="330.2" xlink:href="#lg2" y1="266.713" y2="266.713"/><linearGradient id="SVGID_29_" gradientUnits="userSpaceOnUse" x1="40.156" x2="330.2" xlink:href="#lg2" y1="336.713" y2="336.713"/><linearGradient id="SVGID_30_" gradientUnits="userSpaceOnUse" x1="40.156" x2="330.2" xlink:href="#lg2" y1="201.527" y2="201.527"/><linearGradient id="SVGID_31_" gradientUnits="userSpaceOnUse" x1="40.156" x2="330.2" xlink:href="#lg2" y1="123.833" y2="123.833"/><linearGradient id="SVGID_32_" gradientUnits="userSpaceOnUse" x1="40.156" x2="330.2" xlink:href="#lg2" y1="284.166" y2="284.166"/><linearGradient id="SVGID_33_" gradientUnits="userSpaceOnUse" x1="40.156" x2="330.2" xlink:href="#lg2" y1="295.14" y2="295.14"/><linearGradient id="SVGID_34_" gradientUnits="userSpaceOnUse" x1="40.156" x2="330.2" xlink:href="#lg2" y1="85.958" y2="85.958"/><linearGradient id="SVGID_35_" gradientUnits="userSpaceOnUse" x1="40.156" x2="330.2" xlink:href="#lg2" y1="116.292" y2="116.292"/><linearGradient id="SVGID_36_" gradientUnits="userSpaceOnUse" x1="40.156" x2="330.2" xlink:href="#lg2" y1="64.936" y2="64.936"/><linearGradient id="SVGID_37_" gradientUnits="userSpaceOnUse" x1="40.156" x2="330.2" xlink:href="#lg2" y1="72.792" y2="72.792"/><linearGradient id="SVGID_38_" gradientUnits="userSpaceOnUse" x1="271.185" x2="561.229" xlink:href="#lg2" y1="81.037" y2="81.037"/><linearGradient id="SVGID_39_" gradientUnits="userSpaceOnUse" x1="271.185" x2="561.229" xlink:href="#lg2" y1="347.276" y2="347.276"/><linearGradient id="SVGID_40_" gradientUnits="userSpaceOnUse" x1="271.185" x2="561.229" xlink:href="#lg2" y1="408.079" y2="408.079"/><linearGradient id="SVGID_41_" gradientUnits="userSpaceOnUse" x1="271.185" x2="561.229" xlink:href="#lg2" y1="398.235" y2="398.235"/><linearGradient id="SVGID_42_" gradientUnits="userSpaceOnUse" x1="271.185" x2="561.229" xlink:href="#lg2" y1="423.902" y2="423.902"/><linearGradient id="SVGID_43_" gradientUnits="userSpaceOnUse" x1="271.185" x2="561.229" xlink:href="#lg2" y1="373.568" y2="373.568"/><linearGradient id="SVGID_44_" gradientUnits="userSpaceOnUse" x1="271.185" x2="561.229" xlink:href="#lg2" y1="62.078" y2="62.078"/><linearGradient id="SVGID_45_" gradientUnits="userSpaceOnUse" x1="271.185" x2="561.229" xlink:href="#lg2" y1="104.047" y2="104.047"/><linearGradient id="SVGID_46_" gradientUnits="userSpaceOnUse" x1="271.185" x2="561.229" xlink:href="#lg2" y1="188.047" y2="188.047"/><linearGradient id="SVGID_47_" gradientUnits="userSpaceOnUse" x1="271.185" x2="561.229" xlink:href="#lg2" y1="149.713" y2="149.713"/><linearGradient id="SVGID_48_" gradientUnits="userSpaceOnUse" x1="271.185" x2="561.229" xlink:href="#lg2" y1="266.713" y2="266.713"/><linearGradient id="SVGID_49_" gradientUnits="userSpaceOnUse" x1="271.185" x2="561.229" xlink:href="#lg2" y1="336.713" y2="336.713"/><linearGradient id="SVGID_50_" gradientUnits="userSpaceOnUse" x1="271.185" x2="561.229" xlink:href="#lg2" y1="201.527" y2="201.527"/><linearGradient id="SVGID_51_" gradientUnits="userSpaceOnUse" x1="271.185" x2="561.229" xlink:href="#lg2" y1="123.833" y2="123.833"/><linearGradient id="SVGID_52_" gradientUnits="userSpaceOnUse" x1="271.185" x2="561.229" xlink:href="#lg2" y1="284.166" y2="284.166"/><linearGradient id="SVGID_53_" gradientUnits="userSpaceOnUse" x1="271.185" x2="561.229" xlink:href="#lg2" y1="295.14" y2="295.14"/><linearGradient id="SVGID_54_" gradientUnits="userSpaceOnUse" x1="271.185" x2="561.229" xlink:href="#lg2" y1="85.958" y2="85.958"/><linearGradient id="SVGID_55_" gradientUnits="userSpaceOnUse" x1="271.185" x2="561.229" xlink:href="#lg2" y1="116.292" y2="116.292"/><linearGradient id="SVGID_56_" gradientUnits="userSpaceOnUse" x1="271.185" x2="561.229" xlink:href="#lg2" y1="64.936" y2="64.936"/><linearGradient id="SVGID_57_" gradientUnits="userSpaceOnUse" x1="271.185" x2="561.229" xlink:href="#lg2" y1="72.792" y2="72.792"/><g><path d="m478.902 474.095c-39.667 0-78.757-9.24-113.97-26.837-34.049 13.144-77.344 26.837-109.932 26.837-36.936 0-85.925-17.215-110.163-26.722-35.153 17.522-74.16 26.722-113.739 26.722-17.175 0-31.098-13.922-31.098-31.097s13.923-31.098 31.098-31.098c16.891 0 33.635-2.211 49.791-6.514-17.818-16.66-33.249-35.846-45.701-56.968-23.02-39.05-35.188-83.77-35.188-129.323 0-37.088 7.795-72.864 23.17-106.333 21.778-47.408 67.713-76.858 119.879-76.858 46.502 0 88.05 23.399 111.951 62.061 23.901-38.663 65.45-62.061 111.951-62.061 52.166 0 98.101 29.45 119.879 76.858 15.375 33.469 23.17 69.245 23.17 106.333 0 45.553-12.168 90.272-35.188 129.323-12.452 21.122-27.883 40.308-45.701 56.968 16.156 4.304 32.901 6.514 49.791 6.514 17.175 0 31.098 13.923 31.098 31.098s-13.923 31.097-31.098 31.097zm-271.343-70.938c16.898 4.926 34.318 8.743 47.441 8.743 11.413 0 27.738-3.103 47.331-8.858-17.999-17.288-33.471-37.18-45.745-58.969-.552-.98-1.099-1.967-1.638-2.954-12.451 22.837-28.395 43.802-47.389 62.038zm159.392-305.057c-27.989 0-51.676 15.187-63.362 40.625-11.606 25.267-17.492 52.308-17.492 80.371 0 62.862 30.019 120.764 80.846 156.991 21.967-15.7 40.533-35.916 54.289-59.253 17.383-29.488 26.572-63.285 26.572-97.738 0-28.063-5.885-55.104-17.492-80.371-11.685-25.439-35.371-40.625-63.361-40.625zm-223.902 0c-27.989 0-51.676 15.187-63.362 40.625-11.606 25.267-17.492 52.308-17.492 80.371 0 34.453 9.188 68.25 26.572 97.738 13.755 23.335 32.318 43.549 54.283 59.248 50.654-36.199 80.853-94.771 80.853-156.986 0-28.063-5.885-55.104-17.492-80.371-11.686-25.439-35.373-40.625-63.362-40.625z" fill="url(#SVGID_1_)"/><g><path d="m478.902 411.9c-16.891 0-33.635-2.211-49.791-6.514 17.818-16.66 33.249-35.846 45.701-56.968 23.02-39.05 35.188-83.77 35.188-129.323 0-37.088-7.795-72.864-23.17-106.333-21.778-47.408-67.713-76.858-119.879-76.858-6.787 0-13.464.513-20 1.484 14.339 2.134 27.974 6.557 40.501 12.976-3.808 2.308-6.361 6.478-6.361 11.256 0 7.272 5.895 13.167 13.167 13.167 6.814 0 12.419-5.177 13.097-11.811 16.59 12.773 30.205 29.653 39.454 49.786 15.375 33.469 23.17 69.245 23.17 106.333 0 45.553-12.168 90.272-35.188 129.323-8.369 14.196-18.089 27.512-28.969 39.779-4.401-3.305-9.87-5.265-15.798-5.265-14.543 0-26.333 11.79-26.333 26.333s11.79 26.333 26.333 26.333c14.111 0 25.628-11.099 26.301-25.043 7.464.876 14.994 1.344 22.556 1.344 17.175 0 31.098 13.923 31.098 31.098 0 13.578-8.706 25.117-20.837 29.357 9.848 1.154 19.785 1.741 29.759 1.741 17.175 0 31.098-13.923 31.098-31.098.001-17.174-13.922-31.097-31.097-31.097z" fill="url(#SVGID_2_)"/><path d="m301.165 294.065c-9.796-23.282-15.052-48.636-15.066-74.863-.017 42.736-10.747 84.738-31.099 122.009.522.956 1.052 1.912 1.587 2.862 5.279 9.373 11.154 18.391 17.563 27.005 11.598-24.691 20.644-50.502 27.015-77.013z" fill="url(#SVGID_3_)"/><path d="m286.099 219.005c.013-28.03 5.897-55.04 17.491-80.28 1.007-2.193 2.11-4.303 3.29-6.34-4.014-24.121-10.215-47.75-18.586-70.763-13.098 9.732-24.415 21.982-33.294 36.344-.214-.346-.44-.682-.656-1.025 3.167 5.021 6.047 10.292 8.586 15.819 15.357 33.441 23.155 69.189 23.169 106.245z" fill="url(#SVGID_4_)"/><path d="m144.837 447.374c.151.059.302.118.455.178 39.187 15.33 83.898.711 106.162-34.995.152-.243.303-.486.454-.73-18.325-.827-44.349-8.67-44.349-8.67-23.559 23.593-62.722 44.217-62.722 44.217z" fill="url(#SVGID_5_)"/><path d="m257.861 411.827c.151.243.302.487.454.73 22.265 35.707 66.975 50.325 106.162 34.995.152-.06.304-.119.455-.178 0 0-39.163-20.624-62.722-44.217 0 0-26.025 7.843-44.349 8.67z" fill="url(#SVGID_5_)"/><path d="m88.767 316.833c-17.383-29.488-26.572-63.285-26.572-97.738 0-28.063 5.885-55.104 17.492-80.37 8.773-19.097 24.309-32.416 43.352-37.869-6.076-1.74-12.511-2.671-19.194-2.742.446-1.872.689-3.822.689-5.831 0-13.841-11.221-25.062-25.062-25.062s-25.062 11.221-25.062 25.062c0 7.298 3.122 13.866 8.1 18.446-9.633 6.874-17.497 16.358-22.843 27.996-11.606 25.267-17.492 52.308-17.492 80.37 0 34.453 9.188 68.25 26.572 97.738 10.376 17.603 34.279 42.34 54.826 60.171 9.628 8.355 23.639 9.419 34.364 2.528 1.743-1.12 3.452-2.271 5.113-3.451-22.05-14.581-44.938-43.394-54.283-59.248z" fill="url(#SVGID_7_)"/><circle cx="333.784" cy="389.875" fill="url(#SVGID_8_)" r="13.167"/><path d="m208.359 99.125c7.272 0 13.167-5.895 13.167-13.167s-5.895-13.167-13.167-13.167-13.167 5.895-13.167 13.167 5.895 13.167 13.167 13.167z" fill="url(#SVGID_9_)"/><path d="m136.89 72.792c7.272 0 13.167-5.895 13.167-13.167s-5.895-13.167-13.167-13.167-13.167 5.895-13.167 13.167 5.895 13.167 13.167 13.167z" fill="url(#SVGID_10_)"/><circle cx="171.592" cy="400.288" fill="url(#SVGID_11_)" r="13.167"/><circle cx="208.359" cy="352.197" fill="url(#SVGID_12_)" r="18.881"/></g><g><g><ellipse cx="100.351" cy="81.037" fill="url(#SVGID_13_)" rx="7.75" ry="4.922"/><ellipse cx="39.351" cy="140.095" fill="url(#SVGID_14_)" rx="7.75" ry="4.922"/><ellipse cx="52.684" cy="164.037" fill="url(#SVGID_15_)" rx="7.75" ry="4.922"/><ellipse cx="19.684" cy="204.037" fill="url(#SVGID_16_)" rx="7.75" ry="4.922"/><ellipse cx="37.184" cy="211.37" fill="url(#SVGID_17_)" rx="7.75" ry="4.922"/><ellipse cx="37.184" cy="290.218" fill="url(#SVGID_18_)" rx="7.75" ry="4.922"/><ellipse cx="77.517" cy="347.276" fill="url(#SVGID_19_)" rx="7.75" ry="4.922"/><ellipse cx="105.517" cy="408.078" fill="url(#SVGID_20_)" rx="7.75" ry="4.922"/><ellipse cx="121.017" cy="398.235" fill="url(#SVGID_21_)" rx="7.75" ry="4.922"/><ellipse cx="157.98" cy="423.902" fill="url(#SVGID_22_)" rx="7.75" ry="4.922"/><ellipse cx="181.282" cy="373.568" fill="url(#SVGID_23_)" rx="7.75" ry="4.922"/><ellipse cx="127.532" cy="62.078" fill="url(#SVGID_24_)" rx="7.75" ry="4.922"/><ellipse cx="196.303" cy="104.047" fill="url(#SVGID_25_)" rx="7.75" ry="4.922"/><ellipse cx="259.287" cy="188.047" fill="url(#SVGID_26_)" rx="7.75" ry="4.922"/><ellipse cx="230.303" cy="149.713" fill="url(#SVGID_27_)" rx="7.75" ry="4.922"/><ellipse cx="232.637" cy="266.713" fill="url(#SVGID_28_)" rx="7.75" ry="4.922"/><ellipse cx="219.044" cy="336.713" fill="url(#SVGID_29_)" rx="7.75" ry="4.922"/><ellipse cx="245.803" cy="201.527" fill="url(#SVGID_30_)" rx="7.75" ry="4.922"/><ellipse cx="243.787" cy="123.833" fill="url(#SVGID_31_)" rx="7.75" ry="4.922"/><ellipse cx="251.537" cy="284.166" fill="url(#SVGID_32_)" rx="7.75" ry="4.922"/><ellipse cx="243.787" cy="295.14" fill="url(#SVGID_33_)" rx="7.75" ry="4.922"/><ellipse cx="149.611" cy="85.958" fill="url(#SVGID_34_)" rx="7.75" ry="4.922"/><ellipse cx="74.417" cy="116.292" fill="url(#SVGID_35_)" rx="7.75" ry="4.922"/><ellipse cx="166.077" cy="64.936" fill="url(#SVGID_36_)" rx="7.75" ry="4.922"/><ellipse cx="200.163" cy="72.792" fill="url(#SVGID_37_)" rx="7.75" ry="4.922"/></g><g><ellipse cx="331.38" cy="81.037" fill="url(#SVGID_38_)" rx="7.75" ry="4.922"/><ellipse cx="308.546" cy="347.276" fill="url(#SVGID_39_)" rx="7.75" ry="4.922"/><ellipse cx="336.546" cy="408.078" fill="url(#SVGID_40_)" rx="7.75" ry="4.922"/><ellipse cx="352.046" cy="398.235" fill="url(#SVGID_41_)" rx="7.75" ry="4.922"/><ellipse cx="389.009" cy="423.902" fill="url(#SVGID_42_)" rx="7.75" ry="4.922"/><ellipse cx="412.311" cy="373.568" fill="url(#SVGID_43_)" rx="7.75" ry="4.922"/><ellipse cx="358.561" cy="62.078" fill="url(#SVGID_44_)" rx="7.75" ry="4.922"/><ellipse cx="427.332" cy="104.047" fill="url(#SVGID_45_)" rx="7.75" ry="4.922"/><ellipse cx="490.316" cy="188.047" fill="url(#SVGID_46_)" rx="7.75" ry="4.922"/><ellipse cx="461.332" cy="149.713" fill="url(#SVGID_47_)" rx="7.75" ry="4.922"/><ellipse cx="463.666" cy="266.713" fill="url(#SVGID_48_)" rx="7.75" ry="4.922"/><ellipse cx="450.073" cy="336.713" fill="url(#SVGID_49_)" rx="7.75" ry="4.922"/><ellipse cx="476.832" cy="201.527" fill="url(#SVGID_50_)" rx="7.75" ry="4.922"/><ellipse cx="474.816" cy="123.833" fill="url(#SVGID_51_)" rx="7.75" ry="4.922"/><ellipse cx="482.566" cy="284.166" fill="url(#SVGID_52_)" rx="7.75" ry="4.922"/><ellipse cx="474.816" cy="295.14" fill="url(#SVGID_53_)" rx="7.75" ry="4.922"/><ellipse cx="380.64" cy="85.958" fill="url(#SVGID_54_)" rx="7.75" ry="4.922"/><ellipse cx="305.446" cy="116.292" fill="url(#SVGID_55_)" rx="7.75" ry="4.922"/><ellipse cx="397.106" cy="64.936" fill="url(#SVGID_56_)" rx="7.75" ry="4.922"/><ellipse cx="431.192" cy="72.792" fill="url(#SVGID_57_)" rx="7.75" ry="4.922"/></g></g></g></svg>