<svg id="Capa_1" enable-background="new 0 0 510.002 510.002" height="512" viewBox="0 0 510.002 510.002" width="512" xmlns="http://www.w3.org/2000/svg" xmlns:xlink="http://www.w3.org/1999/xlink"><linearGradient id="lg1"><stop offset="0" stop-color="#60b7ff"/><stop offset=".5857" stop-color="#0182fc"/><stop offset="1" stop-color="#2740b0"/></linearGradient><linearGradient id="SVGID_1_" gradientUnits="userSpaceOnUse" x1="8.151" x2="744.979" xlink:href="#lg1" y1="255.001" y2="255.001"/><linearGradient id="SVGID_2_" gradientUnits="userSpaceOnUse" x1="-124.666" x2="425.719" xlink:href="#lg1" y1="283.569" y2="283.569"/><linearGradient id="SVGID_3_" gradientUnits="userSpaceOnUse" x1="-170.334" x2="676.084" xlink:href="#lg1" y1="255.001" y2="255.001"/><linearGradient id="SVGID_4_" gradientUnits="userSpaceOnUse" x1="-14.342" x2="505.353" y1="255.001" y2="255.001"><stop offset="0" stop-color="#f8f6f7"/><stop offset=".1788" stop-color="#f8f6f7"/><stop offset="1" stop-color="#e7e6f5"/></linearGradient><linearGradient id="lg2"><stop offset="0" stop-color="#f8f6f7"/><stop offset="1" stop-color="#d1ceeb"/></linearGradient><linearGradient id="SVGID_5_" gradientUnits="userSpaceOnUse" x1="-48.666" x2="314.062" xlink:href="#lg2" y1="283.569" y2="283.569"/><linearGradient id="SVGID_6_" gradientUnits="userSpaceOnUse" x1="14.157" x2="483" xlink:href="#lg2" y1="103.126" y2="103.126"/><linearGradient id="SVGID_7_" gradientTransform="matrix(1 0 0 -1 0 1121.817)" gradientUnits="userSpaceOnUse" x1="37.217" x2="687.285" xlink:href="#lg1" y1="640.724" y2="640.724"/><linearGradient id="SVGID_8_" gradientUnits="userSpaceOnUse" x1="236.001" x2="488.129" xlink:href="#lg1" y1="481.093" y2="481.093"/><linearGradient id="SVGID_9_" gradientUnits="userSpaceOnUse" x1="37.217" x2="687.285" xlink:href="#lg1" y1="28.909" y2="28.909"/><linearGradient id="SVGID_10_" gradientTransform="matrix(1 0 0 -1 0 2026.187)" gradientUnits="userSpaceOnUse" x1="236.001" x2="488.129" xlink:href="#lg1" y1="1997.278" y2="1997.278"/><linearGradient id="lg3"><stop offset="0" stop-color="#fef056"/><stop offset=".5213" stop-color="#fbc56d"/><stop offset="1" stop-color="#c86d36"/></linearGradient><linearGradient id="SVGID_11_" gradientUnits="userSpaceOnUse" x1="90.104" x2="450.752" xlink:href="#lg3" y1="255.161" y2="255.161"/><linearGradient id="SVGID_12_" gradientUnits="userSpaceOnUse" x1="180.113" x2="463.976" xlink:href="#lg3" y1="252.586" y2="252.586"/><linearGradient id="SVGID_13_" gradientUnits="userSpaceOnUse" x1="56.779" x2="482.124" xlink:href="#lg3" y1="252.586" y2="252.586"/><linearGradient id="SVGID_14_" gradientUnits="userSpaceOnUse" x1="92.779" x2="400.058" xlink:href="#lg3" y1="255.161" y2="255.161"/><linearGradient id="SVGID_15_" gradientUnits="userSpaceOnUse" x1="15.446" x2="399.336" xlink:href="#lg3" y1="242.738" y2="242.738"/><linearGradient id="SVGID_16_" gradientUnits="userSpaceOnUse" x1="15.446" x2="399.336" xlink:href="#lg3" y1="255.161" y2="255.161"/><g><path d="m11.251 255.001c0 27.432 2.107 54.142 6.095 79.801 0 0 24.285 88.412 42.172 125.699h74.696 320.269c27.889-58.137 44.267-129.012 44.267-205.5 0-49.574-6.88-96.791-19.315-139.709 0 0-11.33-21.977-15.843-33.595-6.65-17.118-9.109-32.196-9.109-32.196h-398.965c-27.888 58.137-44.267 129.012-44.267 205.5z" fill="url(#SVGID_1_)"/><path d="m357.335 206.889c-1.396 0-2.805.119-4.224.336.015-.005.029-.011.044-.016l-.593.096c-.031.005-.061.01-.092.015l-69.485 11.309c-23.7 3.86-47.61 5.78-71.51 5.78-34.39 0-68.74-3.98-102.36-11.93-2.18-.51-4.34-.76-6.47-.76-14.96 0-27.83 12.15-27.83 27.9 0 66.62 54 120.63 120.62 120.63h19.24c10.808 0 21.217-1.698 30.984-4.83h18.886c66.62 0 120.62-54.01 120.62-120.63 0-15.75-12.87-27.9-27.83-27.9z" fill="url(#SVGID_2_)"/><path d="m498.751 255.001c0 76.49-16.38 147.36-44.27 205.5h-40.02c27.89-58.14 44.27-129.01 44.27-205.5 0-11.075-.343-22.031-1.015-32.849-4.862-78.255-69.56-139.321-147.966-139.321h-268.419c3.21-8.56 6.66-16.9 10.32-25.01 1.26-2.8 2.55-5.58 3.87-8.32h398.96s6.98 24.77 10.19 33.33c3.944 10.508 11.539 21.337 14.761 32.456 12.437 42.919 19.319 90.137 19.319 139.714z" fill="url(#SVGID_3_)"/><path d="m17.358 334.802c7.133 45.884 20.274 88.414 38.16 125.699h78.697l345.211-345.211c-6.751-23.298-15.13-45.334-24.943-65.789h-151.824z" fill="url(#SVGID_4_)"/><path d="m357.335 206.889c-1.396 0-2.805.119-4.224.336.015-.005.029-.011.044-.016l-.593.096c-.031.005-.061.01-.092.015l-69.485 11.309c-23.7 3.86-47.61 5.78-71.51 5.78-25.79 0-51.558-2.239-77.013-6.711l-55.042 55.042c14.392 50.517 60.881 87.509 116.015 87.509h19.24c7.654 0 15.102-.867 22.269-2.476l141.33-141.331c-5.169-5.895-12.737-9.553-20.939-9.553z" fill="url(#SVGID_5_)"/><path d="m479.431 115.291-41.46 41.46c-25.75-44.35-73.67-73.92-128.22-73.92h-40.42l33.33-33.33h151.82c0 .01.01.01.01.02 9.66 20.14 17.93 41.82 24.63 64.73.11.34.21.69.31 1.04z" fill="url(#SVGID_6_)"/><g><path d="m440.001 504.893c-6.812-6.812-17.855-6.812-24.667 0-6.811 6.812-17.855 6.812-24.667 0-6.811-6.811-17.855-6.811-24.667 0-6.811 6.812-17.855 6.812-24.667 0-6.811-6.812-17.855-6.812-24.667 0-6.811 6.811-17.855 6.811-24.667 0-6.811-6.812-17.855-6.812-24.667 0-6.811 6.811-17.855 6.811-24.667 0-6.811-6.811-17.855-6.811-24.667 0-6.811 6.812-17.855 6.812-24.667 0-6.811-6.812-17.855-6.812-24.667 0-6.811 6.811-17.855 6.811-24.667 0-6.811-6.812-17.855-6.812-24.667 0-6.811 6.811-17.855 6.811-24.667 0-6.811-6.811-17.855-6.811-24.667 0-6.811 6.811-17.855 6.812-24.667 0-4.678-4.677-6.48-11.508-4.719-17.885l8.114-29.375c.889-3.22 3.819-5.449 7.159-5.449h398.226c3.34 0 6.269 2.23 7.159 5.449l8.114 29.375c1.761 6.376-.041 13.207-4.718 17.884-6.808 6.813-17.852 6.813-24.663.001z" fill="url(#SVGID_7_)"/><path d="m469.386 487.009-8.114-29.375c-.889-3.219-3.819-5.449-7.159-5.449h-40.02c3.34 0 6.269 2.23 7.159 5.449l8.114 29.375c1.196 4.331.744 8.87-1.132 12.803 4.273.138 8.505 1.82 11.766 5.082 6.812 6.812 17.855 6.812 24.667 0 4.678-4.678 6.48-11.509 4.719-17.885z" fill="url(#SVGID_8_)"/></g><g><path d="m440.001 5.109c-6.812 6.812-17.855 6.812-24.667 0-6.811-6.812-17.855-6.812-24.667 0-6.811 6.812-17.855 6.812-24.667 0-6.811-6.812-17.855-6.812-24.667 0-6.811 6.812-17.855 6.812-24.667 0-6.811-6.812-17.855-6.812-24.667 0-6.811 6.812-17.855 6.812-24.667 0-6.811-6.812-17.855-6.812-24.667 0-6.811 6.812-17.855 6.812-24.667 0-6.811-6.812-17.855-6.812-24.667 0-6.811 6.812-17.855 6.812-24.667 0-6.811-6.812-17.855-6.812-24.667 0-6.811 6.812-17.855 6.812-24.667 0-6.811-6.812-17.855-6.812-24.667 0-6.811 6.812-17.855 6.812-24.667 0-6.811-6.812-17.855-6.812-24.667 0-4.678 4.678-6.48 11.508-4.719 17.885l8.114 29.375c.889 3.22 3.819 5.449 7.159 5.449h398.226c3.34 0 6.269-2.23 7.159-5.449l8.114-29.375c1.761-6.376-.041-13.207-4.718-17.884-6.808-6.813-17.852-6.813-24.663-.001z" fill="url(#SVGID_9_)"/><path d="m469.386 22.993-8.114 29.375c-.889 3.219-3.819 5.449-7.159 5.449h-40.02c3.34 0 6.269-2.23 7.159-5.449l8.114-29.375c1.196-4.331.744-8.87-1.132-12.803 4.273-.138 8.505-1.82 11.766-5.082 6.812-6.812 17.855-6.812 24.667 0 4.678 4.678 6.48 11.509 4.719 17.885z" fill="url(#SVGID_10_)"/></g><g><path d="m378.166 178.641c-8.05 2.71-15.26 7.25-21.14 13.13-9.86 9.85-15.96 23.47-15.96 38.52 0 28-11.35 53.35-29.69 71.69-18.35 18.35-43.69 29.7-71.69 29.7h-19.24c-66.62 0-120.62-54.01-120.62-120.63 0-15.75 12.87-27.9 27.83-27.9 2.13 0 4.29.25 6.47.76 33.62 7.95 67.97 11.93 102.36 11.93 23.9 0 47.81-1.92 71.51-5.78z" fill="url(#SVGID_11_)"/><path d="m410.176 206.221c0 66.62-54 120.63-120.62 120.63h-19.24c-5.75 0-11.39-.48-16.88-1.41 13.89-5.12 26.34-13.19 36.61-23.46 18.34-18.34 29.69-43.69 29.69-71.69 0-15.05 6.1-28.67 15.96-38.52.023-.023.046-.046.069-.069 3.899-3.885 8.968-6.386 14.39-7.332 8.61-1.503 17.187-3.265 25.721-5.289 2.18-.51 4.34-.76 6.47-.76 14.96 0 27.83 12.15 27.83 27.9z" fill="url(#SVGID_12_)"/><path d="m382.346 178.321c-2.13 0-4.29.25-6.47.76-6.044 1.433-12.11 2.728-18.194 3.9 7.436 4.942 12.474 13.386 12.474 23.24 0 62.942-48.204 114.618-109.71 120.134 3.25.316 6.539.496 9.87.496h19.24c66.62 0 120.62-54.01 120.62-120.63 0-15.75-12.87-27.9-27.83-27.9z" fill="url(#SVGID_13_)"/><path d="m378.166 178.641c-8.05 2.71-15.26 7.25-21.14 13.13-9.86 9.85-15.96 23.47-15.96 38.52 0 28-11.35 53.35-29.69 71.69-18.35 18.35-43.69 29.7-71.69 29.7h-19.24c-66.62 0-120.62-54.01-120.62-120.63 0-15.75 12.87-27.9 27.83-27.9 2.13 0 4.29.25 6.47.76 33.62 7.95 67.97 11.93 102.36 11.93 23.9 0 47.81-1.92 71.51-5.78z" fill="url(#SVGID_14_)"/><g><circle cx="228.562" cy="242.738" fill="url(#SVGID_15_)" r="13.167"/><path d="m326.36 187.072c-3.505.57-6.799 2.149-9.313 4.658-.014.014-.027.027-.041.041-9.86 9.85-15.96 23.47-15.96 38.52 0 15.094-3.303 29.415-9.217 42.286-4.386-9.169-13.92-15.405-24.861-14.962-13.238.536-24.186 11.091-25.165 24.304-1.006 13.573 8.285 25.168 20.867 27.786-14.861 11.807-33.096 19.542-53.039 21.489 3.563.317 7.169.488 10.814.488h19.24c28 0 53.34-11.35 71.69-29.7 18.34-18.34 29.69-43.69 29.69-71.69 0-15.05 6.1-28.67 15.96-38.52 5.88-5.88 13.09-10.42 21.14-13.13z" fill="url(#SVGID_16_)"/></g></g></g></svg>