<svg id="Capa_1" enable-background="new 0 0 510.002 510.002" height="512" viewBox="0 0 510.002 510.002" width="512" xmlns="http://www.w3.org/2000/svg" xmlns:xlink="http://www.w3.org/1999/xlink"><linearGradient id="lg1"><stop offset="0" stop-color="#fef056"/><stop offset=".5213" stop-color="#fbc56d"/><stop offset="1" stop-color="#c86d36"/></linearGradient><linearGradient id="SVGID_1_" gradientUnits="userSpaceOnUse" x1="112.434" x2="616.424" xlink:href="#lg1" y1="296.455" y2="296.455"/><linearGradient id="SVGID_3_" gradientUnits="userSpaceOnUse" x1="-4.999" x2="646.861" xlink:href="#lg1" y1="296.456" y2="296.456"/><linearGradient id="SVGID_4_" gradientUnits="userSpaceOnUse" x1="-15.99" x2="469.728" xlink:href="#lg1" y1="219.342" y2="219.342"/><linearGradient id="SVGID_5_" gradientUnits="userSpaceOnUse" x1="-95.999" x2="380.696" xlink:href="#lg1" y1="219.341" y2="219.341"/><linearGradient id="SVGID_6_" gradientUnits="userSpaceOnUse" x1="5.089" x2="511.651" xlink:href="#lg1" y1="257.898" y2="257.898"/><linearGradient id="SVGID_7_" gradientUnits="userSpaceOnUse" x1="-74.999" x2="477.711" xlink:href="#lg1" y1="257.9" y2="257.9"/><linearGradient id="lg2"><stop offset="0" stop-color="#fbc56d"/><stop offset=".593" stop-color="#c86d36"/><stop offset="1" stop-color="#904d24"/></linearGradient><linearGradient id="SVGID_8_" gradientUnits="userSpaceOnUse" x1="187.672" x2="566.528" xlink:href="#lg2" y1="166.116" y2="166.116"/><linearGradient id="SVGID_9_" gradientUnits="userSpaceOnUse" x1="188.001" x2="510.821" xlink:href="#lg2" y1="175.154" y2="175.154"/><g><path d="m110.841 496.028-33.727-33.728 379.389-379.389 33.728 33.728c18.627 18.627 18.627 48.828 0 67.456l-311.934 311.933c-18.627 18.627-48.828 18.627-67.456 0z" fill="url(#SVGID_1_)"/><path d="m110.841 496.028-33.727-33.728 379.389-379.389 33.728 33.728c18.627 18.627 18.627 48.828 0 67.456l-311.934 311.933c-18.627 18.627-48.828 18.627-67.456 0z" fill="url(#SVGID_1_)"/><path d="m490.231 184.089-116.49 116.49-195.44 195.45c-14.54 14.54-36.11 17.73-53.74 9.58 4.97-2.29 9.62-5.49 13.72-9.58l201.877-201.886c21.503-21.504 33.583-50.668 33.583-81.078v-30.866c0-4.57-1.83-8.71-4.81-11.72l87.57-87.57 7.73 7.73 26 26c18.63 18.63 18.63 48.83 0 67.45z" fill="url(#SVGID_3_)"/><path d="m13.971 399.158 33.728 33.728 379.39-379.389-33.728-33.728c-18.627-18.627-48.828-18.627-67.456 0l-311.934 311.934c-18.627 18.627-18.627 48.828 0 67.455z" fill="url(#SVGID_4_)"/><path d="m427.091 53.499-147.22 147.22-232.17 232.17-33.73-33.73c-3.06-3.06-5.62-6.44-7.67-10.02l252.436-252.436c11.944-11.944 18.656-28.142 18.661-45.033 0-.247 0-.494 0-.74.005-14.513 5.772-28.43 16.035-38.693l32.468-32.468c8.72-8.72 19.97-13.36 31.39-13.92 12.98-.63 26.16 4.01 36.07 13.92z" fill="url(#SVGID_5_)"/><path d="m31.302 478.698c-21.66-21.66-21.66-56.776 0-78.436l363.163-363.163c21.659-21.659 56.776-21.659 78.436 0 21.659 21.659 21.659 56.776 0 78.436l-363.163 363.163c-21.66 21.659-56.777 21.659-78.436 0z" fill="url(#SVGID_6_)"/><path d="m489.141 76.319c0 14.2-5.41 28.39-16.24 39.22l-1.61 1.61-97.55 97.55-264 264c-16.01 16.01-39.38 20.19-59.23 12.52 7-2.7 13.56-6.87 19.21-12.52l294.49-294.49c2.486-2.486.114-9.093.099-9.109-3.062-3.113-7.338-5.023-12.066-4.969-6.525.075-11.862 5.62-11.862 12.145v6.183c0 4.9-1.12 9.54-3.11 13.68-3.1 6.41-8.3 11.61-14.71 14.71-4.14 1.99-8.78 3.11-13.68 3.11-8.18 0-15.63-3.11-21.23-8.22-.35-.33-.7-.66-1.04-1-5.69-5.7-9.22-13.58-9.22-22.28v-9.984c0-15.563 6.182-30.489 17.187-41.494l99.883-99.883c5.65-5.65 12.21-9.82 19.21-12.52 5.05-1.95 10.33-3.13 15.66-3.55 15.61-1.23 31.63 4.13 43.57 16.07 10.829 10.831 16.239 25.021 16.239 39.221z" fill="url(#SVGID_7_)"/><path d="m510.001 150.604v71.636c0 13.325-10.802 24.127-24.127 24.127s-24.127 10.802-24.127 24.127v30.243c0 17.394-14.101 31.495-31.495 31.495s-31.495-14.101-31.495-31.495v-118.542c0-9.214-7.469-16.683-16.683-16.683s-16.683 7.469-16.683 16.683v6.269c0 17.394-14.101 31.495-31.495 31.495s-31.495-14.101-31.495-31.495v-118.322c0-21.068 8.369-41.274 23.267-56.171 18.628-18.628 48.829-18.628 67.457 0l5.773 5.773c4.064 4.064 10.195 5.203 15.468 2.915 7.036-3.053 14.573-4.583 22.104-4.583 14.193 0 28.387 5.412 39.211 16.246 15.105 15.097 19.671 36.741 13.714 55.806-2.91 9.314-.649 19.465 6.251 26.364l.385.385c9.313 9.314 13.97 21.516 13.97 33.727z" fill="url(#SVGID_8_)"/><path d="m496.029 116.876-.385-.385c-6.9-6.899-9.162-17.049-6.251-26.363 5.958-19.066 1.392-40.711-13.713-55.808-10.824-10.834-25.017-16.246-39.211-16.246-6.792 0-13.585 1.252-20.014 3.735 6.998 2.702 13.561 6.863 19.204 12.511 15.105 15.097 19.671 36.741 13.714 55.806-2.91 9.314-.649 19.465 6.251 26.364l.385.385c9.315 9.315 13.972 21.517 13.972 33.728v71.636c0 13.312-10.893 24.085-24.205 24.127-13.289.042-24.049 10.828-24.049 24.127v30.243c0 9.795-4.472 18.546-11.485 24.322 5.441 4.481 12.411 7.173 20.01 7.173 17.394 0 31.495-14.101 31.495-31.495v-30.243c0-13.312 10.893-24.085 24.205-24.127 13.289-.042 24.049-10.828 24.049-24.127v-71.636c0-12.21-4.658-24.412-13.972-33.727z" fill="url(#SVGID_9_)"/></g></svg>