<svg id="Capa_1" enable-background="new 0 0 510 510" height="512" viewBox="0 0 510 510" width="512" xmlns="http://www.w3.org/2000/svg" xmlns:xlink="http://www.w3.org/1999/xlink"><linearGradient id="SVGID_1_" gradientUnits="userSpaceOnUse" x1="36" x2="543.011" y1="251.833" y2="251.833"><stop offset="0" stop-color="#f8f6f7"/><stop offset=".1788" stop-color="#f8f6f7"/><stop offset="1" stop-color="#e7e6f5"/></linearGradient><linearGradient id="lg1"><stop offset="0" stop-color="#f8f6f7"/><stop offset="1" stop-color="#d1ceeb"/></linearGradient><linearGradient id="SVGID_2_" gradientUnits="userSpaceOnUse" x1="-48.368" x2="645.321" xlink:href="#lg1" y1="356.546" y2="356.546"/><linearGradient id="SVGID_3_" gradientUnits="userSpaceOnUse" x1="-48.368" x2="645.321" xlink:href="#lg1" y1="226.994" y2="226.994"/><linearGradient id="SVGID_4_" gradientUnits="userSpaceOnUse" x1="-48.368" x2="645.321" xlink:href="#lg1" y1="251.836" y2="251.836"/><linearGradient id="SVGID_5_" gradientUnits="userSpaceOnUse" x1="-48.368" x2="645.321" xlink:href="#lg1" y1="127.994" y2="127.994"/><linearGradient id="SVGID_6_" gradientUnits="userSpaceOnUse" x1="-48.368" x2="645.321" xlink:href="#lg1" y1="377.269" y2="377.269"/><linearGradient id="SVGID_7_" gradientUnits="userSpaceOnUse" x1="-48.368" x2="645.321" xlink:href="#lg1" y1="309.556" y2="309.556"/><linearGradient id="lg2"><stop offset="0" stop-color="#537983"/><stop offset=".593" stop-color="#554e56"/><stop offset="1" stop-color="#433f43"/></linearGradient><linearGradient id="SVGID_9_" gradientUnits="userSpaceOnUse" x1="127.123" x2="406.255" xlink:href="#lg2" y1="377.269" y2="377.269"/><linearGradient id="SVGID_10_" gradientUnits="userSpaceOnUse" x1="89.625" x2="355.265" xlink:href="#lg2" y1="377.269" y2="377.269"/><g><path d="m173.948 96.802-167.999 290.988c-16.902 29.276 4.226 65.87 38.031 65.87h422.041c33.805 0 54.933-36.595 38.031-65.87l-168-290.988c-36.023-62.395-126.081-62.395-162.104 0z" fill="url(#SVGID_1_)"/><g><path d="m287.986 294.544h-94.581c1.349-3.077 2.102-6.475 2.102-10.05 0-13.841-11.221-25.062-25.062-25.062s-25.062 11.22-25.062 25.062c0 5.31 1.656 10.23 4.473 14.283-22.179 8.811-37.868 30.451-37.868 55.769v79.688c0 7.755 3.431 14.704 8.853 19.426h218.294c5.422-4.723 8.853-11.672 8.853-19.426v-79.688c.001-33.138-26.863-60.002-60.002-60.002z" fill="url(#SVGID_2_)"/><circle cx="208.675" cy="226.994" fill="url(#SVGID_3_)" r="13.167"/><circle cx="297" cy="251.836" fill="url(#SVGID_4_)" r="13.167"/><circle cx="259.811" cy="127.994" fill="url(#SVGID_5_)" r="13.167"/><path d="m60 364.102c-7.272 0-13.167 5.895-13.167 13.167s5.895 13.166 13.167 13.166 13.167-5.895 13.167-13.167-5.895-13.166-13.167-13.166z" fill="url(#SVGID_6_)"/><circle cx="393.833" cy="309.556" fill="url(#SVGID_7_)" r="13.167"/><path d="m504.051 387.79-167.999-290.988c-21.848-37.842-63.571-52.726-101.062-44.666 24.324 5.23 46.867 20.114 61.042 44.666l133.43 231.112c-7.377 4.716-12.126 13.182-11.537 22.715.748 12.118 10.346 22.124 22.425 23.342.428.043.853.075 1.277.097 9.129.468 17.494 5.216 22.064 13.133l.34.589c16.902 29.276-4.226 65.87-38.031 65.87h40.02c33.805 0 54.933-36.594 38.031-65.87z" fill="url(#SVGID_4_)"/></g><path d="m347.24 459.994h-184.48c-14.227 0-25.76-11.533-25.76-25.76v-79.688c0-33.139 26.864-60.003 60.003-60.003h115.995c33.139 0 60.003 26.864 60.003 60.003v79.688c-.001 14.227-11.534 25.76-25.761 25.76z" fill="url(#SVGID_9_)"/><path d="m312.997 294.544h-40.02c33.138 0 60.003 26.864 60.003 60.003v79.688c0 14.227-11.533 25.76-25.76 25.76h40.02c14.227 0 25.76-11.533 25.76-25.76v-79.688c0-33.139-26.864-60.003-60.003-60.003z" fill="url(#SVGID_10_)"/></g></svg>