<svg id="Capa_1" enable-background="new 0 0 510 510" height="512" viewBox="0 0 510 510" width="512" xmlns="http://www.w3.org/2000/svg" xmlns:xlink="http://www.w3.org/1999/xlink"><linearGradient id="lg1"><stop offset="0" stop-color="#f8f6f7"/><stop offset="1" stop-color="#d1ceeb"/></linearGradient><linearGradient id="SVGID_1_" gradientUnits="userSpaceOnUse" x1="123.931" x2="217.324" xlink:href="#lg1" y1="29.619" y2="29.619"/><linearGradient id="lg2"><stop offset="0" stop-color="#fe646f"/><stop offset=".593" stop-color="#fb2b3a"/><stop offset="1" stop-color="#c41926"/></linearGradient><linearGradient id="SVGID_2_" gradientUnits="userSpaceOnUse" x1="89.458" x2="473.747" xlink:href="#lg2" y1="279.151" y2="279.151"/><linearGradient id="lg3"><stop offset="0" stop-color="#f8f6f7"/><stop offset=".1788" stop-color="#f8f6f7"/><stop offset="1" stop-color="#e7e6f5"/></linearGradient><linearGradient id="SVGID_3_" gradientTransform="matrix(1 -.525 0 1 0 72.722)" gradientUnits="userSpaceOnUse" x1="-22.264" x2="368.448" xlink:href="#lg3" y1="340.351" y2="340.351"/><linearGradient id="lg4"><stop offset="0" stop-color="#60b7ff"/><stop offset=".5857" stop-color="#0182fc"/><stop offset="1" stop-color="#2740b0"/></linearGradient><linearGradient id="SVGID_4_" gradientUnits="userSpaceOnUse" x1="176.593" x2="381.227" xlink:href="#lg4" y1="279.151" y2="279.151"/><linearGradient id="SVGID_5_" gradientUnits="userSpaceOnUse" x1="55.073" x2="373.558" xlink:href="#lg4" y1="279.151" y2="279.151"/><linearGradient id="SVGID_6_" gradientUnits="userSpaceOnUse" x1="28.555" x2="409.509" xlink:href="#lg2" y1="279.151" y2="279.151"/><linearGradient id="SVGID_7_" gradientUnits="userSpaceOnUse" x1="116.855" x2="416.434" xlink:href="#lg3" y1="63.959" y2="63.959"/><linearGradient id="SVGID_8_" gradientUnits="userSpaceOnUse" x1="144.999" x2="330.039" xlink:href="#lg1" y1="63.959" y2="63.959"/><linearGradient id="SVGID_9_" gradientUnits="userSpaceOnUse" x1="116.855" x2="416.434" xlink:href="#lg3" y1="487.719" y2="487.719"/><linearGradient id="SVGID_10_" gradientUnits="userSpaceOnUse" x1="144.999" x2="330.039" xlink:href="#lg1" y1="487.719" y2="487.719"/><g><path d="m188.975 22.267c0-12.298-9.97-22.267-22.268-22.267h-2.751c-13.817 0-25.018 11.201-25.018 25.018v34.221h93.096l-25.087-10.231c-10.868-4.433-17.972-15.003-17.972-26.741z" fill="url(#SVGID_1_)"/><path d="m396.612 89.212c-.017-.041-.03-.072-.03-.072-.934-1.286-20.451-25.181-20.451-25.181h-242.263l-17.526 21.391c-11.619 14.181-17.918 31.56-17.918 49.439v288.725c0 12.353 3.011 24.466 8.702 35.452.001.003.004.018.004.018 2.544 4.908 5.624 9.591 9.211 13.969l17.527 21.391h242.263l17.527-21.391c11.619-14.181 17.918-31.56 17.918-49.439v-288.725c0-16.291-5.245-32.157-14.964-45.577z" fill="url(#SVGID_2_)"/><g><path d="m360.418 269.127-210.836 110.728c-6.138 3.224-11.114.861-11.114-5.277v-68.452c0-6.138 4.976-13.727 11.114-16.95l210.835-110.728c6.138-3.224 11.114-.861 11.114 5.277v68.452c0 6.137-4.976 13.726-11.113 16.95z" fill="url(#SVGID_3_)"/><g><circle cx="255" cy="279.151" fill="url(#SVGID_4_)" r="82.29"/><path d="m255 196.861c-5.331 0-10.538.525-15.587 1.494 37.991 7.287 66.703 40.68 66.703 80.796s-28.712 73.509-66.703 80.796c5.049.968 10.256 1.494 15.587 1.494 45.448 0 82.29-36.843 82.29-82.29s-36.842-82.29-82.29-82.29z" fill="url(#SVGID_5_)"/></g></g><path d="m411.576 423.514v-288.725c0-16.291-5.246-32.157-14.964-45.577-.017-.041-.03-.072-.03-.072-.934-1.286-20.451-25.181-20.451-25.181h-242.263l-17.526 21.391c-5.646 6.891-10.024 14.54-13.045 22.631 3.39 2.089 7.38 3.288 11.659 3.288h232.921c12.919 0 23.613 10.363 23.654 23.282v.241 288.722c0 17.879-6.293 35.259-17.909 49.436l-17.529 21.391.007.003h40.031l17.527-21.391c11.62-14.182 17.918-31.56 17.918-49.439z" fill="url(#SVGID_6_)"/><g><path d="m395.044 86.24h-280.088c-12.306 0-22.281-9.976-22.281-22.281 0-12.306 9.976-22.281 22.281-22.281h280.088c12.306 0 22.281 9.976 22.281 22.281.001 12.306-9.975 22.281-22.281 22.281z" fill="url(#SVGID_7_)"/><path d="m395.044 41.678h-35.001c12.306 0 22.281 9.976 22.281 22.281 0 12.306-9.976 22.281-22.281 22.281h35.001c12.306 0 22.281-9.976 22.281-22.281.001-12.306-9.975-22.281-22.281-22.281z" fill="url(#SVGID_8_)"/></g><g><path d="m395.044 510h-280.088c-12.306 0-22.281-9.976-22.281-22.281 0-12.306 9.976-22.281 22.281-22.281h280.088c12.306 0 22.281 9.976 22.281 22.281.001 12.305-9.975 22.281-22.281 22.281z" fill="url(#SVGID_9_)"/><path d="m395.044 465.437h-35.001c12.306 0 22.281 9.976 22.281 22.281 0 12.306-9.976 22.281-22.281 22.281h35.001c12.306 0 22.281-9.976 22.281-22.281.001-12.305-9.975-22.281-22.281-22.281z" fill="url(#SVGID_10_)"/></g></g></svg>