<svg id="Capa_1" enable-background="new 0 0 510 510" height="512" viewBox="0 0 510 510" width="512" xmlns="http://www.w3.org/2000/svg" xmlns:xlink="http://www.w3.org/1999/xlink"><linearGradient id="lg1"><stop offset="0" stop-color="#fef056"/><stop offset=".5213" stop-color="#fbc56d"/><stop offset="1" stop-color="#c86d36"/></linearGradient><linearGradient id="SVGID_1_" gradientUnits="userSpaceOnUse" x1="0" x2="510" xlink:href="#lg1" y1="275.232" y2="275.232"/><linearGradient id="SVGID_2_" gradientUnits="userSpaceOnUse" x1="-60" x2="305.022" xlink:href="#lg1" y1="343.651" y2="343.651"/><linearGradient id="SVGID_3_" gradientUnits="userSpaceOnUse" x1="-235.053" x2="459.997" xlink:href="#lg1" y1="275.224" y2="275.224"/><linearGradient id="SVGID_4_" gradientUnits="userSpaceOnUse" x1="10.262" x2="527.01" xlink:href="#lg1" y1="247.203" y2="247.203"/><linearGradient id="SVGID_5_" gradientUnits="userSpaceOnUse" x1="10.667" x2="252.406" xlink:href="#lg1" y1="268.59" y2="268.59"/><linearGradient id="SVGID_6_" gradientUnits="userSpaceOnUse" x1="10.667" x2="252.406" xlink:href="#lg1" y1="255.424" y2="255.424"/><linearGradient id="SVGID_7_" gradientUnits="userSpaceOnUse" x1="-1.333" x2="480.202" xlink:href="#lg1" y1="268.167" y2="268.167"/><linearGradient id="SVGID_8_" gradientUnits="userSpaceOnUse" x1="-1.368" x2="480.238" xlink:href="#lg1" y1="247.201" y2="247.201"/><linearGradient id="SVGID_9_" gradientUnits="userSpaceOnUse" x1="144.783" x2="400.607" xlink:href="#lg1" y1="255" y2="255"/><linearGradient id="SVGID_10_" gradientUnits="userSpaceOnUse" x1="-22" x2="413.19" xlink:href="#lg1" y1="299.239" y2="299.239"/><linearGradient id="SVGID_11_" gradientUnits="userSpaceOnUse" x1="-22" x2="413.19" xlink:href="#lg1" y1="140.094" y2="140.094"/><linearGradient id="SVGID_12_" gradientUnits="userSpaceOnUse" x1="-22" x2="413.19" xlink:href="#lg1" y1="113.761" y2="113.761"/><linearGradient id="SVGID_13_" gradientUnits="userSpaceOnUse" x1="-22" x2="413.19" xlink:href="#lg1" y1="182.73" y2="182.73"/><linearGradient id="SVGID_14_" gradientUnits="userSpaceOnUse" x1="-22" x2="413.19" xlink:href="#lg1" y1="255" y2="255"/><g><path d="m255 368.777c64.879 0 124.091 22.312 169.093 59.053 26.434 21.581 68.511 9.94 77.513-21.514 5.476-19.133 8.394-39.222 8.394-59.939 0-129.402-114.748-234.918-255.302-234.768-140.694.15-254.698 105.202-254.698 234.767 0 20.583 2.88 40.545 8.287 59.566 8.992 31.63 51.051 43.578 77.622 21.885 45.002-36.739 104.213-59.05 169.091-59.05z" fill="url(#SVGID_1_)"/><g><path d="m214.98 368.777c-26.733 0-52.499 3.797-76.71 10.821-7.148-3.554-13.87-8.088-19.925-13.609l-73.418-66.93c-14.582-13.293-22.109-31.879-21.744-50.592-8.629 17.289-15.039 35.709-18.904 54.952-.625 3.112.358 6.361 2.702 8.501.013.012.026.023.038.035l73.418 66.93c.536.489 1.078.97 1.625 1.444 7.763 6.726 6.66 18.982-2.239 24.113-12.021 6.932-23.369 14.76-33.934 23.385-3.561 2.907-7.406 5.192-11.407 6.924 16.199 6.858 36.315 5.413 51.427-6.924 40.329-32.925 92.075-54.249 149.081-58.325-6.604-.471-13.274-.725-20.01-.725z" fill="url(#SVGID_2_)"/><path d="m254.698 111.609c-6.658.007-13.256.251-19.785.72 131.167 9.417 235.067 110.915 235.067 234.048 0 20.717-2.918 40.806-8.394 59.939-3.862 13.493-13.817 23.325-26.006 28.468 25.744 11.09 58.244-1.274 66.026-28.468 5.476-19.133 8.394-39.222 8.394-59.939 0-129.402-114.748-234.918-255.302-234.768z" fill="url(#SVGID_3_)"/></g><path d="m255 92.692c-101.071 0-189.236 55.208-236.012 137.109-15.44 27.034-9.965 61.181 13.042 82.155l73.418 66.93c21.971 20.029 52.564 27.442 81.347 19.993 21.793-5.64 44.648-8.642 68.205-8.642s46.412 3.002 68.205 8.642c28.782 7.448 59.376.036 81.347-19.993l73.418-66.93c23.007-20.974 28.481-55.121 13.042-82.155-46.776-81.901-134.941-137.109-236.012-137.109z" fill="url(#SVGID_4_)"/><g><g><path d="m73.349 255.424c-7.272 0-13.167 5.895-13.167 13.167s5.895 13.167 13.167 13.167 13.167-5.895 13.167-13.167-5.895-13.167-13.167-13.167z" fill="url(#SVGID_5_)"/><path d="m214.98 390.237c-6.457 0-12.859.234-19.203.677-1.537-3.3-2.882-6.722-3.989-10.269l-51.975-166.555c-12.039-38.581-1.841-77.489 21.92-104.953-10.057 3.678-19.837 7.932-29.298 12.723-25.034 12.679-40.37 39.051-38.36 67.041.598 8.33 2.166 16.767 4.794 25.189l22.036 70.615c-3.674-1.18-7.697-1.584-11.881-.988-11.811 1.683-21.135 11.384-22.364 23.251-1.636 15.804 10.718 29.143 26.188 29.143 2.127 0 4.195-.252 6.176-.729 9.191-2.211 18.563 2.779 21.379 11.803l10.442 33.46c.65 2.084 1.379 4.128 2.181 6.128 2.023 5.047-.88 10.717-6.144 12.077l-.107.028c-.736.19-1.473.365-2.211.535 13.7 3.186 28.18 3.101 42.231-.535 15.566-4.028 31.677-6.702 48.195-7.906-6.608-.481-13.279-.735-20.01-.735z" fill="url(#SVGID_6_)"/></g><g><path d="m419.353 268.167c0-7.272-5.895-13.167-13.167-13.167s-13.167 5.895-13.167 13.167 5.895 13.167 13.167 13.167 13.167-5.896 13.167-13.167z" fill="url(#SVGID_7_)"/><path d="m491.151 230.044c-46.74-82.035-134.98-137.352-236.151-137.352-6.731 0-13.402.252-20.01.734 92.496 6.736 172.13 59.788 215.829 136.073 15.539 27.127 10.235 61.396-12.869 82.458l-24.91 22.708c-1.314-13.417-13.207-23.732-27.229-22.488-11.771 1.044-21.36 10.434-22.623 22.184-.847 7.876 1.96 15.115 6.935 20.235 5.375 5.531 5.352 14.314-.347 19.51l-5.245 4.781c-11.245 10.252-24.752 17.188-39.116 20.529 28.13 6.519 57.726-1.011 79.136-20.529l73.418-66.93c22.931-20.905 28.542-54.954 13.182-81.913z" fill="url(#SVGID_8_)"/></g></g><path d="m255 438.856c-36.275 0-68.338-23.582-79.144-58.21l-51.975-166.556c-22.129-70.912 30.853-142.946 105.137-142.946h51.964c74.284 0 127.265 72.034 105.137 142.946l-51.975 166.555c-10.806 34.628-42.869 58.211-79.144 58.211z" fill="url(#SVGID_9_)"/><g><circle cx="268.016" cy="299.239" fill="url(#SVGID_10_)" r="13.167"/><path d="m294.349 140.094c0-7.272-5.895-13.167-13.167-13.167s-13.167 5.895-13.167 13.167 5.895 13.167 13.167 13.167c7.272-.001 13.167-5.895 13.167-13.167z" fill="url(#SVGID_11_)"/><path d="m209.713 100.594c-7.272 0-13.167 5.895-13.167 13.167s5.895 13.167 13.167 13.167 13.167-5.895 13.167-13.167-5.895-13.167-13.167-13.167z" fill="url(#SVGID_12_)"/><circle cx="191.628" cy="182.73" fill="url(#SVGID_13_)" r="25.062"/><path d="m280.982 71.144h-40.02c74.284 0 127.266 72.034 105.137 142.946l-31.509 100.973c-3.602-1.003-7.507-1.277-11.562-.588-11.738 1.995-20.8 11.901-21.757 23.769-.646 8.011 2.298 15.343 7.395 20.565 5.639 5.777 7.888 14.051 5.483 21.757l-.025.08c-8.763 28.08-31.504 48.894-59.134 55.763 6.443 1.602 13.151 2.448 20.01 2.448 36.275 0 68.338-23.582 79.144-58.21l51.975-166.555c22.129-70.914-30.853-142.948-105.137-142.948z" fill="url(#SVGID_14_)"/></g></g></svg>