<svg id="Capa_1" enable-background="new 0 0 510 510" height="512" viewBox="0 0 510 510" width="512" xmlns="http://www.w3.org/2000/svg" xmlns:xlink="http://www.w3.org/1999/xlink"><linearGradient id="lg1"><stop offset="0" stop-color="#fef056"/><stop offset=".5213" stop-color="#fbc56d"/><stop offset="1" stop-color="#c86d36"/></linearGradient><linearGradient id="SVGID_1_" gradientUnits="userSpaceOnUse" x1="19.273" x2="336.099" xlink:href="#lg1" y1="172.846" y2="172.846"/><linearGradient id="SVGID_2_" gradientUnits="userSpaceOnUse" x1="-77.638" x2="307.432" xlink:href="#lg1" y1="172.845" y2="172.845"/><linearGradient id="SVGID_3_" gradientUnits="userSpaceOnUse" x1="6.716" x2="278.818" xlink:href="#lg1" y1="207.425" y2="207.425"/><linearGradient id="SVGID_4_" gradientUnits="userSpaceOnUse" x1="-7.45" x2="228.977" xlink:href="#lg1" y1="200.047" y2="200.047"/><linearGradient id="SVGID_5_" gradientUnits="userSpaceOnUse" x1="-7.45" x2="228.977" xlink:href="#lg1" y1="207.43" y2="207.43"/><linearGradient id="SVGID_6_" gradientUnits="userSpaceOnUse" x1="253.984" x2="478.821" xlink:href="#lg1" y1="172.846" y2="172.846"/><linearGradient id="SVGID_7_" gradientUnits="userSpaceOnUse" x1="234.022" x2="456.856" xlink:href="#lg1" y1="114.265" y2="114.265"/><linearGradient id="SVGID_8_" gradientUnits="userSpaceOnUse" x1="234.022" x2="456.856" xlink:href="#lg1" y1="172.847" y2="172.847"/><linearGradient id="SVGID_9_" gradientUnits="userSpaceOnUse" x1="288.756" x2="547.616" xlink:href="#lg1" y1="220.484" y2="220.484"/><linearGradient id="SVGID_10_" gradientUnits="userSpaceOnUse" x1="280.707" x2="520.601" xlink:href="#lg1" y1="146.005" y2="146.005"/><linearGradient id="SVGID_11_" gradientUnits="userSpaceOnUse" x1="280.707" x2="520.601" xlink:href="#lg1" y1="203.098" y2="203.098"/><linearGradient id="SVGID_12_" gradientUnits="userSpaceOnUse" x1="280.707" x2="520.601" xlink:href="#lg1" y1="220.475" y2="220.475"/><linearGradient id="SVGID_13_" gradientUnits="userSpaceOnUse" x1="183.474" x2="408.468" xlink:href="#lg1" y1="230.42" y2="230.42"/><linearGradient id="SVGID_14_" gradientUnits="userSpaceOnUse" x1="47.283" x2="448.325" xlink:href="#lg1" y1="217.029" y2="217.029"/><linearGradient id="SVGID_15_" gradientUnits="userSpaceOnUse" x1="47.283" x2="448.325" xlink:href="#lg1" y1="177.246" y2="177.246"/><linearGradient id="SVGID_16_" gradientUnits="userSpaceOnUse" x1="47.283" x2="448.325" xlink:href="#lg1" y1="230.416" y2="230.416"/><linearGradient id="lg2"><stop offset="0" stop-color="#fe646f"/><stop offset=".593" stop-color="#fb2b3a"/><stop offset="1" stop-color="#c41926"/></linearGradient><linearGradient id="SVGID_17_" gradientUnits="userSpaceOnUse" x1="6.762" x2="569.016" xlink:href="#lg2" y1="300.259" y2="300.259"/><linearGradient id="SVGID_18_" gradientUnits="userSpaceOnUse" x1="-60.367" x2="310.142" xlink:href="#lg2" y1="328.785" y2="328.785"/><linearGradient id="SVGID_19_" gradientUnits="userSpaceOnUse" x1="-169" x2="500.586" xlink:href="#lg2" y1="300.257" y2="300.257"/><linearGradient id="lg3"><stop offset="0" stop-color="#f8f6f7"/><stop offset=".1788" stop-color="#f8f6f7"/><stop offset="1" stop-color="#e7e6f5"/></linearGradient><linearGradient id="SVGID_20_" gradientUnits="userSpaceOnUse" x1="22.955" x2="451.139" xlink:href="#lg3" y1="230.42" y2="230.42"/><linearGradient id="lg4"><stop offset="0" stop-color="#fbc56d"/><stop offset=".5841" stop-color="#fe9738"/><stop offset=".9984" stop-color="#fb2b3a"/></linearGradient><linearGradient id="SVGID_21_" gradientUnits="userSpaceOnUse" x1="-11.64" x2="335.695" xlink:href="#lg4" y1="340.697" y2="340.697"/><linearGradient id="SVGID_22_" gradientUnits="userSpaceOnUse" x1="-74.307" x2="269.312" xlink:href="#lg4" y1="304.78" y2="304.78"/><linearGradient id="SVGID_23_" gradientUnits="userSpaceOnUse" x1="-74.307" x2="269.312" xlink:href="#lg4" y1="345.111" y2="345.111"/><linearGradient id="SVGID_24_" gradientTransform="matrix(1 0 0 -1 0 1121.291)" gradientUnits="userSpaceOnUse" x1="-8.703" x2="245.366" xlink:href="#lg3" y1="727.542" y2="727.542"/><linearGradient id="SVGID_25_" gradientUnits="userSpaceOnUse" x1="45.027" x2="269.447" y1="393.749" y2="393.749"><stop offset="0" stop-color="#f8f6f7"/><stop offset="1" stop-color="#d1ceeb"/></linearGradient><g><g><path d="m180.568 69.996-123.897 54.702c-27.353 12.077-31.375 49.235-7.24 66.884l109.32 79.946c24.135 17.65 58.326 2.554 61.544-27.172l14.576-134.649c3.219-29.726-26.95-51.788-54.303-39.711z" fill="url(#SVGID_1_)"/><path d="m180.567 69.998-3.864 1.71c12.701 7.206 21.308 21.414 19.511 37.998l-.446 4.106c-.697 6.425-4.776 12.065-10.765 14.495-15.557 6.311-26.399 22.522-24.082 40.804l-22.95-39.751c-14.95-25.895-52.326-25.895-67.276 0l-30.471 52.778c2.406 3.506 5.466 6.71 9.206 9.445l109.32 79.946c1.175.859 2.374 1.641 3.592 2.347.07.041.137.066.207.104 7.355 4.219 15.401 5.687 23.097 4.863 17.154-1.826 32.541-15.02 34.646-34.482l14.575-134.655c3.218-29.721-26.946-51.791-54.3-39.708z" fill="url(#SVGID_2_)"/><path d="m94.854 129.359-67.716 117.291c-14.95 25.894 3.738 58.262 33.638 58.262h135.434c29.9 0 48.588-32.368 33.638-58.262l-67.718-117.291c-14.95-25.894-52.326-25.894-67.276 0z" fill="url(#SVGID_3_)"/><g><path d="m97.681 187.385c-6.993.652-12.134 6.851-11.481 13.844.652 6.993 6.851 12.134 13.844 11.481 6.993-.652 12.134-6.851 11.481-13.844-.652-6.993-6.85-12.134-13.844-11.481z" fill="url(#SVGID_4_)"/><path d="m229.847 246.65-67.717-117.291c-11.301-19.573-35.409-24.34-52.965-14.323 5.67 3.235 10.661 8.001 14.31 14.323l2.911 5.043c-11.257 4.004-18.62 15.622-16.543 28.17 2.034 12.292 12.978 21.424 25.435 21.226 1.659-.026 3.273-.208 4.83-.531 7.632-1.58 15.444 1.652 19.341 8.402l31.742 54.98c14.95 25.894-3.738 58.262-33.638 58.262h38.655c29.901.001 48.589-32.366 33.639-58.261z" fill="url(#SVGID_5_)"/></g><path d="m283.956 97.404-34.862 130.871c-7.697 28.892 18.77 55.282 47.64 47.501l130.768-35.243c28.87-7.781 38.491-43.896 17.318-65.008l-95.905-95.629c-21.174-21.111-57.262-11.385-64.959 17.508z" fill="url(#SVGID_6_)"/><g><path d="m308.312 126.983c7.024 0 12.718-5.694 12.718-12.718s-5.694-12.717-12.718-12.717-12.718 5.694-12.718 12.717c0 7.024 5.694 12.718 12.718 12.718z" fill="url(#SVGID_7_)"/><path d="m444.815 175.521-95.903-95.623c-13.271-13.242-32.415-14.353-46.739-6.22 2.859 1.652 5.573 3.719 8.085 6.22l16.052 16.008c14.303 14.263 9.959 38.422-8.416 46.81l-52.376 23.909-8.056 30.232-8.365 31.42c-5.032 18.864 4.52 36.665 19.791 44.585 8.104 4.202 17.83 5.612 27.847 2.917l130.762-35.245c28.87-7.784 38.5-43.898 17.318-65.013z" fill="url(#SVGID_8_)"/></g><path d="m430.644 117.633-123.897 54.703c-27.353 12.077-31.375 49.235-7.24 66.884l109.32 79.946c24.135 17.65 58.326 2.554 61.544-27.172l14.576-134.649c3.219-29.726-26.95-51.788-54.303-39.712z" fill="url(#SVGID_9_)"/><g><path d="m411.552 156.905c6.02 0 10.899-4.88 10.899-10.899s-4.88-10.899-10.899-10.899-10.899 4.88-10.899 10.899 4.88 10.899 10.899 10.899z" fill="url(#SVGID_10_)"/><circle cx="396.582" cy="203.098" fill="url(#SVGID_11_)" r="20.746"/><path d="m430.644 117.633-3.875 1.711c12.711 7.213 21.32 21.41 19.524 38.002l-.35 3.237c-.194-.01-.386-.029-.583-.029-6.019 0-10.899 4.88-10.899 10.899 0 3.359 1.521 6.359 3.912 8.354 3.125 2.608 4.777 6.576 4.339 10.623l-10.995 101.564c-1.442 13.316-9.106 23.681-19.289 29.497 23.799 13.796 54.883-1.219 57.944-29.497l14.576-134.648c3.218-29.726-26.951-51.789-54.304-39.713z" fill="url(#SVGID_12_)"/></g><path d="m185.761 172.997 29.999 132.071c6.623 29.157 42.326 40.211 64.265 19.897l99.377-92.014c21.94-20.314 13.661-56.761-14.901-65.604l-129.375-40.057c-28.563-8.844-55.988 16.549-49.365 45.707z" fill="url(#SVGID_13_)"/><g><circle cx="273.218" cy="217.029" fill="url(#SVGID_14_)" r="25.435"/><path d="m247.783 177.246c0-7.024-5.694-12.717-12.718-12.717s-12.718 5.694-12.718 12.717 5.694 12.718 12.718 12.718 12.718-5.694 12.718-12.718z" fill="url(#SVGID_15_)"/><path d="m364.502 167.347-129.376-40.057c-10.62-3.288-21.079-1.837-29.693 2.775l120.414 37.282c28.562 8.843 36.841 45.29 14.901 65.604l-99.377 92.014c-2.22 2.055-4.585 3.773-7.042 5.2 13.892 7.891 32.34 7.167 45.697-5.2l99.377-92.014c21.939-20.314 13.661-56.761-14.901-65.604z" fill="url(#SVGID_16_)"/></g><path d="m428.732 374.002h-347.464c-19.707 0-37.126-13.332-43-32.911l-27.483-91.606c-3.418-11.394 4.76-22.97 16.229-22.97h455.973c11.468 0 19.647 11.576 16.229 22.97l-27.483 91.606c-5.874 19.579-23.294 32.911-43.001 32.911z" fill="url(#SVGID_17_)"/><path d="m271.96 351.684c.558-2.895.758-5.917.544-9.021-1.188-17.225-15.292-31.089-32.533-32.008-7.568-.403-14.638 1.634-20.496 5.395-6.234 4.001-14.162 4.466-20.525.673-6.518-3.885-14.134-6.119-22.274-6.119-.567 0-1.131.011-1.692.032-6.684.255-13.068-2.636-17.101-7.972-8.766-11.6-22.674-19.097-38.335-19.097-15.646 0-29.542 7.483-38.31 19.064-4.089 5.401-10.51 8.437-17.272 8.034-1.456-.087-2.937-.083-4.437.018-10.697.715-20.123 6.407-25.956 14.758l4.695 15.649c5.874 19.579 23.293 32.911 43 32.911h185.48c3.106-6.405 5.613-13.103 7.409-20.051.208-.804-.567-1.56-2.197-2.266z" fill="url(#SVGID_18_)"/><path d="m499.22 249.482-27.49 91.61c-5.87 19.58-23.29 32.91-43 32.91h-40.02c19.71 0 37.13-13.33 43-32.91l7.427-24.755c7.238-24.125-10.827-48.405-36.014-48.405h-386.803l-5.54-18.45c-.66-2.21-.89-4.43-.73-6.56.62-8.89 7.73-16.41 16.96-16.41h455.98c11.46 0 19.64 11.58 16.23 22.97z" fill="url(#SVGID_19_)"/><path d="m497.5 217.92h-485c-6.903 0-12.5 5.597-12.5 12.5s5.597 12.5 12.5 12.5h485c6.903 0 12.5-5.597 12.5-12.5s-5.597-12.5-12.5-12.5z" fill="url(#SVGID_20_)"/></g><g><path d="m214.96 310.655c-7.568-.403-14.638 1.634-20.496 5.395-6.234 4.002-14.162 4.466-20.525.673-6.518-3.885-14.134-6.119-22.274-6.119-.567 0-1.131.011-1.692.032-6.684.255-13.068-2.636-17.101-7.972-8.766-11.6-22.674-19.097-38.335-19.097-15.646 0-29.542 7.483-38.31 19.064-4.089 5.401-10.51 8.437-17.272 8.034-1.456-.087-2.937-.083-4.437.017-17.07 1.141-30.905 14.953-32.063 32.021-1.366 20.146 14.571 36.913 34.425 36.913 10.397 0 19.713-4.605 26.039-11.879 8.448 7.395 19.508 11.879 31.618 11.879 6.808 0 13.283-1.42 19.151-3.974 7.486 13.239 21.684 22.181 37.978 22.181 17.742 0 32.999-10.601 39.81-25.81 5.913 4.753 13.42 7.603 21.597 7.603 19.867 0 35.813-16.79 34.422-36.954-1.19-17.223-15.294-31.088-32.535-32.007z" fill="url(#SVGID_21_)"/><g><path d="m151.665 310.605c-.567 0-1.131.011-1.692.032-6.684.255-13.068-2.636-17.101-7.972-8.766-11.6-22.674-19.097-38.335-19.097-10.083 0-19.43 3.121-27.155 8.431 10.291 2.857 19.2 9.036 25.47 17.333 4.033 5.337 10.417 8.228 17.101 7.972.561-.021 1.126-.032 1.692-.032 8.14 0 15.756 2.234 22.274 6.119 6.363 3.793 14.291 3.328 20.525-.673 5.859-3.761 12.929-5.798 20.496-5.395.037.002.073.006.109.008-.374-.19-.746-.389-1.11-.607-6.518-3.886-14.134-6.119-22.274-6.119z" fill="url(#SVGID_22_)"/><path d="m247.493 342.664c-1.188-17.225-15.292-31.089-32.533-32.008-7.568-.403-14.638 1.634-20.496 5.395-3.008 1.931-6.411 3.029-9.841 3.232 12.58 4.518 21.895 16.193 22.851 30.048.717 10.392-3.178 19.879-9.834 26.642 4.644 2.329 9.883 3.645 15.432 3.645 19.866 0 35.812-16.79 34.421-36.954z" fill="url(#SVGID_23_)"/></g><path d="m.033 353.951c13.251 51.256 63.988 89.422 124.556 89.422s111.305-38.166 124.556-89.422c3.389-13.102-252.499-13.102-249.112 0z" fill="url(#SVGID_24_)"/><path d="m104.58 344.235c12.343.137 24.344.69 35.548 1.467 39.04 2.707 52.807 53.351 20.267 75.089-16.13 10.775-35.152 18.2-55.815 21.145 6.523.929 13.2 1.437 20.01 1.437 60.568 0 111.305-38.166 124.556-89.422 1.874-7.246-75.552-10.485-144.566-9.716z" fill="url(#SVGID_25_)"/></g></g></svg>