<svg id="Capa_1" enable-background="new 0 0 510 510" height="512" viewBox="0 0 510 510" width="512" xmlns="http://www.w3.org/2000/svg" xmlns:xlink="http://www.w3.org/1999/xlink"><linearGradient id="lg1"><stop offset="0" stop-color="#fbc56d"/><stop offset=".5841" stop-color="#fe9738"/><stop offset=".9984" stop-color="#fb2b3a"/></linearGradient><linearGradient id="SVGID_1_" gradientUnits="userSpaceOnUse" x1="5.196" x2="158.74" xlink:href="#lg1" y1="386.045" y2="386.045"/><linearGradient id="SVGID_2_" gradientUnits="userSpaceOnUse" x1="-111.075" x2="165.199" xlink:href="#lg1" y1="386.049" y2="386.049"/><linearGradient id="lg2"><stop offset="0" stop-color="#fef056"/><stop offset=".5213" stop-color="#fbc56d"/><stop offset="1" stop-color="#c86d36"/></linearGradient><linearGradient id="SVGID_3_" gradientUnits="userSpaceOnUse" x1="-39.575" x2="472.912" xlink:href="#lg2" y1="196.682" y2="196.682"/><linearGradient id="SVGID_4_" gradientUnits="userSpaceOnUse" x1="-329.575" x2="452.892" xlink:href="#lg2" y1="100.46" y2="100.46"/><linearGradient id="SVGID_5_" gradientUnits="userSpaceOnUse" x1="-329.575" x2="452.892" xlink:href="#lg2" y1="274.314" y2="274.314"/><linearGradient id="SVGID_6_" gradientUnits="userSpaceOnUse" x1="-329.575" x2="452.892" xlink:href="#lg2" y1="247.981" y2="247.981"/><linearGradient id="SVGID_7_" gradientUnits="userSpaceOnUse" x1="-329.575" x2="452.892" xlink:href="#lg2" y1="316.951" y2="316.951"/><linearGradient id="SVGID_8_" gradientUnits="userSpaceOnUse" x1="-329.575" x2="452.892" xlink:href="#lg2" y1="196.682" y2="196.682"/><linearGradient id="SVGID_9_" gradientUnits="userSpaceOnUse" x1="95.387" x2="239.813" xlink:href="#lg1" y1="454.071" y2="454.071"/><linearGradient id="SVGID_10_" gradientUnits="userSpaceOnUse" x1="-13.978" x2="245.888" xlink:href="#lg1" y1="454.075" y2="454.075"/><linearGradient id="SVGID_11_" gradientUnits="userSpaceOnUse" x1="53.276" x2="535.326" xlink:href="#lg2" y1="275.955" y2="275.955"/><linearGradient id="SVGID_12_" gradientUnits="userSpaceOnUse" x1="-219.501" x2="516.495" xlink:href="#lg2" y1="185.446" y2="185.446"/><linearGradient id="SVGID_13_" gradientUnits="userSpaceOnUse" x1="-219.501" x2="516.495" xlink:href="#lg2" y1="348.976" y2="348.976"/><linearGradient id="SVGID_14_" gradientUnits="userSpaceOnUse" x1="-219.501" x2="516.495" xlink:href="#lg2" y1="324.207" y2="324.207"/><linearGradient id="SVGID_15_" gradientUnits="userSpaceOnUse" x1="-219.501" x2="516.495" xlink:href="#lg2" y1="389.08" y2="389.08"/><linearGradient id="SVGID_16_" gradientUnits="userSpaceOnUse" x1="-219.501" x2="516.495" xlink:href="#lg2" y1="275.955" y2="275.955"/><g><g><path d="m0 366.365c.016-21.69 17.612-39.261 39.302-39.245l47.701.035c17.036.013 30.836 13.833 30.823 30.868l-.035 47.701c-.016 21.69-17.612 39.261-39.302 39.245s-39.261-17.612-39.245-39.302c-21.689-.015-39.26-17.612-39.244-39.302z" fill="url(#SVGID_1_)"/><path d="m117.826 358.024-.03 47.7c0 1.9-.14 3.76-.4 5.59-2.73 19.04-19.12 33.67-38.91 33.66-7.3-.01-14.13-2-19.98-5.48 11.53-6.84 19.26-19.4 19.27-33.77.006-6.266-2.948-12.166-7.978-15.903-4.375-3.25-9.038-7.712-9.672-12.227-.13-.89-.19-1.78-.2-2.64-.06-5.2-2.86-9.87-7.31-12.56-5.97-3.62-9.91-10.24-9.75-17.73.06-2.42.53-4.73 1.36-6.86 1.33-3.43.35-10.68.35-10.68l42.43.03c17.029.01 30.829 13.83 30.82 30.87z" fill="url(#SVGID_2_)"/><path d="m445.982 93.618c.103-4.797-1.477-9.233-4.195-12.756-2.091-2.71-2.431-6.385-.668-9.319 1.747-2.907 2.785-6.29 2.863-9.925.187-8.714-5.167-16.253-12.834-19.26-3.28-1.286-5.505-4.377-5.398-7.899.041-1.352-.056-2.743-.313-4.162-1.563-8.647-8.648-15.441-17.369-16.517-3.017-.373-5.925-.07-8.597.774-3.648 1.153-7.547-.561-9.45-3.88-3.407-5.945-9.747-10.01-17.099-10.169-7.437-.16-14.016 3.717-17.654 9.623-1.909 3.1-6.219 4.888-9.647 3.663-2.779-.994-5.84-1.394-9.037-1.043-8.732.96-15.949 7.631-17.589 16.261-.516 2.716-.467 5.344.033 7.809.433 2.131-1.12 4.142-3.294 4.139h-.104c-11.172 0-20.228 9.056-20.228 20.228 0 .84.111 1.787.291 2.769.821 4.479-1.493 8.935-5.633 10.831-6.971 3.193-11.814 10.231-11.814 18.4 0 1.469.16 2.899.46 4.276.475 2.177-1.141 4.19-3.369 4.171-.054 0-.109-.001-.163-.001-11.171 0-20.228 9.056-20.228 20.228 0 2.633.504 5.149 1.42 7.456.383.964-.358 2.005-1.395 2.004h-.025c-11.171 0-20.228 9.056-20.228 20.228 0 .788.045 1.565.133 2.33.293 2.54-1.64 4.781-4.196 4.776h-.071c-9.65 0-17.722 6.757-19.741 15.799-.573 2.567-2.789 4.429-5.42 4.429-11.182 0-20.243 9.073-20.228 20.256v.024c.003 2.269-2 3.954-4.252 3.684-.772-.093-1.559-.141-2.357-.141-9.101 0-16.797 6.01-19.338 14.277-1.096 3.568-4.463 5.95-8.196 5.95-6.904 0-12.991 3.462-16.633 8.744-3.277 4.752-8.812 7.288-14.584 7.251-.043 0-.086 0-.13 0-9.171 0-16.916 6.103-19.396 14.47-1.027 3.464-4.324 5.758-7.937 5.758-11.179 0-20.238 9.067-20.228 20.246v.009c.001 1.62-.72 3.172-2.007 4.157-4.708 3.603-7.802 9.22-7.939 15.609-.061 2.836.47 5.545 1.476 8.014 1.474 3.618 1.289 7.641-.122 11.284-.826 2.132-1.302 4.441-1.354 6.86-.161 7.49 3.772 14.109 9.749 17.729 4.444 2.692 7.244 7.362 7.303 12.557.01.87.076 1.753.202 2.648 1.224 8.692 8.104 15.722 16.774 17.09 1.295.204 2.572.284 3.822.25 5.541-.154 10.6 2.781 13.477 7.519 3.468 5.71 9.688 9.583 16.863 9.737 6.384.137 12.131-2.703 15.929-7.247 2.57-3.074 6.884-3.906 10.434-2.049 2.674 1.399 5.704 2.218 8.926 2.287 9.169.197 17.044-5.738 19.703-14.05 1.101-3.441 4.447-5.664 8.059-5.586 8.157.175 15.276-4.507 18.616-11.396 1.687-3.478 5.64-5.107 9.426-4.33 1.178.242 2.395.381 3.64.408 9.126.196 16.97-5.683 19.665-13.934 1.144-3.503 4.534-5.779 8.218-5.699l.106.002c11.165.241 20.406-8.624 20.63-19.789l.001-.051c.046-2.268 2.084-3.91 4.33-3.592.77.109 1.555.174 2.353.191 9.828.211 18.17-6.624 20.194-15.879.497-2.273 2.548-3.865 4.874-3.815 10.105.217 19.856-7.75 21.04-17.788.146-1.238.179-2.458.107-3.651-.175-2.906 2.068-5.317 4.978-5.35.07-.001.14-.002.21-.004 10.548-.233 19.329-8.818 19.773-19.36.117-2.781-.331-5.449-1.239-7.897-.362-.976.336-2.014 1.377-1.991l.08.002c11.169.24 20.418-8.62 20.658-19.788.032-1.468-.097-2.901-.368-4.285-.428-2.186 1.231-4.165 3.458-4.098.054.002.109.003.163.004 11.169.24 20.417-8.62 20.658-19.788.049-2.3-.718-5.417-1.464-7.875-.582-1.918.634-3.915 2.608-4.262 9.316-1.639 16.485-9.671 16.696-19.487.024-1.119.057-2.638.086-3.984.036-1.674 1.297-3.061 2.959-3.263 9.831-1.191 17.546-9.457 17.765-19.646.051-2.377-.311-4.666-1.019-6.8-1.137-3.425.244-7.157 3.215-9.206 5.166-3.559 8.604-9.452 8.749-16.199z" fill="url(#SVGID_3_)"/><g><circle cx="334.267" cy="100.46" fill="url(#SVGID_4_)" r="13.167"/><path d="m243.853 287.481c7.272 0 13.167-5.895 13.167-13.167s-5.895-13.167-13.167-13.167-13.167 5.895-13.167 13.167 5.895 13.167 13.167 13.167z" fill="url(#SVGID_5_)"/><path d="m172.384 261.148c7.272 0 13.167-5.895 13.167-13.167s-5.895-13.167-13.167-13.167-13.167 5.895-13.167 13.167 5.895 13.167 13.167 13.167z" fill="url(#SVGID_6_)"/><circle cx="154.299" cy="316.951" fill="url(#SVGID_7_)" r="25.062"/><path d="m441.787 80.862c-2.091-2.71-2.431-6.385-.668-9.319 1.747-2.906 2.785-6.29 2.863-9.925.187-8.714-5.167-16.253-12.834-19.26-3.281-1.286-5.505-4.377-5.398-7.9.041-1.351-.056-2.741-.312-4.159-1.562-8.647-8.646-15.442-17.367-16.52-3.018-.373-5.927-.071-8.6.774-3.648 1.153-7.547-.561-9.449-3.881-3.407-5.945-9.746-10.01-17.098-10.168-7.437-.16-14.016 3.717-17.654 9.623-.757 1.229-1.895 2.247-3.203 2.958 2.043 1.646 4.776 2.293 7.384 1.468 2.692-.851 5.624-1.151 8.667-.765 8.703 1.104 15.766 7.918 17.307 16.555.25 1.403.345 2.778.305 4.115-.107 3.522 2.118 6.613 5.398 7.9 7.667 3.007 13.021 10.545 12.834 19.26-.078 3.635-1.116 7.019-2.863 9.925-1.763 2.934-1.424 6.609.668 9.319 2.719 3.523 4.298 7.959 4.195 12.756-.145 6.738-3.573 12.624-8.721 16.184-2.973 2.055-4.376 5.79-3.237 9.22.734 2.211 1.096 4.589 1.012 7.058-.009.003-.002.001-.01.003-5.013-6.83-13.237-11.156-22.451-10.742-13.101.588-23.94 10.982-25.027 24.051-.839 10.082 4.008 19.096 11.682 24.195 3.528 2.344 2.612 7.826-1.554 8.589-.046.009-.092.017-.138.025-1.974.347-3.19 2.344-2.608 4.262.746 2.458 1.514 5.575 1.464 7.875-.24 11.169-9.489 20.028-20.658 19.788-.909-.02-1.817-.109-2.726.87-.801.863-1.117 2.084-.892 3.239.269 1.379.397 2.807.365 4.269-.24 11.169-9.489 20.028-20.658 19.788l-.08-.002c-1.04-.024-1.739 1.014-1.376 1.99.909 2.448 1.357 5.117 1.24 7.898-.445 10.542-9.225 19.126-19.773 19.359-.07.002-.14.003-.21.004-2.911.034-5.153 2.445-4.978 5.35.072 1.193.039 2.413-.107 3.651-1.187 10.06-10.979 18.041-21.108 17.786-2.295-.058-4.304 1.457-4.781 3.703-1.98 9.312-10.35 16.205-20.219 15.993-.798-.017-1.582-.082-2.353-.191-2.246-.318-4.285 1.324-4.331 3.592l-.001.051c-.225 11.158-9.456 20.02-20.615 19.789l-.122-.002c-3.685-.076-7.074 2.2-8.22 5.704-2.696 8.248-10.539 14.125-19.664 13.929-1.246-.027-2.462-.166-3.641-.408-3.861-.792-7.76.982-9.515 4.511-3.423 6.883-10.637 11.515-18.862 11.205-3.539-.133-6.65 2.263-7.736 5.633-2.671 8.292-10.536 14.209-19.691 14.012-3.222-.069-6.252-.889-8.926-2.287-1.133-.593-2.343-.908-3.55-.968.116.175.234.347.344.528 3.468 5.71 9.688 9.583 16.863 9.737 6.384.137 12.131-2.703 15.929-7.247 2.57-3.074 6.884-3.906 10.434-2.049 2.674 1.399 5.704 2.218 8.926 2.288 9.155.197 17.02-5.721 19.691-14.012 1.086-3.371 4.197-5.767 7.736-5.633 8.225.31 15.439-4.321 18.862-11.205 1.755-3.529 5.654-5.303 9.515-4.511 1.178.242 2.395.381 3.641.408 9.124.196 16.967-5.681 19.664-13.929 1.145-3.504 4.534-5.78 8.22-5.704l.146.003c11.154.231 20.379-8.635 20.591-19.79l.001-.051c.043-2.268 2.081-3.911 4.327-3.593.772.109 1.558.175 2.357.192 9.869.212 18.238-6.68 20.219-15.993.478-2.246 2.486-3.76 4.781-3.703 10.13.255 19.922-7.726 21.109-17.786.146-1.238.179-2.458.107-3.651-.175-2.906 2.068-5.317 4.978-5.35.07-.001.14-.002.21-.004 10.548-.234 19.329-8.818 19.773-19.359.117-2.781-.331-5.45-1.24-7.898-.362-.976.336-2.014 1.376-1.99l.08.002c11.169.24 20.418-8.62 20.658-19.788.031-1.463-.096-2.891-.365-4.269-.225-1.155.091-2.377.892-3.239.909-.979 1.817-.89 2.726-.87 11.169.24 20.417-8.62 20.658-19.788.049-2.301-.719-5.42-1.465-7.879-.582-1.916.635-3.911 2.607-4.258 9.317-1.638 16.487-9.671 16.698-19.487.024-1.119.057-2.638.086-3.984.036-1.674 1.297-3.061 2.959-3.263 9.831-1.191 17.546-9.458 17.765-19.646.051-2.377-.311-4.667-1.019-6.801-1.137-3.425.244-7.157 3.215-9.205 5.161-3.558 8.598-9.452 8.743-16.199.101-4.797-1.479-9.233-4.197-12.756z" fill="url(#SVGID_8_)"/></g></g><g><path d="m90.5 435.56c.015-20.402 16.566-36.929 36.968-36.914l44.868.033c16.024.012 29.004 13.011 28.993 29.035l-.033 44.869c-.015 20.402-16.566 36.929-36.968 36.914s-36.929-16.566-36.914-36.968c-20.402-.016-36.929-16.567-36.914-36.969z" fill="url(#SVGID_9_)"/><path d="m201.328 427.714-.028 44.867c0 1.787-.132 3.537-.376 5.258-2.568 17.909-17.984 31.671-36.599 31.661-6.866-.009-13.291-1.881-18.793-5.155 10.845-6.434 18.116-18.248 18.126-31.764.005-5.894-2.773-11.444-7.504-14.958-4.115-3.057-8.501-7.254-9.097-11.501-.122-.837-.179-1.674-.188-2.483-.056-4.891-2.69-9.284-6.876-11.814-5.615-3.405-9.321-9.632-9.171-16.677.056-2.276.499-4.449 1.279-6.453 1.251-3.226.329-10.046.329-10.046l39.91.028c16.017.01 28.997 13.009 28.988 29.037z" fill="url(#SVGID_10_)"/><path d="m509.996 179.011c.097-4.512-1.389-8.684-3.946-11.998-1.967-2.549-2.286-6.006-.628-8.766 1.643-2.734 2.619-5.917 2.693-9.336.176-8.197-4.86-15.288-12.072-18.116-3.086-1.21-5.178-4.117-5.078-7.43.039-1.272-.053-2.58-.294-3.915-1.47-8.134-8.134-14.524-16.338-15.536-2.838-.35-5.573-.066-8.086.728-3.432 1.085-7.099-.527-8.888-3.65-3.205-5.592-9.168-9.416-16.083-9.565-6.995-.15-13.184 3.496-16.605 9.052-1.796 2.916-5.849 4.598-9.074 3.445-2.614-.935-5.493-1.311-8.5-.981-8.213.903-15.002 7.178-16.544 15.295-.485 2.555-.44 5.027.031 7.345.407 2.005-1.053 3.896-3.099 3.893h-.098c-10.508 0-19.026 8.518-19.026 19.026 0 .79.105 1.681.274 2.604.773 4.213-1.404 8.404-5.298 10.188-6.557 3.003-11.113 9.623-11.113 17.308 0 1.381.15 2.727.433 4.022.447 2.047-1.073 3.942-3.169 3.923-.051 0-.102-.001-.154-.001-10.508 0-19.026 8.518-19.026 19.026 0 2.477.474 4.843 1.335 7.013.36.906-.337 1.886-1.312 1.885h-.023c-10.508 0-19.026 8.518-19.026 19.026 0 .741.043 1.472.125 2.191.275 2.389-1.543 4.497-3.947 4.493h-.067c-9.077 0-16.669 6.356-18.569 14.86-.539 2.414-2.624 4.166-5.098 4.166-10.518 0-19.041 8.534-19.026 19.053v.022c.003 2.134-1.881 3.719-4 3.466-.727-.087-1.466-.132-2.217-.132-8.56 0-15.8 5.653-18.19 13.429-1.031 3.356-4.198 5.597-7.709 5.597-6.494 0-12.219 3.256-15.645 8.225-3.082 4.469-8.288 6.855-13.718 6.821-.041 0-.081 0-.122 0-8.626 0-15.912 5.741-18.244 13.61-.966 3.258-4.067 5.416-7.466 5.416-10.515 0-19.036 8.529-19.026 19.044v.009c.001 1.524-.677 2.984-1.887 3.91-4.428 3.389-7.338 8.673-7.467 14.682-.057 2.668.442 5.215 1.388 7.538 1.387 3.403 1.213 7.188-.115 10.614-.777 2.005-1.224 4.178-1.273 6.453-.151 7.045 3.548 13.271 9.17 16.676 4.18 2.532 6.814 6.924 6.87 11.811.009.818.071 1.649.19 2.491 1.151 8.175 7.623 14.788 15.778 16.075 1.218.192 2.419.267 3.595.235 5.212-.144 9.97 2.616 12.677 7.073 3.262 5.371 9.113 9.013 15.862 9.158 6.005.129 11.41-2.543 14.983-6.817 2.417-2.891 6.475-3.674 9.815-1.927 2.515 1.316 5.365 2.086 8.396 2.152 8.624.185 16.032-5.398 18.533-13.215 1.035-3.237 4.183-5.327 7.58-5.254 7.673.165 14.369-4.239 17.51-10.719 1.586-3.272 5.305-4.804 8.867-4.073 1.108.227 2.253.359 3.424.384 8.584.184 15.963-5.346 18.497-13.106 1.076-3.295 4.264-5.435 7.73-5.361l.1.002c10.502.226 19.194-8.112 19.405-18.614l.001-.048c.043-2.133 1.96-3.678 4.073-3.379.725.103 1.463.164 2.213.18 9.245.199 17.091-6.231 18.995-14.936.468-2.138 2.397-3.635 4.585-3.588 9.505.204 18.677-7.29 19.791-16.731.137-1.165.168-2.312.101-3.434-.164-2.733 1.945-5.001 4.683-5.033l.198-.003c9.922-.22 18.181-8.294 18.599-18.21.11-2.616-.311-5.126-1.166-7.428-.341-.918.316-1.895 1.295-1.873l.075.002c10.506.226 19.205-8.108 19.431-18.613.03-1.381-.092-2.729-.347-4.031-.403-2.057 1.158-3.918 3.253-3.854.051.002.102.003.154.004 10.506.226 19.205-8.108 19.431-18.613.047-2.163-.675-5.095-1.377-7.407-.548-1.804.597-3.682 2.453-4.009 8.762-1.542 15.506-9.097 15.704-18.33.023-1.052.053-2.481.081-3.747.034-1.575 1.22-2.88 2.784-3.069 9.247-1.12 16.504-8.896 16.71-18.479.048-2.236-.292-4.389-.958-6.396-1.069-3.222.23-6.732 3.024-8.659 4.849-3.349 8.082-8.893 8.219-15.239z" fill="url(#SVGID_11_)"/><g><circle cx="404.915" cy="185.446" fill="url(#SVGID_12_)" r="12.385"/><path d="m319.871 361.361c6.84 0 12.385-5.545 12.385-12.385s-5.545-12.385-12.385-12.385-12.385 5.545-12.385 12.385 5.545 12.385 12.385 12.385z" fill="url(#SVGID_13_)"/><path d="m252.646 336.591c6.84 0 12.385-5.545 12.385-12.385s-5.545-12.385-12.385-12.385-12.385 5.545-12.385 12.385 5.545 12.385 12.385 12.385z" fill="url(#SVGID_14_)"/><circle cx="235.635" cy="389.08" fill="url(#SVGID_15_)" r="23.574"/><path d="m506.049 167.013c-1.967-2.549-2.286-6.006-.628-8.766 1.643-2.734 2.619-5.917 2.693-9.336.176-8.197-4.86-15.288-12.072-18.116-3.086-1.21-5.179-4.117-5.078-7.431.039-1.271-.053-2.578-.294-3.912-1.47-8.134-8.133-14.525-16.336-15.538-2.839-.351-5.575-.067-8.089.728-3.432 1.085-7.099-.528-8.888-3.65-3.205-5.592-9.168-9.416-16.083-9.564-6.995-.15-13.184 3.497-16.605 9.052-.712 1.156-1.782 2.114-3.012 2.782 1.922 1.548 4.492 2.156 6.946 1.381 2.532-.801 5.29-1.083 8.152-.72 8.186 1.038 14.83 7.448 16.28 15.572.236 1.32.325 2.613.287 3.871-.101 3.313 1.992 6.221 5.078 7.431 7.212 2.828 12.248 9.919 12.072 18.116-.073 3.419-1.05 6.602-2.693 9.336-1.658 2.76-1.339 6.217.628 8.766 2.557 3.313 4.043 7.486 3.946 11.998-.136 6.338-3.361 11.874-8.203 15.223-2.796 1.933-4.116 5.447-3.045 8.673.691 2.08 1.031 4.316.952 6.639-.008.003-.002.001-.01.003-4.716-6.424-12.451-10.493-21.117-10.104-12.323.553-22.518 10.329-23.541 22.623-.789 9.483 3.77 17.962 10.988 22.758 3.318 2.205 2.457 7.361-1.462 8.079-.043.008-.087.016-.13.023-1.857.327-3.001 2.205-2.453 4.009.702 2.312 1.424 5.244 1.377 7.407-.226 10.506-8.925 18.839-19.431 18.613-.855-.019-1.709-.102-2.564.818-.753.811-1.051 1.96-.839 3.047.253 1.297.373 2.64.344 4.016-.226 10.505-8.925 18.839-19.431 18.613l-.076-.002c-.979-.022-1.636.954-1.295 1.872.855 2.303 1.277 4.813 1.166 7.429-.418 9.915-8.677 17.99-18.599 18.21-.066.001-.132.003-.197.003-2.738.032-4.847 2.299-4.683 5.033.067 1.122.037 2.269-.101 3.434-1.116 9.463-10.327 16.969-19.855 16.73-2.159-.054-4.048 1.37-4.497 3.483-1.863 8.759-9.735 15.242-19.018 15.043-.75-.016-1.488-.077-2.213-.18-2.113-.299-4.031 1.245-4.074 3.379l-.001.048c-.212 10.496-8.895 18.831-19.391 18.614l-.114-.002c-3.467-.072-6.654 2.07-7.732 5.365-2.536 7.758-9.913 13.286-18.496 13.102-1.172-.025-2.316-.156-3.424-.384-3.632-.745-7.299.924-8.95 4.243-3.22 6.475-10.005 10.831-17.742 10.539-3.329-.125-6.255 2.128-7.277 5.299-2.512 7.799-9.91 13.365-18.521 13.18-3.031-.065-5.88-.836-8.396-2.152-1.065-.557-2.204-.854-3.339-.91.109.165.22.327.323.496 3.262 5.371 9.113 9.013 15.862 9.158 6.005.129 11.41-2.543 14.983-6.817 2.417-2.891 6.475-3.674 9.814-1.927 2.516 1.316 5.365 2.087 8.396 2.152 8.611.185 16.009-5.381 18.522-13.18 1.021-3.171 3.948-5.424 7.277-5.299 7.736.292 14.522-4.065 17.742-10.539 1.651-3.319 5.319-4.988 8.95-4.243 1.108.228 2.253.359 3.424.384 8.582.184 15.96-5.344 18.496-13.102 1.077-3.296 4.265-5.437 7.732-5.365l.137.003c10.492.217 19.169-8.122 19.368-18.614l.001-.048c.041-2.133 1.957-3.679 4.07-3.379.726.103 1.465.164 2.217.18 9.283.2 17.155-6.284 19.018-15.043.449-2.113 2.338-3.537 4.497-3.483 9.528.24 18.739-7.267 19.855-16.73.137-1.165.168-2.312.101-3.434-.164-2.733 1.945-5.001 4.683-5.033.066-.001.132-.002.197-.003 9.922-.22 18.181-8.294 18.599-18.21.11-2.616-.311-5.127-1.166-7.429-.341-.918.316-1.894 1.295-1.872l.076.002c10.506.226 19.205-8.108 19.431-18.613.03-1.376-.091-2.719-.344-4.016-.212-1.087.086-2.236.839-3.047.855-.921 1.709-.837 2.564-.818 10.506.226 19.205-8.108 19.431-18.613.047-2.164-.676-5.098-1.378-7.411-.547-1.802.598-3.679 2.452-4.005 8.763-1.541 15.508-9.096 15.706-18.33.023-1.052.053-2.481.081-3.747.034-1.575 1.22-2.88 2.784-3.069 9.247-1.12 16.504-8.896 16.71-18.479.048-2.236-.292-4.389-.959-6.397-1.069-3.221.229-6.732 3.024-8.658 4.854-3.347 8.087-8.89 8.224-15.237.095-4.515-1.39-8.688-3.948-12.001z" fill="url(#SVGID_16_)"/></g></g></g></svg>