<svg id="Capa_1" enable-background="new 0 0 510.002 510.002" height="512" viewBox="0 0 510.002 510.002" width="512" xmlns="http://www.w3.org/2000/svg" xmlns:xlink="http://www.w3.org/1999/xlink"><linearGradient id="lg1"><stop offset="0" stop-color="#fef056"/><stop offset=".5213" stop-color="#fbc56d"/><stop offset="1" stop-color="#c86d36"/></linearGradient><linearGradient id="SVGID_1_" gradientUnits="userSpaceOnUse" x1="105.664" x2="490.984" xlink:href="#lg1" y1="187.601" y2="187.601"/><linearGradient id="SVGID_2_" gradientUnits="userSpaceOnUse" x1="-35.999" x2="465.723" xlink:href="#lg1" y1="187.599" y2="187.599"/><linearGradient id="lg2"><stop offset="0" stop-color="#a2e62e"/><stop offset=".5857" stop-color="#81b823"/><stop offset="1" stop-color="#037e73"/></linearGradient><linearGradient id="SVGID_3_" gradientTransform="matrix(.955 -.045 -.045 .955 22.399 22.399)" gradientUnits="userSpaceOnUse" x1="-37.932" x2="770.207" xlink:href="#lg2" y1="222.062" y2="222.062"/><linearGradient id="SVGID_4_" gradientUnits="userSpaceOnUse" x1="-102.999" x2="633.265" xlink:href="#lg2" y1="220.549" y2="220.549"/><linearGradient id="lg3"><stop offset="0" stop-color="#fe646f"/><stop offset=".593" stop-color="#fb2b3a"/><stop offset="1" stop-color="#c41926"/></linearGradient><linearGradient id="SVGID_5_" gradientUnits="userSpaceOnUse" x1="54.639" x2="543.772" xlink:href="#lg3" y1="234.14" y2="234.14"/><linearGradient id="SVGID_6_" gradientUnits="userSpaceOnUse" x1="-63.721" x2="402.176" xlink:href="#lg3" y1="234.143" y2="234.143"/><linearGradient id="SVGID_7_" gradientTransform="matrix(.955 -.045 -.045 .955 22.399 22.399)" gradientUnits="userSpaceOnUse" x1="-115.26" x2="737.64" xlink:href="#lg2" y1="287.125" y2="287.125"/><linearGradient id="SVGID_8_" gradientUnits="userSpaceOnUse" x1="-131.999" x2="542.046" xlink:href="#lg2" y1="285.224" y2="285.224"/><linearGradient id="SVGID_9_" gradientUnits="userSpaceOnUse" x1="-17.783" x2="488.13" xlink:href="#lg1" y1="285.228" y2="285.228"/><linearGradient id="SVGID_10_" gradientUnits="userSpaceOnUse" x1="-262.999" x2="512.14" xlink:href="#lg1" y1="441.683" y2="441.683"/><linearGradient id="SVGID_11_" gradientUnits="userSpaceOnUse" x1="-262.999" x2="512.14" xlink:href="#lg1" y1="399.282" y2="399.282"/><linearGradient id="SVGID_12_" gradientUnits="userSpaceOnUse" x1="-262.999" x2="512.14" xlink:href="#lg1" y1="236.118" y2="236.118"/><linearGradient id="SVGID_13_" gradientUnits="userSpaceOnUse" x1="-262.999" x2="512.14" xlink:href="#lg1" y1="212.534" y2="212.534"/><linearGradient id="SVGID_14_" gradientUnits="userSpaceOnUse" x1="-262.999" x2="512.14" xlink:href="#lg1" y1="285.225" y2="285.225"/><g><path d="m508.394 306.713c5.908 23.015-4.851 47.211-26.09 57.864-30.161 15.128-67.37 14.574-98.431-4.716-105.276-65.358-191.978-155.645-253.195-263.929-2.778-4.915-5.013-9.988-6.727-15.15-13.211-39.797 16.875-80.782 58.807-80.782 22.01 0 42.415 11.675 53.415 30.74 61.354 106.337 154.982 193.085 247.404 244.05 12.313 6.789 21.321 18.303 24.817 31.923z" fill="url(#SVGID_1_)"/><path d="m508.394 306.713c-3.496-13.619-12.504-25.133-24.817-31.923-92.422-50.964-186.05-137.713-247.404-244.05-11-19.065-31.405-30.74-53.415-30.74-7.075 0-13.811 1.171-20.06 3.302 13.904 4.733 25.899 14.342 33.455 27.438 61.354 106.337 154.982 193.085 247.404 244.05 12.313 6.79 21.321 18.304 24.817 31.923 5.908 23.015-4.851 47.211-26.09 57.864-7.919 3.972-16.327 6.851-24.979 8.606 22.211 4.515 45.134 1.358 65-8.606 21.238-10.654 31.997-34.849 26.089-57.864z" fill="url(#SVGID_2_)"/><g><path d="m95.217 103.778 309.548 309.548c21.48 21.48 68.233-1.794 75.229-37.911.133-.689.254-1.379.36-2.07l8.179-52.986c4.326-28.022-14.885-47.233-42.907-42.907s-47.233-14.885-42.907-42.907-14.884-47.233-42.907-42.907c-28.022 4.326-47.233-14.885-42.907-42.907s-14.885-47.233-42.907-42.907-47.233-14.885-42.907-42.907-14.885-47.233-42.907-42.907l-52.987 8.179c-.691.107-1.381.227-2.07.36-36.117 6.996-59.39 53.749-37.91 75.229z" fill="url(#SVGID_3_)"/></g><path d="m479.993 375.416c.133-.689.254-1.379.36-2.07l8.179-52.986c.199-1.286.331-2.547.432-3.795-.062-.033-.121-.07-.183-.103-100.926-53.934-186.285-129.962-250.891-222.821-.692-.882-1.333-1.808-1.935-2.768-15.349-22.284-29.519-45.52-42.415-69.654-.306-.573-.635-1.127-.955-1.689-1.443.099-2.907.249-4.402.48l-52.987 8.179c-.691.107-1.381.227-2.07.36-36.117 6.996-59.39 53.749-37.911 75.229l309.548 309.548c21.482 21.48 68.235-1.794 75.23-37.91z" fill="url(#SVGID_4_)"/><g><path d="m472.427 332.815c-126.064-67.366-227.875-169.177-295.241-295.242-17.257-32.295-56.275-46.139-90.104-32.126-.444.184-.887.368-1.331.551-38.995 16.152-55.457 62.421-35.548 99.637 80.759 150.96 203.201 273.404 354.163 354.163 37.216 19.909 83.485 3.446 99.637-35.547.184-.444.368-.888.552-1.332 14.012-33.829.168-72.847-32.128-90.104z" fill="url(#SVGID_5_)"/><path d="m472.309 332.751c-126.01-67.366-227.778-169.153-295.122-295.178-15.754-29.48-49.638-43.572-81.157-35.149 18.447 4.919 34.802 17.17 44.41 35.149 24.793 46.396 54.267 89.493 87.883 128.811h-14.635c-6.32 0-11.741 4.944-11.856 11.263-.117 6.437 5.066 11.692 11.475 11.692h18.867c10.525 0 20.579 4.283 27.932 11.813l.115.118h-12.714c-6.32 0-11.741 4.944-11.856 11.263-.117 6.437 5.066 11.692 11.475 11.692h21.462c9.58 0 18.82 3.536 25.958 9.925.749.67 1.499 1.339 2.25 2.006h-15.471c-6.32 0-11.741 4.944-11.856 11.263-.117 6.437 5.066 11.692 11.475 11.692h29.539c8.562 0 16.908 2.795 23.682 8.032 31.726 24.529 65.648 46.507 101.542 65.686 32.289 17.253 46.111 56.269 32.1 90.091-.184.444-.368.888-.551 1.331-8.897 21.48-26.935 36.119-47.562 41.612 33.728 9.031 70.317-7.834 84.309-41.612.184-.444.368-.888.552-1.331 14.035-33.881.095-72.879-32.246-90.169z" fill="url(#SVGID_6_)"/></g><g><path d="m25.031 162.056 326.693 326.694c22.669 22.669 72.012-1.893 79.395-40.01.141-.727.268-1.455.38-2.184l8.632-55.921c4.565-29.575-15.709-49.849-45.283-45.283-29.575 4.565-49.849-15.709-45.283-45.283 4.565-29.575-15.709-49.849-45.283-45.283-29.575 4.565-49.849-15.709-45.283-45.283 4.565-29.575-15.709-49.849-45.283-45.283-29.575 4.565-49.849-15.709-45.283-45.283 4.565-29.575-15.709-49.849-45.283-45.283l-55.921 8.632c-.729.113-1.458.239-2.184.38-38.121 7.378-62.684 56.721-40.014 79.39z" fill="url(#SVGID_7_)"/></g><path d="m394.848 345.35c-29.575 4.565-49.849-15.709-45.284-45.283 4.565-29.575-15.709-49.849-45.283-45.283-29.575 4.565-49.849-15.709-45.283-45.284 4.565-29.574-15.709-49.849-45.283-45.283-29.574 4.565-49.849-15.709-45.283-45.283 4.565-29.574-15.709-49.849-45.283-45.283l-15.735 2.429c15.442 6.426 24.154 22.417 20.999 42.854-4.565 29.574 15.709 49.849 45.283 45.283 29.574-4.565 49.849 15.709 45.283 45.283-4.565 29.575 15.709 49.849 45.283 45.284 29.575-4.565 49.849 15.709 45.283 45.283-4.565 29.574 15.709 49.849 45.283 45.283 29.575-4.565 49.849 15.709 45.283 45.283l-8.632 55.921c-.113.729-.239 1.458-.38 2.184-3.79 19.564-18.633 35.555-35.25 43.423 24.034 16.406 68.308-7.478 75.27-43.423.141-.727.268-1.455.38-2.184l8.632-55.921c4.566-29.574-15.708-49.848-45.283-45.283z" fill="url(#SVGID_8_)"/><path d="m441.885 415.164c-125.616-58.599-259.505-180.136-333.059-331.463-10.275-21.139-36.125-29.425-56.827-18.296-.524.281-1.05.564-1.579.846-47.219 25.243-64.403 84.52-38.056 131.132 68.516 121.213 165.58 222.287 283.424 295.452 54.32 33.726 125.434 16.273 157.018-39.32.243-.428.489-.856.737-1.284 7.769-13.374 2.359-30.529-11.658-37.067z" fill="url(#SVGID_9_)"/><g><path d="m356.866 442.504c.454-14.536-10.962-26.688-25.499-27.142-14.536-.454-26.688 10.962-27.142 25.499s10.962 26.688 25.499 27.142c14.536.454 26.688-10.962 27.142-25.499z" fill="url(#SVGID_10_)"/><circle cx="292.35" cy="399.282" fill="url(#SVGID_11_)" r="13.167"/><path d="m134.287 222.957c-7.268-.227-13.344 5.481-13.571 12.75-.227 7.268 5.481 13.344 12.749 13.571s13.344-5.481 13.571-12.749c.227-7.269-5.481-13.345-12.749-13.572z" fill="url(#SVGID_12_)"/><circle cx="73.775" cy="212.534" fill="url(#SVGID_13_)" r="25.062"/><path d="m441.885 415.164c-125.616-58.599-259.505-180.136-333.059-331.463-10.275-21.139-36.125-29.425-56.827-18.296-.126.068-.254.136-.381.204 7.206 3.964 13.308 10.11 17.188 18.092 7.835 16.12 16.362 31.899 25.483 47.303-7.212-.157-13.221 5.521-13.446 12.747-.227 7.268 5.481 13.344 12.75 13.571 5.375.168 10.091-2.915 12.279-7.47 76.592 120.312 189.274 215.528 295.994 265.312 14.017 6.539 19.427 23.694 11.658 37.067-.249.428-.494.856-.737 1.284-17.109 30.115-45.819 49.03-77.175 54.689 45.372 8.199 92.94-11.996 117.195-54.689.243-.428.489-.856.737-1.284 7.768-13.374 2.358-30.529-11.659-37.067z" fill="url(#SVGID_14_)"/></g></g></svg>