<svg id="Capa_1" enable-background="new 0 0 510 510" height="512" viewBox="0 0 510 510" width="512" xmlns="http://www.w3.org/2000/svg" xmlns:xlink="http://www.w3.org/1999/xlink"><linearGradient id="lg1"><stop offset="0" stop-color="#fbc56d"/><stop offset=".593" stop-color="#c86d36"/><stop offset="1" stop-color="#904d24"/></linearGradient><linearGradient id="SVGID_1_" gradientUnits="userSpaceOnUse" x1="5.55" x2="571.823" xlink:href="#lg1" y1="255" y2="255"/><linearGradient id="SVGID_2_" gradientUnits="userSpaceOnUse" x1="-53" x2="485.64" xlink:href="#lg1" y1="452.039" y2="452.039"/><linearGradient id="SVGID_3_" gradientUnits="userSpaceOnUse" x1="-53" x2="485.64" xlink:href="#lg1" y1="296.735" y2="296.735"/><linearGradient id="SVGID_4_" gradientUnits="userSpaceOnUse" x1="-53" x2="485.64" xlink:href="#lg1" y1="112.321" y2="112.321"/><linearGradient id="SVGID_5_" gradientUnits="userSpaceOnUse" x1="-53" x2="485.64" xlink:href="#lg1" y1="326.85" y2="326.85"/><linearGradient id="SVGID_6_" gradientUnits="userSpaceOnUse" x1="-53" x2="485.64" xlink:href="#lg1" y1="85.988" y2="85.988"/><linearGradient id="SVGID_7_" gradientUnits="userSpaceOnUse" x1="-53" x2="485.64" xlink:href="#lg1" y1="154.958" y2="154.958"/><linearGradient id="SVGID_8_" gradientUnits="userSpaceOnUse" x1="-53" x2="485.64" xlink:href="#lg1" y1="197.041" y2="197.041"/><linearGradient id="SVGID_9_" gradientUnits="userSpaceOnUse" x1="62" x2="270.137" xlink:href="#lg1" y1="276.844" y2="276.844"/><g><path d="m397.137 108.061-73.54-73.541c-46.027-46.027-120.651-46.027-166.678 0s-46.027 120.651 0 166.678l48.403 48.403h-14.074c-70.591 0-127.816 57.225-127.816 127.816v109.929c0 17.471 18.963 28.347 34.043 19.524 25.122-14.698 40.562-41.619 40.562-70.724 0-23.233 18.834-42.067 42.067-42.067h102.75c42.865 0 83.975-17.028 114.286-47.339 65.907-65.909 65.907-172.769-.003-238.679z" fill="url(#SVGID_1_)"/><g><path d="m98.015 436.146c0 25.071-11.463 48.513-30.695 63.926 6.33 9.257 19.254 13.175 30.154 6.798 25.122-14.698 40.562-41.619 40.562-70.724 0-23.232 18.833-42.066 42.066-42.067h-40.019c-23.234 0-42.068 18.834-42.068 42.067z" fill="url(#SVGID_2_)"/><path d="m307.075 309.901c7.272 0 13.167-5.895 13.167-13.167s-5.895-13.167-13.167-13.167-13.167 5.895-13.167 13.167 5.895 13.167 13.167 13.167z" fill="url(#SVGID_3_)"/><path d="m309.685 125.488c7.272 0 13.167-5.895 13.167-13.167s-5.895-13.167-13.167-13.167-13.167 5.895-13.167 13.167 5.895 13.167 13.167 13.167z" fill="url(#SVGID_4_)"/><path d="m136.877 340.017c7.272 0 13.167-5.895 13.167-13.167s-5.895-13.167-13.167-13.167-13.167 5.895-13.167 13.167 5.895 13.167 13.167 13.167z" fill="url(#SVGID_5_)"/><path d="m251.382 85.988c0-7.272-5.895-13.167-13.167-13.167s-13.167 5.895-13.167 13.167 5.895 13.167 13.167 13.167c7.273 0 13.167-5.895 13.167-13.167z" fill="url(#SVGID_6_)"/><circle cx="220.131" cy="154.958" fill="url(#SVGID_7_)" r="25.062"/><path d="m397.137 108.061-73.54-73.541c-28.123-28.122-66.921-39.059-103.35-32.816 23.193 3.975 45.425 14.911 63.329 32.816l73.541 73.541c60.612 60.612 65.478 155.855 14.608 222.034-3.552-11.425-14.675-19.516-27.501-18.404-12.54 1.087-22.714 11.202-23.867 23.737-.421 4.579.331 8.944 1.991 12.828 4.996 11.689.264 25.325-11.258 30.695-21.177 9.87-44.445 15.128-68.257 15.128h40.018c42.865 0 83.975-17.028 114.286-47.339 65.91-65.909 65.91-172.77 0-238.679z" fill="url(#SVGID_8_)"/></g><path d="m222.122 266.403-16.801-16.801h-14.074c-43.304 0-81.573 21.54-104.692 54.485 21.197-13.357 45.741-20.446 70.796-20.446h57.632c8.995-.001 13.5-10.877 7.139-17.238z" fill="url(#SVGID_9_)"/></g></svg>