<svg id="Capa_1" enable-background="new 0 0 510 510" height="512" viewBox="0 0 510 510" width="512" xmlns="http://www.w3.org/2000/svg" xmlns:xlink="http://www.w3.org/1999/xlink"><linearGradient id="lg1"><stop offset="0" stop-color="#ffdcbd"/><stop offset=".0028" stop-color="#ffdcbd"/><stop offset="1" stop-color="#ffa9b1"/></linearGradient><linearGradient id="SVGID_1_" gradientUnits="userSpaceOnUse" x1="94" x2="551.419" xlink:href="#lg1" y1="56.352" y2="56.352"/><linearGradient id="SVGID_2_" gradientTransform="matrix(.996 .087 -.087 .996 12.121 -10.292)" gradientUnits="userSpaceOnUse" x1="88.316" x2="545.734" xlink:href="#lg1" y1="98.276" y2="98.276"/><linearGradient id="lg2"><stop offset="0" stop-color="#fef056"/><stop offset=".5213" stop-color="#f4d902"/><stop offset="1" stop-color="#fe9738"/></linearGradient><linearGradient id="SVGID_3_" gradientUnits="userSpaceOnUse" x1="117.753" x2="171.091" xlink:href="#lg2" y1="152.618" y2="152.618"/><linearGradient id="SVGID_4_" gradientUnits="userSpaceOnUse" x1="138" x2="191.339" xlink:href="#lg2" y1="147.618" y2="147.618"/><linearGradient id="SVGID_5_" gradientUnits="userSpaceOnUse" x1="158.247" x2="211.586" xlink:href="#lg2" y1="144.618" y2="144.618"/><linearGradient id="SVGID_6_" gradientUnits="userSpaceOnUse" x1="262.598" x2="450.327" xlink:href="#lg2" y1="287.804" y2="287.804"/><linearGradient id="SVGID_7_" gradientUnits="userSpaceOnUse" x1="191.793" x2="416.761" xlink:href="#lg2" y1="287.804" y2="287.804"/><linearGradient id="SVGID_8_" gradientUnits="userSpaceOnUse" x1="272.016" x2="454.09" xlink:href="#lg2" y1="287.804" y2="287.804"/><linearGradient id="SVGID_9_" gradientUnits="userSpaceOnUse" x1="157.462" x2="372.208" xlink:href="#lg2" y1="274.216" y2="274.216"/><linearGradient id="SVGID_10_" gradientUnits="userSpaceOnUse" x1="116.527" x2="369.49" xlink:href="#lg2" y1="274.216" y2="274.216"/><linearGradient id="SVGID_11_" gradientUnits="userSpaceOnUse" x1="76.466" x2="333.811" xlink:href="#lg2" y1="274.216" y2="274.216"/><linearGradient id="SVGID_12_" gradientUnits="userSpaceOnUse" x1="131.193" x2="304.573" xlink:href="#lg2" y1="274.216" y2="274.216"/><linearGradient id="SVGID_13_" gradientUnits="userSpaceOnUse" x1="168.235" x2="376.513" xlink:href="#lg2" y1="274.216" y2="274.216"/><linearGradient id="SVGID_14_" gradientUnits="userSpaceOnUse" x1="63.587" x2="251.315" xlink:href="#lg2" y1="287.804" y2="287.804"/><linearGradient id="SVGID_15_" gradientUnits="userSpaceOnUse" x1="-7.219" x2="217.749" xlink:href="#lg2" y1="287.804" y2="287.804"/><linearGradient id="SVGID_16_" gradientUnits="userSpaceOnUse" x1="73.004" x2="255.078" xlink:href="#lg2" y1="287.804" y2="287.804"/><linearGradient id="lg3"><stop offset="0" stop-color="#fe646f"/><stop offset=".593" stop-color="#fb2b3a"/><stop offset="1" stop-color="#c41926"/></linearGradient><linearGradient id="SVGID_17_" gradientUnits="userSpaceOnUse" x1="104" x2="471.576" xlink:href="#lg3" y1="374.318" y2="374.318"/><linearGradient id="SVGID_18_" gradientUnits="userSpaceOnUse" x1="-98" x2="453.758" xlink:href="#lg3" y1="374.32" y2="374.32"/><linearGradient id="SVGID_19_" gradientUnits="userSpaceOnUse" x1="-257.331" x2="418.442" xlink:href="#lg3" y1="374.318" y2="374.318"/><linearGradient id="SVGID_20_" gradientUnits="userSpaceOnUse" x1="-57.841" x2="313.196" xlink:href="#lg3" y1="374.32" y2="374.32"/><linearGradient id="SVGID_21_" gradientUnits="userSpaceOnUse" x1="250" x2="548.511" xlink:href="#lg3" y1="302.272" y2="302.272"/><linearGradient id="SVGID_22_" gradientUnits="userSpaceOnUse" x1="109.654" x2="505.274" xlink:href="#lg3" y1="302.272" y2="302.272"/><linearGradient id="SVGID_23_" gradientUnits="userSpaceOnUse" x1="150.502" x2="524.132" xlink:href="#lg3" y1="302.272" y2="302.272"/><linearGradient id="SVGID_24_" gradientUnits="userSpaceOnUse" x1="5.159" x2="419.236" xlink:href="#lg3" y1="302.272" y2="302.272"/><g><path d="m128.901 112.401 373.208-91.961c5.56-1.37 8.957-6.988 7.587-12.549-1.37-5.56-6.988-8.957-12.549-7.587l-373.208 91.961c-5.56 1.37-8.957 6.988-7.587 12.549 1.371 5.56 6.989 8.957 12.549 7.587z" fill="url(#SVGID_1_)"/><path d="m121.421 154.183 379.802-59.09c5.659-.88 9.532-6.181 8.652-11.84s-6.181-9.532-11.84-8.652l-379.802 59.091c-5.659.88-9.532 6.181-8.652 11.84.881 5.658 6.182 9.531 11.84 8.651z" fill="url(#SVGID_2_)"/><g><path d="m160.753 227.021h-20.247v-138.682c0-5.591 4.532-10.124 10.124-10.124 5.591 0 10.124 4.532 10.124 10.124v138.682z" fill="url(#SVGID_3_)"/><path d="m181 222.021h-20.247v-138.682c0-5.591 4.533-10.124 10.124-10.124s10.124 4.532 10.124 10.124v138.682z" fill="url(#SVGID_4_)"/><path d="m201.247 219.021h-20.247v-138.682c0-5.591 4.532-10.124 10.124-10.124 5.591 0 10.124 4.532 10.124 10.124v138.682z" fill="url(#SVGID_5_)"/></g><g><g><circle cx="349.935" cy="287.804" fill="url(#SVGID_6_)" r="94.412"/><circle cx="349.935" cy="287.804" fill="url(#SVGID_7_)" r="70.656"/><circle cx="349.935" cy="287.804" fill="url(#SVGID_8_)" r="44.772"/></g><g><circle cx="257.368" cy="274.216" fill="url(#SVGID_9_)" r="108"/><path d="m257.368 166.216c-6.838 0-13.525.643-20.01 1.858 50.085 9.384 87.99 53.333 87.99 106.142s-37.905 96.758-87.99 106.142c6.485 1.215 13.172 1.858 20.01 1.858 59.647 0 108-48.353 108-108s-48.353-108-108-108z" fill="url(#SVGID_10_)"/><circle cx="257.368" cy="274.216" fill="url(#SVGID_11_)" r="80.825"/><path d="m301.429 206.471c14.95 18.528 23.919 42.083 23.919 67.745s-8.969 49.217-23.919 67.745c22.125-14.42 36.764-39.366 36.764-67.745s-14.639-53.325-36.764-67.745z" fill="url(#SVGID_12_)"/><circle cx="257.368" cy="274.216" fill="url(#SVGID_13_)" r="51.216"/></g><g><circle cx="150.923" cy="287.804" fill="url(#SVGID_14_)" r="94.412"/><circle cx="150.923" cy="287.804" fill="url(#SVGID_15_)" r="70.656"/><circle cx="150.923" cy="287.804" fill="url(#SVGID_16_)" r="44.772"/></g></g><g><path d="m388.091 510h-266.181c-8.497 0-15.749-6.144-17.145-14.526l-39.395-236.602c-1.764-10.593 6.406-20.236 17.145-20.236h344.971c10.739 0 18.909 9.642 17.145 20.236l-39.395 236.602c-1.396 8.382-8.648 14.526-17.145 14.526z" fill="url(#SVGID_17_)"/><path d="m444.63 258.87-39.39 236.6c-1.4 8.39-8.65 14.53-17.15 14.53h-173.11v-216.81l-43.99 86.56c-3.48 6.85-10.51 11.17-18.2 11.17h-65.44l-21.18-127.27-.8-4.78c-1.76-10.59 6.41-20.23 17.14-20.23h344.98c10.74 0 18.9 9.64 17.14 20.23z" fill="url(#SVGID_18_)"/><path d="m427.486 238.636h-172.486v271.364h133.091c8.497 0 15.749-6.144 17.145-14.526l39.395-236.602c1.764-10.594-6.406-20.236-17.145-20.236z" fill="url(#SVGID_19_)"/><path d="m444.63 258.87-3.57 21.42-35.82 215.18c-1.4 8.39-8.65 14.53-17.15 14.53h-40.02c8.5 0 15.75-6.14 17.15-14.53l11.382-68.351c3.156-18.95-11.458-36.199-30.67-36.199h-38.742c-7.69 0-14.72-4.32-18.2-11.17l-33.99-66.89v-74.22h172.49c10.74 0 18.9 9.64 17.14 20.23z" fill="url(#SVGID_20_)"/><g><path d="m507.758 336.246-38.467-75.702c-6.83-13.441-20.629-21.908-35.706-21.908h-178.585l58.998 116.105c3.481 6.851 10.515 11.167 18.2 11.167h157.361c15.233 0 25.1-16.081 18.199-29.662z" fill="url(#SVGID_21_)"/><path d="m76.415 238.636c-15.077 0-28.876 8.467-35.706 21.908l-38.467 75.702c-6.901 13.581 2.966 29.663 18.2 29.663h157.361c7.685 0 14.719-4.316 18.2-11.167l58.997-116.106z" fill="url(#SVGID_22_)"/></g><path d="m507.758 336.246-38.467-75.702c-6.83-13.441-20.629-21.908-35.706-21.908h-40.02c15.077 0 28.876 8.467 35.706 21.908l38.467 75.702c6.901 13.581-2.966 29.663-18.2 29.663h40.02c15.234-.001 25.101-16.082 18.2-29.663z" fill="url(#SVGID_23_)"/><path d="m214.98 238.636-58.998 116.105c-3.481 6.851-10.515 11.167-18.2 11.167h40.02c7.685 0 14.719-4.316 18.2-11.167l58.998-116.105z" fill="url(#SVGID_24_)"/></g></g></svg>