<svg id="Capa_1" enable-background="new 0 0 510 510" height="512" viewBox="0 0 510 510" width="512" xmlns="http://www.w3.org/2000/svg" xmlns:xlink="http://www.w3.org/1999/xlink"><linearGradient id="lg1"><stop offset="0" stop-color="#60b7ff"/><stop offset=".5857" stop-color="#0182fc"/><stop offset="1" stop-color="#2740b0"/></linearGradient><linearGradient id="SVGID_1_" gradientUnits="userSpaceOnUse" x1="134.348" x2="378.591" xlink:href="#lg1" y1="196.731" y2="196.731"/><linearGradient id="SVGID_2_" gradientUnits="userSpaceOnUse" x1="188.855" x2="327.338" xlink:href="#lg1" y1="54.325" y2="54.325"/><linearGradient id="SVGID_3_" gradientUnits="userSpaceOnUse" x1="96.821" x2="375.195" xlink:href="#lg1" y1="54.297" y2="54.297"/><linearGradient id="SVGID_4_" gradientUnits="userSpaceOnUse" x1="154.825" x2="363.675" xlink:href="#lg1" y1="102.561" y2="102.561"/><linearGradient id="SVGID_5_" gradientUnits="userSpaceOnUse" x1="21.797" x2="384.251" xlink:href="#lg1" y1="102.56" y2="102.56"/><linearGradient id="SVGID_6_" gradientUnits="userSpaceOnUse" x1="124.799" x2="467.017" xlink:href="#lg1" y1="171.488" y2="171.488"/><linearGradient id="SVGID_7_" gradientUnits="userSpaceOnUse" x1="11.788" x2="462.25" xlink:href="#lg1" y1="171.488" y2="171.488"/><linearGradient id="lg2"><stop offset="0" stop-color="#ffdcbd"/><stop offset=".0028" stop-color="#ffdcbd"/><stop offset="1" stop-color="#ffa9b1"/></linearGradient><linearGradient id="SVGID_8_" gradientUnits="userSpaceOnUse" x1="138.127" x2="371.873" xlink:href="#lg2" y1="366.757" y2="366.757"/><linearGradient id="SVGID_9_" gradientUnits="userSpaceOnUse" x1="32.472" x2="357.423" xlink:href="#lg2" y1="366.754" y2="366.754"/><linearGradient id="SVGID_10_" gradientUnits="userSpaceOnUse" x1="182.101" x2="416.4" xlink:href="#lg2" y1="257.687" y2="257.687"/><linearGradient id="SVGID_11_" gradientUnits="userSpaceOnUse" x1="117.38" x2="389.626" xlink:href="#lg2" y1="257.685" y2="257.685"/><linearGradient id="SVGID_12_" gradientUnits="userSpaceOnUse" x1="162.539" x2="438.541" xlink:href="#lg2" y1="227.685" y2="227.685"/><linearGradient id="SVGID_13_" gradientUnits="userSpaceOnUse" x1="304.764" x2="387.348" y1="227.685" y2="227.685"><stop offset="0" stop-color="#ffc2b5"/><stop offset="1" stop-color="#ff89a8"/></linearGradient><g><g><path d="m324.615 245.2h-137.198c-26.769 0-48.469-21.7-48.469-48.469s21.7-48.469 48.469-48.469h137.197c26.769 0 48.469 21.7 48.469 48.469.001 26.769-21.7 48.469-48.468 48.469z" fill="url(#SVGID_1_)"/><path d="m291.497 48.969c-24.786 0-45.807-16.109-53.17-38.428-2.815-8.533-12.374-12.813-20.6-9.197-19.943 8.768-33.798 28.829-33.466 52.088.431 30.138 25.014 54.723 55.152 55.156 31.295.45 56.805-24.784 56.805-55.976 0-1.289-.047-2.566-.133-3.833-1.513.125-3.043.19-4.588.19z" fill="url(#SVGID_2_)"/><path d="m296.085 48.781c-1.514.123-3.043.188-4.588.188-24.786 0-45.806-16.108-53.17-38.427-2.799-8.483-12.178-12.856-20.371-9.298-.125.054-.249.109-.373.164-12.355 5.474-15.35 21.475-5.821 31.057 4.142 4.165 8.934 7.682 14.213 10.385 15.13 7.748 20.787 26.532 12.947 41.614-4.812 9.258-11.029 17.473-18.68 20.411 5.976 2.304 12.434 3.616 19.173 3.713 31.295.45 56.805-24.784 56.805-55.976-.001-1.287-.049-2.564-.135-3.831z" fill="url(#SVGID_3_)"/><path d="m332.932 63.127c-.147-.198-.295-.396-.442-.593-11.151-14.966-32.382-19.577-49.319-10.743-32.294 16.844-67.142 28.232-103.528 33.832-19.082 2.937-32.803 18.969-31.85 37.268.013.242.025.484.038.726 1.118 21.459 21.703 37.154 44.081 33.708 45.03-6.936 88.259-21.063 128.23-41.904 19.864-10.358 25.867-34.743 12.79-52.294z" fill="url(#SVGID_4_)"/><path d="m332.932 63.127c-.147-.198-.295-.396-.442-.594-11.151-14.966-32.382-19.577-49.319-10.743-.59.308-1.186.6-1.777.904 4.231 2.476 8.01 5.771 11.041 9.839.147.198.295.396.442.594 13.076 17.551 7.074 41.935-12.79 52.292-34.771 18.13-72.009 31.172-110.752 38.827 6.752 3.076 14.546 4.314 22.577 3.077 45.03-6.936 88.259-21.063 128.23-41.904 19.864-10.356 25.867-34.741 12.79-52.292z" fill="url(#SVGID_5_)"/><path d="m373.922 118.868c-.197-.264-.393-.528-.59-.792-14.88-19.971-43.211-26.124-65.812-14.335-43.094 22.477-89.596 37.673-138.15 45.146-25.464 3.919-43.773 25.313-42.501 49.731.017.323.034.645.05.968 1.491 28.635 28.962 49.58 58.822 44.98 60.089-9.256 117.775-28.107 171.113-55.918 26.507-13.821 34.517-46.359 17.068-69.78z" fill="url(#SVGID_6_)"/><path d="m373.922 118.868c-.197-.264-.393-.528-.59-.792-13.922-18.686-39.619-25.271-61.38-16.387 8.32 3.388 15.763 8.921 21.326 16.387.197.264.393.528.59.792 17.45 23.421 9.439 55.959-17.067 69.78-49.13 25.617-101.955 43.61-156.942 53.526 7.969 2.817 16.813 3.788 25.884 2.391 60.089-9.256 117.775-28.107 171.113-55.918 26.505-13.82 34.515-46.358 17.066-69.779z" fill="url(#SVGID_7_)"/></g><path d="m371.873 223.514h-233.746l78.908 258.384c11.443 37.469 64.487 37.469 75.93 0z" fill="url(#SVGID_8_)"/><path d="m371.872 223.51h-233.744l28.515 93.382h83.479c6.381 0 12.317 1.5 17.554 4.113l-58.425 48.807c-2.924 2.443-3.782 6.717-1.734 9.93 2.48 3.892 7.72 4.624 11.157 1.753l3.987-3.33 20.629 17.233-6.159 5.145c-3.657 3.055-1.497 9.01 3.268 9.01h2.549c3.751 0 9.175-1.967 12.053-4.372l12.495 10.438c2.73 2.28 3.829 5.974 2.79 9.376-.502 1.643-1.471 3.105-2.79 4.206l-12.494 10.436-15.647-13.071c-2.626-2.194-6.442-2.514-9.249-.558-4.133 2.879-4.315 8.798-.547 11.945l13.73 11.469-28.82 24.074 2.566 8.402c.736 2.409 1.646 4.66 2.703 6.758l35.26-29.454c2.337 1.952 3.279 5.115 2.389 8.028l-4.479 14.665c-3.253 10.649-9.869 18.276-17.936 22.87 20.308 11.57 49.803 3.953 57.991-22.87zm-92.062 106.917c5.591 6.439 9.088 14.643 9.616 23.432.109 1.819-.69 3.577-2.088 4.745l-20.629-17.233zm-24.811 55.19-20.63-17.233 20.632-17.234 20.629 17.233zm11.711 9.783 16.935-14.147-6.885 22.543z" fill="url(#SVGID_9_)"/><path d="m173.736 291.86h162.527c14.137 0 26.616-9.236 30.745-22.757l13.922-45.588h-251.861l13.922 45.588c4.13 13.521 16.608 22.757 30.745 22.757z" fill="url(#SVGID_10_)"/><path d="m380.93 223.51-13.922 45.59c-4.124 13.522-16.604 22.76-30.747 22.76h-40.055c.491 0 .98-.011 1.467-.033 13.938-.632 13.217-21.626-.735-21.626h-153.585c-.13-.36-.25-.731-.36-1.101l-13.922-45.59z" fill="url(#SVGID_11_)"/><g><path d="m375.485 245.2h-240.97c-9.674 0-17.516-7.842-17.516-17.516s7.842-17.516 17.516-17.516h240.971c9.674 0 17.516 7.842 17.516 17.516s-7.843 17.516-17.517 17.516z" fill="url(#SVGID_12_)"/><path d="m375.485 210.169h-25.034c9.674 0 17.516 7.842 17.516 17.516s-7.842 17.516-17.516 17.516h25.034c9.674 0 17.516-7.842 17.516-17.516s-7.842-17.516-17.516-17.516z" fill="url(#SVGID_13_)"/></g></g></svg>