<svg id="Capa_1" enable-background="new 0 0 510 510" height="512" viewBox="0 0 510 510" width="512" xmlns="http://www.w3.org/2000/svg" xmlns:xlink="http://www.w3.org/1999/xlink"><linearGradient id="lg1"><stop offset="0" stop-color="#f8f6f7"/><stop offset=".1788" stop-color="#f8f6f7"/><stop offset="1" stop-color="#e7e6f5"/></linearGradient><linearGradient id="SVGID_1_" gradientUnits="userSpaceOnUse" x1="57.1" x2="289.594" xlink:href="#lg1" y1="128.598" y2="128.598"/><linearGradient id="lg2"><stop offset="0" stop-color="#f8f6f7"/><stop offset="1" stop-color="#d1ceeb"/></linearGradient><linearGradient id="SVGID_2_" gradientUnits="userSpaceOnUse" x1="-67.393" x2="431.234" xlink:href="#lg2" y1="128.596" y2="128.596"/><linearGradient id="lg3"><stop offset="0" stop-color="#fef056"/><stop offset=".5213" stop-color="#f4d902"/><stop offset="1" stop-color="#fe9738"/></linearGradient><linearGradient id="SVGID_3_" gradientUnits="userSpaceOnUse" x1="208" x2="402.579" xlink:href="#lg3" y1="120.861" y2="120.861"/><linearGradient id="SVGID_4_" gradientUnits="userSpaceOnUse" x1="98" x2="396.098" xlink:href="#lg3" y1="120.861" y2="120.861"/><linearGradient id="SVGID_5_" gradientUnits="userSpaceOnUse" x1="84.104" x2="468.788" xlink:href="#lg1" y1="351.648" y2="351.648"/><linearGradient id="SVGID_6_" gradientUnits="userSpaceOnUse" x1="-115" x2="420.034" xlink:href="#lg2" y1="351.648" y2="351.648"/><linearGradient id="SVGID_7_" gradientUnits="userSpaceOnUse" x1="169.87" x2="279.997" xlink:href="#lg3" y1="296.952" y2="296.952"/><linearGradient id="SVGID_8_" gradientUnits="userSpaceOnUse" x1="122.5" x2="297.209" xlink:href="#lg3" y1="296.952" y2="296.952"/><linearGradient id="lg4"><stop offset="0" stop-color="#60b7ff"/><stop offset=".5857" stop-color="#0182fc"/><stop offset="1" stop-color="#2740b0"/></linearGradient><linearGradient id="SVGID_9_" gradientUnits="userSpaceOnUse" x1="132" x2="449.068" xlink:href="#lg4" y1="395.869" y2="395.869"/><linearGradient id="SVGID_10_" gradientUnits="userSpaceOnUse" x1="217" x2="452.781" xlink:href="#lg4" y1="403.717" y2="403.717"/><linearGradient id="SVGID_11_" gradientUnits="userSpaceOnUse" x1="217" x2="452.781" xlink:href="#lg4" y1="377.383" y2="377.383"/><linearGradient id="SVGID_12_" gradientUnits="userSpaceOnUse" x1="217" x2="452.781" xlink:href="#lg4" y1="446.353" y2="446.353"/><linearGradient id="SVGID_13_" gradientUnits="userSpaceOnUse" x1="64" x2="433.957" xlink:href="#lg4" y1="336.721" y2="336.721"/><linearGradient id="SVGID_14_" gradientUnits="userSpaceOnUse" x1="64" x2="433.957" xlink:href="#lg4" y1="395.869" y2="395.869"/><linearGradient id="SVGID_15_" gradientUnits="userSpaceOnUse" x1="53.027" x2="507.665" xlink:href="#lg1" y1="193.295" y2="193.295"/><linearGradient id="SVGID_16_" gradientUnits="userSpaceOnUse" x1="4.667" x2="364.179" xlink:href="#lg2" y1="204.876" y2="204.876"/><linearGradient id="SVGID_23_" gradientUnits="userSpaceOnUse" x1="4.667" x2="364.179" xlink:href="#lg2" y1="193.295" y2="193.295"/><g><path d="m436.866 181.866c0 100.442-363.731 100.442-363.731 0s81.423-181.866 181.865-181.866 181.866 81.424 181.866 181.866z" fill="url(#SVGID_1_)"/><path d="m255 0c-6.764 0-13.438.381-20.01 1.101 31.122 3.407 59.88 14.668 84.257 31.754-4.352.613-8.256 2.393-11.277 5.414-9.697 9.697-6.62 28.496 6.872 41.989 13.493 13.493 32.292 16.569 41.989 6.872 3.16-3.16 4.955-7.29 5.484-11.885 21.719 29.956 34.531 66.79 34.531 106.622 0 46.53-78.06 71.501-161.856 74.921 97.088 3.962 201.876-21.009 201.876-74.921 0-100.443-81.424-181.867-181.866-181.867z" fill="url(#SVGID_2_)"/><path d="m255.002 216.636c-1.848 0-3.726-.295-5.574-.916-9.162-3.078-14.094-13-11.017-22.162l35.172-104.713c5.814-17.31 18.546-31.863 34.93-39.926l44.76-22.029c8.671-4.27 19.161-.699 23.429 7.974 4.268 8.671.698 19.161-7.974 23.429l-44.76 22.029c-8.071 3.973-14.342 11.141-17.207 19.668l-35.172 104.713c-2.456 7.314-9.276 11.933-16.587 11.933z" fill="url(#SVGID_3_)"/><path d="m376.701 34.863c-4.268-8.672-14.757-12.243-23.429-7.974l-5.549 2.731c1.596 1.443 2.959 3.195 3.967 5.242 4.268 8.671.698 19.161-7.974 23.429l-33.554 16.514c-5.312-7.212-8.025-15.259-7.838-22.42-8.979 5.655-16.555 13.361-22.105 22.366.557 1.31 1.196 2.615 1.914 3.906 3.182 5.722 3.314 12.577.684 18.573-.395.901-.752 1.822-1.066 2.759l-35.172 104.713c-.869 2.587-2.292 4.828-4.081 6.655 1.875 1.921 4.211 3.448 6.93 4.362 1.848.621 3.727.916 5.574.916 7.312 0 14.131-4.619 16.587-11.933l35.172-104.712c2.864-8.527 9.136-15.696 17.207-19.668l44.76-22.029c8.671-4.268 12.241-14.758 7.973-23.43z" fill="url(#SVGID_4_)"/><path d="m349.909 510h-189.818c-12.542 0-23.222-9.119-25.186-21.506l-50.801-295.199h341.791l-50.801 295.198c-1.964 12.387-12.644 21.507-25.185 21.507z" fill="url(#SVGID_5_)"/><path d="m425.9 193.296-50.81 295.194c-1.96 12.39-12.64 21.51-25.18 21.51h-40.02c12.54 0 23.22-9.12 25.18-21.51l28.409-153.996c6.678-42.093-25.85-80.187-68.469-80.187h-201.23l-3.97-25.01-5.71-36h341.8z" fill="url(#SVGID_6_)"/><g><g><path d="m229.502 221.962-42.023 126.903c-3.077 9.162 1.855 19.084 11.017 22.162 1.848.621 3.727.916 5.574.916 7.312 0 14.131-4.619 16.587-11.933l45.713-138.047h-36.868z" fill="url(#SVGID_7_)"/></g><path d="m266.371 221.962h-36.869l-10.711 32.344c5.839 0 9.966 5.714 8.13 11.257l-31.275 94.446c-.869 2.587-2.292 4.828-4.081 6.655 1.875 1.921 4.211 3.448 6.93 4.362 1.848.621 3.727.916 5.574.916 7.312 0 14.131-4.619 16.587-11.933z" fill="url(#SVGID_8_)"/></g><path d="m319.519 305.787-41.888 25.698c-40.568 24.889-92.131 22.903-130.666-5.031-7.021-5.089-16.685.874-15.284 9.432l22.375 136.676c1.651 10.945 10.628 19.003 21.17 19.003h159.549c10.542 0 19.519-8.058 21.17-19.003l20.99-128.216c1.978-12.082-1.982-24.377-10.639-33.034-12.438-12.438-31.784-14.723-46.777-5.525z" fill="url(#SVGID_9_)"/><g><path d="m307.463 390.55c-7.272 0-13.167 5.895-13.167 13.167s5.895 13.167 13.167 13.167 13.167-5.895 13.167-13.167c-.001-7.272-5.895-13.167-13.167-13.167z" fill="url(#SVGID_10_)"/><path d="m235.994 364.217c-7.272 0-13.167 5.895-13.167 13.167s5.895 13.167 13.167 13.167 13.167-5.895 13.167-13.167c0-7.273-5.895-13.167-13.167-13.167z" fill="url(#SVGID_11_)"/><circle cx="217.909" cy="446.353" fill="url(#SVGID_12_)" r="25.062"/></g><g><path d="m146.965 326.454c-6.128-4.442-14.267-.463-15.308 6.31 22.005 12.869 47.269 18.074 71.954 15.432-20.044-2.13-39.618-9.397-56.646-21.742z" fill="url(#SVGID_13_)"/><path d="m366.296 311.312c-10.477-10.477-25.856-13.749-39.406-9.022 5.29 1.838 10.23 4.858 14.395 9.022 8.657 8.657 12.617 20.952 10.639 33.034l-20.99 128.216c-1.651 10.945-10.628 19.003-21.17 19.003h25.011c10.542 0 19.519-8.058 21.17-19.003l20.99-128.216c1.977-12.082-1.982-24.377-10.639-33.034z" fill="url(#SVGID_14_)"/></g><path d="m431.497 229.295h-352.994c-14.07 0-25.477-11.406-25.477-25.477v-21.047c0-14.07 11.406-25.477 25.477-25.477h352.993c14.07 0 25.477 11.406 25.477 25.477v21.047c0 14.071-11.406 25.477-25.476 25.477z" fill="url(#SVGID_15_)"/><g><g fill="url(#SVGID_16_)"><path d="m106.5 180.456c-4.14 0-7.5 3.36-7.5 7.5v41.34h15v-41.34c0-4.14-3.36-7.5-7.5-7.5z"/><path d="m149 180.456c-4.14 0-7.5 3.36-7.5 7.5v41.34h15v-41.34c0-4.14-3.36-7.5-7.5-7.5z"/><path d="m191.5 180.456c-4.14 0-7.5 3.36-7.5 7.5v41.34h15v-41.34c0-4.14-3.36-7.5-7.5-7.5z"/><path d="m234 180.456c-4.14 0-7.5 3.36-7.5 7.5v41.34h15v-41.34c0-4.14-3.36-7.5-7.5-7.5z"/><path d="m276.5 180.456c-4.14 0-7.5 3.36-7.5 7.5v41.34h15v-41.34c0-4.14-3.36-7.5-7.5-7.5z"/><path d="m318.5 180.456c-4.14 0-7.5 3.36-7.5 7.5v41.34h15v-41.34c0-4.14-3.36-7.5-7.5-7.5z"/><path d="m361 180.456c-4.14 0-7.5 3.36-7.5 7.5v41.34h15v-41.34c0-4.14-3.36-7.5-7.5-7.5z"/></g><path d="m431.497 157.295h-40.02c14.07 0 25.477 11.406 25.477 25.477v21.047c0 .445-.011.887-.034 1.327-.195 3.798-5.919 3.575-5.919-.228v-16.708c0-3.813-2.739-7.212-6.522-7.691-4.576-.58-8.478 2.976-8.478 7.438v36.755c0 2.49-1.987 4.579-4.477 4.584-.015 0-.031 0-.046 0h40.02c14.07 0 25.477-11.406 25.477-25.477v-21.047c-.002-14.071-11.408-25.477-25.478-25.477z" fill="url(#SVGID_23_)"/></g></g></svg>