<svg id="Capa_1" enable-background="new 0 0 510 510" height="512" viewBox="0 0 510 510" width="512" xmlns="http://www.w3.org/2000/svg" xmlns:xlink="http://www.w3.org/1999/xlink"><linearGradient id="lg1"><stop offset="0" stop-color="#fbc56d"/><stop offset=".593" stop-color="#c86d36"/><stop offset="1" stop-color="#904d24"/></linearGradient><linearGradient id="SVGID_1_" gradientUnits="userSpaceOnUse" x1="10" x2="629.6" xlink:href="#lg1" y1="260" y2="260"/><linearGradient id="SVGID_2_" gradientUnits="userSpaceOnUse" x1="0" x2="512.823" xlink:href="#lg1" y1="404.862" y2="404.862"/><linearGradient id="SVGID_3_" gradientUnits="userSpaceOnUse" x1="0" x2="512.823" xlink:href="#lg1" y1="385.05" y2="385.05"/><linearGradient id="SVGID_4_" gradientUnits="userSpaceOnUse" x1="0" x2="512.823" xlink:href="#lg1" y1="358.716" y2="358.716"/><linearGradient id="SVGID_5_" gradientUnits="userSpaceOnUse" x1="0" x2="512.823" xlink:href="#lg1" y1="427.686" y2="427.686"/><linearGradient id="SVGID_6_" gradientUnits="userSpaceOnUse" x1="0" x2="512.823" xlink:href="#lg1" y1="260" y2="260"/><linearGradient id="SVGID_7_" gradientUnits="userSpaceOnUse" x1="0" x2="510" y1="183.275" y2="183.275"><stop offset="0" stop-color="#ffdcbd"/><stop offset=".0028" stop-color="#ffdcbd"/><stop offset="1" stop-color="#ffa9b1"/></linearGradient><linearGradient id="lg2"><stop offset="0" stop-color="#a2e62e"/><stop offset=".5857" stop-color="#81b823"/><stop offset="1" stop-color="#037e73"/></linearGradient><linearGradient id="SVGID_8_" gradientUnits="userSpaceOnUse" x1="46.667" x2="442.853" xlink:href="#lg2" y1="182.946" y2="182.946"/><linearGradient id="lg3"><stop offset="0" stop-color="#fef056"/><stop offset=".5213" stop-color="#f4d902"/><stop offset="1" stop-color="#fe9738"/></linearGradient><linearGradient id="SVGID_9_" gradientUnits="userSpaceOnUse" x1="46.667" x2="442.853" xlink:href="#lg3" y1="107.099" y2="107.099"/><linearGradient id="SVGID_10_" gradientUnits="userSpaceOnUse" x1="46.667" x2="442.853" xlink:href="#lg3" y1="106.304" y2="106.304"/><linearGradient id="SVGID_11_" gradientUnits="userSpaceOnUse" x1="46.667" x2="442.853" xlink:href="#lg1" y1="55.006" y2="55.006"/><linearGradient id="SVGID_12_" gradientUnits="userSpaceOnUse" x1="46.667" x2="442.853" xlink:href="#lg2" y1="210.448" y2="210.448"/><linearGradient id="lg4"><stop offset="0" stop-color="#fe646f"/><stop offset=".593" stop-color="#fb2b3a"/><stop offset="1" stop-color="#c41926"/></linearGradient><linearGradient id="SVGID_13_" gradientUnits="userSpaceOnUse" x1="46.667" x2="442.853" xlink:href="#lg4" y1="125.667" y2="125.667"/><linearGradient id="SVGID_14_" gradientUnits="userSpaceOnUse" x1="46.667" x2="442.853" xlink:href="#lg4" y1="146.161" y2="146.161"/><linearGradient id="lg5"><stop offset="0" stop-color="#ffc2b5"/><stop offset="1" stop-color="#ff89a8"/></linearGradient><linearGradient id="SVGID_15_" gradientUnits="userSpaceOnUse" x1="21.102" x2="468.284" xlink:href="#lg5" y1="266.261" y2="266.261"/><linearGradient id="SVGID_16_" gradientUnits="userSpaceOnUse" x1="21.102" x2="468.284" xlink:href="#lg5" y1="241.461" y2="241.461"/><linearGradient id="SVGID_17_" gradientUnits="userSpaceOnUse" x1="21.102" x2="468.284" xlink:href="#lg5" y1="166.36" y2="166.36"/><linearGradient id="SVGID_18_" gradientUnits="userSpaceOnUse" x1="21.102" x2="468.284" xlink:href="#lg5" y1="312.99" y2="312.99"/><g><path d="m255 15c-135.31 0-245 109.69-245 245s109.69 245 245 245 245-109.69 245-245-109.69-245-245-245zm0 345.882c-55.716 0-100.882-45.166-100.882-100.882s45.166-100.882 100.882-100.882 100.882 45.166 100.882 100.882-45.166 100.882-100.882 100.882z" fill="url(#SVGID_1_)"/><g><circle cx="311.839" cy="404.862" fill="url(#SVGID_2_)" r="13.167"/><path d="m215.006 371.883c-7.272 0-13.167 5.895-13.167 13.167s5.895 13.167 13.167 13.167 13.167-5.895 13.167-13.167-5.895-13.167-13.167-13.167z" fill="url(#SVGID_3_)"/><path d="m143.537 345.55c-7.272 0-13.167 5.895-13.167 13.167s5.895 13.167 13.167 13.167 13.167-5.895 13.167-13.167-5.895-13.167-13.167-13.167z" fill="url(#SVGID_4_)"/><circle cx="125.452" cy="427.686" fill="url(#SVGID_5_)" r="25.062"/><path d="m255 15c-6.74 0-13.41.27-20.01.81-40.8 3.29-78.77 16.59-111.47 37.43-68.25 43.48-113.52 119.84-113.52 206.76 0 18.6 2.07 36.71 6 54.12 1.87-1.13 3.6-2.48 5.14-4.02 4.88-4.9 7.91-11.65 7.91-19.11 0-7.31 2.96-13.92 7.75-18.71s11.4-7.75 18.71-7.75 13.92 2.96 18.71 7.75 7.75 11.4 7.75 18.71v19.826c0 15.422 12.151 28.416 27.569 28.747 8.025.172 15.315-3.008 20.551-8.253 2.46-2.45 4.46-5.36 5.88-8.58 18.48 23.25 47 38.15 79.01 38.15 6.85 0 13.54-.68 20.01-1.99-46.13-9.28-80.87-50.02-80.87-98.89 0-11.61 1.96-22.76 5.57-33.14 11.58-33.31 40.13-58.68 75.3-65.75 6.289-1.273 12.786-1.951 19.435-1.988 54.782-.305 99.459 42.479 101.39 97.228 1.116 31.641-12.342 60.179-34.185 79.401v13.078c0 20.214 15.911 37.186 36.118 37.719 10.646.281 20.313-3.929 27.252-10.857 6.72-6.72 10.87-16 10.87-26.25v-33.796c0-14.052 11.067-25.929 25.116-26.199 7.269-.14 13.874 2.755 18.624 7.495 4.63 4.64 7.5 11.04 7.5 18.12.07 18.034-3.85 35.897-11.749 52.109-14.16 29.063-33.906 54.902-57.831 76.133-1.414-13.64-13.24-24.189-27.393-23.559-13.211.588-24.115 11.175-25.061 24.365-.314 4.38.444 8.553 2.039 12.282 4.338 10.143-.389 21.973-10.422 26.558-25.229 11.529-52.755 18.902-81.703 21.241 6.6.54 13.27.81 20.01.81 135.31 0 245-109.69 245-245s-109.69-245-245-245z" fill="url(#SVGID_6_)"/></g><path d="m474.59 130.3c-44.39-75-126.12-125.3-219.59-125.3s-175.2 50.3-219.59 125.3c-22.5 38-35.41 82.34-35.41 129.7 0 1.196.008 3.405.025 6.144.091 14.856 12.161 26.856 27.017 26.856 14.921 0 27.018-12.096 27.018-27.018 0-14.613 11.847-26.46 26.46-26.46s26.46 11.847 26.46 26.46v20.388c0 15.569 12.621 28.19 28.19 28.19s28.19-12.621 28.19-28.19v-25.068c0-52.515 43.526-95.289 95.984-92.841 48.593 2.268 87.296 42.385 87.296 91.539v64.43c0 20.501 16.619 37.12 37.12 37.12s37.12-16.619 37.12-37.12v-34.38c0-14.15 11.47-25.62 25.62-25.62s25.62 11.47 25.62 25.62v21.52c0 8.919 7.231 16.15 16.15 16.15 7.622 0 14.164-5.337 15.799-12.781 3.886-17.692 5.931-36.076 5.931-54.939 0-47.36-12.91-91.7-35.41-129.7z" fill="url(#SVGID_7_)"/><g><path d="m101.287 165.292-28.833 23.725c-3.199 2.632-3.658 7.358-1.026 10.557s7.358 3.658 10.557 1.026l28.833-23.725c3.198-2.632 3.658-7.358 1.026-10.557s-7.358-3.658-10.557-1.026z" fill="url(#SVGID_8_)"/><path d="m345.953 89.445-28.833 23.725c-3.199 2.632-3.658 7.358-1.026 10.557s7.358 3.658 10.557 1.026l28.833-23.725c3.198-2.632 3.658-7.358 1.026-10.557s-7.358-3.658-10.557-1.026z" fill="url(#SVGID_9_)"/><path d="m128.679 88.134c-3.045-2.808-7.789-2.617-10.598.428-2.808 3.045-2.616 7.79.428 10.598l27.448 25.315c3.045 2.808 7.789 2.617 10.598-.428 2.808-3.045 2.616-7.79-.428-10.598z" fill="url(#SVGID_10_)"/><path d="m253.309 36.835c-3.045-2.808-7.789-2.617-10.598.428-2.808 3.045-2.616 7.79.428 10.598l27.448 25.315c3.045 2.808 7.789 2.617 10.598-.428 2.808-3.045 2.616-7.79-.428-10.598z" fill="url(#SVGID_11_)"/><path d="m370.804 192.278c-3.045-2.808-7.789-2.617-10.598.428-2.808 3.045-2.616 7.79.428 10.598l27.448 25.315c3.045 2.808 7.789 2.617 10.598-.428 2.808-3.045 2.616-7.79-.428-10.598z" fill="url(#SVGID_12_)"/><path d="m234.86 102.901c-3.604-2.043-8.18-.778-10.223 2.826l-18.415 32.483c-2.043 3.603-.778 8.18 2.826 10.223s8.18.778 10.223-2.826l18.415-32.483c2.043-3.603.778-8.18-2.826-10.223z" fill="url(#SVGID_13_)"/><path d="m426.479 123.395c-3.604-2.043-8.181-.778-10.223 2.826l-18.415 32.483c-2.043 3.603-.778 8.18 2.826 10.223s8.181.778 10.223-2.826l18.415-32.483c2.042-3.603.777-8.18-2.826-10.223z" fill="url(#SVGID_14_)"/></g><g><path d="m40.5 239.522c-14.613 0-26.46 11.846-26.46 26.46 0 6.987-2.653 13.354-7.005 18.151 4.944 5.447 12.078 8.867 20.007 8.867 14.921 0 27.018-12.096 27.018-27.018 0-6.617 2.435-12.662 6.45-17.302-4.852-5.606-12.014-9.158-20.01-9.158z" fill="url(#SVGID_15_)"/><path d="m123.34 261.302v25.068c0 7.744-3.125 14.758-8.18 19.853 5.107 5.148 12.186 8.337 20.01 8.337 15.569 0 28.19-12.621 28.19-28.19v-25.068c0-44.144 30.757-81.4 71.72-90.704-5.107-1.144-10.366-1.886-15.757-2.137-52.457-2.448-95.983 40.326-95.983 92.841z" fill="url(#SVGID_16_)"/><path d="m474.59 130.3c-44.39-75-126.12-125.3-219.59-125.3-6.735 0-13.407.27-20.01.782 85.042 6.603 158.388 54.922 199.58 124.518 22.5 38 35.41 82.34 35.41 129.7 0 6.183-.241 12.309-.674 18.382 1.795 3.5 2.814 7.464 2.814 11.668v21.52c0 8.919 7.231 16.15 16.15 16.15 7.622 0 14.164-5.337 15.799-12.781 3.886-17.692 5.931-36.076 5.931-54.939 0-47.36-12.91-91.7-35.41-129.7z" fill="url(#SVGID_17_)"/><path d="m406.48 264.43c-14.15 0-25.62 11.47-25.62 25.62v34.38c0 13.129-6.823 24.658-17.11 31.257 5.776 3.705 12.639 5.862 20.01 5.862 20.501 0 37.12-16.619 37.12-37.12v-34.38c0-6.051 2.102-11.607 5.61-15.991-4.695-5.866-11.911-9.628-20.01-9.628z" fill="url(#SVGID_18_)"/></g></g></svg>