<svg id="Capa_1" enable-background="new 0 0 510 510" height="512" viewBox="0 0 510 510" width="512" xmlns="http://www.w3.org/2000/svg" xmlns:xlink="http://www.w3.org/1999/xlink"><linearGradient id="lg1"><stop offset="0" stop-color="#ffdcbd"/><stop offset=".0028" stop-color="#ffdcbd"/><stop offset="1" stop-color="#ffa9b1"/></linearGradient><linearGradient id="SVGID_1_" gradientUnits="userSpaceOnUse" x1="106.166" x2="497.015" xlink:href="#lg1" y1="144.631" y2="144.631"/><linearGradient id="SVGID_2_" gradientUnits="userSpaceOnUse" x1="49.015" x2="393.324" xlink:href="#lg1" y1="88.461" y2="88.461"/><linearGradient id="SVGID_3_" gradientUnits="userSpaceOnUse" x1="49.015" x2="393.324" xlink:href="#lg1" y1="62.128" y2="62.128"/><linearGradient id="SVGID_4_" gradientUnits="userSpaceOnUse" x1="49.015" x2="393.324" xlink:href="#lg1" y1="144.63" y2="144.63"/><linearGradient id="lg2"><stop offset="0" stop-color="#fef056"/><stop offset=".5213" stop-color="#f4d902"/><stop offset="1" stop-color="#fe9738"/></linearGradient><linearGradient id="SVGID_5_" gradientUnits="userSpaceOnUse" x1="310.145" x2="498.241" xlink:href="#lg2" y1="178.286" y2="178.286"/><linearGradient id="SVGID_6_" gradientUnits="userSpaceOnUse" x1="258.015" x2="492.813" xlink:href="#lg2" y1="178.29" y2="178.29"/><linearGradient id="lg3"><stop offset="0" stop-color="#a2e62e"/><stop offset=".5857" stop-color="#81b823"/><stop offset="1" stop-color="#037e73"/></linearGradient><linearGradient id="SVGID_7_" gradientUnits="userSpaceOnUse" x1="22.424" x2="372.01" xlink:href="#lg3" y1="276.98" y2="276.98"/><linearGradient id="SVGID_8_" gradientUnits="userSpaceOnUse" x1="-42.985" x2="305.677" xlink:href="#lg3" y1="256.136" y2="256.136"/><linearGradient id="SVGID_9_" gradientUnits="userSpaceOnUse" x1="-42.985" x2="305.677" xlink:href="#lg3" y1="229.803" y2="229.803"/><linearGradient id="SVGID_10_" gradientUnits="userSpaceOnUse" x1="-42.985" x2="305.677" xlink:href="#lg3" y1="298.772" y2="298.772"/><linearGradient id="SVGID_11_" gradientUnits="userSpaceOnUse" x1="-42.985" x2="305.677" xlink:href="#lg3" y1="276.98" y2="276.98"/><linearGradient id="lg4"><stop offset="0" stop-color="#fbc56d"/><stop offset=".593" stop-color="#c86d36"/><stop offset="1" stop-color="#904d24"/></linearGradient><linearGradient id="SVGID_12_" gradientUnits="userSpaceOnUse" x1="219.858" x2="569.444" xlink:href="#lg4" y1="276.98" y2="276.98"/><linearGradient id="SVGID_13_" gradientUnits="userSpaceOnUse" x1="151.015" x2="514.859" xlink:href="#lg4" y1="233.302" y2="233.302"/><linearGradient id="SVGID_14_" gradientUnits="userSpaceOnUse" x1="151.015" x2="514.859" xlink:href="#lg4" y1="302.272" y2="302.272"/><linearGradient id="SVGID_15_" gradientUnits="userSpaceOnUse" x1="151.015" x2="514.859" xlink:href="#lg4" y1="276.98" y2="276.98"/><linearGradient id="lg5"><stop offset="0" stop-color="#fe646f"/><stop offset=".593" stop-color="#fb2b3a"/><stop offset="1" stop-color="#c41926"/></linearGradient><linearGradient id="SVGID_16_" gradientUnits="userSpaceOnUse" x1="45.464" x2="504.239" xlink:href="#lg5" y1="436.256" y2="436.256"/><linearGradient id="SVGID_17_" gradientUnits="userSpaceOnUse" x1="-97.95" x2="448.402" xlink:href="#lg5" y1="436.255" y2="436.255"/><linearGradient id="SVGID_18_" gradientUnits="userSpaceOnUse" x1="57.002" x2="409.471" y1="366.418" y2="366.418"><stop offset="0" stop-color="#f8f6f7"/><stop offset=".1788" stop-color="#f8f6f7"/><stop offset="1" stop-color="#e7e6f5"/></linearGradient><g><g><circle cx="248.015" cy="144.631" fill="url(#SVGID_1_)" r="144.631"/></g><g><path d="m258.221 101.628c7.272 0 13.167-5.895 13.167-13.167s-5.895-13.167-13.167-13.167-13.167 5.895-13.167 13.167c.001 7.272 5.895 13.167 13.167 13.167z" fill="url(#SVGID_2_)"/><path d="m186.752 75.294c7.272 0 13.167-5.895 13.167-13.167s-5.895-13.167-13.167-13.167-13.167 5.895-13.167 13.167c.001 7.273 5.896 13.167 13.167 13.167z" fill="url(#SVGID_3_)"/><path d="m391.985 130.75c-6.98-73.37-68.77-130.75-143.97-130.75-6.79 0-13.47.47-20.01 1.37 36.12 0 62.405 19.669 80.917 43.162 23.646 30.008 13.845 74.642-20.278 91.824-15.62 7.865-29.426 18.804-40.629 32.024-14.371-16.957-33.031-30.152-54.302-37.931-.345-13.541-11.422-24.414-25.046-24.414-10.89 0-20.154 6.948-23.611 16.651-14.387.464-28.177 3.272-41.011 8.064-.44 4.57-.66 9.2-.66 13.88 0 73.09 54.21 133.51 124.62 143.26 6.54.9 13.22 1.37 20.01 1.37 79.88 0 144.63-64.75 144.63-144.63 0-4.68-.22-9.31-.66-13.88z" fill="url(#SVGID_4_)"/></g><path d="m476.545 87.286c18.025 18.025 18.025 47.249 0 65.274l-130.244 130.245-65.274-65.274 130.245-130.245c18.025-18.024 47.249-18.024 65.273 0z" fill="url(#SVGID_5_)"/><path d="m476.546 87.286c-14.242-14.241-35.47-17.22-52.647-8.957 4.563 2.195 8.844 5.174 12.627 8.957 18.025 18.025 18.025 47.249 0 65.274l-110.235 110.235 20.01 20.01 130.245-130.245c18.024-18.025 18.024-47.249 0-65.274z" fill="url(#SVGID_6_)"/><g><circle cx="149.298" cy="276.98" fill="url(#SVGID_7_)" r="129.362"/></g><g><path d="m173.586 256.136c0-7.272-5.895-13.167-13.167-13.167s-13.167 5.895-13.167 13.167 5.895 13.167 13.167 13.167c7.272-.001 13.167-5.895 13.167-13.167z" fill="url(#SVGID_8_)"/><path d="m88.95 216.636c-7.272 0-13.167 5.895-13.167 13.167s5.895 13.167 13.167 13.167 13.167-5.895 13.167-13.167-5.895-13.167-13.167-13.167z" fill="url(#SVGID_9_)"/><circle cx="70.865" cy="298.772" fill="url(#SVGID_10_)" r="25.062"/><path d="m235.505 180.54c-22.88-20.47-53.09-32.92-86.21-32.92-6.81 0-13.49.53-20.01 1.54 17.002 2.638 32.907 8.587 47.037 17.167 22.779 13.832 32.551 41.953 23.568 67.043-4.878 13.626-7.535 28.309-7.535 43.61s2.657 29.984 7.535 43.61c8.983 25.09-.789 53.211-23.568 67.043-14.13 8.58-30.035 14.529-47.037 17.167 6.52 1.01 13.2 1.54 20.01 1.54 33.12 0 63.33-12.45 86.21-32.92 26.49-23.68 43.15-58.12 43.15-96.44s-16.66-72.76-43.15-96.44z" fill="url(#SVGID_11_)"/></g><g><circle cx="346.732" cy="276.98" fill="url(#SVGID_12_)" r="129.362"/></g><g><path d="m369.193 233.302c0-7.272-5.895-13.167-13.167-13.167s-13.167 5.895-13.167 13.167 5.895 13.167 13.167 13.167 13.167-5.895 13.167-13.167z" fill="url(#SVGID_13_)"/><circle cx="337.941" cy="302.272" fill="url(#SVGID_14_)" r="25.062"/><path d="m345.344 147.625c-6.327.067-12.544.591-18.622 1.535 52.24 8.112 94.142 47.48 105.988 98.387-1.867-.807-3.955-1.199-6.152-1.045-6.627.464-11.989 6.023-12.221 12.662-.262 7.487 5.73 13.638 13.158 13.638.979 0 1.934-.107 2.852-.31 2.909-.642 5.725 1.436 5.727 4.415v.072c0 64.639-47.409 118.201-109.352 127.82 6.522 1.013 13.204 1.542 20.01 1.542 71.445 0 129.362-57.917 129.362-129.362 0-71.236-59.517-130.107-130.75-129.354z" fill="url(#SVGID_15_)"/></g><g><path d="m376.656 510h-257.283c-19.707 0-37.126-13.332-43-32.911l-27.483-91.606c-3.418-11.394 4.76-22.97 16.229-22.97h365.792c11.468 0 19.647 11.576 16.229 22.97l-27.483 91.606c-5.874 19.579-23.294 32.911-43.001 32.911z" fill="url(#SVGID_16_)"/><path d="m447.144 385.48-27.49 91.61c-5.87 19.58-23.29 32.91-43 32.91h-40.02c19.71 0 37.13-13.33 43-32.91l7.427-24.755c7.238-24.125-10.827-48.405-36.014-48.405h-296.621l-5.54-18.45c-.66-2.21-.89-4.43-.73-6.56.62-8.89 7.73-16.41 16.96-16.41h365.799c11.459 0 19.639 11.58 16.229 22.97z" fill="url(#SVGID_17_)"/><path d="m445.424 353.918h-394.818c-6.903 0-12.5 5.597-12.5 12.5s5.597 12.5 12.5 12.5h394.819c6.903 0 12.5-5.597 12.5-12.5s-5.598-12.5-12.501-12.5z" fill="url(#SVGID_18_)"/></g></g></svg>