<svg id="Capa_1" enable-background="new 0 0 510 510" height="512" viewBox="0 0 510 510" width="512" xmlns="http://www.w3.org/2000/svg" xmlns:xlink="http://www.w3.org/1999/xlink"><linearGradient id="lg1"><stop offset="0" stop-color="#f8f6f7"/><stop offset="1" stop-color="#d1ceeb"/></linearGradient><linearGradient id="SVGID_1_" gradientUnits="userSpaceOnUse" x1="292.325" x2="497.244" xlink:href="#lg1" y1="319.835" y2="319.835"/><linearGradient id="SVGID_2_" gradientUnits="userSpaceOnUse" x1="52.337" x2="455.434" xlink:href="#lg1" y1="320.945" y2="320.945"/><linearGradient id="lg2"><stop offset="0" stop-color="#f8f6f7"/><stop offset=".1788" stop-color="#f8f6f7"/><stop offset="1" stop-color="#e7e6f5"/></linearGradient><linearGradient id="SVGID_3_" gradientUnits="userSpaceOnUse" x1="40.146" x2="413.348" xlink:href="#lg2" y1="255" y2="255"/><linearGradient id="SVGID_4_" gradientUnits="userSpaceOnUse" x1="-109.655" x2="311.407" xlink:href="#lg2" y1="255" y2="255"/><linearGradient id="lg3"><stop offset="0" stop-color="#537983"/><stop offset=".593" stop-color="#554e56"/><stop offset="1" stop-color="#433f43"/></linearGradient><linearGradient id="SVGID_5_" gradientUnits="userSpaceOnUse" x1="27.71" x2="328.75" xlink:href="#lg3" y1="367.725" y2="367.725"/><linearGradient id="SVGID_6_" gradientUnits="userSpaceOnUse" x1="27.71" x2="328.75" xlink:href="#lg3" y1="210.573" y2="210.573"/><linearGradient id="SVGID_7_" gradientUnits="userSpaceOnUse" x1="27.71" x2="328.75" xlink:href="#lg3" y1="134.39" y2="134.39"/><linearGradient id="SVGID_8_" gradientUnits="userSpaceOnUse" x1="27.71" x2="328.75" xlink:href="#lg3" y1="362.937" y2="362.937"/><linearGradient id="SVGID_9_" gradientUnits="userSpaceOnUse" x1="27.71" x2="328.75" xlink:href="#lg3" y1="286.755" y2="286.755"/><linearGradient id="SVGID_10_" gradientUnits="userSpaceOnUse" x1="27.71" x2="328.75" xlink:href="#lg3" y1="439.119" y2="439.119"/><linearGradient id="SVGID_11_" gradientUnits="userSpaceOnUse" x1="53.202" x2="284.483" xlink:href="#lg3" y1="68.25" y2="68.25"/><g><path d="m403.106 510h-216.756v-370.037c0-6.357 7.69-9.737 12.227-5.284.034.034.069.068.103.102 3.41 3.4 7.87 5.11 12.33 5.11 4.47 0 8.94-1.71 12.34-5.11s7.87-5.11 12.33-5.11 8.93 1.71 12.33 5.11c3.41 3.4 7.88 5.11 12.34 5.11s8.92-1.71 12.33-5.11 7.87-5.11 12.33-5.11c4.47 0 8.94 1.71 12.34 5.11s7.87 5.11 12.33 5.11 8.93-1.71 12.33-5.11c3.41-3.4 7.88-5.11 12.34-5.11s8.92 1.71 12.33 5.11 7.87 5.11 12.33 5.11c4.47 0 8.94-1.71 12.34-5.11s7.87-5.11 12.33-5.11 8.93 1.71 12.33 5.11c3.41 3.4 7.88 5.11 12.34 5.11s8.92-1.71 12.33-5.11 7.87-5.11 12.33-5.11c4.47 0 8.94 1.71 12.34 5.11s7.87 5.11 12.33 5.11 8.93-1.71 12.33-5.11c.035-.035.071-.07.106-.105 4.536-4.46 12.234-1.083 12.234 5.278v290.803c0 43.764-35.479 79.243-79.244 79.243z" fill="url(#SVGID_1_)"/><path d="m441.516 131.889v298.866c0 43.765-35.479 79.244-79.244 79.244h40.834c43.765 0 79.244-35.479 79.244-79.244v-290.802c0-6.362-7.698-9.739-12.234-5.278-.035.035-.071.07-.106.105-3.4 3.4-7.87 5.11-12.33 5.11s-8.685-1.975-12.33-5.11c-2.19-2.178-3.834-2.891-3.834-2.891z" fill="url(#SVGID_2_)"/><path d="m323.65 430.756c0 43.765 35.479 79.244 79.244 79.244h-311.456c-35.229 0-63.788-28.559-63.788-63.788v-435.939c0-6.362 7.704-9.736 12.234-5.269.035.035.071.07.106.105 3.4 3.41 7.87 5.11 12.33 5.11 4.47 0 8.93-1.7 12.34-5.11 3.41-3.409 7.87-5.109 12.33-5.109s8.92 1.7 12.33 5.11 7.87 5.11 12.33 5.11c4.47 0 8.94-1.7 12.34-5.11s7.87-5.11 12.33-5.11c4.47 0 8.93 1.7 12.34 5.11s7.87 5.11 12.33 5.11 8.92-1.7 12.33-5.11 7.87-5.11 12.33-5.11c4.47 0 8.94 1.7 12.34 5.11s7.87 5.11 12.33 5.11c4.47 0 8.93-1.7 12.34-5.11s7.87-5.11 12.33-5.11 8.92 1.7 12.33 5.11 7.87 5.11 12.33 5.11c4.47 0 8.94-1.7 12.34-5.11s7.87-5.11 12.33-5.11c4.47 0 8.93 1.7 12.34 5.11s7.87 5.11 12.33 5.11 8.92-1.7 12.33-5.11c.034-.034.068-.068.103-.102 4.532-4.459 12.227-1.083 12.227 5.275z" fill="url(#SVGID_3_)"/><path d="m323.65 430.756v-420.473c0-6.358-7.695-9.734-12.227-5.275-.034.034-.068.068-.103.102-3.41 3.41-7.87 5.11-12.33 5.11s-8.92-1.7-12.33-5.11-7.87-5.11-12.34-5.11c-4.46 0-8.93 1.7-12.33 5.11-2.311 2.317-5.119 3.825-8.083 4.567 1.394.349 2.82.543 4.249.543 4.46 0 8.92-1.7 12.33-5.11.034-.034.068-.068.103-.102 4.532-4.459 12.227-1.083 12.227 5.275v420.473c0 43.765 35.479 79.244 79.244 79.244h40.834c-43.765 0-79.244-35.479-79.244-79.244z" fill="url(#SVGID_4_)"/><g><path d="m115.306 350.326v-31.75c14.136 1.088 18.268 8.047 25.444 8.047 9.569 0 13.483-11.961 13.483-17.833 0-15.005-25.444-18.485-38.927-18.919v-5.438c0-3.045-4.132-5.871-8.264-5.871-4.784 0-8.264 2.826-8.264 5.871v6.09c-23.052 3.262-43.494 16.527-43.494 44.146 0 27.836 23.486 37.187 43.494 44.798v35.23c-16.093-2.827-23.487-15.658-32.621-15.658-8.264 0-14.788 10.873-14.788 18.268 0 13.918 21.312 27.4 47.408 28.271v5.436c0 3.045 3.479 5.873 8.264 5.873 4.132 0 8.264-2.828 8.264-5.873v-6.307c25.444-4.131 42.841-20.441 42.841-47.407.001-29.358-23.051-39.579-42.84-46.974zm-14.353-5.218c-8.264-3.479-13.918-7.395-13.918-13.701 0-5.219 4.132-10.221 13.918-12.178zm12.178 69.372v-29.141c7.829 3.696 13.265 8.264 13.265 15.44 0 7.829-5.871 11.961-13.265 13.701z" fill="url(#SVGID_5_)"/><path d="m300.184 192.804h-243.288c-3.052 0-5.526 2.626-5.526 5.865v23.806c0 3.239 2.474 5.865 5.526 5.865h243.289c3.052 0 5.526-2.626 5.526-5.865v-23.806c-.001-3.239-2.475-5.865-5.527-5.865z" fill="url(#SVGID_6_)"/><path d="m56.896 152.158h136.19c3.052 0 5.526-2.626 5.526-5.865v-23.806c0-3.239-2.474-5.865-5.526-5.865h-136.19c-3.052 0-5.526 2.626-5.526 5.865v23.806c0 3.239 2.474 5.865 5.526 5.865z" fill="url(#SVGID_7_)"/><path d="m300.184 345.169h-116.118c-3.052 0-5.526 2.626-5.526 5.865v23.806c0 3.239 2.474 5.865 5.526 5.865h116.119c3.052 0 5.526-2.626 5.526-5.865v-23.806c-.001-3.24-2.475-5.865-5.527-5.865z" fill="url(#SVGID_8_)"/><path d="m300.184 268.987h-116.118c-3.052 0-5.526 2.626-5.526 5.865v23.806c0 3.239 2.474 5.865 5.526 5.865h116.119c3.052 0 5.526-2.626 5.526-5.865v-23.806c-.001-3.24-2.475-5.865-5.527-5.865z" fill="url(#SVGID_9_)"/><path d="m300.184 421.351h-116.118c-3.052 0-5.526 2.626-5.526 5.865v23.806c0 3.239 2.474 5.865 5.526 5.865h116.119c3.052 0 5.526-2.626 5.526-5.865v-23.806c-.001-3.239-2.475-5.865-5.527-5.865z" fill="url(#SVGID_10_)"/></g><path d="m303.777 55.75h-250.474c-6.903 0-12.5 5.597-12.5 12.5s5.597 12.5 12.5 12.5h250.473c6.903 0 12.5-5.597 12.5-12.5s-5.596-12.5-12.499-12.5z" fill="url(#SVGID_11_)"/></g></svg>