<svg id="Capa_1" enable-background="new 0 0 510 510" height="512" viewBox="0 0 510 510" width="512" xmlns="http://www.w3.org/2000/svg" xmlns:xlink="http://www.w3.org/1999/xlink"><linearGradient id="lg1"><stop offset="0" stop-color="#ffdcbd"/><stop offset=".0028" stop-color="#ffdcbd"/><stop offset="1" stop-color="#ffa9b1"/></linearGradient><linearGradient id="SVGID_1_" gradientUnits="userSpaceOnUse" x1="84" x2="389.68" xlink:href="#lg1" y1="160.585" y2="160.585"/><linearGradient id="SVGID_2_" gradientUnits="userSpaceOnUse" x1="94" x2="507.241" xlink:href="#lg1" y1="190.979" y2="190.979"/><linearGradient id="lg2"><stop offset="0" stop-color="#fe646f"/><stop offset=".593" stop-color="#fb2b3a"/><stop offset="1" stop-color="#c41926"/></linearGradient><linearGradient id="SVGID_3_" gradientUnits="userSpaceOnUse" x1="308.307" x2="426.461" xlink:href="#lg2" y1="196.911" y2="196.911"/><linearGradient id="SVGID_4_" gradientUnits="userSpaceOnUse" x1="260.95" x2="400.982" xlink:href="#lg2" y1="196.911" y2="196.911"/><linearGradient id="SVGID_5_" gradientUnits="userSpaceOnUse" x1="37.128" x2="619.021" y1="223.734" y2="223.734"><stop offset="0" stop-color="#f8f6f7"/><stop offset=".1788" stop-color="#f8f6f7"/><stop offset="1" stop-color="#e7e6f5"/></linearGradient><linearGradient id="lg3"><stop offset="0" stop-color="#f8f6f7"/><stop offset="1" stop-color="#d1ceeb"/></linearGradient><linearGradient id="SVGID_6_" gradientUnits="userSpaceOnUse" x1="109" x2="515.687" xlink:href="#lg3" y1="220.071" y2="220.071"/><linearGradient id="SVGID_7_" gradientUnits="userSpaceOnUse" x1="109" x2="515.687" xlink:href="#lg3" y1="216.805" y2="216.805"/><linearGradient id="SVGID_8_" gradientUnits="userSpaceOnUse" x1="109" x2="515.687" xlink:href="#lg3" y1="172.772" y2="172.772"/><linearGradient id="SVGID_9_" gradientUnits="userSpaceOnUse" x1="109" x2="515.687" xlink:href="#lg3" y1="230.341" y2="230.341"/><linearGradient id="SVGID_10_" gradientUnits="userSpaceOnUse" x1="78.003" x2="196.156" xlink:href="#lg2" y1="243.555" y2="243.555"/><linearGradient id="SVGID_11_" gradientUnits="userSpaceOnUse" x1="30.646" x2="170.678" xlink:href="#lg2" y1="243.555" y2="243.555"/><linearGradient id="SVGID_12_" gradientUnits="userSpaceOnUse" x1="268" x2="408.698" y1="223.808" y2="223.808"><stop offset="0" stop-color="#a2e62e"/><stop offset=".5857" stop-color="#81b823"/><stop offset="1" stop-color="#037e73"/></linearGradient><linearGradient id="SVGID_13_" gradientUnits="userSpaceOnUse" x1="193" x2="262.354" y1="238.636" y2="238.636"><stop offset="0" stop-color="#fef056"/><stop offset=".5213" stop-color="#fbc56d"/><stop offset="1" stop-color="#c86d36"/></linearGradient><linearGradient id="lg4"><stop offset="0" stop-color="#60b7ff"/><stop offset=".5857" stop-color="#0182fc"/><stop offset="1" stop-color="#2740b0"/></linearGradient><linearGradient id="SVGID_14_" gradientUnits="userSpaceOnUse" x1="104" x2="471.576" xlink:href="#lg4" y1="374.318" y2="374.318"/><linearGradient id="SVGID_15_" gradientUnits="userSpaceOnUse" x1="-5.005" x2="445.997" xlink:href="#lg4" y1="374.32" y2="374.32"/><linearGradient id="SVGID_16_" gradientUnits="userSpaceOnUse" x1="-355.379" x2="459.135" xlink:href="#lg4" y1="374.318" y2="374.318"/><linearGradient id="SVGID_17_" gradientUnits="userSpaceOnUse" x1="-232.385" x2="355.404" xlink:href="#lg4" y1="374.32" y2="374.32"/><linearGradient id="SVGID_18_" gradientUnits="userSpaceOnUse" x1="-119.891" x2="528.885" xlink:href="#lg4" y1="302.272" y2="302.272"/><linearGradient id="SVGID_19_" gradientUnits="userSpaceOnUse" x1="61.497" x2="514.605" xlink:href="#lg4" y1="302.272" y2="302.272"/><linearGradient id="SVGID_20_" gradientUnits="userSpaceOnUse" x1="191" x2="436.717" xlink:href="#lg4" y1="302.272" y2="302.272"/><linearGradient id="SVGID_21_" gradientUnits="userSpaceOnUse" x1="29.501" x2="359.448" xlink:href="#lg4" y1="302.272" y2="302.272"/><g><path d="m109.799 317.268 239.755-300.431c3.572-4.476 2.839-11-1.637-14.572s-11-2.839-14.572 1.637l-239.755 300.431c-3.572 4.476-2.839 11 1.637 14.573 4.476 3.571 11 2.839 14.572-1.638z" fill="url(#SVGID_1_)"/><path d="m141.429 318.366 301.42-238.511c4.491-3.554 5.251-10.075 1.697-14.566s-10.075-5.251-14.566-1.697l-301.42 238.511c-4.491 3.554-5.251 10.075-1.697 14.566 3.554 4.49 10.075 5.25 14.566 1.697z" fill="url(#SVGID_2_)"/><g><circle cx="354.95" cy="196.911" fill="url(#SVGID_3_)" r="46.643"/><path d="m354.95 150.268c-4.334 0-8.524.604-12.505 1.709 19.685 5.468 34.138 23.507 34.138 44.934s-14.453 39.466-34.138 44.934c3.981 1.106 8.172 1.709 12.505 1.709 25.76 0 46.643-20.883 46.643-46.643.001-25.76-20.882-46.643-46.643-46.643z" fill="url(#SVGID_4_)"/></g><g><path d="m396.398 175.435c-18.988 0-35.738 9.56-45.716 24.124-12.833-14.771-31.741-24.124-52.844-24.124-7.277 0-14.294 1.112-20.892 3.173-11.822-27.393-39.07-46.568-70.801-46.568-32.144 0-59.687 19.677-71.254 47.641-6.554-2.732-13.743-4.246-21.288-4.246-30.588 0-55.384 24.796-55.384 55.384s24.796 55.385 55.384 55.385c16.688 0 31.64-7.391 41.794-19.066 13.559 11.87 31.312 19.066 50.748 19.066 10.927 0 21.32-2.279 30.738-6.379 12.016 21.249 34.803 35.602 60.956 35.602 28.477 0 52.965-17.016 63.897-41.426 9.491 7.628 21.54 12.203 34.664 12.203 30.588 0 55.384-24.796 55.384-55.385s-24.798-55.384-55.386-55.384z" fill="url(#SVGID_5_)"/><g><path d="m262.114 208.376c-6.459-3.34-14.403-.812-17.744 5.647-3.34 6.459-.812 14.403 5.647 17.743s14.403.812 17.744-5.647c3.34-6.459.812-14.403-5.647-17.743z" fill="url(#SVGID_6_)"/><circle cx="156.934" cy="216.805" fill="url(#SVGID_7_)" r="25.062"/><path d="m297.838 175.435c-7.277 0-14.294 1.112-20.892 3.173-11.822-27.393-39.07-46.568-70.801-46.568-22.73 0-43.152 9.848-57.259 25.499 7.115-2.168 14.664-3.342 22.488-3.342 7.599 0 14.941 1.102 21.876 3.151-.087.153-.183.296-.264.453-3.34 6.459-.812 14.403 5.647 17.744s14.403.812 17.744-5.647c.153-.296.281-.598.409-.9 7.363 5.379 13.741 12.027 18.801 19.63 4.448 6.684 12.31 10.143 20.297 9.328 2.362-.241 4.759-.365 7.185-.365 14.537 0 28.031 4.438 39.217 12.027 7.772 5.273 18.093 5.243 25.526-.498 6.43-4.965 13.981-8.548 22.21-10.304-12.819-14.338-31.438-23.381-52.184-23.381z" fill="url(#SVGID_8_)"/><path d="m396.398 175.435c-18.539 0-34.941 9.116-44.994 23.102 3.313-.619 6.73-.945 10.223-.945 30.588 0 55.385 24.796 55.385 55.385 0 12.044-3.857 23.18-10.385 32.269 25.699-4.801 45.155-27.334 45.155-54.426 0-30.588-24.796-55.385-55.384-55.385z" fill="url(#SVGID_9_)"/></g></g><g><circle cx="124.646" cy="243.555" fill="url(#SVGID_10_)" r="46.643"/><path d="m124.646 196.911c-4.334 0-8.524.604-12.505 1.709 19.685 5.468 34.138 23.507 34.138 44.934s-14.453 39.466-34.138 44.934c3.981 1.106 8.172 1.709 12.505 1.709 25.76 0 46.643-20.883 46.643-46.643s-20.883-46.643-46.643-46.643z" fill="url(#SVGID_11_)"/></g><path d="m394.456 233.848c-3.404-6.006-11.033-8.115-17.039-4.71-9.559 5.419-21.38 5.33-30.849-.232-9.468-5.562-15.302-15.843-15.225-26.832.049-6.903-5.507-12.541-12.412-12.587-6.903-.049-12.539 5.508-12.587 12.412-.14 19.887 10.421 38.496 27.563 48.564 17.142 10.069 38.538 10.231 55.84.424 6.005-3.405 8.114-11.033 4.709-17.039z" fill="url(#SVGID_12_)"/><path d="m212.358 194.8c-4.561-5.181-12.46-5.684-17.642-1.123-5.182 4.562-5.685 12.46-1.123 17.642 7.261 8.248 9.594 19.836 6.088 30.243-3.506 10.406-12.375 18.221-23.147 20.395-6.766 1.365-11.148 7.958-9.78 14.725 1.365 6.767 7.958 11.146 14.726 9.78 19.494-3.933 35.547-18.08 41.894-36.919 6.346-18.839 2.125-39.816-11.016-54.743z" fill="url(#SVGID_13_)"/><g><path d="m388.091 510h-266.181c-8.497 0-15.749-6.144-17.145-14.526l-39.395-236.602c-1.764-10.593 6.406-20.236 17.145-20.236h344.971c10.739 0 18.909 9.642 17.145 20.236l-39.395 236.602c-1.396 8.382-8.648 14.526-17.145 14.526z" fill="url(#SVGID_14_)"/><path d="m444.63 258.87-39.39 236.6c-1.4 8.39-8.65 14.53-17.15 14.53h-173.11v-216.81l-43.99 86.56c-3.48 6.85-10.51 11.17-18.2 11.17h-65.44l-21.18-127.27-.8-4.78c-1.76-10.59 6.41-20.23 17.14-20.23h344.98c10.74 0 18.9 9.64 17.14 20.23z" fill="url(#SVGID_15_)"/><path d="m427.486 238.636h-172.486v271.364h133.091c8.497 0 15.749-6.144 17.145-14.526l39.395-236.602c1.764-10.594-6.406-20.236-17.145-20.236z" fill="url(#SVGID_16_)"/><path d="m444.63 258.87-3.57 21.42-35.82 215.18c-1.4 8.39-8.65 14.53-17.15 14.53h-40.02c8.5 0 15.75-6.14 17.15-14.53l11.382-68.351c3.156-18.95-11.458-36.199-30.67-36.199h-38.742c-7.69 0-14.72-4.32-18.2-11.17l-33.99-66.89v-74.22h172.49c10.74 0 18.9 9.64 17.14 20.23z" fill="url(#SVGID_17_)"/><g><path d="m507.758 336.246-38.467-75.702c-6.83-13.441-20.629-21.908-35.706-21.908h-178.585l58.998 116.105c3.481 6.851 10.515 11.167 18.2 11.167h157.361c15.233 0 25.1-16.081 18.199-29.662z" fill="url(#SVGID_18_)"/><path d="m76.415 238.636c-15.077 0-28.876 8.467-35.706 21.908l-38.467 75.702c-6.901 13.581 2.966 29.663 18.2 29.663h157.361c7.685 0 14.719-4.316 18.2-11.167l58.997-116.106z" fill="url(#SVGID_19_)"/></g><path d="m507.758 336.246-38.467-75.702c-6.83-13.441-20.629-21.908-35.706-21.908h-40.02c15.077 0 28.876 8.467 35.706 21.908l38.467 75.702c6.901 13.581-2.966 29.663-18.2 29.663h40.02c15.234-.001 25.101-16.082 18.2-29.663z" fill="url(#SVGID_20_)"/><path d="m214.98 238.636-58.998 116.105c-3.481 6.851-10.515 11.167-18.2 11.167h40.02c7.685 0 14.719-4.316 18.2-11.167l58.998-116.105z" fill="url(#SVGID_21_)"/></g></g></svg>