<svg id="Capa_1" enable-background="new 0 0 510 510" height="512" viewBox="0 0 510 510" width="512" xmlns="http://www.w3.org/2000/svg" xmlns:xlink="http://www.w3.org/1999/xlink"><linearGradient id="lg1"><stop offset="0" stop-color="#537983"/><stop offset=".593" stop-color="#554e56"/><stop offset="1" stop-color="#433f43"/></linearGradient><linearGradient id="SVGID_1_" gradientUnits="userSpaceOnUse" x1="-68.42" x2="642.017" xlink:href="#lg1" y1="322.906" y2="322.906"/><linearGradient id="SVGID_2_" gradientUnits="userSpaceOnUse" x1="-100" x2="434.958" xlink:href="#lg1" y1="322.906" y2="322.906"/><linearGradient id="lg2"><stop offset="0" stop-color="#fe646f"/><stop offset=".593" stop-color="#fb2b3a"/><stop offset="1" stop-color="#c41926"/></linearGradient><linearGradient id="SVGID_3_" gradientUnits="userSpaceOnUse" x1="10.009" x2="678.011" xlink:href="#lg2" y1="461.851" y2="461.851"/><linearGradient id="SVGID_4_" gradientUnits="userSpaceOnUse" x1="29.627" x2="364.678" xlink:href="#lg2" y1="475.185" y2="475.185"/><linearGradient id="lg3"><stop offset="0" stop-color="#fef056"/><stop offset=".5213" stop-color="#f4d902"/><stop offset="1" stop-color="#fe9738"/></linearGradient><linearGradient id="SVGID_5_" gradientUnits="userSpaceOnUse" x1="166.667" x2="282.094" xlink:href="#lg3" y1="441.537" y2="441.537"/><linearGradient id="SVGID_6_" gradientUnits="userSpaceOnUse" x1="250" x2="369.453" xlink:href="#lg3" y1="441.537" y2="441.537"/><linearGradient id="lg4"><stop offset="0" stop-color="#ffdcbd"/><stop offset=".0028" stop-color="#ffdcbd"/><stop offset="1" stop-color="#ffa9b1"/></linearGradient><linearGradient id="SVGID_7_" gradientUnits="userSpaceOnUse" x1="206.531" x2="335.761" xlink:href="#lg4" y1="424" y2="424"/><linearGradient id="SVGID_8_" gradientUnits="userSpaceOnUse" x1="39.878" x2="128.173" xlink:href="#lg4" y1="258.981" y2="258.981"/><linearGradient id="SVGID_9_" gradientUnits="userSpaceOnUse" x1="359.993" x2="483.484" xlink:href="#lg4" y1="258.981" y2="258.981"/><linearGradient id="SVGID_10_" gradientUnits="userSpaceOnUse" x1="96.816" x2="413.184" xlink:href="#lg4" y1="239.631" y2="239.631"/><linearGradient id="SVGID_11_" gradientUnits="userSpaceOnUse" x1="234.99" x2="413.184" y1="239.631" y2="239.631"><stop offset="0" stop-color="#ffc2b5"/><stop offset="1" stop-color="#ff89a8"/></linearGradient><linearGradient id="SVGID_12_" gradientUnits="userSpaceOnUse" x1="120.239" x2="224.38" xlink:href="#lg1" y1="269.6" y2="269.6"/><linearGradient id="SVGID_13_" gradientUnits="userSpaceOnUse" x1="259.492" x2="360.441" xlink:href="#lg1" y1="269.6" y2="269.6"/><linearGradient id="SVGID_14_" gradientUnits="userSpaceOnUse" x1="196" x2="269.482" y1="360.347" y2="360.347"><stop offset="0" stop-color="#ffc2b5"/><stop offset=".2441" stop-color="#ffbbb3"/><stop offset=".6097" stop-color="#ffa6af"/><stop offset="1" stop-color="#ff89a8"/></linearGradient><linearGradient id="SVGID_15_" gradientUnits="userSpaceOnUse" x1="100.125" x2="446.409" xlink:href="#lg2" y1="84.267" y2="84.267"/><linearGradient id="SVGID_16_" gradientUnits="userSpaceOnUse" x1="-28.869" x2="418.602" xlink:href="#lg2" y1="84.267" y2="84.267"/><linearGradient id="SVGID_17_" gradientUnits="userSpaceOnUse" x1="65.627" x2="478.64" xlink:href="#lg3" y1="182.073" y2="182.073"/><linearGradient id="SVGID_18_" gradientUnits="userSpaceOnUse" x1="-97.865" x2="432.152" xlink:href="#lg3" y1="182.067" y2="182.067"/><linearGradient id="SVGID_19_" gradientUnits="userSpaceOnUse" x1="213.711" x2="321.47" xlink:href="#lg3" y1="101.291" y2="101.291"/><g><path d="m447.487 284.415c3.828-9.04 5.945-18.98 5.945-29.415 0-41.696-33.802-75.498-75.498-75.498h-245.869c-41.696 0-75.498 33.802-75.498 75.498 0 10.435 2.118 20.375 5.945 29.415-33.958 14.383-57.782 48.018-57.782 87.218 0 52.289 42.389 94.677 94.677 94.677h311.183c52.289 0 94.677-42.388 94.677-94.677.002-39.2-23.822-72.835-57.78-87.218z" fill="url(#SVGID_1_)"/><path d="m447.487 284.415c3.828-9.04 5.945-18.98 5.945-29.415 0-41.696-33.802-75.498-75.498-75.498h-40.02c41.696 0 75.498 33.802 75.498 75.498 0 10.435-2.118 20.375-5.945 29.415 33.958 14.383 57.782 48.018 57.782 87.218 0 52.289-42.389 94.677-94.677 94.677h40.02c52.289 0 94.677-42.388 94.677-94.677 0-39.2-23.824-72.835-57.782-87.218z" fill="url(#SVGID_2_)"/><g><g><path d="m483.247 510c28.016 0 37.138-37.644 12.223-50.457-54.017-27.78-141.601-45.84-240.47-45.84s-186.454 18.06-240.47 45.84c-24.915 12.813-15.794 50.457 12.223 50.457z" fill="url(#SVGID_3_)"/><path d="m495.47 459.543c-13.741-7.067-29.665-13.501-47.384-19.172 2.511 1.528 4.982 3.072 7.364 4.65 24.915 16.5 15.794 64.979-12.223 64.979h40.02c28.017 0 37.138-37.644 12.223-50.457z" fill="url(#SVGID_4_)"/></g><g><path d="m255 456-57.786 28.452c-6.216 3.06-13.735.485-16.769-5.744l-14.116-28.979c-4.585-9.412-2.694-20.697 4.71-28.1l24.295-24.295h59.666z" fill="url(#SVGID_5_)"/><path d="m255 456 57.786 28.452c6.216 3.06 13.735.485 16.769-5.744l14.116-28.979c4.585-9.412 2.694-20.697-4.71-28.1l-24.295-24.295h-59.666z" fill="url(#SVGID_6_)"/></g><path d="m261.514 456h-13.027c-23.741 0-42.986-19.246-42.986-42.986v-21.014h99v21.014c-.001 23.74-19.247 42.986-42.987 42.986z" fill="url(#SVGID_7_)"/><g><path d="m116.15 298.961h-13.874c-19.095 0-34.575-15.48-34.575-34.575v-10.811c0-19.095 15.48-34.575 34.575-34.575h13.874c4.884 0 8.843 3.959 8.843 8.843v62.274c0 4.885-3.959 8.844-8.843 8.844z" fill="url(#SVGID_8_)"/><path d="m393.85 298.961h13.874c19.095 0 34.575-15.48 34.575-34.575v-10.811c0-19.095-15.48-34.575-34.575-34.575h-13.874c-4.884 0-8.843 3.959-8.843 8.843v62.274c0 4.885 3.959 8.844 8.843 8.844z" fill="url(#SVGID_9_)"/></g><g><path d="m255 420.69c-87.363 0-158.184-70.821-158.184-158.184v-45.751c0-87.363 70.821-158.184 158.184-158.184s158.184 70.821 158.184 158.184v45.751c0 87.363-70.821 158.184-158.184 158.184z" fill="url(#SVGID_10_)"/><path d="m255 58.571c-6.779 0-13.457.428-20.01 1.255 77.915 9.835 138.174 76.344 138.174 156.929v45.751c0 80.584-60.259 147.093-138.174 156.929 6.554.827 13.232 1.255 20.01 1.255 87.363 0 158.184-70.821 158.184-158.184v-45.751c0-87.363-70.821-158.184-158.184-158.184z" fill="url(#SVGID_11_)"/><g><path d="m185.946 290.57c-18.059 0-32.752-14.692-32.752-32.751 0-5.074 4.114-9.188 9.188-9.188s9.188 4.114 9.188 9.188c0 7.926 6.449 14.375 14.375 14.375s14.375-6.449 14.375-14.375c0-5.074 4.114-9.188 9.188-9.188s9.188 4.114 9.188 9.188c.001 18.059-14.691 32.751-32.75 32.751z" fill="url(#SVGID_12_)"/><path d="m324.054 290.57c-18.059 0-32.751-14.692-32.751-32.751 0-5.074 4.114-9.188 9.188-9.188s9.188 4.114 9.188 9.188c0 7.926 6.449 14.375 14.375 14.375 7.927 0 14.375-6.449 14.375-14.375 0-5.074 4.114-9.188 9.188-9.188s9.188 4.114 9.188 9.188c.001 18.059-14.691 32.751-32.751 32.751z" fill="url(#SVGID_13_)"/></g></g><path d="m255 377.492c-16.543 0-32.568-7.74-45.121-21.794-2.76-3.089-2.492-7.83.597-10.589 3.088-2.759 7.83-2.493 10.589.597 9.81 10.981 21.544 16.786 33.935 16.786s24.125-5.805 33.935-16.786c2.759-3.09 7.501-3.356 10.589-.597 3.089 2.759 3.357 7.5.597 10.589-12.553 14.055-28.578 21.794-45.121 21.794z" fill="url(#SVGID_14_)"/><path d="m416.893 168.533h-323.787v-38.946c0-71.569 58.018-129.587 129.587-129.587h64.612c71.569 0 129.588 58.018 129.588 129.588z" fill="url(#SVGID_15_)"/><path d="m287.306 0h-40.02c71.569 0 129.588 58.018 129.588 129.587v38.946h40.02v-38.946c-.001-71.569-58.019-129.587-129.588-129.587z" fill="url(#SVGID_16_)"/><path d="m443.51 159.649c-9.303-6.723-18.164-13.128-26.616-19.237-99.549 24.432-224.239 24.432-323.787 0-8.452 6.108-17.313 12.513-26.615 19.236-18.526 13.39-12.042 40.812 10.759 45.791 111.792 24.412 244.002 24.394 355.762-.057 22.675-4.962 28.924-32.415 10.497-45.733z" fill="url(#SVGID_17_)"/><path d="m443.51 159.649c-9.303-6.723-18.164-13.128-26.616-19.237-10.039 2.464-20.343 4.667-30.842 6.633 5.641 4.077 11.438 8.267 17.438 12.604 18.427 13.318 12.179 40.771-10.497 45.733-49.818 10.899-103.7 16.93-158.024 18.12 67.656 1.486 136.001-4.546 198.044-18.12 22.675-4.962 28.924-32.415 10.497-45.733z" fill="url(#SVGID_18_)"/><g><circle cx="255" cy="101.291" fill="url(#SVGID_19_)" r="43.333"/></g></g></g></svg>