<svg id="Capa_1" enable-background="new 0 0 510 510" height="512" viewBox="0 0 510 510" width="512" xmlns="http://www.w3.org/2000/svg" xmlns:xlink="http://www.w3.org/1999/xlink"><linearGradient id="lg1"><stop offset="0" stop-color="#fef056"/><stop offset=".5213" stop-color="#fbc56d"/><stop offset="1" stop-color="#c86d36"/></linearGradient><linearGradient id="SVGID_1_" gradientUnits="userSpaceOnUse" x1="16.983" x2="618.008" xlink:href="#lg1" y1="255" y2="255"/><linearGradient id="SVGID_2_" gradientUnits="userSpaceOnUse" x1="-98.892" x2="456.269" xlink:href="#lg1" y1="280.011" y2="280.011"/><linearGradient id="SVGID_3_" gradientUnits="userSpaceOnUse" x1="160" x2="524.445" xlink:href="#lg1" y1="255" y2="255"/><linearGradient id="SVGID_4_" gradientUnits="userSpaceOnUse" x1="-158" x2="519.702" xlink:href="#lg1" y1="138.852" y2="138.852"/><linearGradient id="SVGID_6_" gradientUnits="userSpaceOnUse" x1="-158" x2="519.702" xlink:href="#lg1" y1="371.148" y2="371.148"/><linearGradient id="SVGID_8_" gradientUnits="userSpaceOnUse" x1="-254" x2="449.728" xlink:href="#lg1" y1="138.855" y2="138.855"/><linearGradient id="SVGID_10_" gradientUnits="userSpaceOnUse" x1="-254" x2="449.728" xlink:href="#lg1" y1="371.145" y2="371.145"/><linearGradient id="lg2"><stop offset="0" stop-color="#ffdcbd"/><stop offset=".0028" stop-color="#ffdcbd"/><stop offset="1" stop-color="#ffa9b1"/></linearGradient><linearGradient id="SVGID_12_" gradientUnits="userSpaceOnUse" x1="161.521" x2="431.425" xlink:href="#lg2" y1="255" y2="255"/><linearGradient id="SVGID_13_" gradientUnits="userSpaceOnUse" x1="-77.893" x2="320.833" xlink:href="#lg2" y1="138.053" y2="138.053"/><linearGradient id="SVGID_14_" gradientUnits="userSpaceOnUse" x1="-77.893" x2="320.833" xlink:href="#lg2" y1="259.402" y2="259.402"/><g><path d="m476.715 510h-443.43c-18.383 0-33.285-14.902-33.285-33.285v-443.43c0-18.383 14.902-33.285 33.285-33.285h443.43c18.383 0 33.285 14.902 33.285 33.285v443.43c0 18.383-14.902 33.285-33.285 33.285z" fill="url(#SVGID_1_)"/><path d="m361.726 231.791c-.23-37.14-30.342-67.788-67.473-68.637-10.006-.229-19.542 1.671-28.188 5.277-12.863 5.365-27.56 4.216-39.638-2.74-13.282-7.65-28.809-11.836-45.356-11.315-44.975 1.415-81.504 38.062-82.784 83.041-.384 13.481 2.36 26.278 7.551 37.731 5.009 11.049 5.483 23.636.801 34.827-3.613 8.637-5.523 18.164-5.305 28.162.787 36.134 29.821 65.878 65.927 67.483 18.22.81 34.963-5.445 47.733-16.252 8.873-7.509 20.247-11.173 31.845-10.393 2.64.178 5.328.178 8.053-.009 28.11-1.938 51-24.281 53.615-52.336.058-.621.106-1.24.144-1.858.872-14.094 8.967-26.595 20.898-34.147 19.452-12.315 32.33-34.071 32.177-58.834z" fill="url(#SVGID_2_)"/><path d="m476.715 0h-40.02c18.383 0 33.285 14.902 33.285 33.285v443.43c0 18.383-14.902 33.285-33.285 33.285h40.02c18.383 0 33.285-14.902 33.285-33.285v-443.43c0-18.383-14.902-33.285-33.285-33.285z" fill="url(#SVGID_3_)"/><g><path d="m195.265 54.297h-111.048c-16.033 0-29.031 12.998-29.031 29.031v111.048c0 16.033 12.998 29.031 29.031 29.031h111.048c16.033 0 29.031-12.998 29.031-29.031v-111.048c0-16.033-12.998-29.031-29.031-29.031z" fill="url(#SVGID_4_)"/><path d="m425.783 54.297h-111.048c-16.033 0-29.031 12.998-29.031 29.031v111.048c0 16.033 12.998 29.031 29.031 29.031h111.048c16.033 0 29.031-12.998 29.031-29.031v-111.048c0-16.033-12.997-29.031-29.031-29.031z" fill="url(#SVGID_4_)"/><g fill="url(#SVGID_6_)"><path d="m195.265 286.593h-111.048c-16.033 0-29.031 12.998-29.031 29.031v111.048c0 16.033 12.998 29.031 29.031 29.031h111.048c16.033 0 29.031-12.998 29.031-29.031v-111.048c0-16.034-12.998-29.031-29.031-29.031z"/><path d="m425.783 286.593h-111.048c-16.033 0-29.031 12.998-29.031 29.031v111.048c0 16.033 12.998 29.031 29.031 29.031h111.048c16.033 0 29.031-12.998 29.031-29.031v-111.048c0-16.034-12.997-29.031-29.031-29.031z"/></g></g><g><path d="m195.26 54.3h-40.02c16.04 0 29.04 12.99 29.04 29.03v70.967c-1.039.022-2.102.049-3.21.083-40.2 1.26-73.65 30.68-81.21 69.03h55.38 40.02c16.04 0 29.04-13 29.04-29.03v-111.05c0-16.04-13-29.03-29.04-29.03z" fill="url(#SVGID_8_)"/><path d="m425.78 54.3h-40.02c16.04 0 29.03 12.99 29.03 29.03v111.05c0 16.03-12.99 29.03-29.03 29.03h40.02c16.04 0 29.03-13 29.03-29.03v-111.05c0-16.04-12.99-29.03-29.03-29.03z" fill="url(#SVGID_8_)"/><g fill="url(#SVGID_10_)"><path d="m195.26 286.59h-85.95c1.28 7.83.45 15.92-2.67 23.38-3.61 8.64-5.52 18.17-5.31 28.17.79 36.13 29.82 65.88 65.93 67.48 5.855.26 11.553-.218 17.02-1.334v22.384c0 16.04-13 29.03-29.04 29.03h40.02c16.04 0 29.04-12.99 29.04-29.03v-111.05c0-16.03-13-29.03-29.04-29.03z"/><path d="m425.78 286.59h-40.02c16.04 0 29.03 13 29.03 29.03v111.05c0 16.04-12.99 29.03-29.03 29.03h40.02c16.04 0 29.03-12.99 29.03-29.03v-111.05c0-16.03-12.99-29.03-29.03-29.03z"/></g></g><path d="m386.737 206.78c-.23-37.14-30.342-67.788-67.473-68.637-10.006-.229-19.542 1.671-28.188 5.277-12.863 5.365-27.56 4.216-39.638-2.74-13.282-7.65-28.809-11.836-45.356-11.315-44.975 1.415-81.504 38.062-82.784 83.041-.384 13.481 2.36 26.278 7.551 37.731 5.009 11.049 5.483 23.636.801 34.827-3.613 8.637-5.523 18.164-5.305 28.162.787 36.134 29.821 65.878 65.927 67.483 18.22.81 34.963-5.445 47.733-16.252 8.873-7.509 20.247-11.173 31.845-10.393 2.64.178 5.328.178 8.053-.01 28.11-1.938 51-24.281 53.615-52.336.058-.621.106-1.24.144-1.858.872-14.094 8.967-26.595 20.898-34.147 19.452-12.314 32.33-34.07 32.177-58.833z" fill="url(#SVGID_12_)"/><g><path d="m251.055 143.42c1.061-.443 2.136-.858 3.223-1.248-.959-.467-1.91-.956-2.841-1.491-13.282-7.65-28.809-11.836-45.356-11.315-5.907.186-11.662.994-17.216 2.334 8.015 1.928 15.594 4.973 22.553 8.981 12.077 6.955 26.775 8.104 39.637 2.739z" fill="url(#SVGID_13_)"/><path d="m319.264 138.143c-7.565-.173-14.86.875-21.707 2.953 28.236 8.588 48.97 34.896 49.16 65.684.153 24.763-12.725 46.519-32.177 58.833-11.931 7.552-20.026 20.053-20.898 34.147-.038.617-.086 1.237-.144 1.858-2.616 28.055-25.505 50.398-53.615 52.336-2.725.188-5.413.187-8.053.01-11.598-.78-22.972 2.884-31.845 10.393-7.096 6.005-15.421 10.598-24.542 13.361 5.368 1.632 11.004 2.633 16.829 2.892 18.22.809 34.963-5.446 47.733-16.252 8.873-7.509 20.247-11.173 31.845-10.393 2.64.177 5.328.178 8.053-.01 28.11-1.938 51-24.281 53.615-52.336.058-.621.106-1.24.144-1.858.872-14.094 8.967-26.595 20.898-34.147 19.452-12.314 32.33-34.07 32.177-58.833-.23-37.141-30.342-67.789-67.473-68.638z" fill="url(#SVGID_14_)"/></g></g></svg>