<svg id="Capa_1" enable-background="new 0 0 510 510" height="512" viewBox="0 0 510 510" width="512" xmlns="http://www.w3.org/2000/svg" xmlns:xlink="http://www.w3.org/1999/xlink"><linearGradient id="lg1"><stop offset="0" stop-color="#fe646f"/><stop offset=".593" stop-color="#fb2b3a"/><stop offset="1" stop-color="#c41926"/></linearGradient><linearGradient id="SVGID_1_" gradientUnits="userSpaceOnUse" x1="39.948" x2="534.001" xlink:href="#lg1" y1="255" y2="255"/><linearGradient id="SVGID_2_" gradientUnits="userSpaceOnUse" x1="-141" x2="385.165" xlink:href="#lg1" y1="225.297" y2="225.297"/><linearGradient id="SVGID_3_" gradientUnits="userSpaceOnUse" x1="-120" x2="452.126" xlink:href="#lg1" y1="254.991" y2="254.991"/><linearGradient id="lg2"><stop offset="0" stop-color="#fef056"/><stop offset=".5213" stop-color="#f4d902"/><stop offset="1" stop-color="#fe9738"/></linearGradient><linearGradient id="SVGID_4_" gradientUnits="userSpaceOnUse" x1="90.178" x2="533.641" xlink:href="#lg2" y1="200.286" y2="200.286"/><linearGradient id="SVGID_5_" gradientUnits="userSpaceOnUse" x1="-213" x2="376.163" xlink:href="#lg2" y1="200.29" y2="200.29"/><linearGradient id="SVGID_6_" gradientUnits="userSpaceOnUse" x1="101.868" x2="183.02" y1="289.552" y2="289.552"><stop offset="0" stop-color="#f8f6f7"/><stop offset=".1788" stop-color="#f8f6f7"/><stop offset="1" stop-color="#e7e6f5"/></linearGradient><linearGradient id="SVGID_7_" gradientUnits="userSpaceOnUse" x1="69.761" x2="205.691" y1="289.553" y2="289.553"><stop offset="0" stop-color="#f8f6f7"/><stop offset="1" stop-color="#d1ceeb"/></linearGradient><linearGradient id="lg3"><stop offset="0" stop-color="#fbc56d"/><stop offset=".593" stop-color="#c86d36"/><stop offset="1" stop-color="#904d24"/></linearGradient><linearGradient id="SVGID_8_" gradientUnits="userSpaceOnUse" x1="164.452" x2="435.507" xlink:href="#lg3" y1="163.822" y2="163.822"/><linearGradient id="SVGID_9_" gradientUnits="userSpaceOnUse" x1="145.514" x2="384.146" xlink:href="#lg3" y1="204.687" y2="204.687"/><linearGradient id="SVGID_10_" gradientUnits="userSpaceOnUse" x1="145.514" x2="384.146" xlink:href="#lg3" y1="112.475" y2="112.475"/><linearGradient id="SVGID_11_" gradientUnits="userSpaceOnUse" x1="145.514" x2="384.146" xlink:href="#lg3" y1="213.479" y2="213.479"/><linearGradient id="SVGID_12_" gradientUnits="userSpaceOnUse" x1="145.514" x2="384.146" xlink:href="#lg3" y1="96.891" y2="96.891"/><linearGradient id="SVGID_13_" gradientUnits="userSpaceOnUse" x1="145.514" x2="384.146" xlink:href="#lg3" y1="137.708" y2="137.708"/><linearGradient id="SVGID_14_" gradientUnits="userSpaceOnUse" x1="145.514" x2="384.146" xlink:href="#lg3" y1="166.936" y2="166.936"/><g><g><path d="m470.052 215.052c0 80.517-98.833 201.909-162.497 271.752-28.191 30.928-76.919 30.928-105.11 0-63.664-69.843-162.497-191.236-162.497-271.752 0-118.77 96.282-215.052 215.052-215.052s215.052 96.282 215.052 215.052z" fill="url(#SVGID_1_)"/><path d="m377.173 171.783-.036-.07c-3.281-6.456-4.438-13.784-3.304-20.937 2.325-14.698-5.077-29.221-18.335-35.977-6.463-3.294-11.718-8.549-15.012-15.012-5.661-13.21-19.558-20.9-33.758-18.682l-2.28.356c-7.139 1.115-14.448-.046-20.889-3.32l-.057-.029c-13.242-6.73-29.309-4.188-39.826 6.302l-.066.065c-5.111 5.098-11.7 8.454-18.829 9.591l-.096.015c-14.659 2.338-26.156 13.831-28.499 28.489l-.017.108c-1.14 7.132-4.499 13.724-9.6 18.838l-.07.071c-10.489 10.517-13.024 26.586-6.283 39.822l.025.048c.024.048.049.096.073.144 3.806 7.572 2.183 16.753-3.809 22.746l-9.086 9.086c-16.517 16.517-19.748 41.276-9.719 61.032l-15.14 15.14c-4.789 4.789-12.24 5.577-17.973 1.972-5.075-3.192-11.182-4.891-17.71-4.48-14.687.925-26.626 12.715-27.716 27.391-1.158 15.592 9.721 28.876 24.306 31.518 2.975.539 5.271 2.835 5.81 5.81 2.642 14.583 15.924 25.463 31.515 24.306 14.694-1.09 26.494-13.057 27.397-27.764.401-6.537-1.314-12.652-4.524-17.727-3.629-5.738-2.852-13.209 1.948-18.01l15.093-15.093c19.774 10.098 44.595 6.884 61.143-9.664l9.086-9.086c5.993-5.993 15.174-7.615 22.746-3.809.048.024.096.049.144.073l.048.024c13.246 6.739 29.324 4.195 39.843-6.304l.049-.049c5.107-5.098 11.691-8.456 18.817-9.596l.117-.019c14.665-2.347 26.163-13.85 28.504-28.517l.011-.07c1.139-7.136 4.498-13.731 9.601-18.848l.057-.057c10.489-10.518 13.031-26.585 6.301-39.827z" fill="url(#SVGID_2_)"/><path d="m255 0c-6.749 0-13.42.327-20.01.935 109.386 10.095 195.042 102.096 195.042 214.117 0 80.517-98.833 201.909-162.497 271.752-9.151 10.039-20.471 16.798-32.545 20.32 25.122 7.327 53.525.568 72.565-20.32 63.664-69.844 162.497-191.236 162.497-271.752 0-118.77-96.282-215.052-215.052-215.052z" fill="url(#SVGID_3_)"/></g><circle cx="255" cy="200.286" fill="url(#SVGID_4_)" r="139.28"/><path d="m394.28 200.29c0 76.92-62.36 139.28-139.28 139.28-6.79 0-13.48-.49-20.01-1.43 44.615-6.418 82.395-33.976 102.854-72.202 1.862-3.479-1.144-7.492-5.037-6.856-.036.006-.071.012-.107.017l-.12.02c-7.12 1.14-13.71 4.5-18.82 9.6l-.04.05c-10.52 10.49-26.6 13.04-39.85 6.3l-.05-.02c-.04-.03-.09-.05-.14-.08-7.57-3.8-16.75-2.18-22.75 3.81l-9.08 9.09c-16.55 16.55-41.37 19.76-61.14 9.66l-12.06 12.05c-8.54-6.76-16.27-14.5-23.02-23.04l12.07-12.07c-10.03-19.76-6.8-44.52 9.72-61.03l9.08-9.09c6-5.99 7.62-15.17 3.81-22.74-.02-.05-.04-.1-.07-.15l-.02-.05c-6.74-13.23-4.21-29.3 6.28-39.82l.07-.07c5.1-5.11 8.46-11.7 9.6-18.84l.02-.11c2.34-14.65 13.84-26.15 28.5-28.48l.09-.02c7.13-1.14 13.72-4.49 18.83-9.59l.07-.07c8.89-8.86 21.76-12.06 33.53-8.75-13.04-6.53-27.25-11.07-42.22-13.22 6.53-.94 13.22-1.43 20.01-1.43 76.92.001 139.28 62.351 139.28 139.281z" fill="url(#SVGID_5_)"/><g><path d="m190.623 287.613 36.675-36.675-23.034-23.034-36.693 36.693c-4.789 4.789-12.24 5.577-17.973 1.972-5.075-3.192-11.182-4.891-17.71-4.48-14.687.924-26.626 12.715-27.716 27.391-1.158 15.592 9.721 28.876 24.306 31.518 2.975.539 5.271 2.835 5.81 5.81 2.642 14.584 15.924 25.463 31.515 24.306 14.694-1.09 26.494-13.057 27.397-27.764.401-6.537-1.314-12.652-4.524-17.727-3.63-5.737-2.853-13.209 1.947-18.01z" fill="url(#SVGID_6_)"/><path d="m190.622 287.614c-4.8 4.8-5.575 12.274-1.947 18.009 3.208 5.078 4.924 11.191 4.521 17.725-.9 14.707-12.7 26.679-27.395 27.768-5.042.373-9.836-.509-14.115-2.373 9.972-4.362 17.133-14.067 17.826-25.395.402-6.534-1.314-12.647-4.521-17.725-3.628-5.735-2.853-13.209 1.947-18.009l7.826-7.826c4.15-4.15 4.822-10.658 1.567-15.542-1.146-1.719-2.179-3.49-3.102-5.305l31.035-31.035 23.034 23.034z" fill="url(#SVGID_7_)"/><path d="m402.184 146.772-.036-.07c-3.281-6.456-4.437-13.784-3.303-20.937 2.325-14.697-5.077-29.221-18.335-35.977-6.463-3.293-11.718-8.548-15.012-15.012-5.661-13.21-19.558-20.9-33.758-18.682l-2.28.356c-7.139 1.115-14.448-.046-20.889-3.32l-.057-.029c-13.242-6.73-29.309-4.188-39.826 6.301l-.066.066c-5.111 5.098-11.7 8.454-18.829 9.591l-.096.015c-14.659 2.338-26.156 13.831-28.499 28.489l-.017.108c-1.14 7.132-4.499 13.724-9.6 18.838l-.07.07c-10.489 10.517-13.024 26.586-6.283 39.822l.024.048c.024.048.049.096.073.144 3.807 7.572 2.183 16.753-3.809 22.746l-9.086 9.086c-20.553 20.553-20.553 53.877 0 74.43s53.877 20.553 74.43 0l9.086-9.086c5.993-5.993 15.174-7.616 22.746-3.809.048.024.096.049.144.073l.048.024c13.246 6.739 29.324 4.195 39.843-6.304l.049-.049c5.107-5.098 11.691-8.456 18.817-9.596l.117-.019c14.665-2.347 26.163-13.85 28.504-28.517l.011-.07c1.139-7.136 4.498-13.731 9.601-18.848l.057-.057c10.489-10.516 13.031-26.583 6.301-39.825z" fill="url(#SVGID_8_)"/><g><circle cx="291.436" cy="204.687" fill="url(#SVGID_9_)" r="7.792"/><path d="m314.813 120.267c4.304 0 7.792-3.489 7.792-7.792 0-4.304-3.489-7.792-7.792-7.792-4.304 0-7.792 3.489-7.792 7.792 0 4.304 3.488 7.792 7.792 7.792z" fill="url(#SVGID_10_)"/><path d="m219.505 221.271c4.304 0 7.792-3.489 7.792-7.792 0-4.304-3.489-7.792-7.792-7.792-4.304 0-7.792 3.489-7.792 7.792s3.489 7.792 7.792 7.792z" fill="url(#SVGID_11_)"/><path d="m272.516 104.683c4.304 0 7.792-3.489 7.792-7.792 0-4.304-3.489-7.792-7.792-7.792-4.304 0-7.792 3.489-7.792 7.792s3.489 7.792 7.792 7.792z" fill="url(#SVGID_12_)"/><circle cx="261.813" cy="137.708" fill="url(#SVGID_13_)" r="14.832"/><path d="m402.184 146.772-.036-.07c-3.281-6.456-4.437-13.784-3.303-20.937 2.325-14.697-5.077-29.221-18.335-35.977-6.463-3.293-11.718-8.548-15.012-15.012-5.278-13.194-18.971-20.992-33.012-18.798l-3.026.473c-.867.135-1.736.236-2.606.304 3.529 3.046 6.417 6.906 8.346 11.408 3.294 6.463 8.548 11.718 15.012 15.012 13.258 6.756 20.66 21.279 18.335 35.977-1.134 7.153.022 14.481 3.303 20.937l.036.07c6.729 13.239 4.189 29.303-6.295 39.82l-.063.063c-5.101 5.118-8.461 11.712-9.601 18.848l-.011.07c-2.187 13.708-12.375 24.651-25.672 27.939-1.124-8.089-8.454-14.194-17.029-13.341-7.251.721-13.116 6.534-13.895 13.779-.031.285-.054.568-.069.85-.664 12.13-11.921 20.944-23.683 17.904-2.382-.616-4.724-1.495-6.983-2.645l-.048-.024c-.052-.026-.103-.052-.155-.078-7.568-3.804-16.746-2.175-22.735 3.814l-9.086 9.086c-9.154 9.153-20.841 14.219-32.804 15.219 20.07 11.352 46.002 8.492 63.101-8.607l9.086-9.086c5.99-5.99 15.167-7.618 22.735-3.814.052.026.103.052.155.078l.048.024c13.245 6.742 29.325 4.198 39.842-6.304l.05-.05c5.104-5.096 11.685-8.454 18.806-9.594l.125-.02c14.665-2.349 26.163-13.851 28.506-28.517l.011-.07c1.14-7.135 4.499-13.73 9.601-18.848l.063-.063c10.487-10.518 13.026-26.581 6.298-39.82z" fill="url(#SVGID_14_)"/></g></g></g></svg>