<svg id="Capa_1" enable-background="new 0 0 510 510" height="512" viewBox="0 0 510 510" width="512" xmlns="http://www.w3.org/2000/svg" xmlns:xlink="http://www.w3.org/1999/xlink"><linearGradient id="lg1"><stop offset="0" stop-color="#fe646f"/><stop offset=".593" stop-color="#fb2b3a"/><stop offset="1" stop-color="#c41926"/></linearGradient><linearGradient id="SVGID_1_" gradientUnits="userSpaceOnUse" x1="-12" x2="574.873" xlink:href="#lg1" y1="321.82" y2="321.82"/><linearGradient id="SVGID_2_" gradientUnits="userSpaceOnUse" x1="-353.879" x2="424.216" xlink:href="#lg1" y1="321.82" y2="321.82"/><linearGradient id="lg2"><stop offset="0" stop-color="#fef056"/><stop offset=".5213" stop-color="#f4d902"/><stop offset="1" stop-color="#fe9738"/></linearGradient><linearGradient id="SVGID_3_" gradientUnits="userSpaceOnUse" x1="108" x2="451.002" xlink:href="#lg2" y1="79.291" y2="79.291"/><linearGradient id="SVGID_4_" gradientUnits="userSpaceOnUse" x1="-92.892" x2="354.729" xlink:href="#lg2" y1="79.291" y2="79.291"/><linearGradient id="SVGID_5_" gradientUnits="userSpaceOnUse" x1="19.08" x2="521.836" xlink:href="#lg1" y1="210.198" y2="210.198"/><linearGradient id="SVGID_6_" gradientUnits="userSpaceOnUse" x1="-16.396" x2="490.758" xlink:href="#lg1" y1="210.198" y2="210.198"/><linearGradient id="SVGID_7_" gradientUnits="userSpaceOnUse" x1="2.148" x2="570.244" y1="410" y2="410"><stop offset="0" stop-color="#f8f6f7"/><stop offset=".1788" stop-color="#f8f6f7"/><stop offset="1" stop-color="#e7e6f5"/></linearGradient><linearGradient id="SVGID_8_" gradientUnits="userSpaceOnUse" x1="192.094" x2="356.272" xlink:href="#lg2" y1="410" y2="410"/><linearGradient id="SVGID_9_" gradientUnits="userSpaceOnUse" x1="94.599" x2="350.119" xlink:href="#lg2" y1="410" y2="410"/><g><path d="m501.682 270.902-64.402-122.734c-4.687-8.932-13.942-14.528-24.03-14.528h-316.5c-10.087 0-19.342 5.595-24.029 14.528l-64.403 122.734c-5.464 10.413-8.318 21.996-8.318 33.755v55.088l6.667 50.255-6.667 50.248v22.615c0 14.988 12.15 27.137 27.137 27.137h455.727c14.987 0 27.136-12.15 27.136-27.137v-22.616l-10-50.247 10-50.246v-55.097c0-11.759-2.855-23.342-8.318-33.755z" fill="url(#SVGID_1_)"/><path d="m510 304.66v55.087l-10 50.253 10 50.252v22.608c0 14.989-12.151 27.14-27.14 27.14h-40.02c14.99 0 27.14-12.15 27.14-27.14v-108.432c0-34.605-28.053-62.658-62.658-62.658h-407.322v-7.11c0-6.06.76-12.08 2.24-17.91 1.39-5.49 3.42-10.81 6.08-15.85l64.4-122.73c4.69-8.93 13.94-14.53 24.03-14.53h316.5c10.09 0 19.34 5.6 24.03 14.53l64.4 122.73c2.66 5.04 4.69 10.36 6.07 15.85 1.49 5.83 2.25 11.85 2.25 17.91z" fill="url(#SVGID_2_)"/><path d="m355.159 0h-200.318c-15.677 0-28.385 12.708-28.385 28.385v130.197h45.431v-94.25c0-11.228 9.103-20.332 20.333-20.332h125.56c11.23 0 20.333 9.104 20.333 20.333v94.25h45.431v-130.198c0-15.676-12.708-28.385-28.385-28.385z" fill="url(#SVGID_3_)"/><g><path d="m355.159 0h-40.02c15.677 0 28.385 12.708 28.385 28.385v130.197h40.02v-130.197c0-15.676-12.708-28.385-28.385-28.385z" fill="url(#SVGID_4_)"/></g><path d="m507.753 286.755c-1.394-5.483-3.423-10.806-6.072-15.852l-64.401-122.735c-4.687-8.932-13.942-14.528-24.029-14.528h-316.501c-10.087 0-19.342 5.595-24.029 14.528l-64.403 122.734c-2.648 5.046-4.677 10.369-6.072 15.852h505.507z" fill="url(#SVGID_5_)"/><path d="m501.682 270.902-64.402-122.734c-4.687-8.932-13.942-14.528-24.029-14.528h-40.02c10.088 0 19.342 5.595 24.029 14.528l64.402 122.734c2.648 5.046 4.677 10.369 6.072 15.852h40.02c-1.395-5.482-3.424-10.805-6.072-15.852z" fill="url(#SVGID_6_)"/><g><path d="m0 359.752h510v100.495h-510z" fill="url(#SVGID_7_)"/><circle cx="255" cy="410" fill="url(#SVGID_8_)" r="66.021"/><path d="m255 343.979c-4.277 0-8.455.421-12.505 1.198 30.48 5.846 53.516 32.638 53.516 64.823s-23.036 58.977-53.516 64.823c4.051.777 8.228 1.198 12.505 1.198 36.463 0 66.021-29.559 66.021-66.021s-29.558-66.021-66.021-66.021z" fill="url(#SVGID_9_)"/></g></g></svg>