<svg id="Capa_1" enable-background="new 0 0 510 510" height="512" viewBox="0 0 510 510" width="512" xmlns="http://www.w3.org/2000/svg" xmlns:xlink="http://www.w3.org/1999/xlink"><linearGradient id="lg1"><stop offset="0" stop-color="#f8f6f7"/><stop offset=".1788" stop-color="#f8f6f7"/><stop offset="1" stop-color="#e7e6f5"/></linearGradient><linearGradient id="SVGID_1_" gradientUnits="userSpaceOnUse" x1="112" x2="382.119" xlink:href="#lg1" y1="298.905" y2="298.905"/><linearGradient id="lg2"><stop offset="0" stop-color="#f8f6f7"/><stop offset="1" stop-color="#d1ceeb"/></linearGradient><linearGradient id="SVGID_2_" gradientUnits="userSpaceOnUse" x1="90" x2="407.025" xlink:href="#lg2" y1="298.905" y2="298.905"/><linearGradient id="SVGID_3_" gradientUnits="userSpaceOnUse" x1="62.062" x2="496.362" xlink:href="#lg1" y1="146.192" y2="146.192"/><linearGradient id="SVGID_4_" gradientUnits="userSpaceOnUse" x1="78.06" x2="512.365" xlink:href="#lg2" y1="146.195" y2="146.195"/><linearGradient id="lg3"><stop offset="0" stop-color="#537983"/><stop offset=".593" stop-color="#554e56"/><stop offset="1" stop-color="#433f43"/></linearGradient><linearGradient id="SVGID_5_" gradientUnits="userSpaceOnUse" x1="151" x2="230.281" xlink:href="#lg3" y1="22.045" y2="22.045"/><linearGradient id="SVGID_6_" gradientUnits="userSpaceOnUse" x1="90" x2="500.672" xlink:href="#lg3" y1="60.014" y2="60.014"/><linearGradient id="SVGID_7_" gradientUnits="userSpaceOnUse" x1="30.102" x2="406.595" xlink:href="#lg3" y1="60.014" y2="60.014"/><linearGradient id="SVGID_8_" gradientUnits="userSpaceOnUse" x1="53.027" x2="549.076" xlink:href="#lg3" y1="98.333" y2="98.333"/><linearGradient id="SVGID_9_" gradientUnits="userSpaceOnUse" x1="145.596" x2="357.17" xlink:href="#lg3" y1="98.333" y2="98.333"/><linearGradient id="lg4"><stop offset="0" stop-color="#a2e62e"/><stop offset=".5857" stop-color="#81b823"/><stop offset="1" stop-color="#037e73"/></linearGradient><linearGradient id="SVGID_10_" gradientUnits="userSpaceOnUse" x1="101.4" x2="447.151" xlink:href="#lg4" y1="351.226" y2="351.226"/><linearGradient id="SVGID_11_" gradientUnits="userSpaceOnUse" x1="-4.397" x2="432.393" xlink:href="#lg4" y1="351.226" y2="351.226"/><linearGradient id="SVGID_12_" gradientUnits="userSpaceOnUse" x1=".103" x2="338.009" xlink:href="#lg4" y1="351.226" y2="351.226"/><g><path d="m350.566 510h-191.132c-12.074 0-22.269-8.969-23.807-20.945l-51.523-401.246h341.791l-51.522 401.245c-1.538 11.977-11.732 20.946-23.807 20.946z" fill="url(#SVGID_1_)"/><path d="m84.1 87.81 3.21 25.01 12.903 100.49c1.178 9.172 8.894 16.244 18.141 16.28h.176 145.753c54.835 0 97.203 48.157 90.218 102.545l-12.359 96.241h-214.307l4.157 32.373h177.459c15.134 0 26.827 13.291 24.899 28.301-1.53 11.98-11.73 20.95-23.8 20.95h40.02c12.07 0 22.27-8.97 23.8-20.95l48.32-376.23 3.21-25.01h-341.8z" fill="url(#SVGID_2_)"/><path d="m118.532 204.576h272.935c21.858 0 40.47-15.893 43.895-37.481l12.576-79.285h-385.876l12.575 79.285c3.425 21.587 22.038 37.481 43.895 37.481z" fill="url(#SVGID_3_)"/><path d="m447.94 87.81-12.58 79.28c-3.42 21.59-22.03 37.49-43.89 37.49h-40.02c21.86 0 40.47-15.9 43.89-37.49 1.522-9.59-5.888-18.27-15.599-18.27h-301.241c-2.4 0-4.71-.33-6.91-.95l-9.53-60.06z" fill="url(#SVGID_4_)"/><path d="m221.441 44.091h-70.441v-26.862c0-9.516 7.713-17.229 17.229-17.229h35.984c9.515 0 17.229 7.713 17.229 17.229v26.862z" fill="url(#SVGID_5_)"/><path d="m420 86.237-2.978-18.777c-3.076-19.393-19.796-33.67-39.431-33.67h-245.182c-19.635 0-36.355 14.277-39.431 33.67l-2.978 18.777z" fill="url(#SVGID_6_)"/><path d="m417.022 67.461c-3.076-19.393-19.796-33.67-39.431-33.67h-40.02c19.635 0 36.355 14.277 39.431 33.67l2.978 18.777h40.02z" fill="url(#SVGID_7_)"/><path d="m431.497 123.809h-352.994c-14.07 0-25.477-11.406-25.477-25.477 0-14.07 11.406-25.477 25.477-25.477h352.993c14.07 0 25.477 11.406 25.477 25.477s-11.406 25.477-25.476 25.477z" fill="url(#SVGID_8_)"/><path d="m431.497 72.856h-40.02c14.07 0 25.477 11.406 25.477 25.477 0 14.07-11.406 25.477-25.477 25.477h40.02c14.07 0 25.477-11.406 25.477-25.477-.001-14.071-11.407-25.477-25.477-25.477z" fill="url(#SVGID_9_)"/><path d="m397.885 266.713h-285.77c-6.437 0-11.42 5.635-10.633 12.024l18.189 147.598c.662 5.369 5.223 9.403 10.633 9.403h249.393c5.41 0 9.971-4.034 10.633-9.403l18.189-147.598c.787-6.388-4.197-12.024-10.634-12.024z" fill="url(#SVGID_10_)"/><path d="m397.885 266.713h-40.02c6.437 0 11.42 5.635 10.633 12.024l-18.189 147.598c-.662 5.37-5.223 9.403-10.633 9.403h40.02c5.41 0 9.971-4.034 10.633-9.403l18.189-147.598c.788-6.388-4.196-12.024-10.633-12.024z" fill="url(#SVGID_11_)"/><circle cx="255" cy="351.226" fill="url(#SVGID_12_)" r="57.684"/></g></svg>