<svg id="Capa_1" enable-background="new 0 0 510 510" height="512" viewBox="0 0 510 510" width="512" xmlns="http://www.w3.org/2000/svg" xmlns:xlink="http://www.w3.org/1999/xlink"><linearGradient id="lg1"><stop offset="0" stop-color="#fef056"/><stop offset=".5213" stop-color="#f4d902"/><stop offset="1" stop-color="#fe9738"/></linearGradient><linearGradient id="SVGID_1_" gradientUnits="userSpaceOnUse" x1="75.485" x2="171.057" xlink:href="#lg1" y1="416.862" y2="416.862"/><linearGradient id="SVGID_2_" gradientUnits="userSpaceOnUse" x1="-31.853" x2="183.41" xlink:href="#lg1" y1="416.86" y2="416.86"/><linearGradient id="SVGID_3_" gradientUnits="userSpaceOnUse" x1="350.244" x2="445.816" xlink:href="#lg1" y1="416.862" y2="416.862"/><linearGradient id="SVGID_4_" gradientUnits="userSpaceOnUse" x1="242.906" x2="458.168" xlink:href="#lg1" y1="416.86" y2="416.86"/><linearGradient id="lg2"><stop offset="0" stop-color="#fe646f"/><stop offset=".593" stop-color="#fb2b3a"/><stop offset="1" stop-color="#c41926"/></linearGradient><linearGradient id="SVGID_5_" gradientUnits="userSpaceOnUse" x1="-4.95" x2="584.643" xlink:href="#lg2" y1="177.491" y2="177.491"/><linearGradient id="SVGID_6_" gradientUnits="userSpaceOnUse" x1="-18.449" x2="514.565" xlink:href="#lg2" y1="177.491" y2="177.491"/><linearGradient id="lg3"><stop offset="0" stop-color="#d8ecfe"/><stop offset=".5667" stop-color="#b3dafe"/><stop offset=".9955" stop-color="#8ac9fe"/></linearGradient><linearGradient id="SVGID_7_" gradientUnits="userSpaceOnUse" x1="395.333" x2="566.421" xlink:href="#lg3" y1="248.793" y2="248.793"/><linearGradient id="SVGID_8_" gradientUnits="userSpaceOnUse" x1="342" x2="455.341" xlink:href="#lg3" y1="248.793" y2="248.793"/><linearGradient id="lg4"><stop offset="0" stop-color="#f8f6f7"/><stop offset=".1788" stop-color="#f8f6f7"/><stop offset="1" stop-color="#e7e6f5"/></linearGradient><linearGradient id="SVGID_9_" gradientUnits="userSpaceOnUse" x1="46.22" x2="496.992" xlink:href="#lg4" y1="116.361" y2="116.361"/><linearGradient id="SVGID_10_" gradientUnits="userSpaceOnUse" x1="46.22" x2="496.992" xlink:href="#lg4" y1="116.877" y2="116.877"/><linearGradient id="SVGID_14_" gradientUnits="userSpaceOnUse" x1="46.22" x2="496.992" xlink:href="#lg4" y1="248.625" y2="248.625"/><linearGradient id="SVGID_16_" gradientUnits="userSpaceOnUse" x1="46.22" x2="496.992" xlink:href="#lg4" y1="249.053" y2="249.053"/><linearGradient id="SVGID_18_" gradientUnits="userSpaceOnUse" x1="395.333" x2="566.421" xlink:href="#lg3" y1="248.794" y2="248.794"/><g><g><g><path d="m149.783 510h-64.32c-5.067 0-9.175-4.108-9.175-9.175v-177.102h82.67v177.102c0 5.067-4.108 9.175-9.175 9.175z" fill="url(#SVGID_1_)"/><path d="m158.954 323.72v177.105c0 5.067-4.108 9.175-9.175 9.175h-30.845v-100.43c0-16.204-13.136-29.34-29.34-29.34h-13.31v-56.51z" fill="url(#SVGID_2_)"/></g><g><path d="m424.541 510h-64.32c-5.067 0-9.175-4.108-9.175-9.175v-177.102h82.67v177.102c0 5.067-4.108 9.175-9.175 9.175z" fill="url(#SVGID_3_)"/><path d="m433.712 323.72v177.105c0 5.067-4.108 9.175-9.175 9.175h-30.845v-100.43c0-16.204-13.136-29.34-29.34-29.34h-13.31v-56.51z" fill="url(#SVGID_4_)"/></g></g><path d="m488.965 354.982h-467.93c-11.617 0-21.035-9.418-21.035-21.035v-312.912c0-11.617 9.418-21.035 21.035-21.035h467.93c11.617 0 21.035 9.418 21.035 21.035v312.911c0 11.618-9.418 21.036-21.035 21.036z" fill="url(#SVGID_5_)"/><path d="m488.965 0h-40.02c11.617 0 21.035 9.418 21.035 21.035v312.912c0 11.617-9.418 21.035-21.035 21.035h40.02c11.617 0 21.035-9.418 21.035-21.035v-312.912c0-11.617-9.418-21.035-21.035-21.035z" fill="url(#SVGID_6_)"/><path d="m481.958 228.698-26.938-25.564c-4.613-4.378-10.731-6.819-17.091-6.819h-8.066c-4.551 0-6.768 5.557-3.467 8.689l12.773 12.122c8.671 8.231 13.491 19.314 13.602 31.25.114 12.346-5.212 24.123-14.168 32.622l-12.207 11.584c-3.301 3.133-1.084 8.689 3.467 8.689h8.066c6.36 0 12.478-2.441 17.092-6.819l26.937-25.564c11.511-10.924 11.511-29.266 0-40.19z" fill="url(#SVGID_7_)"/><path d="m481.958 228.698-11.978-11.368v62.926l11.979-11.368c11.51-10.924 11.51-29.266-.001-40.19z" fill="url(#SVGID_8_)"/><g><path d="m51.724 179.27h30.464c23.752 0 42.341-11.015 42.341-40.62v-44.579c0-29.604-18.589-40.62-42.341-40.62h-30.464c-7.057 0-11.704 3.786-11.704 8.09v109.639c0 4.303 4.647 8.09 11.704 8.09zm15.146-102.411h15.318c9.639 0 15.491 5.508 15.491 17.212v44.579c0 11.703-5.852 17.211-15.491 17.211h-15.318z" fill="url(#SVGID_9_)"/><path d="m228.837 166.361c0-.861-.172-2.065-.86-3.098l-20.999-38.038c12.048-4.648 20.826-15.663 20.826-34.94 0-28.055-18.761-36.833-42.341-36.833h-35.629c-4.991 0-8.262 3.786-8.262 8.09v109.467c0 5.508 6.713 8.262 13.426 8.262s13.426-2.755 13.426-8.262v-41.48h11.36l23.58 45.784c1.894 3.614 5.164 4.992 8.606 4.992 7.916-.002 16.867-7.232 16.867-13.944zm-43.374-57.488h-17.04v-32.014h17.04c9.638 0 15.491 3.959 15.491 16.007 0 12.049-5.852 16.007-15.491 16.007z" fill="url(#SVGID_10_)"/><path d="m255.519 179.27c6.712 0 13.425-2.755 13.425-8.262v-109.467c0-5.681-6.713-8.09-13.425-8.09-6.713 0-13.426 2.409-13.426 8.09v109.467c0 5.508 6.713 8.262 13.426 8.262z" fill="url(#SVGID_9_)"/><path d="m361.715 53.452c-4.303 0-7.745 1.377-8.778 4.992l-23.924 88.297-24.097-88.297c-1.033-3.615-4.475-4.992-8.778-4.992-7.401 0-17.211 4.648-17.211 11.016 0 .516.171 1.205.344 1.893l32.186 104.993c1.894 6.024 9.639 8.951 17.557 8.951 7.917 0 15.662-2.926 17.556-8.951l32.014-104.994c.171-.688.344-1.377.344-1.893 0-6.368-9.811-11.015-17.213-11.015z" fill="url(#SVGID_10_)"/><path d="m461.89 155.862h-46.127v-29.26h25.818c5.68 0 8.09-5.508 8.09-10.155 0-5.508-2.926-10.499-8.09-10.499h-25.818v-29.089h46.127c5.164 0 8.09-5.508 8.09-11.876 0-5.508-2.41-11.532-8.09-11.532h-61.274c-5.852 0-11.704 2.754-11.704 8.262v109.295c0 5.508 5.852 8.262 11.704 8.262h61.274c5.68 0 8.09-6.024 8.09-11.532 0-6.368-2.926-11.876-8.09-11.876z" fill="url(#SVGID_9_)"/><path d="m108.234 196.575h-61.52c-4.7 0-6.694 5.127-6.694 9.826 0 5.411 2.421 10.111 6.694 10.111h19.652v77.328c0 4.557 5.554 6.836 11.108 6.836s11.108-2.279 11.108-6.836v-77.328h19.653c4.272 0 6.693-4.7 6.693-10.111-.001-4.699-1.995-9.826-6.694-9.826z" fill="url(#SVGID_14_)"/><path d="m185.421 196.575c-5.554 0-11.108 1.993-11.108 6.694v34.89h-28.339v-34.89c0-4.7-5.554-6.694-11.108-6.694s-11.108 1.993-11.108 6.694v90.571c0 4.557 5.554 6.836 11.108 6.836 5.553 0 11.108-2.279 11.108-6.836v-38.593h28.339v38.593c0 4.557 5.554 6.836 11.108 6.836 5.553 0 11.108-2.279 11.108-6.836v-90.571c0-4.701-5.554-6.694-11.108-6.694z" fill="url(#SVGID_14_)"/><g fill="url(#SVGID_16_)"><path d="m266.026 255.96c9.969-3.845 17.231-12.96 17.231-28.909 0-23.213-15.523-30.476-35.032-30.476h-29.479c-4.13 0-6.836 3.133-6.836 6.694v90.571c0 4.557 5.554 6.836 11.108 6.836s11.108-2.279 11.108-6.836v-34.32h9.399l19.51 37.881c1.567 2.99 4.273 4.13 7.121 4.13 6.55 0 13.956-5.982 13.956-11.535 0-.712-.143-1.709-.712-2.563zm-17.801-13.53h-14.098v-26.488h14.098c7.975 0 12.817 3.275 12.817 13.244s-4.842 13.244-12.817 13.244z"/><path d="m355.319 196.575c-5.696 0-11.107 1.993-11.107 6.694v64.653c0 9.683-5.127 14.241-13.671 14.241-8.545 0-13.671-4.557-13.671-14.241v-64.653c0-4.7-5.697-6.694-11.108-6.694-5.697 0-11.108 1.993-11.108 6.694v64.653c0 24.494 15.665 33.609 35.888 33.609 20.08 0 35.887-9.114 35.887-33.609v-64.653c-.002-4.701-5.698-6.694-11.11-6.694z"/></g></g><g><path d="m437.765 248.064c-.189-7.779-3.705-15.108-9.349-20.464l-25.817-24.5c-6.931-6.578-17.461 3.285-11.056 10.376.189.209.389.415.6.615l24.932 23.661c6.325 6.002 6.325 16.081 0 22.083l-24.932 23.661c-.211.201-.412.406-.602.616-6.404 7.093 4.125 16.954 11.056 10.376l26.247-24.909c5.935-5.632 9.122-13.3 8.921-21.515z" fill="url(#SVGID_18_)"/></g></g></svg>