<svg id="Capa_1" enable-background="new 0 0 510 510" height="512" viewBox="0 0 510 510" width="512" xmlns="http://www.w3.org/2000/svg" xmlns:xlink="http://www.w3.org/1999/xlink"><linearGradient id="lg1"><stop offset="0" stop-color="#fbc56d"/><stop offset=".593" stop-color="#c86d36"/><stop offset="1" stop-color="#904d24"/></linearGradient><linearGradient id="SVGID_1_" gradientUnits="userSpaceOnUse" x1="117.854" x2="426.567" xlink:href="#lg1" y1="471.734" y2="471.734"/><linearGradient id="SVGID_2_" gradientUnits="userSpaceOnUse" x1="66" x2="370.573" xlink:href="#lg1" y1="471.734" y2="471.734"/><linearGradient id="lg2"><stop offset="0" stop-color="#a2e62e"/><stop offset=".5857" stop-color="#81b823"/><stop offset="1" stop-color="#037e73"/></linearGradient><linearGradient id="SVGID_3_" gradientUnits="userSpaceOnUse" x1="80" x2="466.083" xlink:href="#lg2" y1="59.817" y2="59.817"/><linearGradient id="SVGID_4_" gradientUnits="userSpaceOnUse" x1="216.667" x2="391.548" xlink:href="#lg2" y1="62.444" y2="62.444"/><linearGradient id="lg3"><stop offset="0" stop-color="#fe646f"/><stop offset=".593" stop-color="#fb2b3a"/><stop offset="1" stop-color="#c41926"/></linearGradient><linearGradient id="SVGID_5_" gradientUnits="userSpaceOnUse" x1="169.167" x2="362.376" xlink:href="#lg3" y1="255" y2="255"/><linearGradient id="SVGID_6_" gradientUnits="userSpaceOnUse" x1="3.576" x2="355.1" xlink:href="#lg3" y1="255" y2="255"/><linearGradient id="lg4"><stop offset="0" stop-color="#fef056"/><stop offset=".5213" stop-color="#fbc56d"/><stop offset="1" stop-color="#c86d36"/></linearGradient><linearGradient id="SVGID_7_" gradientUnits="userSpaceOnUse" x1="78.573" x2="363.073" xlink:href="#lg4" y1="276.583" y2="276.583"/><linearGradient id="SVGID_8_" gradientUnits="userSpaceOnUse" x1="28" x2="356.877" xlink:href="#lg4" y1="364.518" y2="364.518"/><linearGradient id="SVGID_9_" gradientUnits="userSpaceOnUse" x1="28" x2="356.877" xlink:href="#lg4" y1="114.443" y2="114.443"/><linearGradient id="SVGID_10_" gradientUnits="userSpaceOnUse" x1="28" x2="356.877" xlink:href="#lg4" y1="183.413" y2="183.413"/><linearGradient id="SVGID_11_" gradientUnits="userSpaceOnUse" x1="28" x2="356.877" xlink:href="#lg4" y1="276.585" y2="276.585"/><linearGradient id="SVGID_12_" gradientUnits="userSpaceOnUse" x1="220.034" x2="487.092" xlink:href="#lg4" y1="276.583" y2="276.583"/><linearGradient id="SVGID_13_" gradientUnits="userSpaceOnUse" x1="142" x2="471.029" xlink:href="#lg4" y1="377.685" y2="377.685"/><linearGradient id="SVGID_14_" gradientUnits="userSpaceOnUse" x1="142" x2="471.029" xlink:href="#lg4" y1="210.448" y2="210.448"/><linearGradient id="SVGID_15_" gradientUnits="userSpaceOnUse" x1="142" x2="471.029" xlink:href="#lg4" y1="158.351" y2="158.351"/><linearGradient id="SVGID_16_" gradientUnits="userSpaceOnUse" x1="142" x2="471.029" xlink:href="#lg4" y1="276.583" y2="276.583"/><g><path d="m117.854 433.468h274.291v76.532h-274.291z" fill="url(#SVGID_1_)"/><path d="m243 504.75c13.137 0 25.578-2.961 36.71-8.237 5.809 4.894 11.955 9.398 18.391 13.487h94.045v-76.532h-233.726c6.914 40.47 42.138 71.282 84.58 71.282z" fill="url(#SVGID_2_)"/><path d="m96.5 119.635h317v-93.479c0-20.227-26.041-28.663-37.736-12.159-.104.147-.207.294-.31.443-13.305 19.254-34.877 19.254-48.182 0s-34.877-19.254-48.182 0-34.877 19.254-48.182 0-34.877-19.254-48.182 0-34.877 19.254-48.182 0c-.103-.149-.206-.297-.31-.443-11.693-16.504-37.734-8.068-37.734 12.159z" fill="url(#SVGID_3_)"/><path d="m375.764 13.997c-.104.146-.207.294-.31.443-1.054 1.526-2.166 2.916-3.315 4.2.852 2.271 1.341 4.781 1.341 7.515v93.479h40.02v-93.478c0-20.227-26.041-28.663-37.736-12.159z" fill="url(#SVGID_4_)"/><path d="m255 478.417c-47.405 0-85.833-38.429-85.833-85.833v-275.167c0-47.404 38.429-85.833 85.833-85.833s85.833 38.429 85.833 85.833v275.167c0 47.404-38.429 85.833-85.833 85.833z" fill="url(#SVGID_5_)"/><path d="m340.83 117.42v275.16c0 40.77-28.42 74.9-66.53 83.66-6.2 1.43-12.66 2.18-19.3 2.18-6.89 0-13.59-.81-20.01-2.35.103-.024.205-.049.308-.074 12.595-3.047 17.399-18.303 9.201-28.339-23.852-29.2-38.158-66.499-38.158-107.147v-127.86c0-46.8 18.97-89.17 49.64-119.84 5.694-5.694 11.792-10.985 18.245-15.825 6.492-4.869 7.285-14.404 1.558-20.153-.038-.038-.075-.075-.113-.113-11.01-11.01-25.01-19.05-40.68-22.79 6.42-1.54 13.12-2.35 20.01-2.35 22.75 0 43.43 8.85 58.79 23.31.64.59 1.28 1.21 1.9 1.83 15.529 15.541 25.139 37.001 25.139 60.701z" fill="url(#SVGID_6_)"/><path d="m109.159 510c-13.788 0-24.964-11.177-24.964-24.964v-416.905c0-13.787 11.177-24.964 24.964-24.964 93.605 0 169.487 75.882 169.487 169.487v127.86c0 93.604-75.882 169.486-169.487 169.486z" fill="url(#SVGID_7_)"/><g><path d="m139.667 364.518c0 7.272 5.895 13.167 13.167 13.167s13.167-5.895 13.167-13.167-5.895-13.167-13.167-13.167-13.167 5.895-13.167 13.167z" fill="url(#SVGID_8_)"/><path d="m136.808 101.277c-7.272 0-13.167 5.895-13.167 13.167s5.895 13.167 13.167 13.167 13.167-5.895 13.167-13.167-5.895-13.167-13.167-13.167z" fill="url(#SVGID_9_)"/><circle cx="118.723" cy="183.413" fill="url(#SVGID_10_)" r="25.062"/><path d="m234.99 99.12c-1.94-2.16-3.94-4.26-5.99-6.31-30.67-30.67-73.04-49.64-119.84-49.64-3.91 0-7.61.9-10.9 2.5 35.13 6.08 66.56 22.98 90.72 47.14.1.1.2.2.299.3 9.41 9.457 14.915 21.728 16.134 34.529-.194-.008-.384-.029-.58-.029-7.272 0-13.167 5.895-13.167 13.167 0 3.444 1.324 6.577 3.49 8.92 3.613 3.909 4.673 9.546 3.158 14.649-4.544 15.307-6.985 31.52-6.985 48.304v83.696c-10.573 2.94-18.335 12.631-18.335 24.141 0 7.63 3.411 14.461 8.791 19.056 6.121 5.228 9.76 12.751 10.688 20.747 1.599 13.768 4.846 27.033 9.543 39.592 7.798 20.849 2.937 44.44-12.769 60.214-24.199 24.304-55.725 41.304-90.987 47.404 3.29 1.6 6.99 2.5 10.9 2.5 49.93 0 94.82-21.59 125.83-55.95 27.14-30.04 43.66-69.86 43.66-113.54v-127.86c0-43.67-16.52-83.49-43.66-113.53z" fill="url(#SVGID_11_)"/></g><path d="m400.841 510c13.788 0 24.964-11.177 24.964-24.964v-416.905c0-13.787-11.177-24.964-24.964-24.964-93.605 0-169.487 75.882-169.487 169.487v127.86c0 93.604 75.882 169.486 169.487 169.486z" fill="url(#SVGID_12_)"/><g><circle cx="350.944" cy="377.685" fill="url(#SVGID_13_)" r="13.167"/><path d="m354.913 210.448c0-7.272-5.895-13.167-13.167-13.167s-13.167 5.895-13.167 13.167 5.895 13.167 13.167 13.167 13.167-5.895 13.167-13.167z" fill="url(#SVGID_14_)"/><circle cx="300.723" cy="158.351" fill="url(#SVGID_15_)" r="25.062"/><path d="m400.841 43.167c-9.931 0-19.658.863-29.12 2.501 8.325 4.047 14.064 12.584 14.064 22.463v324.828c-12.32 2.201-21.675 12.961-21.675 25.914 0 8.327 3.866 15.748 9.9 20.571 7.614 6.086 11.774 15.518 11.774 25.266v20.327c0 9.879-5.739 18.416-14.064 22.463 9.462 1.639 19.19 2.501 29.12 2.501 13.787 0 24.964-11.177 24.964-24.964v-416.906c.001-13.787-11.176-24.964-24.963-24.964z" fill="url(#SVGID_16_)"/></g></g></svg>