<svg id="Capa_1" enable-background="new 0 0 510.001 510.001" height="512" viewBox="0 0 510.001 510.001" width="512" xmlns="http://www.w3.org/2000/svg" xmlns:xlink="http://www.w3.org/1999/xlink"><linearGradient id="lg1"><stop offset="0" stop-color="#f8f6f7"/><stop offset=".1788" stop-color="#f8f6f7"/><stop offset="1" stop-color="#e7e6f5"/></linearGradient><linearGradient id="SVGID_1_" gradientUnits="userSpaceOnUse" x1="-7" x2="249.049" xlink:href="#lg1" y1="315.553" y2="315.553"/><linearGradient id="lg2"><stop offset="0" stop-color="#f8f6f7"/><stop offset="1" stop-color="#d1ceeb"/></linearGradient><linearGradient id="SVGID_2_" gradientUnits="userSpaceOnUse" x1="-20" x2="282.424" xlink:href="#lg2" y1="418.445" y2="418.445"/><linearGradient id="SVGID_3_" gradientUnits="userSpaceOnUse" x1="-20" x2="282.424" xlink:href="#lg2" y1="206.321" y2="206.321"/><linearGradient id="lg3"><stop offset="0" stop-color="#fe646f"/><stop offset=".593" stop-color="#fb2b3a"/><stop offset="1" stop-color="#c41926"/></linearGradient><linearGradient id="SVGID_4_" gradientUnits="userSpaceOnUse" x1="14.069" x2="546.78" xlink:href="#lg3" y1="255" y2="255"/><linearGradient id="SVGID_5_" gradientUnits="userSpaceOnUse" x1="-114.836" x2="392.569" xlink:href="#lg3" y1="255.004" y2="255.004"/><linearGradient id="SVGID_6_" gradientUnits="userSpaceOnUse" x1="247.581" x2="505.809" xlink:href="#lg1" y1="119.472" y2="119.472"/><linearGradient id="SVGID_7_" gradientUnits="userSpaceOnUse" x1="247.581" x2="505.809" xlink:href="#lg1" y1="202.004" y2="202.004"/><linearGradient id="SVGID_8_" gradientUnits="userSpaceOnUse" x1="247.581" x2="505.809" xlink:href="#lg1" y1="91.477" y2="91.477"/><g><path d="m380.139 334.265c-10.89-10.308-28.167-9.658-38.77.945l-41.396 41.396c-45.998 45.999-120.884 47.136-167.146 1.402-46.452-45.922-46.615-121.077-.489-167.203l42.313-42.313c10.604-10.604 11.253-27.881.944-38.771-10.696-11.299-28.53-11.483-39.459-.554l-42.718 42.718c-57.424 57.424-65.932 145.515-25.54 212.038 4.265 7.024 3.063 16.077-2.747 21.887l-56.805 56.805c-10.603 10.603-11.253 27.88-.945 38.77 10.695 11.299 28.53 11.485 39.46.555l57.21-57.21c5.81-5.81 14.863-7.012 21.887-2.747 66.522 40.392 154.613 31.884 212.038-25.54l42.718-42.718c10.929-10.93 10.744-28.765-.555-39.46z" fill="url(#SVGID_1_)"/><g><path d="m385.45 341.187c-6.901-4.595-13.735-9.273-20.47-14.072-8.388-1.07-17.214 1.698-23.611 8.095l-41.396 41.396c-22.63 22.63-52.253 34.394-82.019 35.068.378.315.756.629 1.134.944 14.378 11.945 6.804 35.464-11.863 36.452-34.077 1.803-68.588-6.398-98.702-24.608-7.129-4.311-16.254-3.319-22.146 2.573l-57.221 57.221c-7.545 7.545-18.379 9.791-27.885 6.742 1.189 3.773 3.218 7.332 6.111 10.388 10.695 11.299 28.531 11.484 39.46.555l57.21-57.21c5.89-5.89 15.016-6.902 22.144-2.592 45.424 27.473 100.858 32.183 149.711 14.124 0 0 .003-.007.004-.009 22.655-8.376 43.897-21.641 62.066-39.81l42.718-42.718c8.81-8.813 10.392-22.111 4.755-32.539z" fill="url(#SVGID_2_)"/><path d="m132.338 210.805 42.313-42.313c6.417-6.417 9.181-15.276 8.085-23.686-4.771-6.7-9.423-13.496-13.991-20.359-10.439-5.682-23.777-4.112-32.609 4.72l-42.718 42.718c-18.161 18.161-31.423 39.391-39.799 62.033 14.038 19.805 28.805 39.023 44.276 57.614.649-29.305 12.129-58.413 34.443-80.727z" fill="url(#SVGID_3_)"/></g><path d="m469.079 362.466c-137.296-73.367-248.177-184.249-321.544-321.545-18.795-35.172-61.289-50.25-98.133-34.989-.483.2-.967.4-1.45.6-42.468 17.591-60.397 67.983-38.714 108.515 87.954 164.41 221.305 297.762 385.716 385.716 40.532 21.683 90.923 3.754 108.514-38.714.2-.483.4-.967.601-1.45 15.261-36.844.183-79.338-34.99-98.133z" fill="url(#SVGID_4_)"/><path d="m468.95 362.397c-137.236-73.368-248.071-184.223-321.415-321.476-17.157-32.107-54.06-47.455-88.387-38.281 20.09 5.357 37.903 18.699 48.367 38.281 27.002 50.53 59.102 97.466 95.712 140.286h-15.939c-6.883 0-12.787 5.385-12.912 12.267-.128 7.011 5.517 12.733 12.498 12.733h20.547c11.463 0 22.412 4.665 30.421 12.866l.126.129h-13.848c-6.883 0-12.787 5.385-12.912 12.267-.128 7.011 5.517 12.733 12.498 12.733h23.375c10.433 0 20.497 3.851 28.271 10.809.815.73 1.632 1.458 2.451 2.185h-16.849c-6.883 0-12.787 5.385-12.912 12.267-.128 7.011 5.517 12.734 12.498 12.734h32.17c9.325 0 18.414 3.044 25.791 8.748 34.552 26.715 71.497 50.65 110.589 71.538 35.166 18.79 50.219 61.282 34.96 98.117-.2.483-.4.967-.601 1.45-9.69 23.394-29.334 39.337-51.8 45.319 36.733 9.836 76.582-8.532 91.82-45.319.2-.483.4-.967.601-1.45 15.284-36.901.103-79.373-35.12-98.203z" fill="url(#SVGID_5_)"/><g><path d="m315.301 118.808c-9.995-9.995-9.995-26.199 0-36.194 11.798-11.798 9.333-31.549-5.002-40.086l-22.312-13.288c-8.329-4.96-16.891 6.042-10.036 12.898 9.51 9.51 9.51 24.928 0 34.438l-6.916 6.916c-9.51 9.51-9.51 24.928 0 34.438l6.916 6.916c9.51 9.51 9.51 24.928 0 34.438-11.823 11.823-8.487 31.771 6.539 39.104l24.509 11.96c5.58 2.723 10.692-4.442 6.302-8.832-9.995-9.995-9.995-26.199 0-36.194l5.16-5.16c9.995-9.995 9.995-26.199 0-36.194z" fill="url(#SVGID_6_)"/><path d="m411.709 201.34c-9.995-9.995-9.995-26.199 0-36.194 11.798-11.798 9.333-31.549-5.002-40.086l-22.312-13.288c-8.329-4.96-16.891 6.043-10.036 12.898 9.51 9.51 9.51 24.928 0 34.438l-6.916 6.916c-9.51 9.51-9.51 24.928 0 34.438l6.916 6.916c9.51 9.51 9.51 24.928 0 34.438-11.823 11.823-8.487 31.771 6.539 39.104l24.509 11.961c5.58 2.723 10.692-4.442 6.302-8.832-9.995-9.995-9.995-26.199 0-36.194l5.16-5.16c9.995-9.995 9.995-26.199 0-36.194z" fill="url(#SVGID_7_)"/><path d="m502.504 132.167c9.995-9.995 9.995-26.199 0-36.194l-5.16-5.16c-9.995-9.995-9.995-26.199 0-36.194 11.798-11.798 9.333-31.549-5.002-40.086l-22.311-13.288c-8.329-4.96-16.891 6.042-10.036 12.898 9.51 9.51 9.51 24.928 0 34.438l-6.916 6.916c-9.51 9.51-9.51 24.928 0 34.438l6.916 6.916c9.51 9.51 9.51 24.928 0 34.438-11.823 11.823-8.487 31.771 6.539 39.104l24.509 11.96c5.58 2.723 10.692-4.442 6.302-8.832-9.995-9.995-9.995-26.199 0-36.194z" fill="url(#SVGID_8_)"/></g></g></svg>