<svg id="Capa_1" enable-background="new 0 0 510 510" height="512" viewBox="0 0 510 510" width="512" xmlns="http://www.w3.org/2000/svg" xmlns:xlink="http://www.w3.org/1999/xlink"><linearGradient id="lg1"><stop offset="0" stop-color="#fef056"/><stop offset=".5213" stop-color="#f4d902"/><stop offset="1" stop-color="#fe9738"/></linearGradient><linearGradient id="SVGID_1_" gradientUnits="userSpaceOnUse" x1="23.629" x2="494.627" xlink:href="#lg1" y1="225" y2="225"/><linearGradient id="SVGID_2_" gradientUnits="userSpaceOnUse" x1="-69" x2="405.465" xlink:href="#lg1" y1="286.275" y2="286.275"/><linearGradient id="SVGID_3_" gradientUnits="userSpaceOnUse" x1="-69" x2="405.465" xlink:href="#lg1" y1="112.084" y2="112.084"/><linearGradient id="SVGID_4_" gradientUnits="userSpaceOnUse" x1="-69" x2="405.465" xlink:href="#lg1" y1="225.005" y2="225.005"/><linearGradient id="lg2"><stop offset="0" stop-color="#fef056"/><stop offset=".5213" stop-color="#fbc56d"/><stop offset="1" stop-color="#c86d36"/></linearGradient><linearGradient id="SVGID_5_" gradientUnits="userSpaceOnUse" x1="22.129" x2="541.112" xlink:href="#lg2" y1="417.355" y2="417.355"/><linearGradient id="SVGID_6_" gradientUnits="userSpaceOnUse" x1="-87.333" x2="510.292" xlink:href="#lg2" y1="489.5" y2="489.5"/><linearGradient id="SVGID_7_" gradientUnits="userSpaceOnUse" x1="-87.333" x2="510.292" xlink:href="#lg2" y1="463.167" y2="463.167"/><linearGradient id="SVGID_8_" gradientUnits="userSpaceOnUse" x1="-87.333" x2="510.292" xlink:href="#lg2" y1="392.09" y2="392.09"/><linearGradient id="SVGID_9_" gradientUnits="userSpaceOnUse" x1="-87.333" x2="510.292" xlink:href="#lg2" y1="417.355" y2="417.355"/><linearGradient id="lg3"><stop offset="0" stop-color="#fe646f"/><stop offset=".593" stop-color="#fb2b3a"/><stop offset="1" stop-color="#c41926"/></linearGradient><linearGradient id="SVGID_10_" gradientUnits="userSpaceOnUse" x1="73.167" x2="278.774" xlink:href="#lg3" y1="269.747" y2="269.747"/><linearGradient id="SVGID_11_" gradientUnits="userSpaceOnUse" x1="-62" x2="253.967" xlink:href="#lg3" y1="269.747" y2="269.747"/><linearGradient id="SVGID_12_" gradientUnits="userSpaceOnUse" x1="-62" x2="253.967" xlink:href="#lg3" y1="267.726" y2="267.726"/><linearGradient id="SVGID_13_" gradientUnits="userSpaceOnUse" x1="311.4" x2="477.5" xlink:href="#lg3" y1="293.481" y2="293.481"/><linearGradient id="SVGID_14_" gradientUnits="userSpaceOnUse" x1="228.667" x2="443.437" xlink:href="#lg3" y1="293.481" y2="293.481"/><linearGradient id="SVGID_15_" gradientUnits="userSpaceOnUse" x1="228.667" x2="443.437" xlink:href="#lg3" y1="276.075" y2="276.075"/><linearGradient id="SVGID_16_" gradientUnits="userSpaceOnUse" x1="203.714" x2="321.867" xlink:href="#lg3" y1="95.555" y2="95.555"/><linearGradient id="SVGID_17_" gradientUnits="userSpaceOnUse" x1="156.357" x2="296.389" xlink:href="#lg3" y1="95.555" y2="95.555"/><linearGradient id="lg4"><stop offset="0" stop-color="#a2e62e"/><stop offset=".5857" stop-color="#81b823"/><stop offset="1" stop-color="#037e73"/></linearGradient><linearGradient id="SVGID_18_" gradientUnits="userSpaceOnUse" x1="214.389" x2="373.083" xlink:href="#lg4" y1="185.207" y2="185.207"/><linearGradient id="SVGID_19_" gradientUnits="userSpaceOnUse" x1="207.333" x2="324.007" xlink:href="#lg4" y1="362.04" y2="362.04"/><g><path d="m443.34 292.8-159.39-276.09c-12.87-22.28-45.03-22.28-57.9 0l-159.39 276.09-37.19 64.4c44.96 55.47 129.12 92.8 225.53 92.8s180.57-37.33 225.53-92.8z" fill="url(#SVGID_1_)"/><g><path d="m232.74 286.28c0-50.98-41.32-92.3-92.29-92.3-6.07 0-11.99.58-17.73 1.71l-56.06 97.11-13.53 23.43c12.44 36.27 46.83 62.34 87.32 62.34 50.97 0 92.29-41.32 92.29-92.29z" fill="url(#SVGID_2_)"/><circle cx="225.346" cy="112.084" fill="url(#SVGID_3_)" r="46.643"/><path d="m443.34 292.8-159.39-276.09c-9.937-17.203-31.369-21.11-46.547-11.747l133.453 231.163c-3.244-.431-6.547-.675-9.908-.675-41.178 0-74.559 33.381-74.559 74.559 0 19.417 7.424 37.096 19.588 50.358 15.698 17.115 8.029 44.701-14.398 50.734-28.583 7.69-59.567 11.898-91.932 11.898-42.481 0-82.581-7.251-117.999-20.105 46.021 29.294 106.763 47.105 173.352 47.105 96.41 0 180.57-37.33 225.53-92.8z" fill="url(#SVGID_4_)"/></g><path d="m477.491 324.709c-9.429 0-18.252 4.777-23.286 12.75-37.436 59.297-112.589 99.787-199.205 99.787s-161.769-40.49-199.205-99.786c-5.034-7.973-13.856-12.75-23.286-12.75-22.034 0-37.763 21.526-30.872 42.455 26.955 81.871 130.16 142.835 253.363 142.835s226.408-60.964 253.363-142.836c6.89-20.929-8.838-42.455-30.872-42.455z" fill="url(#SVGID_5_)"/><g><path d="m256.295 502.667c7.272 0 13.167-5.895 13.167-13.167s-5.895-13.167-13.167-13.167-13.167 5.895-13.167 13.167 5.895 13.167 13.167 13.167z" fill="url(#SVGID_6_)"/><path d="m184.826 450c-7.272 0-13.167 5.895-13.167 13.167s5.895 13.167 13.167 13.167 13.167-5.895 13.167-13.167-5.895-13.167-13.167-13.167z" fill="url(#SVGID_7_)"/><path d="m55.893 337.614c-5.077-8.023-13.889-12.905-23.384-12.905-8.1 0-15.342 2.916-20.927 7.635 1.581 1.512 2.997 3.22 4.193 5.115 20.062 31.777 50.96 58.149 88.646 75.787-7.414 4.711-12.189 13.203-11.593 22.767.778 12.478 10.933 22.632 23.411 23.408 14.566.905 26.662-10.641 26.662-25.012 0-.025 0-.05 0-.075-.01-3.435 3.132-5.969 6.463-5.129 20.755 5.229 42.787 8.043 65.616 8.043 6.744 0 13.418-.246 20.01-.727-78.006-5.689-144.548-44.309-179.097-98.907z" fill="url(#SVGID_8_)"/><path d="m477.491 324.709c-7.189 0-14.019 2.783-19.093 7.635 9.608 8.118 14.302 21.584 9.945 34.819-9.015 27.382-26.568 52.418-50.536 73.622-5.176-7.222-13.906-11.723-23.637-10.923-12.689 1.042-22.958 11.309-24.015 23.997-.01.119-.019.238-.027.357-.891 12.703-8.591 23.917-20.28 28.971-33.967 14.687-73.028 23.997-114.857 26.262 6.605.358 13.275.551 20.009.551 123.203 0 226.408-60.964 253.363-142.836 6.89-20.929-8.838-42.455-30.872-42.455z" fill="url(#SVGID_9_)"/></g><g><circle cx="165.46" cy="269.747" fill="url(#SVGID_10_)" r="92.293"/><g><path d="m165.46 177.454c-5.654 0-11.18.536-16.554 1.51 43.068 7.804 75.739 45.466 75.739 90.783 0 14.759-3.483 28.695-9.644 41.063-3.122-14.058-16.063-24.421-31.261-23.502-14.769.893-26.923 12.757-28.138 27.503-.638 7.746 1.658 14.942 5.897 20.597 6.731 8.978 2.008 21.938-8.943 24.385-1.208.27-2.425.516-3.65.738 5.373.974 10.9 1.51 16.554 1.51 50.972 0 92.293-41.321 92.293-92.293 0-50.973-41.322-92.294-92.293-92.294z" fill="url(#SVGID_11_)"/><circle cx="118.792" cy="267.726" fill="url(#SVGID_12_)" r="19.525"/></g></g><g><circle cx="385.959" cy="293.481" fill="url(#SVGID_13_)" r="74.559"/><g><path d="m385.959 218.922c-4.568 0-9.032.433-13.373 1.219 34.792 6.304 61.186 36.729 61.186 73.339 0 11.923-2.814 23.181-7.791 33.172-2.523-11.357-12.977-19.729-25.254-18.986-11.931.721-21.75 10.306-22.732 22.218-.516 6.258 1.339 12.071 4.764 16.639 5.438 7.253 1.622 17.723-7.225 19.7-.976.218-1.959.417-2.948.596 4.341.787 8.805 1.219 13.373 1.219 41.177 0 74.559-33.381 74.559-74.559-.001-41.176-33.382-74.557-74.559-74.557z" fill="url(#SVGID_14_)"/><circle cx="370.186" cy="276.075" fill="url(#SVGID_15_)" r="15.773"/></g></g><g><circle cx="250.357" cy="95.555" fill="url(#SVGID_16_)" r="46.643"/><path d="m250.357 48.911c-4.334 0-8.524.604-12.505 1.709 19.685 5.468 34.138 23.507 34.138 44.934s-14.453 39.466-34.138 44.934c3.981 1.106 8.172 1.709 12.505 1.709 25.76 0 46.643-20.883 46.643-46.643s-20.883-46.643-46.643-46.643z" fill="url(#SVGID_17_)"/></g><path d="m295.437 208.543c-19.879 0-38.411-10.696-48.362-27.915-3.455-5.977-1.41-13.623 4.567-17.077 5.977-3.457 13.623-1.409 17.077 4.567 5.499 9.514 15.737 15.425 26.718 15.425s21.219-5.91 26.717-15.424c3.454-5.978 11.1-8.022 17.077-4.568 5.978 3.455 8.022 11.1 4.568 17.077-9.951 17.219-28.482 27.915-48.362 27.915z" fill="url(#SVGID_18_)"/><path d="m287.096 381.419c-11.315 16.345-30.657 25.494-50.479 23.876-6.881-.562-12.003-6.595-11.442-13.475.56-6.882 6.595-12.003 13.475-11.442 10.953.894 21.64-4.16 27.89-13.188 6.25-9.029 7.218-20.811 2.525-30.747-2.949-6.242-.278-13.693 5.964-16.641 6.243-2.949 13.693-.278 16.641 5.964 8.493 17.982 6.741 39.307-4.574 55.653z" fill="url(#SVGID_19_)"/></g></svg>