<svg id="Capa_1" enable-background="new 0 0 510 510" height="512" viewBox="0 0 510 510" width="512" xmlns="http://www.w3.org/2000/svg" xmlns:xlink="http://www.w3.org/1999/xlink"><linearGradient id="lg1"><stop offset="0" stop-color="#fef056"/><stop offset=".5213" stop-color="#f4d902"/><stop offset="1" stop-color="#fe9738"/></linearGradient><linearGradient id="SVGID_1_" gradientUnits="userSpaceOnUse" x1="224.981" x2="335.327" xlink:href="#lg1" y1="186.208" y2="186.208"/><linearGradient id="SVGID_2_" gradientUnits="userSpaceOnUse" x1="147.895" x2="347.299" xlink:href="#lg1" y1="186.208" y2="186.208"/><linearGradient id="SVGID_3_" gradientUnits="userSpaceOnUse" x1="228.986" x2="368.156" xlink:href="#lg1" y1="206.16" y2="206.16"/><linearGradient id="SVGID_4_" gradientUnits="userSpaceOnUse" x1="227.984" x2="424.513" xlink:href="#lg1" y1="161.877" y2="161.877"/><linearGradient id="SVGID_5_" gradientUnits="userSpaceOnUse" x1="146.894" x2="420.488" xlink:href="#lg1" y1="161.886" y2="161.886"/><linearGradient id="SVGID_6_" gradientUnits="userSpaceOnUse" x1="149.897" x2="266.182" xlink:href="#lg1" y1="131.076" y2="131.076"/><linearGradient id="SVGID_7_" gradientUnits="userSpaceOnUse" x1="64.802" x2="249.432" xlink:href="#lg1" y1="131.076" y2="131.076"/><linearGradient id="SVGID_8_" gradientUnits="userSpaceOnUse" x1="37.772" x2="164.107" xlink:href="#lg1" y1="227.684" y2="227.684"/><linearGradient id="SVGID_9_" gradientUnits="userSpaceOnUse" x1="-14.954" x2="145.609" xlink:href="#lg1" y1="227.684" y2="227.684"/><linearGradient id="SVGID_10_" gradientUnits="userSpaceOnUse" x1="274.036" x2="447.389" xlink:href="#lg1" y1="224.681" y2="224.681"/><linearGradient id="SVGID_11_" gradientUnits="userSpaceOnUse" x1="229.486" x2="439.495" xlink:href="#lg1" y1="224.683" y2="224.683"/><linearGradient id="SVGID_12_" gradientUnits="userSpaceOnUse" x1="135.881" x2="242.471" xlink:href="#lg1" y1="192.725" y2="192.725"/><linearGradient id="SVGID_13_" gradientUnits="userSpaceOnUse" x1="97.839" x2="248.34" xlink:href="#lg1" y1="192.725" y2="192.725"/><linearGradient id="SVGID_14_" gradientUnits="userSpaceOnUse" x1="385.16" x2="488.047" xlink:href="#lg1" y1="233.86" y2="233.86"/><linearGradient id="SVGID_15_" gradientUnits="userSpaceOnUse" x1="318.586" x2="495.879" y1="233.86" y2="233.86"><stop offset="0" stop-color="#fef056"/><stop offset=".5213" stop-color="#f4d902"/><stop offset=".6562" stop-color="#f7c612"/><stop offset="1" stop-color="#fe9738"/></linearGradient><linearGradient id="SVGID_16_" gradientUnits="userSpaceOnUse" x1="43.778" x2="192.16" xlink:href="#lg1" y1="132.467" y2="132.467"/><linearGradient id="SVGID_17_" gradientUnits="userSpaceOnUse" x1="-29.804" x2="195.309" xlink:href="#lg1" y1="132.468" y2="132.468"/><linearGradient id="lg2"><stop offset="0" stop-color="#60b7ff"/><stop offset=".5857" stop-color="#0182fc"/><stop offset="1" stop-color="#2740b0"/></linearGradient><linearGradient id="SVGID_18_" gradientUnits="userSpaceOnUse" x1="54.891" x2="473.158" xlink:href="#lg2" y1="347.604" y2="347.604"/><linearGradient id="SVGID_19_" gradientUnits="userSpaceOnUse" x1="-71.69" x2="391.281" xlink:href="#lg2" y1="362.04" y2="362.04"/><linearGradient id="SVGID_20_" gradientUnits="userSpaceOnUse" x1="165.563" x2="345.856" xlink:href="#lg1" y1="314.637" y2="314.637"/><g><g><path d="m276.64 372.416h-29.234c-7.132 0-12.914-5.782-12.914-12.914v-346.588c0-7.132 5.781-12.914 12.913-12.914h29.234c7.132 0 12.914 5.782 12.914 12.914v346.589c0 7.132-5.781 12.913-12.913 12.913z" fill="url(#SVGID_1_)"/><path d="m276.64 0h-25.039c7.132 0 12.914 5.782 12.914 12.914v346.589c0 7.132-5.782 12.914-12.914 12.914h25.039c7.132 0 12.914-5.782 12.914-12.914v-346.589c-.001-7.132-5.782-12.914-12.914-12.914z" fill="url(#SVGID_2_)"/><path d="m352.295 307.814-53.064-188.379c-1.934-6.865 2.064-13.997 8.928-15.931l28.139-7.927c6.865-1.934 13.998 2.064 15.931 8.929l53.064 188.379c1.934 6.865-2.064 13.997-8.928 15.931l-28.139 7.927c-6.864 1.934-13.997-2.064-15.931-8.929z" fill="url(#SVGID_3_)"/><path d="m271.148 309.351-27.762-9.161c-6.773-2.235-10.452-9.537-8.217-16.31l80.549-244.114c4.15-12.575 14.318-21.91 27.201-24.971 12.881-3.063 26.163.7 35.526 10.063l34.571 34.571c5.043 5.043 5.043 13.22 0 18.263l-20.671 20.671c-5.043 5.043-13.22 5.043-18.263 0-6.8-6.8-18.381-4.048-21.395 5.085l-65.229 197.685c-2.235 6.774-9.537 10.453-16.31 8.218z" fill="url(#SVGID_4_)"/><path d="m413.015 59.43-34.571-34.571c-7.957-7.957-18.745-11.852-29.711-10.967 1.639 1.185 3.208 2.495 4.672 3.959l34.571 34.571c5.043 5.043 5.043 13.22 0 18.263l-20.672 20.672c-5.043 5.043-13.22 5.043-18.263 0-6.8-6.8-18.381-4.048-21.395 5.085l-65.229 197.685c-1.631 4.943-5.963 8.224-10.816 8.776l19.545 6.449c6.773 2.235 14.075-1.444 16.31-8.217l65.229-197.685c3.013-9.133 14.594-11.885 21.395-5.085 5.043 5.043 13.22 5.043 18.263 0l20.671-20.672c5.045-5.044 5.045-13.22.001-18.263z" fill="url(#SVGID_5_)"/><path d="m207.525 232.73-53.064-188.378c-1.934-6.865 2.064-13.997 8.928-15.931l28.139-7.927c6.865-1.934 13.998 2.064 15.931 8.929l53.064 188.379c1.934 6.865-2.064 13.997-8.928 15.931l-28.139 7.927c-6.864 1.933-13.997-2.065-15.931-8.93z" fill="url(#SVGID_6_)"/><path d="m260.524 217.801-53.064-188.379c-1.934-6.865-9.067-10.862-15.931-8.929l-12.254 3.452c1.441 1.488 2.545 3.343 3.146 5.476l14.714 52.234-11.407-2.695c-6.941-1.64-13.897 2.658-15.537 9.599l-1.495 6.326 30.771 109.237 14.671-62.104 21.347 75.781c1.934 6.865-2.064 13.997-8.928 15.931l-15.885 4.475c3.196 3.299 8.054 4.785 12.785 3.452l28.139-7.927c6.865-1.932 10.862-9.064 8.928-15.929z" fill="url(#SVGID_7_)"/><path d="m115.722 329.338-53.064-188.378c-1.934-6.865 2.064-13.997 8.928-15.931l28.139-7.927c6.865-1.934 13.998 2.064 15.931 8.929l53.064 188.379c1.934 6.865-2.064 13.997-8.928 15.931l-28.139 7.927c-6.864 1.933-13.997-2.065-15.931-8.93z" fill="url(#SVGID_8_)"/><g><path d="m159.788 330.339-28.131 7.929c-4.735 1.332-9.601-.15-12.794-3.454l15.888-4.475c6.868-1.932 10.862-9.07 8.93-15.928l-33.795-119.987c-2.159-7.667-5.412-14.982-9.657-21.722l-29.79-47.292c.37-.14.761-.27 1.151-.381l28.131-7.929c6.868-1.932 14.006 2.062 15.938 8.93l31.375 111.385 21.684 76.996c1.932 6.858-2.062 13.996-8.93 15.928z" fill="url(#SVGID_9_)"/></g><path d="m315.387 330.149-26.096-13.176c-6.367-3.214-8.922-10.981-5.707-17.348l88.206-174.705c3.214-6.367 10.981-8.922 17.348-5.707l26.096 13.176c6.366 3.214 8.922 10.981 5.707 17.348l-88.207 174.705c-3.213 6.366-10.98 8.922-17.347 5.707z" fill="url(#SVGID_10_)"/><path d="m420.94 149.737-73.672 145.913-14.536 28.792c-3.214 6.367-10.982 8.92-17.349 5.706l-8.519-4.295c.3-.451.581-.921.831-1.412l61.589-121.986 13.549-57.344c2.035-8.613-2.101-17.498-10.002-21.486l-.214-.108c3.544-5.276 10.502-7.228 16.348-4.385.06.02.11.05.17.08l26.099 13.175c6.367 3.214 8.92 10.983 5.706 17.35z" fill="url(#SVGID_11_)"/><path d="m137.202 344.251-28.451-6.721c-6.941-1.64-11.239-8.596-9.599-15.537l64.066-271.196c1.64-6.941 8.596-11.238 15.537-9.599l28.451 6.721c6.941 1.64 11.239 8.596 9.599 15.537l-64.066 271.196c-1.64 6.942-8.596 11.239-15.537 9.599z" fill="url(#SVGID_12_)"/><path d="m207.206 47.92-28.451-6.721c-4.364-1.031-8.731.288-11.782 3.132l15.194 3.589c6.941 1.64 11.239 8.596 9.599 15.537l-64.066 271.196c-.609 2.577-1.953 4.787-3.755 6.467l13.257 3.132c6.941 1.64 13.897-2.658 15.537-9.599l64.066-271.196c1.639-6.941-2.658-13.897-9.599-15.537z" fill="url(#SVGID_13_)"/><path d="m394.417 385.386-28.451-6.721c-6.941-1.64-11.239-8.596-9.599-15.537l64.066-271.196c1.64-6.941 8.596-11.238 15.537-9.599l28.451 6.721c6.941 1.64 11.239 8.596 9.599 15.537l-64.066 271.196c-1.64 6.941-8.596 11.239-15.537 9.599z" fill="url(#SVGID_14_)"/><path d="m474.02 104.587-64.062 271.203c-1.642 6.938-8.6 11.233-15.537 9.601l-13.265-3.134c1.802-1.672 3.144-3.894 3.754-6.467l64.072-271.203c1.642-6.938-2.663-13.896-9.601-15.527l-15.197-3.594c3.053-2.843 7.418-4.165 11.783-3.133l28.452 6.727c6.947 1.631 11.242 8.589 9.601 15.527z" fill="url(#SVGID_15_)"/><path d="m180.085 235.476c-6.034 3.802-14.008 1.992-17.81-4.042l-71.311-113.183c-8.394-13.324-20.017-24.57-33.612-32.521l-15.325-8.964c-6.156-3.601-8.228-11.511-4.627-17.667l14.76-25.235c3.601-6.156 11.511-8.228 17.667-4.627l15.326 8.964c21.193 12.396 39.312 29.927 52.398 50.698l71.311 113.183c3.802 6.034 1.992 14.008-4.042 17.81z" fill="url(#SVGID_16_)"/><path d="m208.862 202.083-71.311-113.183c-13.087-20.771-31.206-38.302-52.398-50.698l-15.326-8.964c-6.077-3.554-13.855-1.574-17.518 4.399l7.805 4.565c21.192 12.396 39.311 29.926 52.398 50.698l71.311 113.183c3.802 6.034 1.992 14.008-4.042 17.81l-17.736 11.174.231.367c3.802 6.034 11.775 7.844 17.81 4.042l24.734-15.584c6.034-3.801 7.844-11.775 4.042-17.809z" fill="url(#SVGID_17_)"/></g><path d="m55.708 258.89 58.735 237.208c2.043 8.255 8.274 13.902 15.338 13.902h14.727c28.151 0 56.26-4.082 83.408-13.168 11.338-3.795 23.48-5.853 36.109-5.853s24.772 2.058 36.109 5.853c27.148 9.086 55.257 13.168 83.408 13.168h14.727c7.064 0 13.295-5.647 15.338-13.902l58.735-237.208c2.777-11.216-1.726-23.166-10.481-27.972-51.621-28.341-121.241-45.711-197.836-45.711s-146.215 17.37-197.836 45.711c-8.755 4.806-13.258 16.756-10.481 27.972z" fill="url(#SVGID_18_)"/><g><path d="m461.861 230.918c-11.206-6.152-23.262-11.785-36.051-16.838 6.032 6.227 8.779 16.764 6.467 26.772l-58.735 254.247c-1.616 6.999-5.857 12.235-11.054 14.123 7.006.523 14.028.777 21.054.777h14.727c7.064 0 13.295-5.647 15.338-13.902l58.735-237.208c2.777-11.215-1.727-23.165-10.481-27.971z" fill="url(#SVGID_19_)"/></g><path d="m161.011 280.302 10.141 80.716c1.092 8.695 9.169 14.704 17.827 13.35 23.928-3.743 49.085-5.741 75.046-5.741s51.118 1.998 75.046 5.741c8.658 1.354 16.735-4.655 17.827-13.35l10.141-80.716c1.014-8.069-4.38-15.583-12.366-17.121-28.505-5.489-58.977-8.467-90.648-8.467s-62.143 2.977-90.648 8.467c-7.986 1.538-13.38 9.052-12.366 17.121z" fill="url(#SVGID_20_)"/></g></svg>