<svg id="Capa_1" enable-background="new 0 0 510 510" height="512" viewBox="0 0 510 510" width="512" xmlns="http://www.w3.org/2000/svg" xmlns:xlink="http://www.w3.org/1999/xlink"><linearGradient id="lg1"><stop offset="0" stop-color="#fef056"/><stop offset=".5213" stop-color="#fbc56d"/><stop offset="1" stop-color="#c86d36"/></linearGradient><linearGradient id="SVGID_1_" gradientUnits="userSpaceOnUse" x1="112.122" x2="436.721" xlink:href="#lg1" y1="192.095" y2="192.095"/><linearGradient id="SVGID_2_" gradientUnits="userSpaceOnUse" x1="45.845" x2="418.281" xlink:href="#lg1" y1="195.183" y2="195.183"/><linearGradient id="SVGID_3_" gradientUnits="userSpaceOnUse" x1="45.845" x2="418.281" xlink:href="#lg1" y1="264.153" y2="264.153"/><linearGradient id="SVGID_4_" gradientUnits="userSpaceOnUse" x1="47.032" x2="418.179" xlink:href="#lg1" y1="192.095" y2="192.095"/><linearGradient id="lg2"><stop offset="0" stop-color="#fbc56d"/><stop offset=".593" stop-color="#c86d36"/><stop offset="1" stop-color="#904d24"/></linearGradient><linearGradient id="SVGID_5_" gradientUnits="userSpaceOnUse" x1="117.843" x2="392.157" xlink:href="#lg2" y1="124.756" y2="124.756"/><linearGradient id="SVGID_6_" gradientUnits="userSpaceOnUse" x1="-29.217" x2="391.086" xlink:href="#lg2" y1="173.012" y2="173.012"/><linearGradient id="SVGID_7_" gradientUnits="userSpaceOnUse" x1="-29.217" x2="391.086" xlink:href="#lg2" y1="102.391" y2="102.391"/><linearGradient id="lg3"><stop offset="0" stop-color="#a2e62e"/><stop offset=".5857" stop-color="#81b823"/><stop offset="1" stop-color="#037e73"/></linearGradient><linearGradient id="SVGID_8_" gradientUnits="userSpaceOnUse" x1="152.403" x2="326.564" xlink:href="#lg3" y1="72.216" y2="72.216"/><linearGradient id="SVGID_9_" gradientUnits="userSpaceOnUse" x1="152.403" x2="326.564" xlink:href="#lg3" y1="59.515" y2="59.515"/><linearGradient id="SVGID_11_" gradientUnits="userSpaceOnUse" x1="152.403" x2="326.564" xlink:href="#lg3" y1="64.437" y2="64.437"/><linearGradient id="SVGID_12_" gradientUnits="userSpaceOnUse" x1="152.403" x2="326.564" xlink:href="#lg3" y1="77.138" y2="77.138"/><linearGradient id="SVGID_13_" gradientUnits="userSpaceOnUse" x1="152.403" x2="326.564" xlink:href="#lg3" y1="62.373" y2="62.373"/><linearGradient id="SVGID_14_" gradientUnits="userSpaceOnUse" x1="152.403" x2="326.564" xlink:href="#lg3" y1="52.178" y2="52.178"/><linearGradient id="SVGID_15_" gradientUnits="userSpaceOnUse" x1="-5.721" x2="318.878" xlink:href="#lg1" y1="374.927" y2="374.927"/><linearGradient id="SVGID_16_" gradientUnits="userSpaceOnUse" x1="-71.997" x2="300.438" xlink:href="#lg1" y1="378.015" y2="378.015"/><linearGradient id="SVGID_17_" gradientUnits="userSpaceOnUse" x1="-71.997" x2="300.438" xlink:href="#lg1" y1="446.985" y2="446.985"/><linearGradient id="SVGID_18_" gradientUnits="userSpaceOnUse" x1="-70.811" x2="300.337" xlink:href="#lg1" y1="374.927" y2="374.927"/><linearGradient id="SVGID_19_" gradientUnits="userSpaceOnUse" x1="0" x2="274.315" xlink:href="#lg2" y1="307.589" y2="307.589"/><linearGradient id="SVGID_20_" gradientUnits="userSpaceOnUse" x1="-147.059" x2="273.244" xlink:href="#lg2" y1="355.844" y2="355.844"/><linearGradient id="SVGID_21_" gradientUnits="userSpaceOnUse" x1="-147.059" x2="273.244" xlink:href="#lg2" y1="285.224" y2="285.224"/><linearGradient id="SVGID_22_" gradientUnits="userSpaceOnUse" x1="34.56" x2="208.721" xlink:href="#lg3" y1="255.049" y2="255.049"/><linearGradient id="SVGID_23_" gradientUnits="userSpaceOnUse" x1="34.56" x2="208.721" xlink:href="#lg3" y1="242.348" y2="242.348"/><linearGradient id="SVGID_25_" gradientUnits="userSpaceOnUse" x1="34.56" x2="208.721" xlink:href="#lg3" y1="247.269" y2="247.269"/><linearGradient id="SVGID_26_" gradientUnits="userSpaceOnUse" x1="34.56" x2="208.721" xlink:href="#lg3" y1="259.97" y2="259.97"/><linearGradient id="SVGID_27_" gradientUnits="userSpaceOnUse" x1="34.56" x2="208.721" xlink:href="#lg3" y1="245.205" y2="245.205"/><linearGradient id="SVGID_28_" gradientUnits="userSpaceOnUse" x1="34.56" x2="208.721" xlink:href="#lg3" y1="235.011" y2="235.011"/><linearGradient id="SVGID_29_" gradientUnits="userSpaceOnUse" x1="229.964" x2="554.563" xlink:href="#lg1" y1="374.927" y2="374.927"/><linearGradient id="SVGID_30_" gradientUnits="userSpaceOnUse" x1="163.688" x2="536.123" xlink:href="#lg1" y1="378.015" y2="378.015"/><linearGradient id="SVGID_31_" gradientUnits="userSpaceOnUse" x1="163.688" x2="536.123" xlink:href="#lg1" y1="446.985" y2="446.985"/><linearGradient id="SVGID_32_" gradientUnits="userSpaceOnUse" x1="164.875" x2="536.022" xlink:href="#lg1" y1="374.927" y2="374.927"/><linearGradient id="SVGID_33_" gradientUnits="userSpaceOnUse" x1="235.685" x2="510" xlink:href="#lg2" y1="307.589" y2="307.589"/><linearGradient id="SVGID_34_" gradientUnits="userSpaceOnUse" x1="180" x2="475.169" xlink:href="#lg2" y1="355.844" y2="355.844"/><linearGradient id="SVGID_35_" gradientUnits="userSpaceOnUse" x1="180" x2="475.169" xlink:href="#lg2" y1="247.269" y2="247.269"/><linearGradient id="SVGID_36_" gradientUnits="userSpaceOnUse" x1="180" x2="475.169" xlink:href="#lg2" y1="285.224" y2="285.224"/><linearGradient id="SVGID_37_" gradientUnits="userSpaceOnUse" x1="270.245" x2="444.407" xlink:href="#lg3" y1="255.049" y2="255.049"/><linearGradient id="SVGID_38_" gradientUnits="userSpaceOnUse" x1="270.245" x2="444.407" xlink:href="#lg3" y1="242.348" y2="242.348"/><linearGradient id="SVGID_40_" gradientUnits="userSpaceOnUse" x1="270.245" x2="444.407" xlink:href="#lg3" y1="247.269" y2="247.269"/><linearGradient id="SVGID_41_" gradientUnits="userSpaceOnUse" x1="270.245" x2="444.407" xlink:href="#lg3" y1="259.97" y2="259.97"/><linearGradient id="SVGID_42_" gradientUnits="userSpaceOnUse" x1="270.245" x2="444.407" xlink:href="#lg3" y1="245.205" y2="245.205"/><linearGradient id="SVGID_43_" gradientUnits="userSpaceOnUse" x1="270.245" x2="444.407" xlink:href="#lg3" y1="235.011" y2="235.011"/><linearGradient id="SVGID_44_" gradientUnits="userSpaceOnUse" x1="342.389" x2="510.817" y1="125.711" y2="125.711"><stop offset="0" stop-color="#ffdcbd"/><stop offset=".0028" stop-color="#ffdcbd"/><stop offset="1" stop-color="#ffa9b1"/></linearGradient><g><g><g><g><circle cx="254.179" cy="192.095" fill="url(#SVGID_1_)" r="134.803"/></g><g><path d="m281.321 195.183c0-7.272-5.895-13.167-13.167-13.167s-13.167 5.895-13.167 13.167 5.895 13.167 13.167 13.167c7.272-.001 13.167-5.896 13.167-13.167z" fill="url(#SVGID_2_)"/><circle cx="250.069" cy="264.153" fill="url(#SVGID_3_)" r="25.062"/><path d="m254.179 57.291c-7.368 0-14.595.6-21.642 1.738 12.23 1.974 23.906 5.597 34.8 10.627-4.314-.386-8.699-.589-13.158-.589-49.159 0-92.708 23.971-119.63 60.852-6.521 12.522-11.133 26.195-13.452 40.636-2.643 16.459 2.198 33.406 13.605 45.561.452.482.913.958 1.383 1.427 17.232 17.232 45.172 17.232 62.404 0l16.269-16.269c29.931-29.931 72.372-41.524 112.03-32.913 11.051 2.399 18.903 12.237 18.911 23.545v.188c0 5.84-.38 11.59-1.1 17.234-1.859-.76-3.926-1.116-6.098-.932-6.505.55-11.743 6.003-12.03 12.524-.32 7.276 5.27 13.303 12.37 13.722-15.614 46.968-56.365 82.457-106.303 90.517 7.047 1.138 14.274 1.738 21.642 1.738 74.45 0 134.803-60.353 134.803-134.803-.001-74.449-60.355-134.803-134.804-134.803z" fill="url(#SVGID_4_)"/></g><path d="m198.488 192.532 16.269-16.269c39.549-39.549 100.943-47.097 148.893-18.305 15.6 9.367 34.03-6.695 26.946-23.455-22.465-53.151-75.085-90.448-136.417-90.448-54.658 0-102.393 29.623-128.034 73.689-14.099 24.23-9.883 54.965 9.939 74.788 17.232 17.233 45.172 17.233 62.404 0z" fill="url(#SVGID_5_)"/><g><path d="m174.737 176.263-16.269 16.269c-3.373 3.373-7.16 6.076-11.192 8.128 16.571 8.434 37.353 5.731 51.212-8.128l16.269-16.269c18.489-18.489 41.753-29.98 66.186-34.038-37.947-6.314-77.736 5.569-106.206 34.038z" fill="url(#SVGID_6_)"/><path d="m390.596 134.504c-22.465-53.151-75.085-90.448-136.417-90.448-6.82 0-13.531.462-20.106 1.354 52.637 7.08 96.513 41.798 116.503 89.094 2.485 5.879 1.823 11.668-.748 16.307 4.706 2.065 9.323 4.446 13.822 7.148 15.6 9.366 34.03-6.695 26.946-23.455z" fill="url(#SVGID_7_)"/></g><g><ellipse cx="197.059" cy="72.216" fill="url(#SVGID_8_)" rx="7.75" ry="4.922"/><ellipse cx="216.49" cy="59.515" fill="url(#SVGID_9_)" rx="7.75" ry="4.922"/><ellipse cx="280.49" cy="72.216" fill="url(#SVGID_8_)" rx="7.75" ry="4.922"/><ellipse cx="307.746" cy="64.437" fill="url(#SVGID_11_)" rx="7.75" ry="4.922"/><ellipse cx="236.95" cy="77.138" fill="url(#SVGID_12_)" rx="7.75" ry="4.922"/><ellipse cx="255.035" cy="62.373" fill="url(#SVGID_13_)" rx="7.75" ry="4.922"/><ellipse cx="277.512" cy="52.178" fill="url(#SVGID_14_)" rx="7.75" ry="4.922"/></g></g><g><g><circle cx="136.336" cy="374.927" fill="url(#SVGID_15_)" r="134.803"/></g><g><path d="m163.479 378.015c0-7.272-5.895-13.167-13.167-13.167s-13.167 5.895-13.167 13.167 5.895 13.167 13.167 13.167 13.167-5.895 13.167-13.167z" fill="url(#SVGID_16_)"/><circle cx="132.227" cy="446.985" fill="url(#SVGID_17_)" r="25.062"/><path d="m136.336 240.124c-7.368 0-14.595.6-21.642 1.738 12.23 1.974 23.907 5.597 34.8 10.627-4.314-.386-8.699-.589-13.158-.589-49.159 0-92.708 23.971-119.63 60.852-6.521 12.522-11.133 26.195-13.452 40.636-2.643 16.459 2.198 33.406 13.605 45.561.452.482.913.958 1.383 1.427 17.232 17.232 45.172 17.232 62.404 0l16.269-16.269c29.931-29.931 72.372-41.524 112.03-32.913 11.051 2.399 18.903 12.237 18.911 23.545v.188c0 5.84-.38 11.59-1.1 17.234-1.859-.76-3.926-1.116-6.098-.932-6.505.55-11.743 6.003-12.03 12.524-.32 7.276 5.27 13.303 12.37 13.722-15.614 46.968-56.365 82.457-106.303 90.517 7.047 1.138 14.274 1.738 21.642 1.738 74.45 0 134.803-60.353 134.803-134.803-.001-74.449-60.354-134.803-134.804-134.803z" fill="url(#SVGID_18_)"/></g><path d="m80.646 375.365 16.269-16.269c39.549-39.549 100.943-47.097 148.893-18.305 15.6 9.367 34.03-6.695 26.946-23.455-22.465-53.151-75.085-90.448-136.417-90.448-54.658 0-102.393 29.623-128.034 73.689-14.099 24.23-9.883 54.965 9.939 74.788 17.232 17.232 45.171 17.232 62.404 0z" fill="url(#SVGID_19_)"/><g><path d="m56.894 359.096-16.269 16.269c-3.373 3.373-7.16 6.076-11.192 8.128 16.571 8.434 37.353 5.731 51.212-8.128l16.269-16.269c18.489-18.489 41.753-29.98 66.186-34.038-37.946-6.315-77.736 5.568-106.206 34.038z" fill="url(#SVGID_20_)"/><path d="m272.753 317.336c-22.465-53.151-75.085-90.448-136.417-90.448-6.82 0-13.531.462-20.106 1.354 52.637 7.08 96.513 41.798 116.503 89.094 2.485 5.879 1.823 11.668-.748 16.307 4.706 2.065 9.323 4.446 13.822 7.148 15.6 9.367 34.03-6.695 26.946-23.455z" fill="url(#SVGID_21_)"/></g><g><ellipse cx="79.217" cy="255.049" fill="url(#SVGID_22_)" rx="7.75" ry="4.922"/><ellipse cx="98.648" cy="242.347" fill="url(#SVGID_23_)" rx="7.75" ry="4.922"/><ellipse cx="162.648" cy="255.049" fill="url(#SVGID_22_)" rx="7.75" ry="4.922"/><ellipse cx="189.903" cy="247.269" fill="url(#SVGID_25_)" rx="7.75" ry="4.922"/><ellipse cx="119.107" cy="259.97" fill="url(#SVGID_26_)" rx="7.75" ry="4.922"/><ellipse cx="137.193" cy="245.205" fill="url(#SVGID_27_)" rx="7.75" ry="4.922"/><ellipse cx="159.669" cy="235.01" fill="url(#SVGID_28_)" rx="7.75" ry="4.922"/></g></g><g><g><circle cx="372.021" cy="374.927" fill="url(#SVGID_29_)" r="134.803"/></g><g><path d="m399.164 378.015c0-7.272-5.895-13.167-13.167-13.167s-13.167 5.895-13.167 13.167 5.895 13.167 13.167 13.167 13.167-5.895 13.167-13.167z" fill="url(#SVGID_30_)"/><circle cx="367.912" cy="446.985" fill="url(#SVGID_31_)" r="25.062"/><path d="m372.021 240.124c-7.368 0-14.595.6-21.642 1.738 12.23 1.974 23.906 5.597 34.8 10.627-4.314-.386-8.699-.589-13.158-.589-49.159 0-92.708 23.971-119.63 60.852-6.521 12.522-11.133 26.195-13.452 40.636-2.643 16.459 2.198 33.406 13.605 45.561.452.482.913.958 1.383 1.427 17.232 17.232 45.172 17.232 62.404 0l16.269-16.269c29.931-29.931 72.372-41.524 112.03-32.913 11.051 2.399 18.903 12.237 18.911 23.545v.188c0 5.84-.38 11.59-1.1 17.234-1.859-.76-3.926-1.116-6.098-.932-6.505.55-11.743 6.003-12.03 12.524-.32 7.276 5.27 13.303 12.37 13.722-15.614 46.968-56.365 82.457-106.303 90.517 7.047 1.138 14.274 1.738 21.642 1.738 74.45 0 134.803-60.353 134.803-134.803-.001-74.449-60.354-134.803-134.804-134.803z" fill="url(#SVGID_32_)"/></g><path d="m316.331 375.365 16.269-16.269c39.549-39.549 100.943-47.097 148.893-18.305 15.6 9.367 34.03-6.695 26.946-23.455-22.465-53.151-75.085-90.448-136.417-90.448-54.658 0-102.393 29.623-128.034 73.689-14.099 24.23-9.883 54.965 9.939 74.788 17.232 17.232 45.171 17.232 62.404 0z" fill="url(#SVGID_33_)"/><g><path d="m292.58 359.096-16.269 16.269c-3.373 3.373-7.16 6.076-11.192 8.128 16.571 8.434 37.353 5.731 51.212-8.128l16.269-16.269c18.489-18.489 41.753-29.98 66.186-34.038-37.947-6.315-77.737 5.568-106.206 34.038z" fill="url(#SVGID_34_)"/><g><ellipse cx="350.519" cy="247.269" fill="url(#SVGID_35_)" rx="14.609" ry="9.278"/><path d="m508.438 317.336c-22.465-53.151-75.085-90.448-136.417-90.448-6.82 0-13.531.462-20.106 1.354 52.637 7.08 96.512 41.798 116.503 89.093 2.485 5.879 1.823 11.668-.748 16.307 4.706 2.065 9.323 4.446 13.823 7.148 15.6 9.368 34.03-6.694 26.945-23.454z" fill="url(#SVGID_36_)"/></g></g><g><ellipse cx="314.902" cy="255.049" fill="url(#SVGID_37_)" rx="7.75" ry="4.922"/><ellipse cx="334.333" cy="242.347" fill="url(#SVGID_38_)" rx="7.75" ry="4.922"/><ellipse cx="398.333" cy="255.049" fill="url(#SVGID_37_)" rx="7.75" ry="4.922"/><ellipse cx="425.588" cy="247.269" fill="url(#SVGID_40_)" rx="7.75" ry="4.922"/><ellipse cx="354.793" cy="259.97" fill="url(#SVGID_41_)" rx="7.75" ry="4.922"/><ellipse cx="372.878" cy="245.205" fill="url(#SVGID_42_)" rx="7.75" ry="4.922"/><ellipse cx="395.355" cy="235.01" fill="url(#SVGID_43_)" rx="7.75" ry="4.922"/></g></g></g><path d="m351.395 250.014c-3.514-2.192-4.586-6.818-2.394-10.333l147.135-235.88c2.192-3.514 6.818-4.586 10.333-2.394 3.514 2.192 4.586 6.818 2.394 10.332l-147.135 235.881c-2.192 3.514-6.818 4.586-10.333 2.394z" fill="url(#SVGID_44_)"/></g></svg>